<svg width="120" height="33" viewBox="0 0 120 33" fill="none" xmlns="http://www.w3.org/2000/svg"><path d="M0 24.516V.27h7.121c1.457 0 2.634.27 3.531.809.918.538 1.586 1.327 2.005 2.364.439 1.018.658 2.256.658 3.712 0 1.577-.269 2.854-.808 3.832-.538.958-1.296 1.656-2.274 2.095-.957.44-2.094.659-3.41.659H4.427v10.776H0zm4.428-13.89h1.676c.798 0 1.416-.109 1.855-.329.46-.239.768-.608.928-1.107.18-.519.27-1.207.27-2.066 0-.878-.07-1.586-.21-2.125-.12-.559-.4-.968-.838-1.227-.42-.26-1.087-.39-2.005-.39H4.428v7.245zm17.934 14.22c-1.715 0-3.082-.32-4.1-.958-1.017-.639-1.745-1.557-2.184-2.754-.438-1.198-.658-2.614-.658-4.25V7.812c0-1.637.22-3.033.658-4.19.44-1.178 1.167-2.076 2.185-2.695C19.28.309 20.646 0 22.362 0c1.755 0 3.132.31 4.13.928 1.017.619 1.745 1.517 2.184 2.694.458 1.158.688 2.554.688 4.19v9.101c0 1.616-.23 3.023-.688 4.22-.44 1.178-1.167 2.096-2.185 2.755-.997.638-2.374.958-4.129.958zm0-3.263c.738 0 1.277-.16 1.616-.48.359-.319.598-.758.718-1.316a8.72 8.72 0 00.18-1.826V6.795c0-.678-.06-1.287-.18-1.826-.12-.539-.36-.958-.718-1.257-.34-.32-.878-.48-1.616-.48-.698 0-1.227.16-1.586.48-.359.3-.598.718-.718 1.257a8.453 8.453 0 00-.18 1.826v11.166c0 .658.05 1.267.15 1.826.12.559.36.998.718 1.317.36.32.898.479 1.616.479zm16.801 3.263c-1.776 0-3.172-.35-4.19-1.048-.997-.698-1.695-1.646-2.094-2.844-.4-1.217-.598-2.614-.598-4.19V8.111c0-1.656.199-3.093.598-4.31.399-1.218 1.097-2.156 2.094-2.814C35.991.329 37.387 0 39.163 0c1.675 0 2.982.29 3.92.868.957.559 1.635 1.367 2.034 2.425.399 1.057.598 2.285.598 3.682V9.01h-4.248V6.915c0-.679-.04-1.297-.12-1.856-.06-.559-.25-.998-.569-1.317-.299-.34-.828-.51-1.586-.51-.758 0-1.316.18-1.675.54-.34.339-.559.808-.659 1.407-.1.578-.15 1.237-.15 1.975v10.537c0 .878.07 1.607.21 2.186.14.558.39.987.748 1.287.38.28.888.419 1.526.419.739 0 1.257-.17 1.556-.51.32-.358.519-.827.599-1.406.08-.579.12-1.227.12-1.946v-2.185h4.248v1.946c0 1.437-.19 2.714-.568 3.831a5.015 5.015 0 01-2.005 2.605c-.937.618-2.264.928-3.98.928zm9.636-.33V.27h4.428v10.657L58.015.27h4.218l-4.637 10.837 5.116 13.41h-4.398l-4.07-11.045-1.017 1.855v9.19h-4.428zm15.925 0V.27h10.173v3.114h-5.745v6.974h4.519v3.084h-4.519v8.022h5.805v3.053H64.724zm15.222 0V3.532h-3.86V.27h12.089v3.263h-3.8v20.984h-4.429zm17.829 0V.27h4.369v24.247h-4.369zm8.121 0V.27h7.121c1.456 0 2.633.27 3.531.809.918.538 1.586 1.327 2.005 2.364.439 1.018.658 2.256.658 3.712 0 1.577-.269 2.854-.808 3.832-.538.958-1.296 1.656-2.274 2.095-.957.44-2.094.659-3.411.659h-2.394v10.776h-4.428zm4.428-13.89H112c.798 0 1.416-.109 1.855-.329a1.83 1.83 0 00.928-1.107c.179-.519.269-1.207.269-2.066 0-.878-.07-1.586-.21-2.125-.119-.559-.398-.968-.837-1.227-.419-.26-1.087-.39-2.005-.39h-1.676v7.245z" fill="#05043E"/><path d="M.312 32H120" stroke="red" stroke-width="2"/></svg>