<svg fill="none" height="645" viewBox="0 0 650 645" width="650" xmlns="http://www.w3.org/2000/svg" xmlns:xlink="http://www.w3.org/1999/xlink"><clipPath id="a"><path d="M0 0h650v645H0z"/></clipPath><g clip-path="url(#a)"><path d="M92.43 518.249v-46.964a48.282 48.282 0 0126.411 7.835c7.829 5.112 13.95 12.384 17.598 20.905a46.297 46.297 0 012.907 26.996c-1.752 9.084-6.188 17.457-12.754 24.071-6.565 6.614-14.968 11.174-24.155 13.109a48.46 48.46 0 01-27.492-2.231c-8.741-3.389-16.272-9.242-21.648-16.825a46.475 46.475 0 01-8.575-25.802z" fill="#e0e0e0"/><path d="M80.802 505.586l-47.736 1.065c-.003-12.552 4.83-24.639 13.523-33.824 8.895-8.78 20.878-13.861 33.472-14.192zM592.139 61.002l35.781-5.371a35.115 35.115 0 01-3.515 21.504c-3.426 6.63-8.876 12.039-15.584 15.465A36.69 36.69 0 01587 96.24c-7.481-1.059-14.437-4.398-19.892-9.547-5.455-5.149-9.134-11.85-10.52-19.162-1.387-7.312-.412-14.868 2.788-21.607s8.464-12.322 15.053-15.966 14.173-5.166 21.686-4.351z" fill="#f5f5f5"/><path d="M603.752 25.72l-4.346 27.289 27.231-5.035s-4.004-15.285-22.885-22.255zM63.261 41.145H43.44v77.914h19.82zm29.141 16.996H72.58v60.918H92.4zm29.596 13.911h-19.821v47.007h19.821zM149.4 91.138h-19.821v27.906H149.4z" fill="#e0e0e0"/><path d="M386.402 324.978a42.864 42.864 0 017.138-24.154c4.752-7.181 11.559-12.816 19.561-16.194a44.744 44.744 0 0125.405-2.785c8.562 1.562 16.461 5.585 22.703 11.561 6.241 5.975 10.543 13.637 12.364 22.016a42.733 42.733 0 01-2.132 25.068c-3.212 7.966-8.749 14.816-15.913 19.688a44.563 44.563 0 01-24.339 7.684c-11.713.142-23.006-4.292-31.401-12.331-8.396-8.039-13.21-19.026-13.386-30.553zm65.149-1.037a20.51 20.51 0 00-3.79-11.436 21.015 21.015 0 00-9.603-7.442 21.395 21.395 0 00-12.185-.946 21.176 21.176 0 00-10.669 5.87 20.622 20.622 0 00-5.564 10.71c-.739 4.032-.248 8.19 1.412 11.948s4.413 6.948 7.913 9.168a21.328 21.328 0 0011.753 3.303c2.775-.049 5.512-.636 8.056-1.727s4.845-2.665 6.77-4.632a20.725 20.725 0 004.452-6.829 20.485 20.485 0 001.455-7.987z" fill="#f5f5f5"/><path d="M386.402 324.978c-.199-11.527 4.256-22.661 12.388-30.96 8.131-8.3 19.275-13.087 30.988-13.311l.37 22.746c-5.537.198-10.774 2.524-14.588 6.479-3.815 3.955-5.902 9.223-5.814 14.675s2.343 10.653 6.282 14.487c3.94 3.834 9.249 5.996 14.79 6.022l.37 22.746a44.787 44.787 0 01-16.955-3.079 44.258 44.258 0 01-14.466-9.231 43.48 43.48 0 01-9.774-13.978 42.889 42.889 0 01-3.591-16.596z" fill="#e0e0e0"/><path d="M425.816 277.215a51.075 51.075 0 0119.593 3.411 50.46 50.46 0 0116.721 10.612 49.54 49.54 0 0111.239 16.158 48.874 48.874 0 014.003 19.181l-26.904.435c-.228-13.435-10.616-21.905-24.224-21.694z" fill="#ebebeb"/><path d="M622.577 611.953c0 .211-132.637.365-296.237.365-163.601 0-296.28-.154-296.28-.365 0-.21 132.622-.364 296.28-.364 163.657 0 296.237.168 296.237.364z" fill="#212121"/><path d="M377.823 258.339l-6.241 8.751-1.696 7.011 6.356 8.975 12.055-7.292 10.502-10.153a1.845 1.845 0 00.199-2.454l-1.71-2.342.214-.491c.303-.66.362-1.404.166-2.103a3.113 3.113 0 00-1.234-1.725l-1.525-1.052 5.7-7.18c.397-.494.62-1.102.636-1.732a2.876 2.876 0 00-.551-1.76l-14.52 10.869-6.27-.127z" fill="#b78876"/><path d="M397.574 260.624a7.097 7.097 0 01-1.995 1.669c-.78.543-1.61 1.013-2.48 1.403a3.066 3.066 0 01-1.838.196c-.347-.08-.664-.253-.916-.501s-.428-.56-.509-.901a2.563 2.563 0 01.428-1.936 8.697 8.697 0 011.083-1.318l1.923-2.033a9.004 9.004 0 011.895-1.739 8.567 8.567 0 01-1.51 2.075l-1.795 2.132c-.684.785-1.511 1.669-1.311 2.664.051.224.167.428.334.587s.378.267.606.311c.477.108.976.064 1.425-.126a20.657 20.657 0 002.451-1.234 13.152 13.152 0 012.209-1.249z" fill="#aa6550"/><path d="M399.141 264.902s-.641.771-1.852 1.837a12.18 12.18 0 01-2.309 1.753 2.594 2.594 0 01-3.548-.757 2.165 2.165 0 01.228-2.02 9.327 9.327 0 011.054-1.402c.633-.72 1.34-1.373 2.109-1.949a6.234 6.234 0 012.309-1.291 20.933 20.933 0 01-1.981 1.683 17.83 17.83 0 00-1.924 1.992 9.298 9.298 0 00-.94 1.276 1.582 1.582 0 00-.2 1.402 1.518 1.518 0 001.169.743c.493.046.988-.051 1.425-.28a12.74 12.74 0 002.28-1.543 8.709 8.709 0 012.18-1.444zm-17.242 5.161a10.962 10.962 0 001.881-2.525c.479-1.051.699-2.2.641-3.351a6.704 6.704 0 00-1.126-4.011l-.555-.715.897.154c.808.126 1.63.126 2.437 0a7.184 7.184 0 003.135-1.276 3.789 3.789 0 001.51-2.426l.314.336c-2.152-.07-3.933-.14-5.187-.21a7.867 7.867 0 01-1.952-.224 8.056 8.056 0 011.966-.155h5.515v.337a4.155 4.155 0 01-.548 1.626c-.294.5-.69.934-1.162 1.277a7.503 7.503 0 01-3.448 1.402 7.744 7.744 0 01-2.665 0l.328-.561a7.031 7.031 0 011.197 4.446 7.362 7.362 0 01-.841 3.548 6.29 6.29 0 01-1.553 1.879c-.428.35-.713.477-.784.449z" fill="#aa6550"/><path d="M319.898 207.686a4.037 4.037 0 01-.256-1.865 5.027 5.027 0 01.741-2.061 14.564 14.564 0 011.938-2.286 12.408 12.408 0 002.308-2.973 10.496 10.496 0 00.456-8.863 28.926 28.926 0 00-2.408-4.459 20.91 20.91 0 01-2.237-4.376 8.1 8.1 0 01-.357-4.403c.613-2.805 2.181-5.104 2.85-7.278a8.41 8.41 0 00.399-5.329 5.147 5.147 0 00-.627-1.402c-.199-.281-.327-.407-.356-.393.294.574.528 1.175.698 1.795a8.608 8.608 0 01-.612 5.077c-.77 2.075-2.38 4.305-3.093 7.32a8.847 8.847 0 00.328 4.768 22.34 22.34 0 002.294 4.543 29.582 29.582 0 012.38 4.334c.577 1.395.826 2.9.727 4.403a10.148 10.148 0 01-1.055 3.912 12.605 12.605 0 01-2.137 2.889 13.306 13.306 0 00-1.91 2.44 5.153 5.153 0 00-.684 2.244c-.022.481.065.96.257 1.402.199.421.342.575.356.561zm-40.269-11.359a6.76 6.76 0 01-2.35 3.098 6.925 6.925 0 01-3.692 1.32 8.362 8.362 0 01-3.861-.812 8.214 8.214 0 01-3.036-2.484 10.18 10.18 0 01-1.881-7.446c.254-1.146.336-2.323.242-3.492-.285-1.655-1.61-2.973-2.123-4.572-.926-2.888 1.069-6.1 3.833-7.432a14.048 14.048 0 019.049-.491" fill="#212121"/><path d="M320.81 160.119c2.85 2.553 2.052 6.157.912 8.625s-2.522 4.978-2.394 7.699c.129 2.72 1.81 5.188 2.736 7.811a14.626 14.626 0 01-.228 10.265c-.983 2.454-2.622 4.599-3.619 7.011-.998 2.413-1.24 5.47.427 7.531a4.86 4.86 0 01-2.057-.824 4.757 4.757 0 01-1.462-1.644 9.096 9.096 0 01-1.04-4.207c-.2-5.609 2.208-11.149 1.211-16.646-.584-3.197-2.294-6.198-2.266-9.438.029-3.239 1.81-6.212 3.035-9.241 1.226-3.029 1.853-6.745-.171-9.326" fill="#212121"/><path d="M313.5 149.924c1.691.061 3.343.508 4.827 1.306a10.832 10.832 0 013.723 3.294 6.919 6.919 0 011.095 4.723 6.977 6.977 0 01-2.278 4.294c-2.508 1.935-6.227 1.557-9.005 0a10.269 10.269 0 01-4.632-5.034 7.155 7.155 0 01.656-6.633c.668-.959 1.621-1.689 2.729-2.091s2.315-.456 3.455-.153" fill="#212121"/><path d="M316.222 149.433a14.813 14.813 0 00-3.937-5.018 15.115 15.115 0 00-5.71-2.933 25.29 25.29 0 00-12.825.098 74.18 74.18 0 00-12.141 4.502 27.377 27.377 0 00-8.108 4.698 18.165 18.165 0 00-4.617 7.895c-1.71 5.525-1.567 9.48 1.098 14.626 1.168 2.23.47 4.838 1.524 7.124 1.055 2.286 5.501 4.838 4.275 7.012" fill="#212121"/><path d="M307.145 218.667c.157-11.219.143-15.426.157-15.426s9.818-1.627 11.813-14.234c.997-6.268.655-16.561.1-24.961-.499-7.559-5.615-16.828-13.267-16.015l-23.911 6.002a4.512 4.512 0 00-2.903 1.478 4.371 4.371 0 00-1.115 3.024v60.104" fill="#b78876"/><path d="M316.35 172.67c.001.421-.163.826-.457 1.131a1.68 1.68 0 01-1.124.509 1.585 1.585 0 01-1.143-.356 1.531 1.531 0 01-.553-1.046c-.008-.42.152-.827.445-1.134a1.647 1.647 0 011.122-.506c.415-.032.825.097 1.145.359.319.262.522.636.565 1.043zm.613-4.067c-.2.21-1.425-.701-3.221-.687-1.795.014-3.063.883-3.248.673-.186-.21.114-.477.669-.883a4.59 4.59 0 012.608-.8 4.325 4.325 0 012.565.814c.541.406.727.785.627.883zm-17.356 4.067c.004.422-.159.829-.454 1.135s-.7.487-1.128.505c-.413.031-.822-.098-1.139-.36s-.517-.636-.557-1.042c-.004-.422.159-.829.454-1.135s.7-.487 1.128-.505c.413-.031.822.098 1.139.36s.517.636.557 1.042zm-.029-2.889c-.199.21-1.425-.701-3.22-.687-1.796.014-3.064.883-3.249.673s.114-.477.67-.883a4.58 4.58 0 012.607-.799 4.386 4.386 0 012.565.813c.542.406.727.785.627.883zm6.455 12.888a12.264 12.264 0 012.85-.519c.456 0 .884-.126.955-.435a2.327 2.327 0 00-.299-1.318l-1.354-3.38a57.93 57.93 0 01-3.007-8.849 59.93 59.93 0 013.734 8.583c.446 1.196.874 2.332 1.282 3.407.285.534.371 1.15.242 1.739a1.16 1.16 0 01-.741.659c-.251.063-.51.096-.769.099-.96.123-1.932.127-2.893.014z" fill="#212121"/><path d="M307.301 203.255a32.937 32.937 0 01-17.17-4.46s4.346 8.653 17.17 7.447z" fill="#aa6550"/><path d="M300.362 164.677c-.185.476-1.952.252-4.018.504-2.067.253-3.748.814-4.033.393-.114-.21.171-.645.841-1.108a7.239 7.239 0 016.127-.687c.769.295 1.154.673 1.083.898zm15.988-.295c-.313.392-1.539 0-3.007 0-1.467 0-2.693.266-2.992-.14-.299-.407.071-.603.613-.982a4.33 4.33 0 012.436-.645 4.17 4.17 0 012.394.785c.471.379.642.785.556.982z" fill="#212121"/><path d="M305.278 186.679a3.025 3.025 0 00-1.191-.88 3.068 3.068 0 00-1.474-.213 2.863 2.863 0 00-1.881.995 1.683 1.683 0 00-.114 1.935c.263.291.609.498.992.593.384.095.788.074 1.16-.06a6.257 6.257 0 002.109-1.234c.188-.131.348-.298.47-.491a.527.527 0 000-.603" fill="#aa6550"/><path d="M301.117 183.889c.271 0 .271 1.752 1.81 3s3.434 1.052 3.448 1.29-.413.35-1.225.364a4.46 4.46 0 01-2.85-.981 3.81 3.81 0 01-1.425-2.51c-.086-.729.114-1.163.242-1.163zm15.504-31.034c-.613 3.983-7.011 4.642-11.044 3.871-1.346 1.694-3.103 3.028-5.11 3.878s-4.199 1.19-6.375.988a3.688 3.688 0 00-1.753.07c-.544.314-1 .757-1.325 1.29a11.42 11.42 0 01-6.968 4.291c-.308 1.995-1.214 3.854-2.603 5.338s-3.197 2.526-5.192 2.992c0 0-1.325-.645-.855-5.735.234-5.234.201-10.476-.099-15.707l13.979-6.324 16.772-3.085s11.613 1.318 10.573 8.133z" fill="#212121"/><path d="M270.196 173.89c.118-1.217.41-2.411.869-3.548a8.774 8.774 0 012.536-3.323 9.308 9.308 0 014.959-2.062h.214v-.224a11.092 11.092 0 013.32-5.778c.928-.842 2.084-1.402 3.328-1.611s2.524-.059 3.683.433l.399.197.142-.421.157-.449c.661-1.693 1.781-3.175 3.238-4.285s3.196-1.806 5.027-2.011a10.439 10.439 0 012.479.07 5.92 5.92 0 002.523-.126 4.612 4.612 0 001.909-1.403 7.817 7.817 0 011.425-1.402 7.23 7.23 0 015.785-1.094c.731.203 1.437.481 2.109.828 0 0-.142-.155-.47-.393a6.328 6.328 0 00-1.567-.715 7.305 7.305 0 00-6.185.953c-1.182.729-1.881 2.202-3.22 2.651-1.34.448-3.05-.267-4.873 0-1.971.204-3.846.941-5.418 2.129s-2.779 2.781-3.489 4.602l-.171.491.542-.225a7.344 7.344 0 00-4.115-.507 7.28 7.28 0 00-3.722 1.798 11.541 11.541 0 00-3.463 6.184l.271-.253a9.739 9.739 0 00-5.23 2.3 9.133 9.133 0 00-3.092 6.269c-.02.312.014.624.1.925z" fill="#455a64"/><path d="M292.325 160.526a2.86 2.86 0 001.069.35c.999.196 2.021.248 3.035.155a12.524 12.524 0 004.86-1.415 12.308 12.308 0 003.875-3.213l-.47.112.413.182a9.787 9.787 0 005.7.533 9.447 9.447 0 004.189-2.103 8.609 8.609 0 001.953-2.44c.217-.325.353-.694.399-1.08a15.09 15.09 0 01-2.694 3.113 9.096 9.096 0 01-3.989 1.837 9.47 9.47 0 01-5.301-.533l-.385-.182-.285-.126-.185.238a12.602 12.602 0 01-8.18 4.572 25.731 25.731 0 01-4.004 0z" fill="#455a64"/><path d="M299.55 153.065c0 .225 1.881 0 4.061.575s3.776 1.402 3.904 1.22a6.214 6.214 0 00-3.733-1.949 6.34 6.34 0 00-4.232.154zm4.845-.407c.171.127.826-.406 1.653-.981.826-.575 1.539-1.038 1.425-1.234s-.998 0-1.91.631-1.325 1.458-1.168 1.584zm-19.907 7.335c.071.196 1.696-.323 3.748-.253s3.634.645 3.719.449a6.897 6.897 0 00-3.704-1.192 6.909 6.909 0 00-3.763.996zm-3.548 6.745a9.726 9.726 0 005.201-.673 9.51 9.51 0 004.489-2.678c-.129-.169-2.081 1.065-4.746 1.977-2.664.911-4.958 1.163-4.944 1.374zm-8.764 4.824a26.403 26.403 0 013.334-1.837 24.33 24.33 0 013.762-.645c-.626-.3-1.313-.455-2.009-.455s-1.383.155-2.009.455c-2.209.715-3.249 2.412-3.078 2.482zm.256-18.104s.214-.421.67-1.094a7.558 7.558 0 012.579-2.229 25.214 25.214 0 0111.186-2.469c3.887.016 7.757.52 11.514 1.501 2.85.715 4.688 1.262 4.717 1.15a4.456 4.456 0 00-1.183-.533 43.953 43.953 0 00-3.391-1.122 40.214 40.214 0 00-11.671-1.739 23.53 23.53 0 00-11.4 2.805 6.947 6.947 0 00-2.565 2.524c-.25.359-.406.773-.456 1.206z" fill="#455a64"/><path d="M271.392 160.287a21.007 21.007 0 011.981-3.548 15.54 15.54 0 018.08-5.301 29.308 29.308 0 019.875-.743 37.35 37.35 0 004.175.281 17.761 17.761 0 00-4.118-.8 26.142 26.142 0 00-10.146.547 15.169 15.169 0 00-8.308 5.708 9.77 9.77 0 00-1.339 2.804 2.79 2.79 0 00-.2 1.052zm48.008 5.274a4.545 4.545 0 002.365-1.739 7.48 7.48 0 001.623-3.217 7.41 7.41 0 00-.078-3.591 7.485 7.485 0 00-1.763-3.145 7.652 7.652 0 00-3.045-1.981 4.66 4.66 0 00-2.95-.337c.931.206 1.845.477 2.736.814a7.419 7.419 0 012.714 1.928c.743.838 1.283 1.831 1.577 2.905s.335 2.2.12 3.292-.681 2.121-1.361 3.009a22.74 22.74 0 01-1.938 2.062z" fill="#455a64"/><path d="M267.103 185.361c.072-.126-1.268-.715-3.177-1.963a9.287 9.287 0 01-2.736-2.805 4.916 4.916 0 01-.471-4.417 6.003 6.003 0 013.107-3.324 7.024 7.024 0 013.819-.448c1.206.253 2.371.669 3.463 1.234 0 0-.228-.309-.77-.687a7.727 7.727 0 00-2.593-1.066 7.233 7.233 0 00-4.204.336 6.585 6.585 0 00-2.151 1.496 6.476 6.476 0 00-1.383 2.206 5.545 5.545 0 00.584 5.035 9.082 9.082 0 003.05 2.805c.794.475 1.629.883 2.493 1.22.599.322.941.42.969.378zm-.627.098a4.39 4.39 0 00-.527 1.122 27.033 27.033 0 00-1.012 3.198 16.576 16.576 0 00-.527 4.992 10.6 10.6 0 002.066 5.834 7.763 7.763 0 002.421 2.075c.944.52 1.988.839 3.065.94.885.075 1.775-.058 2.597-.387s1.554-.845 2.134-1.506a4.924 4.924 0 001.325-3.142 2.245 2.245 0 00-.228-1.234c-.071 0 0 .449-.071 1.206a5.143 5.143 0 01-1.962 3.309 5.307 5.307 0 01-3.738 1.067c-.974-.114-1.915-.421-2.765-.903s-1.592-1.129-2.18-1.902a10.32 10.32 0 01-1.966-5.427 17.17 17.17 0 01.356-4.838c.599-2.693 1.169-4.361 1.012-4.404z" fill="#212121"/><path d="M284.246 167.229c1.724 2.959.741 6.703-.67 9.816-1.411 3.114-3.277 6.199-3.206 9.606.1 5.708 5.557 10.448 5.158 16.141a8.425 8.425 0 01-1.897 4.635 8.654 8.654 0 01-4.216 2.784c2.636-1.964 2.665-5.932 1.425-8.947s-6.74-10.854-7.666-14.024c-3.064-10.489-2.081-11.779 1.425-15.734" fill="#212121"/><path d="M274.271 175.376c0 .099.769.225 2.009 0a8.37 8.37 0 004.257-2.323 8.149 8.149 0 002.212-4.268c.214-1.22 0-1.977 0-1.977-.206.61-.368 1.233-.484 1.865a8.92 8.92 0 01-2.238 3.858 9.139 9.139 0 01-3.847 2.327c-.648.128-1.286.302-1.909.518z" fill="#455a64"/><path d="M280.569 206.761s.143-.07.371-.266c.323-.288.61-.613.855-.968a7.163 7.163 0 001.211-4.571 6.643 6.643 0 00-1.026-3.17 14.772 14.772 0 00-2.565-2.804 10.665 10.665 0 01-2.522-3.072 9.235 9.235 0 01-1.012-4.052 8.735 8.735 0 01.955-4.067 22.792 22.792 0 012.237-3.366 23.877 23.877 0 003.577-6.016c.591-1.474.9-3.043.912-4.627a5.33 5.33 0 00-.228-1.725 15.654 15.654 0 01-1.183 6.156 24.682 24.682 0 01-3.648 5.792 22.142 22.142 0 00-2.323 3.463 9.305 9.305 0 00-1.054 4.39 9.697 9.697 0 001.111 4.389 11.108 11.108 0 002.694 3.239c.952.763 1.8 1.645 2.522 2.623.57.863.917 1.85 1.012 2.875a7.247 7.247 0 01-.912 4.375c-.556.939-1.026 1.36-.984 1.402z" fill="#455a64"/><path d="M272.988 175.054s-.327.197-.755.701a8.562 8.562 0 00-1.425 2.426 12.922 12.922 0 00.114 9.088 22.6 22.6 0 005.13 7.614 13.94 13.94 0 002.85 2.496 30.662 30.662 0 00-2.48-2.804 25.317 25.317 0 01-4.802-7.503 13.448 13.448 0 01-.327-8.666 18.15 18.15 0 011.695-3.352z" fill="#455a64"/><path d="M370.086 267.258l-10.73 5.006-13.537 7.166c-5.615-16.169-5.372-33.403-7.382-39.938-6.312-20.531-17.997-22.326-17.997-22.326v.169a4.26 4.26 0 00-1.097-.561l-9.861-3.015-.313-5.273-33.331.771-.285 6.619-10.502 1.725a20.9 20.9 0 00-8.992 3.623 20.479 20.479 0 00-6.326 7.259c-.214.407-.399.842-.584 1.276-6.869 16.576-21.902 53.051-23.071 56.907-4.046 13.505 10.531 25.355 23.256 22.592a74.22 74.22 0 007.367-2.805c-.03 1.658.298 3.304.964 4.827s1.654 2.89 2.898 4.008a5.965 5.965 0 003.633 1.753l61.117.351c1.653 0 3.392-1.403 4.788-2.903a14.311 14.311 0 008.878.631c5.287-1.052 10.801-3.983 12.084-5.245l30.993-28.692zm-107.115 9.171l-.556 2.637-3.405.224 4.032-13.252v9.578c.005.273-.018.545-.071.813z" fill="#d80202"/><path d="M278.802 278l-1.425.14-4.161.365-14.121 1.135h-.556l.185-.518c.442-1.305.869-2.651 1.311-4.053 1.91-6.283 3.534-12.032 4.845-16.141a134.79 134.79 0 011.624-4.852 7.557 7.557 0 01.741-1.739c-.1.62-.258 1.23-.47 1.823-.37 1.304-.826 2.945-1.425 4.908-1.168 4.207-2.707 9.915-4.645 16.211-.428 1.403-.869 2.805-1.325 4.067l-.371-.477c5.7-.406 10.602-.715 14.15-.883 3.548-.169 5.7-.169 5.643.014zm6.854 15.089a7.933 7.933 0 01-1.425.827l-4.075 2.062c-3.449 1.711-8.123 4.207-13.409 6.885a75.674 75.674 0 01-14.136 5.413c-1.867.477-3.406.842-4.474 1.024a6.312 6.312 0 01-1.668.239c0-.113 2.309-.66 6-1.767a87.078 87.078 0 0013.95-5.61c5.258-2.608 9.975-5.09 13.509-6.689 1.753-.813 3.177-1.402 4.189-1.851a8.1 8.1 0 011.539-.533zm38.318-19.03c-.128-.07 1.14-1.837 2.365-5.062a27.633 27.633 0 001.568-13.126 68.14 68.14 0 00-1.511-7.236c-.555-2.216-1.026-4.207-1.268-5.96a24.013 24.013 0 01-.285-4.123 4.486 4.486 0 01.185-1.501c.106 1.879.31 3.752.613 5.61.314 1.682.827 3.674 1.425 5.875a56.883 56.883 0 011.582 7.321 26.172 26.172 0 01-1.81 13.406 22.766 22.766 0 01-1.924 3.66 5.12 5.12 0 01-.94 1.136zm.313 1.01a15.652 15.652 0 00-.841 6.633 22.863 22.863 0 001.896 7.012c1.068 2.552 2.564 5.231 3.932 8.162a26.31 26.31 0 012.622 8.75 12.615 12.615 0 01-1.425 7.32 9.647 9.647 0 01-3.42 3.731 6.57 6.57 0 01-1.253.603c-.3.098-.456.14-.471.112-.014-.028.599-.281 1.568-.954a9.971 9.971 0 003.12-3.73 12.443 12.443 0 001.169-7.012 26.49 26.49 0 00-2.608-8.498c-1.354-2.903-2.85-5.609-3.89-8.218a22.286 22.286 0 01-1.795-7.236 13.2 13.2 0 01.584-4.978c.134-.441.311-.868.527-1.276.171-.281.257-.421.285-.421zm.171-54.271c.567 1.699.766 3.495.585 5.273a12.443 12.443 0 01-.969 5.217 40.307 40.307 0 01.228-5.245 41.556 41.556 0 01.156-5.245zm16.829 77.199a7.937 7.937 0 01-.598-2.805 22.647 22.647 0 01.413-6.899 22.369 22.369 0 012.479-6.451 7.694 7.694 0 011.71-2.314 30.63 30.63 0 00-4.004 18.469zm-72.958-66.709c-.143 0-.143-.898-.77-2.16a11.627 11.627 0 00-3.619-4.081 12.308 12.308 0 00-4.973-2.314 8.476 8.476 0 00-.941-.084h-.712c-.2 0-.585.154-.613.112-.029-.042.142-.168.527-.392.251-.086.508-.152.77-.197a6.06 6.06 0 011.026 0 11.08 11.08 0 015.372 2.258 10.354 10.354 0 013.648 4.46c.37.744.47 1.59.285 2.398z" fill="#212121"/><path d="M267.288 275.167a66.879 66.879 0 01-1.653-17.235l-.541 1.052-2.052 7.012-.627 13.027 11.827-.504a13.95 13.95 0 00-6.954-3.352z" fill="#212121" opacity=".3"/><path d="M309.04 214.727a1.712 1.712 0 010 1.402 4.202 4.202 0 01-1.02 1.624 4.284 4.284 0 01-1.645 1.012 40.354 40.354 0 01-12.568 1.837 43.713 43.713 0 01-12.554-1.893 35.952 35.952 0 01-3.605-1.318 5.996 5.996 0 01-1.254-.645c0-.112 1.909.631 5.016 1.402a49.627 49.627 0 0012.397 1.655c4.182.039 8.35-.494 12.383-1.585.591-.157 1.138-.443 1.602-.836s.832-.884 1.077-1.435c.113-.398.171-.808.171-1.22z" fill="#212121"/><path d="M251.885 258.97a12.525 12.525 0 01-2.009-3.912 13.704 13.704 0 01-1.326-4.207 13.037 13.037 0 012.01 3.912 13.378 13.378 0 011.325 4.207zm-6.784 18.82a18.44 18.44 0 01-4.731 1.808c-1.578.609-3.24.987-4.93 1.122a18.19 18.19 0 014.717-1.809 17.507 17.507 0 014.944-1.121zm-1.639 19.184a11.868 11.868 0 01-.242-4.207c-.087-1.42.077-2.843.484-4.207.333 1.377.42 2.8.257 4.207a12.3 12.3 0 01-.499 4.207zm23.67-5.652a19.098 19.098 0 01-3.321-2.721 18.294 18.294 0 01-3.12-2.945 16.13 16.13 0 016.441 5.61zm16.7-9.831c.143.141-.755 1.318-2.023 2.636-1.269 1.318-2.409 2.272-2.565 2.131-.157-.14.755-1.317 2.023-2.635s2.408-2.272 2.565-2.132zm-23.355-47.412a26.701 26.701 0 01-7.41 4.668 25.893 25.893 0 017.41-4.668zm18.938-4.362a18.732 18.732 0 01-1.938-4.094 18.98 18.98 0 01-1.625-4.207 11.349 11.349 0 012.309 3.94 11.697 11.697 0 011.254 4.361zm1.753 23.35a13.03 13.03 0 01-4.361-2.244 12.58 12.58 0 01-3.691-3.198 23.876 23.876 0 014.104 2.595 23.472 23.472 0 013.948 2.847zm13.594 11.359a26.016 26.016 0 01-5.372 3.211 26.513 26.513 0 01-5.7 2.566 27.92 27.92 0 015.386-3.211 28.373 28.373 0 015.686-2.566zm6.37-13.617a11.09 11.09 0 01-1.283-3.773 10.647 10.647 0 01-.555-3.926 11.112 11.112 0 011.282 3.772 10.65 10.65 0 01.556 3.927zm17.242 12.915a13.73 13.73 0 01-2.394-3.801 13.886 13.886 0 01-1.724-4.137c1 1.137 1.809 2.425 2.394 3.815a14.525 14.525 0 011.724 4.123zm-2.437-37.105a14.009 14.009 0 01-3.477 2.902 14.507 14.507 0 01-3.904 2.3 27.746 27.746 0 017.381-5.202zm-16.102 1.063c-.185.099-.855-.897-1.425-2.215s-1.012-2.439-.827-2.523c.186-.085.855.897 1.497 2.215.641 1.318.94 2.439.755 2.523zm-9.704-14.007c0 .196-1.112.42-2.508.476-1.397.056-2.537 0-2.551-.252-.014-.253 1.112-.421 2.522-.477 1.411-.056 2.537.056 2.537.253zm11.271.223c-.157-.126.328-1.023 1.083-2.033.755-1.009 1.51-1.71 1.681-1.584s-.327 1.023-1.083 2.033c-.755 1.009-1.51 1.71-1.681 1.584zm31.107 28.707a13.227 13.227 0 01-.869-4.375 12.897 12.897 0 01-.128-4.446 27.609 27.609 0 01.997 8.821zm3.648 17.459c-.142.14-1.539-.981-2.85-2.678a8.267 8.267 0 01-1.995-3.38 50.651 50.651 0 014.902 6.058zm-5.101 17.88c.36-1.388.947-2.709 1.738-3.912a12.792 12.792 0 012.394-3.562 12.423 12.423 0 01-1.738 3.912 12.272 12.272 0 01-2.394 3.562zm6.142 25.999a17.168 17.168 0 01-2.138-4.599 18.136 18.136 0 01-1.425-4.866 17.168 17.168 0 012.138 4.599 18.136 18.136 0 011.425 4.866zm18.481-9.452a19.59 19.59 0 01-6.896-3.169 19.59 19.59 0 016.896 3.169zm10.389-9.746a9.218 9.218 0 01.199-4.445 9.416 9.416 0 011.582-4.207 23.908 23.908 0 01-.855 4.319 25.874 25.874 0 01-.926 4.333zm-61.118-6.31a12.392 12.392 0 011.425-3.997 12.132 12.132 0 012.181-3.688 12.764 12.764 0 01-1.511 3.997 12.353 12.353 0 01-2.095 3.688zm-29.539 33.249a11.362 11.362 0 01-2.707-3.071 11.613 11.613 0 01-2.124-3.492 11.85 11.85 0 012.722 3.071 11.573 11.573 0 012.109 3.492zm13.978-3.632a14.99 14.99 0 011.425-4.446 15.336 15.336 0 012.067-4.207 28.67 28.67 0 01-3.449 8.611zm22.586 3.884a15.472 15.472 0 01-8.264-4.557 29.465 29.465 0 014.132 2.285 31.45 31.45 0 014.132 2.272zm9.234-14.289a17.187 17.187 0 01-2.137-9.27c.518 1.502.9 3.046 1.14 4.614.468 1.521.802 3.079.997 4.656z" fill="#fafafa"/><path d="M256.915 309.006a15.123 15.123 0 0010.616.953 36.508 36.508 0 009.861-4.487 18.196 18.196 0 015.699-2.595 17.891 17.891 0 016.883.477c5.344 1.052 10.915 1.907 16.188.575 5.272-1.332 10.203-5.371 10.901-10.686.271-2.145-.456-4.74-2.537-5.427a19.292 19.292 0 00-4.275-1.192c-22.657 1.809-53.464 19.871-53.436 20.488" fill="#212121" opacity=".3"/><path d="M359.37 561.834l5.743 43.893-20.206 1.262-10.374-42.112z" fill="#b78876"/><path d="M343.026 598.477s15.446 7.951 21.089-1.403l2.351 3.885 12.07 28.341c.399.885.458 1.883.164 2.807s-.919 1.711-1.76 2.214a3.959 3.959 0 01-4.204-.225c-6.555-4.655-30.537-21.876-30.708-24.625l-.912-7.236c-.089-.732.045-1.473.385-2.13s.871-1.199 1.525-1.558z" fill="#d80202"/><path d="M376.27 634.531l-34.598-27.64.228 1.571c.085 1.739.94 2.314 1.909 3.295 2.85 2.917 10.673 9.27 28.813 22.283a3.945 3.945 0 003.648.491zm-30.808-32.927c.509.274.899.722 1.096 1.259a2.31 2.31 0 01-.027 1.657c-.256.515-.703.914-1.249 1.115s-1.15.188-1.686-.035a2.486 2.486 0 01-1.166-1.345 2.446 2.446 0 01.04-1.768 2.352 2.352 0 011.43-1.019 2.39 2.39 0 011.748.248" fill="#fff" opacity=".6"/><path d="M365.312 619.47c.242.07.812-1.992 2.85-3.352a12.207 12.207 0 014.275-1.402c0-.098-.499-.323-1.425-.323a6.201 6.201 0 00-3.306 1.066 5.936 5.936 0 00-2.209 2.622c-.299.814-.27 1.375-.185 1.389zm3.406 4.571c.2.14 1.24-1.234 3.121-2.061a34.77 34.77 0 013.633-.981 4.425 4.425 0 00-3.975.238c-2.138.982-2.993 2.804-2.779 2.804zm-9.319-10.265a39.797 39.797 0 014.602-3.491c2.779-1.571 5.444-1.809 5.415-2.062a10.81 10.81 0 00-5.819 1.371 10.578 10.578 0 00-4.155 4.239zm-1.91-8.863c.142.21 2.095-.939 4.802-1.402 2.708-.463 4.945-.126 5.002-.365-1.644-.603-3.424-.758-5.15-.447s-3.334 1.076-4.654 2.214z" fill="#212121"/><path d="M363.831 603.217a3.22 3.22 0 00-.399-1.403 9.83 9.83 0 00-2.28-3.169 4.406 4.406 0 00-2.48-1.402c-.324-.031-.65.037-.933.195s-.509.399-.649.688a2.523 2.523 0 000 1.795 5.489 5.489 0 002.512 2.73 5.623 5.623 0 003.701.538c1.239-.272 2.368-.899 3.243-1.803s1.458-2.043 1.673-3.274a2.166 2.166 0 00-.47-1.767 1.559 1.559 0 00-1.795-.252 5.397 5.397 0 00-1.981 1.991 11.433 11.433 0 00-1.539 3.576 3.45 3.45 0 00-.142 1.402 17.84 17.84 0 012.18-4.655 4.978 4.978 0 011.767-1.711.834.834 0 01.969.14 1.489 1.489 0 01.256 1.178 5.59 5.59 0 01-1.487 2.798 5.727 5.727 0 01-2.788 1.563 4.85 4.85 0 01-3.131-.44 4.748 4.748 0 01-2.17-2.266 1.86 1.86 0 010-1.262c.074-.162.198-.296.354-.384s.337-.126.516-.107c.809.155 1.55.552 2.123 1.136a14.455 14.455 0 012.95 4.165z" fill="#212121"/><path d="M297.313 559.898l.57 44.974-24.695-.926-3.648-43.515z" fill="#b78876"/><path d="M272.775 598.519s-27.388 10.097-27.673 15.019l52.966-.098v-13.631l-1.938.449a39.994 39.994 0 01-23.355-1.739z" fill="#d80202"/><path d="M291.983 602.375c.496.167.913.504 1.175.95s.351.97.25 1.476a2.052 2.052 0 01-.916 1.222 2.113 2.113 0 01-1.52.264 2.257 2.257 0 01-1.293-.991 2.198 2.198 0 01-.275-1.589c.199-.513.592-.93 1.096-1.165a2.196 2.196 0 011.611-.097m5.943 10.994v-4.206l-50.929 1.668s-2.351 1.01-2.08 2.65z" fill="#fff" opacity=".6"/><path d="M271.905 598.252c0 .253 1.311.365 2.58 1.178 1.268.813 1.952 1.893 2.194 1.781s-.142-1.57-1.71-2.524c-1.567-.953-3.121-.673-3.064-.435zm-5.543 2.272c0 .239 1.054.673 1.938 1.753.883 1.079 1.14 2.215 1.425 2.201s.413-1.402-.698-2.804c-1.112-1.402-2.665-1.402-2.665-1.15zm-3.149 6.548c.242 0 .598-1.219-.071-2.607-.67-1.388-1.881-1.949-1.981-1.739s.641.953 1.168 2.103c.528 1.15.627 2.215.884 2.243z" fill="#212121"/><path d="M272.49 598.097a4.888 4.888 0 002.65 0c.957-.171 1.89-.454 2.779-.841.521-.233 1.025-.5 1.51-.799a3.05 3.05 0 00.813-.617c.178-.186.287-.426.308-.681a1.116 1.116 0 00-.194-.721 1.447 1.447 0 00-1.14-.575c-.338 0-.674.047-.998.14a9.379 9.379 0 00-1.639.561 9.132 9.132 0 00-2.45 1.585c-1.226 1.121-1.639 2.075-1.554 2.117.086.042.713-.715 1.967-1.641a10.185 10.185 0 013.876-1.78c.57-.141 1.04-.155 1.182.098.143.252 0 .126 0 .294a2.634 2.634 0 01-.584.449 15.364 15.364 0 01-3.99 1.753c-.861.157-1.709.377-2.536.658z" fill="#212121"/><path d="M272.817 598.463c.1 0 .613-.869.699-2.524a8.456 8.456 0 00-.357-2.805 8.912 8.912 0 00-.684-1.584 2.17 2.17 0 00-.672-.877 2.237 2.237 0 00-1.023-.442c-.237.007-.466.078-.663.207s-.352.31-.449.523c-.129.306-.22.626-.271.953a5.889 5.889 0 00.117 2.342 5.957 5.957 0 001.023 2.118c1.041 1.402 2.124 1.64 2.138 1.556s-.812-.617-1.61-1.907a6.046 6.046 0 01-.841-2.454 5.414 5.414 0 010-1.515c.085-.546.299-.995.513-.939s.712.407.926.855c.261.447.481.917.656 1.403.301.835.479 1.709.527 2.594.114 1.501-.157 2.454-.029 2.496zm72.531-230.18c-1.097-24.303-20.063-50.849-20.063-50.849l-29.184-2.412v-.098h-.612l-33.558 2.692s-14.792 31.721-10.944 69.528c3.847 37.807 16.829 176.877 16.829 176.877h30.779l.656-201.207 31.164 208.065h30.822s-14.791-178.224-15.889-202.596z" fill="#212121"/><path d="M264.054 560.628l4.289 20.502 31.364-.098 1.895-18.89zm64.294 6.549l6.854 23.11 29.198-4.01-1.525-25.986zm-27.843-204.546h-.456a3.151 3.151 0 01-1.212-.533 6.827 6.827 0 01-2.322-4.108c-.713-3.913-1.425-9.312-2.052-15.3s-1.097-11.415-1.425-15.342a152.768 152.768 0 01-.285-4.669 6.621 6.621 0 010-1.711c.151.555.247 1.123.285 1.697.128 1.234.313 2.804.513 4.627.427 4.081.983 9.424 1.596 15.328s1.254 11.401 1.838 15.257a6.967 6.967 0 001.981 4.011c.468.329.988.581 1.539.743zm-2.608-43.108s.242-.182.741-.252a3.293 3.293 0 012.038.463 3.86 3.86 0 011.188 1.105c.312.448.524.955.621 1.489.128.658.012 1.34-.327 1.921a3.18 3.18 0 01-1.639 1.403c-.644.266-1.354.332-2.037.189s-1.304-.488-1.782-.989a3.408 3.408 0 01-.641-3.085 3.52 3.52 0 011.097-1.809c.399-.308.67-.379.684-.351a4.475 4.475 0 00-1.268 2.258c-.094.446-.085.906.026 1.348s.321.853.615 1.204c.398.371.895.621 1.434.721a2.89 2.89 0 001.601-.16c.518-.163.96-.503 1.247-.957.287-.455.401-.995.321-1.525a3.427 3.427 0 00-.482-1.276 3.495 3.495 0 00-.943-.996 4.971 4.971 0 00-2.494-.701zm-15.746-42.645l-2.978-14.262a1.828 1.828 0 01.387-1.531 1.869 1.869 0 011.451-.67l37.491.182a1.89 1.89 0 011.386.611 1.813 1.813 0 01.466 1.422l-3.876 32.675a2.528 2.528 0 01-.859 1.612 2.61 2.61 0 01-1.734.632l-24.453-.183c-.572-.006-1.126-.198-1.577-.545s-.773-.831-.916-1.376z" fill="#455a64"/><path d="M278.802 269.376a3.991 3.991 0 012.234.672 3.9 3.9 0 011.457 1.796c.612 1.571 1.51 3.422 2.508 3.955 1.838.981 5.015 1.781 6.697.967 1.681-.813 8.365-6.731 9.533-6.072s2.18 2.132 1.012 3.45c-1.169 1.318-7.367 5.273-6.199 6.591 1.169 1.318 14.25-4.473 16.245-3.969 1.995.505 3.177 1.725 2.009 2.525-1.169.799-10.046 4.08-10.545 5.23 0 0 13.381-3.449 13.894-2.636s1.339 2.145 0 2.636c-1.34.491-12.825 3.464-13.894 3.955a24.19 24.19 0 01-5.172 1.486c-.357 0-2.979.87-5.387 1.683a12.005 12.005 0 01-8.336-.21l-1.425-.547a5.322 5.322 0 01-2.491-2.06 5.204 5.204 0 01-.815-3.101l.285-4.487-1.425-3.716z" fill="#b78876"/><path d="M301.303 265.911a1.4 1.4 0 01-.898 1.301 1.445 1.445 0 01-1.561-.337 1.38 1.38 0 01-.261-1.551 1.435 1.435 0 011.366-.815c.365.018.71.174.962.435s.392.607.392.967z" fill="#fafafa"/><path d="M6.647 424.405l.57-.435 1.739-1.276 6.725-4.88 25.393-18.231 88.078-62.895-.128.393a192.401 192.401 0 01-11.571-65.602 201.444 201.444 0 011.197-22.086 198.073 198.073 0 013.648-21.162 185.686 185.686 0 0113.223-38.382c16.672-34.976 43.503-64.305 77.106-84.281l6.412-3.618c1.867-1.037 3.505-1.795 4.802-2.454l2.964-1.402c.67-.337 1.026-.477 1.026-.477s-.328.196-.997.547l-2.85 1.529c-1.283.687-2.922 1.402-4.774 2.51l-6.355 3.674c-33.377 20.125-60.022 49.443-76.635 84.323a184.979 184.979 0 00-13.139 38.256 193.434 193.434 0 00-3.619 21.035 199.92 199.92 0 00-1.197 22.002 192.14 192.14 0 0011.414 65.35l.086.252-.214.154-88.22 62.685-25.507 18.062c-2.978 2.076-5.258 3.688-6.826 4.796l-1.767 1.22z" fill="#d80202"/><path d="M170.49 58.365s-.271.154-.812.42l-2.394 1.15-3.89 1.866c-1.553.73-3.249 1.739-5.216 2.805a178.421 178.421 0 00-30.736 21.315 196.5 196.5 0 00-18.354 18.118 212.989 212.989 0 00-17.883 23.42 224.49 224.49 0 00-27.915 61.198 290.9 290.9 0 00-10.873 66.359 358.176 358.176 0 001.283 54.901 184.362 184.362 0 007.253 36.461 142.88 142.88 0 003.377 9.522l.983 2.44.314.841s-.143-.266-.385-.813l-1.112-2.482a130.977 130.977 0 01-3.505-9.494 179.36 179.36 0 01-7.51-36.363 353.96 353.96 0 01-1.496-55.042 288.27 288.27 0 0110.844-66.527 224.361 224.361 0 0128.044-61.366 212.601 212.601 0 0118.068-23.475A193.704 193.704 0 01127.1 85.501a174.846 174.846 0 0130.95-21.176c1.967-1.023 3.677-2.005 5.244-2.706l3.933-1.81 2.422-1.093zM216.702 0s.071.07.185.238l.499.716 1.853 2.804L226.15 14.5c5.899 9.284 14.249 22.438 24.039 37.765l-.385-.14a259.245 259.245 0 0140.968-7.573 263.192 263.192 0 0140.669-1.08 255.645 255.645 0 0133.002 3.9l3.406.616 3.206.687 5.885 1.29c3.634.94 6.769 1.683 9.319 2.398l5.829 1.74 1.51.476c.173.041.34.103.499.182a3.24 3.24 0 01-.527-.112l-1.525-.406-5.871-1.6c-2.551-.672-5.7-1.401-9.334-2.285l-5.885-1.276-3.206-.66-3.406-.588a259.808 259.808 0 00-32.931-3.744 265.837 265.837 0 00-40.569 1.107 261.549 261.549 0 00-40.854 7.489h-.256l-.128-.21c-9.704-15.426-17.955-28.594-23.812-37.864-2.849-4.627-5.158-8.301-6.74-10.854L217.286.87l-.441-.757a2.573 2.573 0 01-.143-.112zM578.46 187.774a1.406 1.406 0 01-.157-.393l-.385-1.192c-.342-1.094-.812-2.608-1.425-4.558-.613-1.949-1.297-4.417-2.308-7.18l-1.539-4.459c-.285-.785-.556-1.599-.855-2.426l-.998-2.524c-1.425-3.436-2.85-7.236-4.674-11.219-.926-1.977-1.781-4.067-2.85-6.142l-3.249-6.339a225.473 225.473 0 00-16.985-27.009 238.257 238.257 0 00-20.862-24.246c-1.752-1.74-3.462-3.422-5.115-5.077-1.653-1.655-3.392-3.113-5.002-4.6-3.192-3.015-6.37-5.609-9.205-8.007l-2.095-1.767-2.009-1.599-3.734-2.944c-2.308-1.866-4.389-3.352-6.07-4.6l-3.862-2.805-.997-.757-.328-.28s.143 0 .371.21l1.04.715 3.947 2.805c1.71 1.206 3.819 2.664 6.156 4.501l3.776 2.833 2.066 1.585 2.095 1.752c2.85 2.398 6.084 4.95 9.291 7.952 1.624 1.486 3.348 2.973 5.044 4.585l5.144 5.063a232.945 232.945 0 0120.976 24.288 218.54 218.54 0 0116.985 27.136l3.249 6.422c1.041 2.076 1.896 4.207 2.85 6.157 1.867 3.968 3.249 7.783 4.603 11.218.342.87.67 1.711.983 2.539.314.827.556 1.654.827 2.44.527 1.584 1.026 3.085 1.496 4.473.983 2.805 1.639 5.245 2.194 7.236.556 1.992.969 3.506 1.269 4.614.128.491.228.883.313 1.192zm-53.537 389.261s-.085-.126-.228-.393l-.598-1.178c-.542-1.08-1.297-2.622-2.28-4.613a9294.604 9294.604 0 01-8.45-17.361c-7.196-14.879-17.299-35.816-29.041-60.147l-.128-.252.242-.183a275.488 275.488 0 0030.965-26.868c1.681-1.613 3.249-3.296 4.802-4.979l4.659-4.992 4.389-5.077c1.425-1.696 2.85-3.337 4.275-5.062 2.693-3.436 5.444-6.745 7.866-10.167l3.677-5.034c1.168-1.683 2.279-3.38 3.405-5.035a273.208 273.208 0 0020.919-36.994c2.622-5.455 4.645-10.545 6.483-14.977 1.839-4.431 3.135-8.414 4.275-11.555s1.853-5.679 2.408-7.404c.285-.814.499-1.403.656-1.921.069-.22.149-.435.242-.645 0 0 0 .224-.171.673-.171.448-.327 1.108-.584 1.935-.527 1.739-1.297 4.207-2.28 7.446-.983 3.24-2.479 7.11-4.161 11.612-1.681 4.501-3.805 9.578-6.398 15.047a270.586 270.586 0 01-20.833 37.162c-1.126 1.655-2.223 3.365-3.406 5.048l-3.676 5.049c-2.423 3.449-5.173 6.759-7.88 10.195-1.325 1.739-2.85 3.393-4.275 5.09s-2.921 3.38-4.389 5.105l-4.674 4.992c-1.553 1.683-3.121 3.38-4.802 4.992a274.136 274.136 0 01-31.093 26.925l.114-.42 28.799 60.3 8.264 17.403c.941 2.02 1.682 3.576 2.181 4.67l.555 1.22z" fill="#d80202"/><g fill="#fff" opacity=".8"><path d="M6.647 424.405l.57-.435 1.738-1.276 6.726-4.88 25.393-18.231 88.078-62.895-.128.393a192.377 192.377 0 01-11.571-65.602 201.444 201.444 0 011.197-22.086 198.073 198.073 0 013.648-21.162 185.686 185.686 0 0113.223-38.382c16.672-34.976 43.503-64.305 77.106-84.281l6.412-3.618c1.867-1.037 3.505-1.795 4.802-2.454l2.964-1.402c.67-.337 1.026-.477 1.026-.477s-.328.196-.997.547l-2.85 1.529c-1.283.687-2.922 1.402-4.774 2.51l-6.355 3.674c-33.377 20.125-60.023 49.443-76.635 84.323a184.979 184.979 0 00-13.139 38.256 193.434 193.434 0 00-3.619 21.035 199.92 199.92 0 00-1.197 22.002 192.14 192.14 0 0011.414 65.35l.086.252-.214.154-88.22 62.685-25.507 18.062c-2.978 2.076-5.258 3.688-6.826 4.796l-1.767 1.22z"/><path d="M170.49 58.365s-.271.154-.812.42l-2.394 1.15-3.89 1.866c-1.553.73-3.249 1.739-5.216 2.805a178.421 178.421 0 00-30.736 21.315 196.5 196.5 0 00-18.354 18.118 212.977 212.977 0 00-17.883 23.42 224.487 224.487 0 00-27.915 61.198 290.89 290.89 0 00-10.873 66.359 358.164 358.164 0 001.282 54.901 184.37 184.37 0 007.254 36.461 142.996 142.996 0 003.377 9.522l.983 2.44.313.841s-.142-.266-.384-.813l-1.112-2.482a130.986 130.986 0 01-3.505-9.494 179.354 179.354 0 01-7.51-36.363 353.948 353.948 0 01-1.496-55.042 288.276 288.276 0 0110.844-66.527 224.364 224.364 0 0128.043-61.366 212.614 212.614 0 0118.069-23.475A193.704 193.704 0 01127.1 85.501a174.809 174.809 0 0130.95-21.176c1.967-1.023 3.677-2.005 5.244-2.706l3.933-1.81 2.422-1.093zM216.702 0s.071.07.185.238l.499.716 1.853 2.804L226.15 14.5c5.899 9.284 14.249 22.438 24.039 37.765l-.385-.14a259.245 259.245 0 0140.968-7.573 263.192 263.192 0 0140.669-1.08 255.645 255.645 0 0133.002 3.9l3.406.616 3.206.687 5.885 1.29c3.634.94 6.769 1.683 9.319 2.398l5.828 1.74 1.511.476c.173.041.34.103.499.182a3.274 3.274 0 01-.528-.112l-1.524-.406-5.871-1.6c-2.551-.672-5.7-1.401-9.334-2.285l-5.885-1.276-3.206-.66-3.406-.588a259.808 259.808 0 00-32.931-3.744 265.837 265.837 0 00-40.569 1.107 261.549 261.549 0 00-40.854 7.489h-.256l-.128-.21c-9.704-15.426-17.955-28.594-23.812-37.864-2.85-4.627-5.158-8.301-6.74-10.854L217.286.87l-.441-.757a2.573 2.573 0 01-.143-.112zM578.46 187.774a1.376 1.376 0 01-.157-.393l-.385-1.192c-.342-1.094-.812-2.608-1.425-4.558-.613-1.949-1.297-4.417-2.308-7.18l-1.539-4.459c-.285-.785-.556-1.599-.855-2.426l-.998-2.524c-1.425-3.436-2.85-7.236-4.674-11.219-.926-1.977-1.781-4.067-2.85-6.142l-3.249-6.339a225.473 225.473 0 00-16.985-27.009 238.257 238.257 0 00-20.862-24.246c-1.753-1.74-3.463-3.422-5.115-5.077-1.653-1.655-3.392-3.113-5.002-4.6-3.192-3.015-6.37-5.609-9.205-8.007l-2.095-1.767-2.009-1.599-3.734-2.944c-2.308-1.866-4.389-3.352-6.07-4.6l-3.862-2.805-.997-.757-.328-.28s.142 0 .37.21l1.041.715 3.947 2.805c1.71 1.206 3.819 2.664 6.156 4.501l3.776 2.833 2.066 1.585 2.095 1.752c2.85 2.398 6.084 4.95 9.291 7.952 1.624 1.486 3.348 2.973 5.044 4.585l5.144 5.063a232.945 232.945 0 0120.976 24.288c6.323 8.628 12 17.697 16.985 27.136l3.249 6.422c1.041 2.076 1.896 4.207 2.85 6.157 1.867 3.968 3.249 7.783 4.603 11.218.342.87.67 1.711.983 2.539.314.827.556 1.654.827 2.44.527 1.584 1.026 3.085 1.496 4.473.983 2.805 1.639 5.245 2.194 7.236.556 1.992.969 3.506 1.269 4.614.128.491.228.883.313 1.192zm-53.537 389.261s-.085-.126-.228-.393l-.598-1.178c-.542-1.08-1.297-2.622-2.28-4.613a9294.604 9294.604 0 01-8.45-17.361c-7.196-14.879-17.299-35.816-29.041-60.147l-.128-.252.242-.183a275.488 275.488 0 0030.965-26.868c1.681-1.613 3.248-3.296 4.802-4.979l4.659-4.992 4.389-5.077c1.425-1.696 2.85-3.337 4.275-5.062 2.693-3.436 5.444-6.745 7.866-10.167l3.676-5.034c1.169-1.683 2.28-3.38 3.406-5.035a273.316 273.316 0 0020.919-36.994c2.622-5.455 4.645-10.545 6.483-14.977 1.839-4.431 3.135-8.414 4.275-11.555s1.853-5.679 2.408-7.404c.285-.814.499-1.403.656-1.921.068-.22.149-.435.242-.645 0 0 0 .224-.171.673-.171.448-.328 1.108-.584 1.935-.527 1.739-1.297 4.207-2.28 7.446-.983 3.24-2.48 7.11-4.161 11.612-1.681 4.501-3.805 9.578-6.398 15.047a270.586 270.586 0 01-20.833 37.162c-1.126 1.655-2.223 3.365-3.406 5.048l-3.676 5.049c-2.423 3.449-5.173 6.759-7.88 10.195-1.326 1.739-2.85 3.393-4.275 5.09s-2.921 3.38-4.389 5.105l-4.674 4.992c-1.553 1.683-3.121 3.38-4.802 4.992a274.223 274.223 0 01-31.093 26.925l.114-.42 28.799 60.3 8.264 17.403c.941 2.02 1.682 3.576 2.181 4.67l.555 1.22z"/></g><g fill="#d80202"><path d="M431.887 175.012c3.376 0 6.113-2.693 6.113-6.016s-2.737-6.016-6.113-6.016-6.113 2.693-6.113 6.016 2.737 6.016 6.113 6.016zM401.022 54.888c0 1.193-.36 2.36-1.034 3.352-.674.991-1.632 1.764-2.752 2.22s-2.353.575-3.542.341a6.157 6.157 0 01-3.137-1.654 5.998 5.998 0 01-1.674-3.091c-.235-1.17-.111-2.384.355-3.485s1.253-2.043 2.263-2.704a6.196 6.196 0 013.408-1.01c.804 0 1.6.157 2.342.46a6.108 6.108 0 011.985 1.308 6.02 6.02 0 011.325 1.956c.306.732.463 1.516.461 2.307zm182.98 133.124c.003 1.194-.354 2.361-1.026 3.355s-1.629 1.769-2.749 2.227a6.225 6.225 0 01-3.544.347 6.167 6.167 0 01-3.141-1.651c-.857-.845-1.441-1.92-1.677-3.091s-.114-2.385.352-3.487a6.049 6.049 0 012.263-2.706 6.2 6.2 0 013.409-1.01c1.622 0 3.177.633 4.323 1.762a5.968 5.968 0 011.79 4.254zM267.759 469.419a5.954 5.954 0 01-1.037 3.339 6.104 6.104 0 01-2.747 2.21 6.201 6.201 0 01-3.53.336 6.15 6.15 0 01-3.127-1.65c-.853-.841-1.434-1.913-1.669-3.08s-.113-2.376.35-3.474a6.05 6.05 0 012.252-2.698 6.187 6.187 0 015.738-.553 6.125 6.125 0 011.985 1.307 6.039 6.039 0 011.324 1.957c.306.731.463 1.515.461 2.306zm-84.273 1.641c3.376 0 6.113-2.693 6.113-6.016 0-3.322-2.737-6.016-6.113-6.016s-6.113 2.694-6.113 6.016c0 3.323 2.737 6.016 6.113 6.016zm335.31-126.673c3.376 0 6.113-2.693 6.113-6.016s-2.737-6.016-6.113-6.016-6.113 2.693-6.113 6.016 2.737 6.016 6.113 6.016zM66.31 191.125c0 1.19-.358 2.353-1.03 3.342a6.088 6.088 0 01-2.743 2.216 6.2 6.2 0 01-3.532.342 6.145 6.145 0 01-3.13-1.646c-.855-.841-1.437-1.913-1.673-3.08s-.115-2.377.348-3.476c.462-1.1 1.246-2.039 2.251-2.7s2.187-1.014 3.397-1.014c1.62 0 3.176.634 4.322 1.762s1.79 2.658 1.79 4.254zm343.262 48.115a5.951 5.951 0 01-1.037 3.338 6.102 6.102 0 01-2.747 2.21 6.204 6.204 0 01-3.531.336 6.14 6.14 0 01-3.126-1.649c-.854-.842-1.434-1.914-1.669-3.081s-.113-2.375.35-3.474a6.044 6.044 0 012.252-2.698 6.187 6.187 0 017.722.754 6.008 6.008 0 011.324 1.957c.307.732.464 1.515.462 2.307zm118.244 3.562c3.376 0 6.113-2.694 6.113-6.016 0-3.323-2.737-6.016-6.113-6.016s-6.113 2.693-6.113 6.016c0 3.322 2.737 6.016 6.113 6.016zm-395.173-28.945c0 1.19-.358 2.353-1.03 3.342-.672.99-1.627 1.761-2.744 2.216s-2.346.574-3.532.342a6.149 6.149 0 01-3.13-1.646c-.855-.842-1.437-1.913-1.673-3.08s-.115-2.377.348-3.476a6.033 6.033 0 012.252-2.7 6.179 6.179 0 017.714.752 5.98 5.98 0 011.795 4.25zm-1.34-73.693c3.377 0 6.114-2.694 6.114-6.016 0-3.323-2.737-6.016-6.114-6.016-3.376 0-6.113 2.693-6.113 6.016 0 3.322 2.737 6.016 6.113 6.016zM68.69 362.127c0 .596-.18 1.179-.516 1.675s-.815.882-1.375 1.11a3.115 3.115 0 01-1.77.172 3.089 3.089 0 01-1.569-.825c-.428-.422-.72-.959-.838-1.544s-.058-1.191.174-1.742a3.023 3.023 0 011.129-1.353 3.093 3.093 0 011.702-.508 3.08 3.08 0 012.17.879 2.99 2.99 0 01.893 2.136zm51.727-87.268a2.98 2.98 0 01-.517 1.675 3.055 3.055 0 01-1.375 1.111 3.112 3.112 0 01-1.77.171 3.071 3.071 0 01-1.568-.825 2.971 2.971 0 01-.664-3.286c.231-.551.624-1.022 1.128-1.353s1.096-.508 1.702-.508a3.09 3.09 0 012.171.879 2.997 2.997 0 01.893 2.136zm59.321 105.498c0 .596-.18 1.179-.516 1.675a3.051 3.051 0 01-1.375 1.11 3.106 3.106 0 01-3.339-.653 3.003 3.003 0 01-.838-1.544c-.119-.585-.058-1.191.174-1.742s.624-1.022 1.128-1.353 1.096-.508 1.702-.508a3.086 3.086 0 012.171.879 2.962 2.962 0 01.893 2.136zm-31.221-106.9c0 .596-.179 1.179-.516 1.675s-.815.882-1.375 1.11-1.176.288-1.77.172a3.093 3.093 0 01-1.569-.825c-.428-.422-.72-.959-.838-1.544s-.058-1.191.174-1.742.625-1.022 1.129-1.353a3.099 3.099 0 011.702-.508 3.1 3.1 0 011.174.225 3.044 3.044 0 011.66 1.634c.153.366.231.759.229 1.156zm43.718-67.734c.003.597-.174 1.181-.509 1.679s-.812.886-1.372 1.117c-.56.23-1.176.292-1.771.177s-1.143-.401-1.573-.822a3.003 3.003 0 01-.842-1.543 2.968 2.968 0 01.172-1.744 3.024 3.024 0 011.128-1.356 3.098 3.098 0 013.865.369 2.99 2.99 0 01.902 2.123zM83.553 277.846c1.692 0 3.064-1.35 3.064-3.015s-1.372-3.015-3.064-3.015-3.064 1.35-3.064 3.015 1.372 3.015 3.064 3.015zm410.691 115.707a2.98 2.98 0 01-.517 1.675c-.336.496-.815.882-1.375 1.11s-1.176.288-1.77.172a3.093 3.093 0 01-1.569-.825c-.428-.422-.72-.959-.838-1.544s-.058-1.191.174-1.742.625-1.022 1.129-1.353a3.093 3.093 0 011.702-.508c.812 0 1.592.317 2.166.883.575.565.898 1.332.898 2.132zm-21.332-15.762c0 .597-.18 1.18-.518 1.676a3.047 3.047 0 01-1.377 1.111c-.56.228-1.177.286-1.772.169s-1.14-.406-1.568-.829-.719-.962-.835-1.547a2.971 2.971 0 01.18-1.744c.234-.55.629-1.02 1.134-1.35a3.104 3.104 0 011.706-.501 3.09 3.09 0 012.162.884 2.968 2.968 0 01.888 2.131zm44.217 29.968a2.98 2.98 0 01-.517 1.675c-.336.496-.815.882-1.375 1.11s-1.176.288-1.77.172a3.093 3.093 0 01-1.569-.825 2.98 2.98 0 01-.664-3.286c.232-.551.625-1.022 1.129-1.353s1.096-.508 1.702-.508c.403-.002.802.075 1.175.225a3.04 3.04 0 011.659 1.634c.153.366.231.759.23 1.156zm-120.438 2.818a2.98 2.98 0 01-.517 1.675 3.055 3.055 0 01-1.375 1.111c-.56.228-1.176.287-1.77.171s-1.14-.403-1.569-.825c-.428-.422-.72-.959-.838-1.544s-.058-1.191.174-1.742.625-1.022 1.129-1.353a3.101 3.101 0 013.868.375 2.99 2.99 0 01.898 2.132zm19.407 46.277c0 .597-.18 1.181-.517 1.677s-.817.882-1.377 1.11a3.104 3.104 0 01-3.341-.66 2.976 2.976 0 01-.655-3.29 3.02 3.02 0 011.135-1.35 3.103 3.103 0 013.863.386c.572.565.892 1.33.892 2.127zm-33.971-13.995a2.985 2.985 0 01-.511 1.681c-.335.497-.814.886-1.374 1.116s-1.178.291-1.773.175a3.074 3.074 0 01-1.572-.826 2.982 2.982 0 01-.662-3.292 3.032 3.032 0 011.135-1.353c.506-.33 1.1-.505 1.707-.502.809 0 1.585.316 2.156.879.572.563.894 1.326.894 2.122zM184.213 171.997c.003.597-.175 1.181-.51 1.679s-.812.886-1.372 1.117c-.559.23-1.176.292-1.771.177s-1.142-.401-1.572-.822-.723-.958-.843-1.543a2.976 2.976 0 01.172-1.744 3.03 3.03 0 011.128-1.356 3.1 3.1 0 013.865.369c.574.563.899 1.326.903 2.123zm72.288-34.974a2.976 2.976 0 01-.509 1.678c-.335.498-.812.887-1.372 1.117s-1.176.292-1.771.177a3.067 3.067 0 01-1.573-.822c-.43-.421-.723-.958-.842-1.543s-.06-1.192.172-1.744a3.021 3.021 0 011.128-1.355 3.1 3.1 0 013.865.369c.574.562.899 1.325.902 2.123zm89.475-8.274c0 .596-.18 1.179-.516 1.675a3.057 3.057 0 01-1.375 1.11 3.108 3.108 0 01-1.771.172 3.071 3.071 0 01-1.568-.825 2.971 2.971 0 01-.664-3.286 3.023 3.023 0 011.128-1.353 3.101 3.101 0 013.868.375c.575.565.898 1.332.898 2.132zm140.772-72.193a2.979 2.979 0 01-.509 1.68 3.052 3.052 0 01-1.372 1.116 3.11 3.11 0 01-3.344-.645c-.429-.421-.723-.958-.842-1.543s-.06-1.193.172-1.744a3.024 3.024 0 011.128-1.356 3.098 3.098 0 013.865.37c.574.562.899 1.325.902 2.122zm-235.063-4.894c0 .596-.18 1.18-.516 1.675-.337.496-.815.882-1.375 1.11s-1.176.288-1.77.172a3.076 3.076 0 01-1.569-.825 3.002 3.002 0 01-.838-1.544c-.119-.585-.058-1.19.174-1.742s.624-1.022 1.128-1.353 1.096-.508 1.702-.508a3.104 3.104 0 012.163.887 3.01 3.01 0 01.901 2.128z"/><path d="M216.702 383.007s-.128-.112-.356-.351l-1.012-1.051-3.805-4.109c-.826-.912-1.781-1.879-2.721-3.015l-3.064-3.73c-1.083-1.403-2.294-2.735-3.477-4.306l-3.648-5.02a156.244 156.244 0 01-15.275-26.392 140.086 140.086 0 01-10.645-35.648c-.627-3.253-.841-6.52-1.226-9.718l-.299-4.782c0-.785-.099-1.584-.142-2.356-.043-.771 0-1.57 0-2.356v-4.627l.171-4.544c0-1.5.142-2.987.27-4.445.129-1.459.257-2.903.371-4.334a153.377 153.377 0 016.298-29.729 140.755 140.755 0 017.567-19.072c1.069-2.188 1.966-3.843 2.608-4.95.313-.561.57-.968.741-1.248.171-.281.27-.421.285-.407a3.578 3.578 0 01-.214.435l-.684 1.29c-.599 1.122-1.425 2.804-2.465 4.992a148.826 148.826 0 00-7.339 19.114 156.377 156.377 0 00-6.213 29.589c-.114 1.403-.242 2.805-.356 4.32-.114 1.514-.228 2.93-.257 4.417-.028 1.486-.114 3.001-.171 4.516-.057 1.514 0 3.071 0 4.613v2.342c0 .785.1 1.557.143 2.342l.299 4.768c.399 3.183.613 6.423 1.226 9.662a141.135 141.135 0 0010.544 35.493 160.007 160.007 0 0015.077 26.364l3.591 5.035c1.168 1.57 2.365 2.987 3.434 4.333l3.006 3.758c.927 1.15 1.867 2.132 2.665 3.043l3.705 4.207.955 1.108c.313.281.427.435.413.449zM83.467 282.319a1.778 1.778 0 010-.406v-1.192c0-1.108 0-2.651.1-4.6 0-.996 0-2.117.086-3.323s.156-2.525.256-3.941c.2-2.805.342-6.058.77-9.606.199-1.767.398-3.632.598-5.609.2-1.978.556-3.941.855-6.016.527-4.207 1.425-8.569 2.251-13.21a266.389 266.389 0 0118.867-58.436c2.038-4.277 3.904-8.414 5.914-12.074.983-1.865 1.881-3.688 2.85-5.385l2.849-4.894c1.725-3.142 3.506-5.862 4.988-8.288.769-1.206 1.425-2.342 2.123-3.366l1.867-2.805 2.622-3.814.684-.982c.079-.107.164-.21.256-.308a1.16 1.16 0 01-.185.351l-.641 1.023-2.494 3.885-1.81 2.804-2.066 3.38c-1.425 2.44-3.192 5.175-4.888 8.33l-2.721 4.894c-.955 1.711-1.838 3.548-2.85 5.413-1.967 3.702-3.819 7.797-5.828 12.074a302.32 302.32 0 00-11.058 28.636A297.966 297.966 0 0089.11 234.5c-.883 4.627-1.767 9.017-2.337 13.168-.3 2.075-.641 4.066-.883 6.002-.243 1.935-.428 3.786-.642 5.609-.47 3.534-.64 6.759-.883 9.578-.114 1.402-.214 2.721-.313 3.941-.1 1.22-.114 2.299-.157 3.309-.1 1.949-.185 3.478-.242 4.586v1.192a1.87 1.87 0 01-.186.434zM375.244 108.85a5.793 5.793 0 01-1.068-.281l-3.05-.925c-1.311-.435-2.921-.926-4.816-1.403s-4.033-1.136-6.455-1.64l-3.777-.856c-1.31-.294-2.693-.519-4.118-.785-2.85-.575-5.913-.968-9.148-1.403a174.428 174.428 0 00-21.175-1.248c-7.079.096-14.146.615-21.161 1.557-3.22.505-6.284.94-9.12 1.557-1.425.294-2.85.532-4.118.841l-3.762.926c-2.408.532-4.531 1.22-6.412 1.738a78.76 78.76 0 00-4.802 1.487l-3.035.982c-.35.121-.707.22-1.069.294.325-.18.669-.326 1.026-.435l2.978-1.108a62.971 62.971 0 014.774-1.612c1.923-.561 4.004-1.276 6.412-1.851l3.762-.968c1.311-.322 2.693-.575 4.118-.883 2.85-.646 5.928-1.108 9.163-1.627a154.915 154.915 0 0142.507-.323c3.234.477 6.326.884 9.176 1.487 1.425.294 2.85.519 4.133.827l3.776.912c2.422.533 4.546 1.22 6.441 1.753s3.505 1.065 4.802 1.542l2.992 1.052c.355.096.699.228 1.026.393zm55.588 63.876a5.1 5.1 0 01-.712-.757c-.499-.561-1.14-1.304-1.938-2.244l-1.425-1.627c-.513-.574-1.111-1.177-1.738-1.851-1.269-1.304-2.637-2.874-4.275-4.417l-2.622-2.482c-.927-.856-1.953-1.669-2.964-2.552-2.024-1.795-4.361-3.506-6.783-5.343a119.013 119.013 0 00-35.382-17.614c-2.95-.827-5.7-1.668-8.407-2.201-1.326-.295-2.594-.617-3.848-.842l-3.577-.603c-2.28-.449-4.374-.603-6.198-.827-.912-.112-1.767-.225-2.551-.295l-2.137-.056-2.979-.21a5.206 5.206 0 01-1.04-.126 5.315 5.315 0 011.04 0h5.159c.798 0 1.653.14 2.565.224 1.838.182 3.947.309 6.241.715l3.605.575c1.254.197 2.537.519 3.876.8 2.693.504 5.501 1.402 8.465 2.145a116.026 116.026 0 0135.624 17.712c2.422 1.879 4.774 3.604 6.783 5.427 1.011.911 2.037 1.739 2.949 2.608l2.608 2.524c1.682 1.571 3.035 3.17 4.275 4.516.599.673 1.197 1.29 1.696 1.893.498.603.94 1.164 1.339 1.683.77.953 1.425 1.739 1.838 2.328.199.283.37.583.513.897zm30.48-38.101a1.765 1.765 0 01-.299-.253l-.841-.785-3.163-3.071-2.28-2.23c-.855-.799-1.81-1.613-2.85-2.524-2.052-1.781-4.275-3.927-7.025-6.002l-4.275-3.352c-1.425-1.164-3.092-2.244-4.717-3.436-3.22-2.426-6.896-4.697-10.715-7.152a204.806 204.806 0 00-26.149-13.504 207.926 207.926 0 00-28.114-9.227c-4.446-.996-8.664-2.02-12.683-2.609-1.995-.322-3.918-.73-5.785-.953l-5.372-.646c-3.42-.49-6.541-.588-9.277-.813-1.425-.084-2.636-.196-3.819-.252h-3.206l-4.446-.112h-1.553c.132-.022.267-.022.399 0h8.821c1.182 0 2.451.112 3.833.182 2.736.182 5.871.252 9.305.701l5.401.603c1.866.224 3.804.603 5.813.912 4.033.574 8.265 1.584 12.725 2.552a184.621 184.621 0 0154.548 22.521c3.819 2.482 7.496 4.782 10.716 7.236 1.625 1.206 3.235 2.3 4.703 3.478l4.189 3.408c2.722 2.103 4.945 4.207 6.982 6.1 1.012.912 1.967 1.753 2.85 2.566l2.237 2.286 3.078 3.169.784.842c.081.111.143.234.185.365zm98.936 138.48a1.305 1.305 0 010-.364v-1.108c0-1.01 0-2.426-.085-4.207v-3.043c0-1.108-.114-2.328-.171-3.632-.157-2.595-.214-5.61-.57-8.807-.143-1.627-.285-3.338-.456-5.119-.171-1.78-.442-3.618-.684-5.525-.427-3.814-1.168-7.867-1.895-12.13a245.451 245.451 0 00-6.926-27.233 249.022 249.022 0 00-10.188-26.266c-1.881-3.913-3.605-7.657-5.472-11.037-.912-1.697-1.738-3.379-2.636-4.922l-2.594-4.459c-1.596-2.805-3.249-5.343-4.631-7.559l-1.952-3.071-1.738-2.524-2.38-3.506-.613-.926-.185-.322a176.181 176.181 0 0111.955 17.641l2.637 4.446c.912 1.556 1.752 3.225 2.679 4.922 1.895 3.379 3.647 7.124 5.543 11.036a236.467 236.467 0 0110.274 26.336 239.709 239.709 0 016.811 27.402c.698 4.207 1.425 8.33 1.824 12.172.228 1.921.499 3.759.641 5.54.143 1.781.285 3.505.413 5.132.554 7.031.687 14.087.399 21.133zm-31.406-36.319c.05.222.088.447.114.673.071.491.156 1.15.256 1.991.185 1.753.627 4.333.841 7.685.808 9.434 1.008 18.91.598 28.369-.213 6.002-.769 12.551-1.553 19.563s-2.009 14.458-3.776 22.199c-.399 1.949-.841 3.913-1.425 5.876l-1.525 5.974c-1.182 3.982-2.322 8.077-3.79 12.144a170.394 170.394 0 01-10.502 24.639 194.17 194.17 0 01-14.25 22.746 219.497 219.497 0 01-15.945 19.324 231.569 231.569 0 01-31.578 28.37 210.615 210.615 0 01-24.053 15.65c-2.921 1.725-5.33 2.805-6.911 3.66l-1.81.912c-.413.21-.627.294-.627.294s.185-.126.584-.351l1.781-.981c1.554-.884 3.933-2.02 6.84-3.772a225.888 225.888 0 0023.911-15.819 236.385 236.385 0 0031.35-28.425 220.573 220.573 0 0015.845-19.283 192.8 192.8 0 0014.179-22.661 171.452 171.452 0 0010.473-24.527c1.425-4.053 2.608-8.134 3.791-12.103.513-2.005 1.026-3.996 1.539-5.959.513-1.964.969-3.913 1.425-5.848 1.781-7.713 2.85-15.16 3.833-22.129.983-6.97 1.425-13.533 1.639-19.507.456-9.446.333-18.91-.371-28.341-.157-3.338-.556-5.918-.684-7.671-.085-.855-.142-1.528-.185-2.005s-.014-.687-.014-.687z"/><path d="M464.034 176.358s.143.127.385.421l1.083 1.262c.912 1.136 2.38 2.735 4.047 4.979a158.273 158.273 0 0112.967 19.632c2.465 4.32 4.845 9.214 7.225 14.543a168.852 168.852 0 016.426 17.473 157.224 157.224 0 014.76 19.997 155.123 155.123 0 012.223 21.947 174.83 174.83 0 01-.812 22.031 167.967 167.967 0 01-3.591 20.249 155.034 155.034 0 01-24.225 52.728c-1.567 2.3-2.964 3.955-3.833 5.133l-1.04 1.304a4.126 4.126 0 01-.357.435c.079-.171.18-.331.3-.477l.969-1.402c.826-1.192 2.194-2.875 3.719-5.203a162.154 162.154 0 0011.927-20.194 154.298 154.298 0 0011.884-32.548 167.14 167.14 0 003.506-20.096c.729-7.292.996-14.621.798-21.946a153.985 153.985 0 00-2.223-21.835 156.182 156.182 0 00-4.689-19.927 171.726 171.726 0 00-6.326-17.431c-2.366-5.315-4.703-10.209-7.125-14.528a166.32 166.32 0 00-12.725-19.717c-1.625-2.258-3.05-3.885-3.933-5.049l-1.026-1.318a2.968 2.968 0 01-.314-.463zm-60.575 326.746l-.769.182-2.252.463c-1.981.392-4.916 1.024-8.706 1.641a321.134 321.134 0 01-32.376 3.884 332.867 332.867 0 01-48.349-.098c-9.077-.673-18.596-1.711-28.371-3.31a299.103 299.103 0 01-29.996-6.338 188.453 188.453 0 01-53.949-23.7 228.388 228.388 0 01-20.819-15.103c-6.284-4.964-11.842-10.083-16.843-14.781-9.975-9.423-17.328-17.613-22.387-23.335a188.106 188.106 0 01-5.699-6.661l-1.425-1.753-.471-.603.542.561 1.51 1.711c1.325 1.501 3.278 3.73 5.843 6.563 5.101 5.609 12.596 13.785 22.514 23.153 4.988 4.669 10.545 9.676 16.829 14.682a234.132 234.132 0 0020.805 15.005 193.205 193.205 0 0024.979 13.435 190.914 190.914 0 0028.799 10.125 300.651 300.651 0 0029.924 6.338c9.762 1.599 19.252 2.651 28.315 3.338a339.786 339.786 0 0048.263.252 338.782 338.782 0 0032.347-3.646c3.805-.575 6.74-1.15 8.735-1.5l2.266-.393z"/><path d="M324.658 479.432c-6.487.336-12.989.256-19.465-.238l-4.717-.365c-1.639-.126-3.32-.378-5.087-.589-3.52-.364-7.239-1.051-11.158-1.711a186.443 186.443 0 01-48.947-16.267c-3.52-1.809-6.911-3.492-9.975-5.301-1.525-.883-3.021-1.696-4.418-2.566l-3.961-2.524a147.029 147.029 0 01-15.675-11.429l.285.182.827.575 3.106 2.272 2.223 1.669c.827.589 1.753 1.192 2.736 1.865 1.967 1.318 4.147 2.903 6.726 4.431l3.976 2.482c1.425.856 2.85 1.641 4.417 2.525 3.035 1.781 6.413 3.421 9.975 5.216a193.188 193.188 0 0048.777 16.211c3.904.674 7.609 1.403 11.114 1.767 1.753.225 3.435.491 5.059.631l4.703.421c2.978.309 5.699.351 8.079.477 1.197 0 2.294.126 3.32.154h7.738zm-48.535-37.162s-.428 0-1.24-.168l-3.534-.631-2.55-.463c-.927-.196-1.924-.449-3.007-.701-2.138-.547-4.617-1.052-7.267-1.907l-4.19-1.262c-1.425-.449-2.935-1.024-4.474-1.571-3.121-1.038-6.327-2.44-9.719-3.856a150.261 150.261 0 01-39.998-25.859c-2.665-2.511-5.244-4.839-7.453-7.237-1.112-1.192-2.252-2.285-3.235-3.421l-2.85-3.282c-1.866-2.061-3.32-4.095-4.674-5.819-.669-.87-1.311-1.669-1.852-2.427l-1.425-2.131-1.952-2.903a6.498 6.498 0 01-.641-1.052c.279.309.537.637.769.982l2.095 2.805 1.496 2.075c.57.743 1.225 1.529 1.895 2.384 1.425 1.697 2.85 3.702 4.745 5.736l2.85 3.239c.998 1.122 2.123 2.202 3.249 3.38 2.209 2.37 4.802 4.684 7.481 7.166a154.059 154.059 0 0039.814 25.733c3.377 1.402 6.555 2.804 9.647 3.912 1.539.547 2.992 1.136 4.446 1.599l4.147 1.29c2.636.897 5.101 1.402 7.224 2.005 1.069.281 2.066.561 2.993.772l2.522.532 3.505.744c.404.075.8.188 1.183.336zm54.876 100.941a2.339 2.339 0 01-.456.07l-1.425.112-5.201.421-3.762.266c-1.425 0-2.85.084-4.489.126-3.22 0-6.897.239-10.958 0l-6.355-.182c-2.223-.07-4.517-.322-6.897-.491-4.759-.266-9.818-.981-15.133-1.654a234.284 234.284 0 01-66.575-19.956c-4.802-2.37-9.405-4.543-13.509-6.927-2.066-1.178-4.118-2.23-5.999-3.38l-5.386-3.337c-3.477-2.062-6.412-4.207-9.063-6.045-1.311-.925-2.551-1.753-3.662-2.566l-2.964-2.3-4.09-3.197-1.054-.841c-.228-.197-.356-.295-.342-.309s.142 0 .385.252l1.097.786 4.175 3.085 3.007 2.244c1.111.799 2.365 1.598 3.69 2.51 2.665 1.767 5.615 3.912 9.106 5.932l5.401 3.295c1.88 1.136 3.918 2.174 5.999 3.338 4.104 2.356 8.706 4.515 13.494 6.857a240.053 240.053 0 0066.418 19.984c5.301.687 10.331 1.402 15.09 1.71 2.366.183 4.66.449 6.869.533l6.341.225c4.047.238 7.709 0 10.929 0h4.489l3.762-.225 5.215-.266h1.425zM126.53 213.857c-.071.196-13.609-4.74-30.238-11.022-16.63-6.283-30.053-11.528-29.924-11.71.128-.182 13.608 4.754 30.252 11.022 16.643 6.269 29.981 11.528 29.91 11.71zm55.573-43.206s-.085.126-.284.35l-.898.982c-.77.883-2.024 2.075-3.434 3.8a109.135 109.135 0 00-11.044 15.117 130.822 130.822 0 00-11.613 25.06 163.049 163.049 0 00-7.41 33.011 157.288 157.288 0 00-1.069 25.888v.378h-.371l-44.701-.14-12.924-.154h-3.449l-.826-.084c-.1.012-.2.012-.3 0h4.646l12.939-.113 44.701-.126-.356.379a155.445 155.445 0 011.04-25.916 161.156 161.156 0 017.51-33.137 127.46 127.46 0 0111.813-25.172 103.452 103.452 0 0111.271-15.047c1.425-1.697 2.736-2.805 3.548-3.702l.941-.94c.142-.336.256-.448.27-.434z"/><path d="M214.707 385.027a9.571 9.571 0 01-1.169 1.486c-.798.926-1.966 2.23-3.448 3.829-2.95 3.197-7.125 7.516-11.984 12.088s-9.405 8.512-12.825 11.219a139.017 139.017 0 01-4.047 3.225 9.167 9.167 0 01-1.553 1.094 9.569 9.569 0 011.425-1.318l3.876-3.394c3.277-2.875 7.78-6.871 12.611-11.429s9.063-8.807 12.112-11.906l3.62-3.674c.416-.453.88-.862 1.382-1.22zm-12.283 50.19c.171.098-8.065 13.406-18.396 29.715s-18.853 29.449-19.024 29.351 8.066-13.42 18.397-29.73c10.331-16.309 18.852-29.449 19.023-29.336zm68.84 9.703c-.183.72-.426 1.423-.726 2.104-.556 1.472-1.297 3.38-2.181 5.679a877.797 877.797 0 00-7.025 18.778c-2.65 7.362-4.944 14.023-6.569 18.945l-1.938 5.764a12.346 12.346 0 01-.798 2.09c.116-.737.288-1.463.513-2.174.385-1.402.969-3.38 1.724-5.834 1.425-4.908 3.705-11.653 6.37-19.03 2.665-7.376 5.258-14.023 7.239-18.721.983-2.384 1.81-4.291 2.408-5.609.265-.692.594-1.359.983-1.992zm125.925 59.39a2.327 2.327 0 01-.257-.603 79.474 79.474 0 00-.598-1.781l-2.081-6.605c-1.71-5.61-4.047-13.294-6.569-21.835a2394.275 2394.275 0 01-6.369-21.932c-.756-2.735-1.425-4.979-1.853-6.661l-.413-1.753a4.422 4.422 0 01-.114-.645s.114.196.271.603c.156.406.356 1.079.598 1.781.527 1.668 1.226 3.898 2.066 6.605 1.725 5.609 4.062 13.294 6.584 21.834s4.773 16.281 6.369 21.905c.756 2.72 1.425 4.964 1.839 6.661l.47 1.823c.049.197.068.4.057.603zm14.535-48.844c-.2 0-4.404-10.321-9.391-23.222-4.987-12.902-8.892-23.419-8.707-23.489.186-.071 4.404 10.321 9.391 23.222 4.987 12.902 8.892 23.419 8.707 23.489zm102.455-48.282a13.495 13.495 0 01-1.981-.842 78.837 78.837 0 01-5.229-2.594c-4.389-2.258-10.346-5.609-16.644-9.676s-11.742-8.204-15.561-11.289c-1.923-1.543-3.448-2.805-4.474-3.73a9.854 9.854 0 01-1.553-1.403c.611.372 1.192.79 1.738 1.248l4.617 3.534c3.905 2.973 9.362 7.012 15.675 11.079a274.891 274.891 0 0016.472 9.816l5.116 2.805c.64.295 1.25.647 1.824 1.052zm66.233-53.696c0 .197-14.735-3.211-32.775-7.6-18.04-4.39-32.674-8.12-32.617-8.316.057-.197 14.72 3.211 32.774 7.601 18.054 4.389 32.66 8.119 32.618 8.315zm-17.029-79.554c0 .21-12.824.518-28.641.701-15.818.182-28.657.168-28.671 0-.014-.169 12.825-.519 28.656-.701 15.832-.183 28.656-.197 28.656 0zm-35.567-37.303c0 .196-27.83.841-62.172 1.402-34.341.561-62.185.912-62.185.715 0-.196 27.829-.841 62.185-1.402s62.172-.911 62.172-.715zm50.644-48.858c-.193.115-.399.21-.613.28l-1.81.645-6.64 2.328a964.02 964.02 0 00-21.831 7.91c-8.478 3.197-16.116 6.24-21.617 8.414l-6.526 2.636-1.781.701c-.204.093-.42.159-.641.197 0 0 .185-.141.584-.337l1.724-.813a155.145 155.145 0 016.441-2.805c5.458-2.356 13.053-5.469 21.546-8.681a501.351 501.351 0 0121.93-7.712 397.88 397.88 0 016.726-2.104l1.838-.519a2.32 2.32 0 01.67-.14zm-109.168-53.345c.129.154-8.136 7.531-18.453 16.478s-18.81 16.085-18.938 15.93c-.128-.154 8.123-7.53 18.439-16.477 10.317-8.947 18.81-16.085 18.952-15.931zm13.096-77.198c.171.126-8.179 11.933-18.639 26.391-10.459 14.458-19.08 26.07-19.251 25.958s8.179-11.934 18.653-26.392c10.473-14.458 19.066-26.07 19.237-25.958zM323.603 74.478c-.04-.227-.04-.46 0-.687 0-.533 0-1.178.071-1.963.086-1.823.186-4.207.328-7.236.242-6.114.428-14.557.228-23.84a388.573 388.573 0 00-1.268-23.84l-.627-7.208-.171-1.963a2.14 2.14 0 010-.687c.093.213.146.441.157.673.085.519.171 1.164.299 1.95.242 1.682.541 4.206.869 7.193a273.041 273.041 0 011.425 23.84c.143 9.297-.071 17.81-.456 23.924-.185 3.057-.37 5.525-.556 7.236l-.213 1.963a3.598 3.598 0 01-.086.645zm-70.55 62.348a9.006 9.006 0 01-1.154-1.486 155.026 155.026 0 01-2.85-4.207c-2.351-3.59-5.472-8.653-8.678-14.374a241.078 241.078 0 01-7.695-14.921c-.912-1.935-1.639-3.52-2.095-4.628a9.799 9.799 0 01-.669-1.739 9.48 9.48 0 01.926 1.627l2.308 4.515a454.177 454.177 0 007.88 14.795c3.192 5.722 6.242 10.798 8.55 14.458l2.636 4.334c.333.514.614 1.059.841 1.626zm170.455 83.496a3.452 3.452 0 010-.477v-1.402c0-1.206 0-2.903-.071-5.063 0-4.403-.086-10.686-.157-18.385l.285.281-48.535.084c-.327.337.456-.435.371-.351v25.243l-.356-.351 34.797.168 10.075.098h3.662c-.294.02-.589.02-.883 0h-2.636l-9.975.085-35.026.168h-.342v-25.579c-.086.07.698-.701.37-.378l48.535.098h.285v.266c0 7.769-.114 14.108-.157 18.553 0 2.132 0 3.8-.071 5.006v1.291a2.375 2.375 0 01-.171.645z"/><path d="M414.973 203.872c0 .197-7.538.365-16.844.365-9.305 0-16.828-.168-16.828-.365 0-.196 7.538-.364 16.828-.364 9.291 0 16.844.168 16.844.364zm0 5.441c0 .197-7.538.365-16.844.365-9.305 0-16.828-.168-16.828-.365 0-.196 7.538-.364 16.828-.364 9.291 0 16.844.168 16.844.364zm-11.515 10.448c.366 2.257.49 4.546.371 6.829a32.205 32.205 0 01-.371 6.816 32.204 32.204 0 01-.37-6.816 32.257 32.257 0 01.37-6.829zm197.216 111.191v-1.879c0-1.206 0-2.903-.071-5.062 0-4.404-.085-10.672-.142-18.385l.27.28-48.449.085c-.342.336.442-.435.371-.351v25.242l-.342-.35 34.783.168 10.075.098h3.662a6.3 6.3 0 01-.869 0h-2.636l-9.975.084-35.026.168h-.356v-25.34c-.086 0 .698-.701.37-.379l48.449.099h.285v.28c0 7.783-.114 14.108-.156 18.553v6.297a1.42 1.42 0 01-.243.392z"/><path d="M592.139 314.503c0 .196-7.538.364-16.829.364-9.29 0-16.843-.168-16.843-.364 0-.197 7.538-.365 16.843-.365s16.829.168 16.829.365zm0 5.441c0 .21-7.538.365-16.829.365-9.29 0-16.843-.155-16.843-.365s7.538-.364 16.843-.364 16.829.154 16.829.364z"/></g><path d="M611.561 93.06h-48.534v25.255h48.534z" fill="#fff"/><path d="M611.562 118.315v-1.879c0-1.22 0-2.917-.072-5.062 0-4.418-.085-10.686-.142-18.385l.271.266-48.521.099c-.342.322.442-.45.371-.365v25.242l-.342-.336 34.783.168 10.075.084h3.662a6.3 6.3 0 01-.869 0h-2.636l-9.975.098-35.026.168h-.356v-25.34l.37-.364 48.521.084h.285v.28c0 7.769-.114 14.024-.143 18.553v6.283a1.4 1.4 0 01-.256.406z" fill="#d80202"/><path d="M603.04 101.88c0 .196-7.552.364-16.843.364s-16.843-.168-16.843-.364c0-.197 7.538-.365 16.843-.365s16.843.154 16.843.365zm0 5.441c0 .196-7.552.365-16.843.365s-16.843-.169-16.843-.365 7.538-.364 16.843-.364 16.843.154 16.843.364zm-24.823 10.882c.213 0 .37 14.921.37 33.306 0 18.384-.157 33.319-.37 33.319-.214 0-.37-14.921-.37-33.319 0-18.399.171-33.306.37-33.306zM48.855 183.707a1.894 1.894 0 010-.477v-6.409c0-4.403-.086-10.671-.143-18.37l.285.266-48.534.098.37-.364v25.242l-.342-.337 34.784.169 10.074.084h3.677c-.295.019-.59.019-.884 0h-2.636l-9.975.098-35.026.168H.007v-25.41c-.086.07.698-.701.37-.365l48.535.084h.27v.281c0 7.769-.114 14.093-.142 18.553v6.282c0 .337-.185.407-.185.407z" fill="#d80202"/><path d="M40.32 167.229c0 .211-7.539.365-16.844.365s-16.829-.154-16.829-.365c0-.21 7.524-.364 16.829-.364s16.843.168 16.843.364zm0 5.455c0 .197-7.539.365-16.844.365s-16.829-.168-16.829-.365c0-.196 7.524-.364 16.829-.364s16.843.168 16.843.364z" fill="#d80202"/><path d="M136.134 450.796H87.6v25.256h48.534z" fill="#fff"/><path d="M136.134 476.053a1.904 1.904 0 010-.477v-6.409c0-4.403-.085-10.672-.156-18.37l.285.266-48.535.098.37-.364v25.242l-.341-.337 34.797.168 10.061.085h3.676a6.847 6.847 0 01-.883 0h-2.636l-9.975.098-35.026.168h-.342v-25.593l.37-.364 48.535.084h.285v.28c0 7.769-.114 14.094-.143 18.539 0 2.132 0 3.815-.071 5.021v1.276a2.02 2.02 0 01-.271.589z" fill="#d80202"/><path d="M127.599 459.603c0 .21-7.538.365-16.844.365-9.305 0-16.828-.155-16.828-.365s7.538-.364 16.828-.364c9.291 0 16.844.168 16.844.364zm0 5.455c0 .197-7.538.365-16.844.365-9.305 0-16.828-.168-16.828-.365 0-.196 7.538-.364 16.828-.364 9.291 0 16.844.154 16.844.364zM426.315 28.327v-1.879c0-1.22 0-2.917-.071-5.062 0-4.418-.086-10.686-.143-18.385l.271.28-48.52.084c-.342.323.442-.448.356-.364v25.242l-.356-.35 34.798.168 10.074.098h3.662-3.505l-9.975.098-35.026.168h-.342V3.085c-.071.084.713-.687.385-.365l48.52.085h.285v.266c-.071 7.769-.114 14.107-.156 18.553 0 2.131 0 3.8-.072 5.006v1.29a1.366 1.366 0 01-.185.407z" fill="#d80202"/><path d="M417.78 11.878c0 .196-7.539.364-16.829.364-9.291 0-16.843-.168-16.843-.364s7.538-.365 16.843-.365 16.829.154 16.829.365zm0 5.442c0 .195-7.539.364-16.829.364-9.291 0-16.843-.169-16.843-.365s7.538-.364 16.843-.364 16.829.168 16.829.364zM60.197 189.316a7.348 7.348 0 01-1.667.154l-4.546.113c-3.847 0-9.148.098-15.005.098-6.141 0-11.67 0-15.503-.112h-.257v-.253c0-1.627.086-3.015.114-4.137a6.402 6.402 0 01.143-1.5c.116.491.164.996.142 1.5 0 1.122 0 2.51.114 4.137l-.256-.238c3.833-.07 9.362-.126 15.503-.126 5.857 0 11.158 0 15.005.112l4.546.112a8.105 8.105 0 011.667.14zM381.4 106.087c.03-.274.097-.543.2-.8.171-.575.399-1.318.684-2.215l2.536-8.162c2.095-6.885 4.817-16.477 7.296-27.177a434.22 434.22 0 003.121-14.627c-.143-7.222-.271-13.406-.357-17.894V30.08a9.499 9.499 0 01.072-1.823c.092.603.144 1.212.156 1.823 0 1.29.143 3 .228 5.118.157 4.488.371 10.672.627 17.894-.84 4.53-1.866 9.494-3.063 14.655-2.494 10.728-5.287 20.32-7.524 27.177a258.612 258.612 0 01-2.764 8.092l-.813 2.187a3.483 3.483 0 01-.399.884zM179.738 465.058c0 .197-9.205.365-20.548.365s-20.562-.168-20.562-.365c0-.196 9.205-.364 20.562-.364s20.548.154 20.548.364zm414.297 57.496c1.225-4.207 3.847-8.217 7.894-9.942s9.12-.772 13.438.771c4.317 1.542 8.549 3.618 13.152 3.898 4.603.281 9.761-1.865 11.129-6.184 1.297-4.053-1.183-8.414-4.275-11.331a27.305 27.305 0 00-11.723-6.542 27.622 27.622 0 00-13.475-.199c-4.437 1.048-8.535 3.178-11.916 6.194s-5.936 6.821-7.43 11.065" fill="#d80202"/><path d="M594.035 522.554c1.225-4.207 3.847-8.217 7.894-9.942s9.12-.772 13.438.771c4.317 1.542 8.549 3.618 13.152 3.898 4.603.281 9.761-1.865 11.129-6.184 1.297-4.053-1.183-8.414-4.275-11.331a27.305 27.305 0 00-11.723-6.542 27.622 27.622 0 00-13.475-.199c-4.437 1.048-8.535 3.178-11.916 6.194s-5.936 6.821-7.43 11.065" fill="#212121" opacity=".5"/><path d="M557.684 540.686c-6.726-6.296-6.398-17.249-3.035-25.761 3.362-8.512 10.687-15.061 18.866-19.366 7.988-4.12 16.819-6.41 25.833-6.699s17.978 1.43 26.221 5.03c-4.03.181-7.954 1.329-11.431 3.343s-6.401 4.833-8.518 8.212c-3.677 6.03-4.503 13.337-7.553 19.703-3.435 7.178-9.533 12.788-17.042 15.677a32.006 32.006 0 01-23.327-.139m-3.249-37.807c-7.453-8.652-8.45-22.549-7.353-33.838s3.762-22.662 1.952-33.867c-1.068-6.633-3.69-12.971-4.574-19.632-.883-6.662.371-14.192 5.614-18.497 6.028-4.951 15.533-3.787 21.803.855 6.269 4.642 9.974 11.948 12.568 19.212 5.842 15.973 7.98 33.656 3.192 49.98-4.788 16.323-16.045 30.851-32.561 35.801" fill="#d80202"/><path d="M550.872 573.908a5.345 5.345 0 010-.996v-2.804c.086-2.483.342-6.073.898-10.49a138.563 138.563 0 012.85-15.356 69.847 69.847 0 017.125-17.767c5.806-10.147 13.97-18.797 23.825-25.242 1.867-1.277 3.663-2.23 5.216-3.128 1.553-.897 2.978-1.486 4.104-2.033l2.693-1.108a6.98 6.98 0 01.94-.35 4.64 4.64 0 01-.897.462l-2.622 1.206a179.11 179.11 0 00-4.047 2.118 55.309 55.309 0 00-5.144 3.183c-9.707 6.53-17.761 15.166-23.541 25.242-6.84 11.794-8.721 24.191-10.089 32.885-.612 4.39-.926 7.966-1.083 10.448l-.171 2.804c.003.31-.017.619-.057.926z" fill="#212121"/><path d="M486.592 468.733c-13.78 8.189-13.737 15.636-11.4 22.676 2.337 7.039 10.773 11.919 17.784 9.283 3.961-1.486 6.839-4.88 9.29-8.288 2.451-3.407 4.76-7.012 8.194-9.508s8.436-3.379 11.884-.953" fill="#d80202"/><path d="M486.592 468.733c-13.78 8.189-13.737 15.636-11.4 22.676 2.337 7.039 10.773 11.919 17.784 9.283 3.961-1.486 6.839-4.88 9.29-8.288 2.451-3.407 4.76-7.012 8.194-9.508s8.436-3.379 11.884-.953" fill="#212121" opacity=".5"/><path d="M476.275 477.708c3.605-4.895 12.511-6.325 18.14-3.871 5.628 2.454 9.732 7.292 13.423 12.13s7.282 9.957 12.383 13.337c5.101 3.379 12.241 4.585 17.328 1.192a14.755 14.755 0 004.001-4.423 14.51 14.51 0 001.898-5.618c.442-3.957.167-7.96-.812-11.822-1.226-5.693-3.206-11.639-7.838-15.257-5.158-4.025-12.311-4.207-18.895-3.997-7.552.238-15.218.799-22.3 3.366-7.083 2.566-14.321 8.147-17.328 14.963z" fill="#d80202"/><path d="M539.416 563.04a.813.813 0 010-.295v-.869c0-.827-.071-1.949-.128-3.38-.086-2.973-.2-7.194-.357-12.382-.156-5.189-.384-11.443-.769-18.357s-.912-14.486-1.967-22.437a71.127 71.127 0 00-2.294-11.373 59.808 59.808 0 00-9.547-18.231 53.188 53.188 0 00-5.828-6.282 42.893 42.893 0 00-10.317-6.928c-.67-.294-1.254-.603-1.781-.813l-1.354-.505-.827-.337c-.185-.07-.27-.112-.27-.126l.285.07.855.267 1.425.462c.541.197 1.14.477 1.824.772a41.476 41.476 0 0110.516 6.815 55.04 55.04 0 015.928 6.297 57.176 57.176 0 015.286 8.4 57.779 57.779 0 014.275 10.026 70.237 70.237 0 012.309 11.471c1.069 7.924 1.582 15.524 1.938 22.438.356 6.913.527 13.14.641 18.371.114 5.23.143 9.465.157 12.396v4.249zm4.93 6.128a38.4 38.4 0 01-1.51-5.82 59.841 59.841 0 01-.627-16.365 106.934 106.934 0 015.243-23.756c2.85-8.736 6.669-18.062 9.975-28.047a125.917 125.917 0 003.947-14.864c.919-4.687 1.576-9.42 1.967-14.178.621-8.072.768-16.172.442-24.261-.243-6.913-.613-12.495-.855-16.365-.114-1.893-.2-3.394-.257-4.445v-1.164a1.362 1.362 0 010-.393c.014.131.014.262 0 .393 0 .294.071.673.114 1.15.1 1.065.228 2.552.385 4.445.313 3.856.741 9.438 1.04 16.365a194.21 194.21 0 01-.313 24.317 129.018 129.018 0 01-1.924 14.248 126.905 126.905 0 01-3.961 14.935c-3.292 10.068-7.125 19.394-9.975 28.046a109.502 109.502 0 00-5.358 23.616 62.142 62.142 0 00.427 16.295c.342 1.893.656 3.366.927 4.347l.285 1.136c.023.12.033.243.028.365z" fill="#212121"/><path d="M578.545 575.31h-64.736l-1.482-12.27h66.218z" fill="#455a64"/><path d="M520.763 573.908l8.093 36.784h35.169l7.581-36.784z" fill="#455a64"/><path d="M578.545 575.311c0 .169-14.25.253-31.791.211s-31.791-.225-31.791-.393c0-.169 14.25-.267 31.791-.211s31.791.225 31.791.393z" fill="#455a64"/><path d="M567.445 593.456a27.337 27.337 0 00-5.7-3.211 20.862 20.862 0 00-6.94-1.402 24.73 24.73 0 00-8.55 1.542c-2.949.982-5.7 2.132-8.393 2.805a20.677 20.677 0 01-7.253.21 15.061 15.061 0 01-4.66-1.402 7.668 7.668 0 01-1.111-.701c-.257-.183-.371-.281-.356-.295.014-.014.556.309 1.581.786a16.855 16.855 0 004.617 1.248c2.354.289 4.74.175 7.054-.337 2.593-.645 5.358-1.795 8.322-2.805a24.372 24.372 0 018.735-1.514c2.452.061 4.869.58 7.125 1.528a18.693 18.693 0 014.275 2.412c.353.266.691.552 1.011.856.143.154.257.266.243.28z" fill="#212121"/><path d="M566.946 595.994a27.188 27.188 0 00-5.472-3.183 18.772 18.772 0 00-6.683-1.402 24.435 24.435 0 00-8.25 1.402c-2.85.94-5.529 2.02-8.08 2.707a21.09 21.09 0 01-6.968.757 11.869 11.869 0 01-4.574-1.192c-.379-.2-.741-.43-1.083-.687-.228-.169-.356-.267-.342-.281s.541.295 1.539.744c1.421.601 2.943.939 4.488.995a21.6 21.6 0 006.783-.883c2.508-.687 5.159-1.795 8.051-2.735a23.945 23.945 0 018.45-1.402c2.358.069 4.68.583 6.84 1.514a18.031 18.031 0 014.047 2.412c.333.259.652.536.955.828.218.196.318.332.299.406zm1.14-4.978a32.521 32.521 0 00-5.857-3.393 22.064 22.064 0 00-7.124-1.683 23.478 23.478 0 00-8.792 1.528 79.287 79.287 0 01-8.679 2.805c-2.48.422-5.015.422-7.495 0a16.837 16.837 0 01-4.816-1.5 8.652 8.652 0 01-1.155-.702c-.256-.196-.384-.294-.37-.308s.57.323 1.639.799a18.248 18.248 0 004.773 1.29 22.67 22.67 0 007.31-.14 85.237 85.237 0 008.55-2.804 23.25 23.25 0 019.035-1.501 21.806 21.806 0 0111.556 4.403c.366.272.714.567 1.04.884.285.196.399.308.385.322z" fill="#fff"/><path d="M579.129 575.353c0 .168-14.563.308-32.532.308s-32.517-.14-32.517-.308c0-.169 14.563-.295 32.517-.295 17.955 0 32.532.126 32.532.295z" fill="#212121"/></g></svg>