<svg width="20" height="20" viewBox="0 0 20 20" fill="none" xmlns="http://www.w3.org/2000/svg"><path d="M10.001 0A5.207 5.207 0 004.81 5.193 5.207 5.207 0 0010 10.386a5.207 5.207 0 005.193-5.193A5.207 5.207 0 0010.001 0zm8.912 14.535a4.848 4.848 0 00-.521-.952c-1.044-1.542-2.654-2.563-4.468-2.812-.226-.023-.476.022-.657.159A5.463 5.463 0 0110 11.995a5.463 5.463 0 01-3.265-1.065.851.851 0 00-.657-.16 6.408 6.408 0 00-4.468 2.813 5.584 5.584 0 00-.521.952.48.48 0 00.023.43c.181.318.408.636.612.908.317.43.657.816 1.043 1.179.317.317.68.612 1.043.907A10.273 10.273 0 009.979 20c2.222 0 4.376-.702 6.168-2.04.362-.272.725-.59 1.043-.907.362-.363.725-.748 1.043-1.18.226-.294.43-.589.612-.906.113-.136.136-.295.068-.431z" fill="#504EF3"/></svg>