<svg width="24" height="26" viewBox="0 0 24 26" fill="none" xmlns="http://www.w3.org/2000/svg"><path d="M10.125 2.875a.469.469 0 100 .938.469.469 0 000-.938zM4.2 9.45a.6.6 0 100 1.2.6.6 0 000-1.2zm0 2.62a.6.6 0 100 1.2.6.6 0 000-1.2zm0 2.62a.6.6 0 100 1.2.6.6 0 000-1.2zm0 2.71a.6.6 0 100 1.2.6.6 0 000-1.2zm0 2.812a.6.6 0 100 1.2.6.6 0 000-1.2z" fill="#212121"/><rect x="5.699" y="9.45" width="10.31" height="1.2" rx=".6" fill="#212121"/><rect x="5.699" y="12.07" width="10.31" height="1.2" rx=".6" fill="#212121"/><rect x="5.699" y="14.69" width="10.31" height="1.2" rx=".6" fill="#212121"/><path d="M19.831 19.044a.469.469 0 00-.662 0l-1.544 1.543-.606-.606a.469.469 0 00-.663.663l.938.937a.468.468 0 00.662 0l1.875-1.875a.469.469 0 000-.662z" fill="#504EF3"/><path fill-rule="evenodd" clip-rule="evenodd" d="M10.126.8a2.55 2.55 0 00-2.455 1.875h-.358c-.647 0-1.206.385-1.46.937H2.626c-.886 0-1.606.72-1.606 1.607v18.375c0 .885.72 1.606 1.606 1.606h15.469a4.893 4.893 0 004.887-4.888 4.88 4.88 0 00-3.75-4.754V5.218c0-.885-.72-1.606-1.606-1.606h-3.228a1.608 1.608 0 00-1.46-.937h-.358A2.548 2.548 0 0010.126.8zM8.92 3.344c0-.665.54-1.207 1.206-1.207.665 0 1.206.542 1.206 1.207 0 .369.3.668.669.668h.937a.27.27 0 01.269.269v.269H7.045v-.27a.27.27 0 01.268-.269h.938c.37 0 .669-.3.669-.668zM2.357 5.219a.27.27 0 01.269-.27h3.081v.27c0 .369.3.668.669.668h7.5c.37 0 .668-.3.668-.668v-.27h3.082a.27.27 0 01.268.27v10.21a4.879 4.879 0 00-3.648 1.87h-7.87a.67.67 0 00-.669.67c0 .371.302.664.669.664h7.126a4.9 4.9 0 00-.29 1.48H6.375a.669.669 0 000 1.337h6.964a4.863 4.863 0 001.391 2.412H2.626a.27.27 0 01-.269-.268V5.219zm12.787 13.119a3.546 3.546 0 013.346-1.554 3.543 3.543 0 013.155 3.528 3.554 3.554 0 01-3.55 3.55 3.543 3.543 0 01-3.55-3.55c0-.705.206-1.386.595-1.969l.004-.005z" fill="#212121"/></svg>