<svg width="25" height="24" viewBox="0 0 25 24" fill="none" xmlns="http://www.w3.org/2000/svg"><path fill-rule="evenodd" clip-rule="evenodd" d="M22.675 10.579l-8.903-1.768v1.404l8.625 1.703c.131.03.227.152.227.29V22.24a.296.296 0 01-.295.295h-8.557v.689a.29.29 0 01-.295.295v.394h8.852a1.67 1.67 0 001.672-1.673V12.208a1.65 1.65 0 00-1.326-1.629z" fill="#212121"/><path d="M19.377 13.88c.275 0 .492.216.492.491a.487.487 0 01-.492.492H17.41a.487.487 0 01-.492-.492c0-.275.216-.492.492-.492h1.967zm0 2.95c.275 0 .492.217.492.492a.487.487 0 01-.492.492H17.41a.487.487 0 01-.492-.492c0-.275.216-.492.492-.492h1.967zm0 2.951c.275 0 .492.217.492.492a.487.487 0 01-.492.492H17.41a.487.487 0 01-.492-.492c0-.275.216-.492.492-.492h1.967z" fill="#504EF3"/><path fill-rule="evenodd" clip-rule="evenodd" d="M13.613 8.778a.714.714 0 00-.57.134l-.008.006-.006.006a.72.72 0 00-.242.529v13.77c0 .385.305.69.689.69a.684.684 0 00.688-.69V8.89l-.551-.11z" fill="#212121"/><path d="M12.984 22.732v.492c0 .275.216.491.491.491H9.541a.487.487 0 00.492-.491v-.492h2.95z" fill="#212121" stroke="#212121" stroke-width=".4"/><path d="M10.525 5.027c.276 0 .492.216.492.492a.487.487 0 01-.492.491H8.558a.487.487 0 01-.492-.491c0-.276.217-.492.492-.492h1.967zm.492 3.443a.487.487 0 01-.492.492H8.558a.487.487 0 01-.492-.492c0-.276.217-.492.492-.492h1.967c.276 0 .492.216.492.492zm-.492 2.459c.276 0 .492.216.492.492a.487.487 0 01-.492.491H8.558a.487.487 0 01-.492-.492c0-.275.217-.491.492-.491h1.967zm0 2.951c.276 0 .492.216.492.491a.487.487 0 01-.492.492H8.558a.487.487 0 01-.492-.492c0-.275.217-.492.492-.492h1.967zm-4.425.491a.487.487 0 01-.493.492H3.64a.487.487 0 01-.492-.492c0-.275.217-.492.492-.492h1.967c.276 0 .492.217.492.492zm-.493-9.344c.276 0 .492.216.492.492a.487.487 0 01-.492.491H3.64a.487.487 0 01-.492-.491c0-.276.217-.492.492-.492h1.967zm0 2.951c.276 0 .492.216.492.492a.487.487 0 01-.492.492H3.64a.487.487 0 01-.492-.492c0-.276.217-.492.492-.492h1.967zm0 2.951c.276 0 .492.216.492.492a.487.487 0 01-.492.491H3.64a.487.487 0 01-.492-.492c0-.275.217-.491.492-.491h1.967z" fill="#504EF3"/><path fill-rule="evenodd" clip-rule="evenodd" d="M5.607 16.63c-.927 0-1.675.749-1.675 1.676v4.626h1.383v-4.626c0-.165.127-.292.292-.292h2.95c.159 0 .293.13.293.292v4.626h1.383v-4.626c0-.927-.748-1.676-1.675-1.676h-2.95z" fill="#212121"/><path fill-rule="evenodd" clip-rule="evenodd" d="M11.232 22.532h-8.3v.692c0 .213.113.391.27.51a.982.982 0 00.588.182h6.583c.222 0 .43-.065.587-.183a.637.637 0 00.272-.509v-.692z" fill="#212121"/><path fill-rule="evenodd" clip-rule="evenodd" d="M.592.49A1.673 1.673 0 011.948.11L12.76 1.754a1.667 1.667 0 011.404 1.65V9.29l-.629-.126a.319.319 0 00-.249.058.325.325 0 00-.106.231h-.393V3.404a.3.3 0 00-.248-.297L1.715 1.47 1.7 1.467h-.029a.267.267 0 00-.184.068l-.005.004a.274.274 0 00-.106.222v20.48c0 .163.136.294.295.294h2.656v.689a.29.29 0 00.295.295v.393h-2.95A1.67 1.67 0 010 22.24V1.761C0 1.273.21.804.592.49z" fill="#212121"/></svg>