<svg width="17" height="16" viewBox="0 0 17 16" fill="none" xmlns="http://www.w3.org/2000/svg"><g clip-path="url(#clip0_4997_46388)"><path d="M16.224 13.241H.776a.276.276 0 01-.276-.276v-9.93c0-.153.124-.276.276-.276h15.448c.152 0 .276.123.276.275v9.931a.276.276 0 01-.276.276z" fill="#F5F5F5"/><path d="M12.913 2.759H4.086v10.483h8.827V2.759z" fill="#fff"/><path d="M.776 2.759a.276.276 0 00-.276.275v9.931c0 .153.124.276.276.276h3.31V2.76H.776zm15.448 0h-3.31V13.24h3.31a.276.276 0 00.276-.276v-9.93a.276.276 0 00-.276-.276zm-6.05 6.452l1.637-.935-.376-.188a.276.276 0 01-.15-.283l.122-.916-.693.201a.276.276 0 01-.346-.205l-.067-.3-.65.761c-.09.106-.262.025-.239-.111l.278-1.616-.425.116a.276.276 0 01-.316-.136l-.449-.84v-.001.001l-.448.84a.276.276 0 01-.316.136l-.426-.116.278 1.616c.024.136-.148.217-.239.111l-.65-.761-.067.3a.276.276 0 01-.346.205l-.693-.201.122.916a.276.276 0 01-.15.283l-.376.188 1.637.935a.4.4 0 01.176.486l-.14.374 1.403-.12a.13.13 0 01.141.134l-.044 1.501h.276l-.045-1.501a.13.13 0 01.142-.134l1.403.12-.14-.374a.398.398 0 01.176-.486z" fill="#FF4B55"/></g><defs><clipPath id="clip0_4997_46388"><path fill="#fff" transform="translate(.5)" d="M0 0h16v16H0z"/></clipPath></defs></svg>