<svg width="26" height="24" viewBox="0 0 26 24" fill="none" xmlns="http://www.w3.org/2000/svg"><path fill-rule="evenodd" clip-rule="evenodd" d="M8.059 8.357a.56.56 0 00.215.343l5.51 4.329c.358.281.782.438 1.21.463a.604.604 0 00.066 0c.428-.025.85-.182 1.209-.463l7.589-5.962v9.849c0 .15-.171.347-.506.347h-5.254a.568.568 0 100 1.135h5.254c.858 0 1.647-.62 1.647-1.482V6.43c0-.862-.789-1.483-1.647-1.483H8.844l-.785 3.409zM23.27 6.084H9.157c.014.114.023.226.025.335.008.477-.14.92-.4 1.286a.589.589 0 01.197.105l5.51 4.328c.165.128.36.19.537.208.177-.018.371-.08.534-.208l7.71-6.054z" fill="#504EF3"/><path d="M8.274 8.7l.062-.08h-.003l-.06.08zm-.215-.343l-.098-.023-.005.02.004.022.099-.02zm5.725 4.672l.061-.08-.061.08zm1.21.463l-.006.1.006-.1zm.066 0l.005.1-.005-.1zm1.209-.463l.062.078-.062-.078zm7.589-5.962h.1v-.206l-.162.127.062.079zm-5.76 10.196v.1-.1zm0 1.135v-.1.1zM8.844 4.948v-.1h-.08l-.018.078.098.022zm.313 1.135v-.1h-.114l.014.113.1-.013zm14.113 0l.062.08.227-.18h-.289v.1zM9.182 6.42l-.1.002.1-.002zm-.4 1.286l-.081-.058-.08.113.132.04.03-.095zm.197.105l-.063.078h.001l.062-.078zm5.51 4.328l-.062.078.062-.078zm.537.208l-.01.1h.02l-.01-.1zm.534-.208l.062.078-.062-.078zm-7.227-3.52a.463.463 0 01-.176-.281l-.197.038c.032.16.122.306.254.404l.12-.16zm5.512 4.33l-5.51-4.328-.123.157 5.51 4.33.123-.158zm1.155.443a2.064 2.064 0 01-1.155-.442l-.123.157c.374.294.818.459 1.266.485l.012-.2zm.055 0a.503.503 0 01-.055 0l-.011.2a.706.706 0 00.076 0l-.01-.2zm1.152-.442a2.062 2.062 0 01-1.153.442l.012.2c.448-.026.89-.191 1.265-.485l-.124-.157zm7.589-5.962l-7.589 5.962.124.157 7.588-5.961-.123-.158zm.162 9.928V7.067h-.2v9.849h.2zm-.606.447c.369 0 .606-.223.606-.447h-.2c0 .075-.105.247-.406.247v.2zm-5.254 0h5.254v-.2h-5.254v.2zm-.472.468c0-.259.21-.47.471-.468l.002-.2a.668.668 0 00-.673.668h.2zm.471.467a.468.468 0 01-.471-.467h-.2c0 .37.301.67.673.667l-.002-.2zm5.255 0h-5.254v.2h5.254v-.2zm1.547-1.382c0 .793-.73 1.382-1.547 1.382v.2c.9 0 1.747-.652 1.747-1.582h-.2zm0-10.485v10.485h.2V6.43h-.2zm-1.547-1.383c.817 0 1.547.59 1.547 1.383h.2c0-.93-.848-1.583-1.747-1.583v.2zm-14.508 0h14.508v-.2H8.844v.2zM8.156 8.38l.785-3.408-.195-.045-.785 3.408.195.045zm1-2.195H23.27v-.2H9.157v.2zm.126.234a3.188 3.188 0 00-.026-.347l-.199.025a3.1 3.1 0 01.025.325l.2-.003zm-.418 1.344a2.25 2.25 0 00.418-1.344l-.2.003A2.05 2.05 0 018.7 7.647l.163.115zm.178-.03a.689.689 0 00-.23-.123l-.06.191c.06.019.115.048.164.088l.126-.156zm5.508 4.327L9.04 7.731l-.123.157 5.51 4.328.123-.157zm.486.187a.95.95 0 01-.486-.187l-.123.158c.183.141.397.21.59.228l.02-.199zm.463-.187a.93.93 0 01-.482.187l.019.2c.192-.02.405-.088.586-.23l-.123-.157zm7.71-6.054l-7.71 6.054.123.157 7.71-6.054-.124-.157z" fill="#504EF3"/><path fill-rule="evenodd" clip-rule="evenodd" d="M8.783 7.704a2.15 2.15 0 00.4-1.285 3.089 3.089 0 00-.026-.336l-.313-1.135a10.11 10.11 0 00-.64-1.29c-.25-.52-.655-1.209-1.163-1.762-.256-.28-.533-.529-.878-.69v.002a1.464 1.464 0 00-.587-.138c-.21-.003-.426.04-.62.153l-.842.485-.05.03-.004.003C2.033 3.225 1.1 5.29 1.008 7.42c-.091 2.128.62 4.325 1.793 6.245l2.173 3.745-.005-.012c1.085 1.972 2.64 3.681 4.539 4.666 1.9.987 4.164 1.216 6.47.21a.433.433 0 00.055-.027l.844-.485c.39-.222.586-.654.618-1.032.033-.376-.044-.742-.16-1.103-.228-.713-.626-1.406-.954-1.881-.621-1.068-1.22-1.81-1.913-2.223a2.182 2.182 0 00-2.22-.018l-1.047.604c-.31.178-.67.157-1.051-.004-.38-.16-.73-.482-.86-.708l-2.585-4.454c-.13-.227-.237-.69-.187-1.098.05-.407.214-.725.524-.904l1.017-.585.724-.652zm-3.105-5.47a.537.537 0 00-.11-.044c-.013-.002-.02.003-.03.01a.235.235 0 01-.011.006l-.798.456c-1.757 1.29-2.503 2.966-2.582 4.805-.08 1.842.55 3.843 1.628 5.606l.002.004.006.008 2.18 3.758c.002 0 .003.003.004.005l.004.005c.995 1.81 2.423 3.352 4.065 4.206 1.64.85 3.474 1.046 5.476.178l.796-.456a.266.266 0 01.011-.006c.027-.015.03-.017.041-.14.011-.137-.023-.386-.111-.66-.178-.555-.546-1.216-.816-1.605a.548.548 0 01-.025-.041c-.577-.994-1.113-1.587-1.526-1.833-.412-.245-.658-.24-1.063-.007l-1.047.602c-.682.392-1.456.318-2.068.059-.61-.26-1.11-.681-1.403-1.185L5.716 11.51c-.292-.504-.41-1.143-.33-1.8.08-.656.403-1.36 1.085-1.752l1.047-.604c.406-.233.534-.44.526-.918-.008-.476-.257-1.236-.836-2.23a.739.739 0 00-.02-.04c-.203-.428-.596-1.077-.99-1.506-.195-.214-.394-.367-.52-.427z" fill="#212121"/><path d="M9.182 6.419l-.1.001.1-.001zm-.4 1.285l.068.075.008-.008.006-.009-.081-.058zm.375-1.62l.1-.013-.002-.007-.002-.007-.096.026zm-.313-1.136l.097-.027-.004-.01-.093.037zm-.64-1.29l-.09.043.004.007.086-.05zM7.041 1.896l-.074.067.074-.067zm-.878-.69l.042-.09-.142-.066v.156h.1zm0 .002l-.043.09.143.068v-.158h-.1zm-.587-.138l.002-.1-.002.1zm-.62.153l.05.087-.05-.087zm-.842.485l.05.087-.05-.087zm-.05.03l.054.085-.054-.085zm-.004.003l-.053-.085L4 1.66l.06.08zM1.008 7.42l.1.004-.1-.004zM2.8 13.665l.087-.05-.001-.002-.086.052zm2.173 3.745l-.086.05.177-.092-.09.042zm-.005-.012l.088-.048-.179.09.091-.042zm4.539 4.666l.046-.088-.046.088zm6.47.21l-.04-.092.04.092zm.055-.027l-.05-.087-.002.001.052.086zm.844-.485l-.05-.087.05.087zm.618-1.032l-.1-.008.1.008zm-.16-1.103l-.095.03v.001l.095-.03zm-.954-1.881l-.087.05.004.007.083-.057zm-1.913-2.223l.051-.086-.051.086zm-2.22-.018l-.05-.086.05.086zm-1.047.604l.05.087-.05-.087zm-1.051-.004l-.04.092.04-.092zm-.86-.708l.086-.05-.086.05zm-2.585-4.454l-.086.05.086-.05zm-.187-1.098l.1.012-.1-.012zm.524-.904l-.05-.086.05.086zm1.017-.585l.05.087.01-.005.007-.007-.067-.075zM5.568 2.19l.017-.1h-.006l-.011.1zm.11.043l.043-.09-.043.09zm-.14-.034l.055.084-.055-.084zm-.011.007l.05.087-.05-.087zm-.798.456l-.05-.088-.009.007.06.08zM2.147 7.467l-.1-.004.1.004zm1.628 5.606l-.085.053.085-.053zm.002.004l.086-.051-.086.05zm.006.008l.087-.05-.007-.011-.009-.01-.07.071zm2.18 3.758l-.086.05.008.014.012.01.066-.074zm.004.005l.086-.052-.086.052zm.004.005l.088-.048-.006-.01-.008-.01-.074.068zm4.065 4.206l-.046.09.046-.09zm5.476.178l.04.093.01-.006-.05-.087zm.796-.456l.05.087.002-.001-.052-.086zm.011-.006l.048.088-.048-.088zm.041-.14l.1.009-.1-.009zm-.111-.66l.095-.032-.096.031zm-.816-1.605l-.084.055.002.002.082-.057zm-.025-.041l.087-.049v-.002l-.087.05zm-1.526-1.833l-.052.086.052-.086zm-1.063-.007l-.05-.087.05.087zm-1.047.602l.05.087-.05-.087zm-2.068.059l.04-.092-.04.092zm-1.403-1.185l-.087.05.087-.05zM5.716 11.51l-.086.05.086-.05zm-.33-1.8l.1.013-.1-.012zm1.085-1.752l.05.086-.05-.086zm1.047-.604l-.05-.087.05.087zm.526-.918l-.1.002.1-.002zm-.836-2.23l-.093.04.006.011.087-.05zm-.02-.04l-.09.043.001.002.09-.045zm-.99-1.506l-.073.068.074-.068zm2.884 3.76a2.05 2.05 0 01-.38 1.226l.162.116a2.25 2.25 0 00.418-1.345l-.2.004zm-.024-.324c.014.111.023.22.024.324l.2-.002a3.188 3.188 0 00-.026-.347l-.198.025zm-.31-1.121l.313 1.135.192-.053-.312-1.136-.193.054zm-.63-1.267c.265.46.475.88.634 1.277l.185-.074a10.21 10.21 0 00-.646-1.303l-.173.1zm-1.15-1.745c.498.544.899 1.223 1.146 1.738l.18-.086c-.252-.526-.663-1.224-1.179-1.787l-.147.135zm-.847-.666c.328.153.594.39.846.666l.148-.135c-.26-.284-.547-.544-.91-.712l-.084.181zm.142-.09h-.2.2zm-.69-.037c.197.004.387.053.547.128l.085-.18A1.564 1.564 0 005.579.97l-.004.2zm-.566.14c.175-.102.371-.143.567-.14l.004-.2a1.288 1.288 0 00-.672.167l.1.173zm-.843.485l.842-.485-.1-.174-.842.485.1.174zm-.046.028c.016-.01.03-.02.045-.028l-.099-.174-.053.032.107.17zm-.004.002l.004-.002-.107-.17-.004.003.107.17zM1.108 7.424c.09-2.101 1.01-4.138 3.011-5.603l-.118-.161c-2.054 1.503-3 3.598-3.093 5.755l.2.009zm1.779 6.19c-1.167-1.909-1.87-4.086-1.78-6.19l-.2-.009c-.091 2.153.627 4.37 1.809 6.302l.17-.104zm2.174 3.745l-2.173-3.744-.173.1 2.173 3.745.173-.1zm-.183.081l.005.011.182-.083-.005-.011-.182.083zm4.676 4.536c-1.878-.974-3.42-2.667-4.497-4.626l-.175.097c1.091 1.984 2.658 3.71 4.58 4.706l.092-.177zm6.384.207c-2.276.992-4.509.767-6.384-.207l-.092.177c1.924 1 4.22 1.231 6.556.213l-.08-.183zm.043-.022a.324.324 0 01-.043.021l.079.184a.527.527 0 00.068-.034l-.104-.17zm.846-.486l-.844.485.1.173.844-.484-.1-.174zm.569-.953c-.03.354-.214.752-.569.953l.1.174c.426-.243.634-.71.668-1.11l-.2-.017zm-.156-1.064c.114.355.187.707.156 1.064l.199.017c.034-.395-.047-.776-.165-1.142l-.19.061zm-.942-1.855c.325.47.718 1.154.942 1.855l.19-.061c-.232-.726-.635-1.428-.967-1.908l-.165.114zm-1.881-2.195c.67.401 1.259 1.124 1.877 2.188l.173-.1c-.623-1.073-1.233-1.832-1.948-2.26l-.103.172zm-2.119-.016a2.082 2.082 0 012.119.016l.102-.171a2.282 2.282 0 00-2.32-.018l.1.173zm-1.047.604l1.047-.604-.1-.173-1.047.603.1.174zm-1.14.002c.398.168.794.197 1.14-.002l-.1-.174c-.272.158-.599.145-.962-.009l-.078.184zm-.908-.751c.073.126.202.271.359.405a2.2 2.2 0 00.549.345l.078-.184a1.995 1.995 0 01-.498-.314 1.487 1.487 0 01-.315-.352l-.173.1zM6.62 10.993l2.584 4.454.173-.1-2.584-4.454-.173.1zm-.2-1.16c-.053.427.057.912.2 1.16l.173-.1c-.119-.207-.222-.647-.174-1.036l-.199-.024zm.573-.978c-.345.199-.522.551-.573.978l.199.024c.046-.387.2-.671.474-.83l-.1-.172zM8.01 8.27l-1.017.585.1.173 1.017-.585-.1-.173zm.707-.64l-.724.652.134.149.724-.652-.134-.149zM5.55 2.288s.003 0 .019.007a.717.717 0 01.066.029l.085-.181a.602.602 0 00-.136-.052l-.034.197zm.042-.005l.003-.002-.008.004a.07.07 0 01-.03.004l.02-.199a.133.133 0 00-.062.008.132.132 0 00-.032.017l.109.168zm-.017.01l.017-.01-.11-.168a.153.153 0 01-.006.005l.1.173zm-.797.455l.797-.455-.1-.173-.796.455.1.173zM2.247 7.471c.077-1.81.81-3.458 2.542-4.729l-.119-.161c-1.784 1.31-2.543 3.015-2.623 4.882l.2.008zm1.613 5.55c-1.07-1.75-1.691-3.733-1.613-5.55l-.2-.008c-.08 1.866.557 3.887 1.643 5.663l.17-.105zm.003.005l-.003-.005-.17.105.001.002.172-.102zm-.009-.011c.007.007.011.014.009.01l-.172.103c.002.003.009.015.022.028l.141-.142zm2.196 3.777l-2.18-3.757-.173.1 2.18 3.758.173-.1zm.003.004a.114.114 0 00-.023-.028l-.133.15a.087.087 0 01-.014-.016l-.002-.003.172-.103zm-.008-.01a.068.068 0 01.007.008c0 .002.002.003 0 .002l-.17.103s.006.011.015.022l.148-.136zm4.037 4.185c-1.62-.843-3.035-2.369-4.023-4.166l-.176.096c1.003 1.823 2.443 3.382 4.107 4.247l.092-.177zm5.39.175c-1.972.855-3.775.662-5.39-.175l-.092.177c1.664.863 3.53 1.062 5.562.181l-.08-.183zm.787-.452l-.797.457.1.173.796-.457-.1-.173zm.012-.007l-.014.008.102.172.008-.004-.096-.176zm-.01-.06a1.75 1.75 0 01-.01.084v.005a.06.06 0 01.014-.023l.01-.008-.004.002.096.176c.003-.002.022-.012.038-.027.02-.019.03-.04.036-.06a.71.71 0 00.019-.132l-.2-.018zm-.108-.622c.087.269.117.503.108.622l.199.016c.012-.156-.026-.418-.116-.7l-.19.062zm-.802-1.578c.266.384.629 1.036.802 1.578l.19-.061c-.18-.566-.554-1.236-.828-1.631l-.164.114zm-.031-.05c.01.018.02.033.03.048l.166-.11a.455.455 0 01-.02-.035l-.176.097zm-1.49-1.795c.391.232.917.807 1.491 1.797l.173-.1c-.579-.999-1.126-1.61-1.561-1.869l-.102.172zm-.961-.006c.196-.113.34-.163.479-.163.137 0 .283.05.482.17l.103-.173c-.213-.126-.396-.196-.585-.197-.19 0-.37.07-.579.189l.1.174zm-1.047.602l1.047-.603-.1-.173-1.047.602.1.174zm-2.157.064c.631.268 1.44.348 2.157-.064l-.1-.174c-.647.372-1.386.305-1.978.054l-.079.184zm-1.45-1.227c.305.525.822.96 1.45 1.227l.079-.184c-.595-.252-1.076-.66-1.357-1.144l-.173.1zM5.63 11.56l2.584 4.455.173-.1-2.584-4.455-.173.1zm-.343-1.862c-.083.676.038 1.336.343 1.862l.173-.1c-.28-.483-.395-1.1-.317-1.737l-.199-.025zm1.134-1.827c-.717.413-1.051 1.15-1.134 1.827l.199.025c.077-.636.388-1.306 1.035-1.679l-.1-.173zm1.047-.604l-1.047.604.1.173 1.047-.603-.1-.174zm.476-.83c.004.232-.026.382-.094.5-.07.118-.185.217-.382.33l.1.174c.208-.12.36-.24.454-.403.096-.164.126-.356.122-.604l-.2.004zm-.823-2.18c.577.989.816 1.73.823 2.18l.2-.002c-.008-.503-.268-1.281-.85-2.279l-.173.101zM7.1 4.211a.637.637 0 01.017.035l.184-.079a.83.83 0 00-.022-.046l-.179.09zm-.974-1.483c.385.419.772 1.059.974 1.481l.18-.086c-.207-.434-.605-1.093-1.007-1.53l-.147.135zm-.49-.404c.11.051.3.195.49.404l.148-.135c-.2-.22-.41-.383-.552-.45l-.085.18z" fill="#212121"/></svg>