<svg width="26" height="26" viewBox="0 0 26 26" fill="none" xmlns="http://www.w3.org/2000/svg"><path fill-rule="evenodd" clip-rule="evenodd" d="M3.5.9A2.6 2.6 0 00.9 3.5v19a.6.6 0 00.6.6h11.4v.4a1.6 1.6 0 001.6 1.6h9a1.6 1.6 0 001.6-1.6v-12a1.6 1.6 0 00-1.6-1.6h-5.4V6.1h3.4a.6.6 0 00.6-.6v-2A2.6 2.6 0 0019.5.9h-16zm-.99 1.61a1.4 1.4 0 01.99-.41h13.802a1.8 1.8 0 00-.256.488c-.082.248-.124.564-.145 1.066-.026.606-.02 1.5-.013 2.9.005.892.012 1.988.012 3.346h-2.4a1.6 1.6 0 00-1.6 1.6v10.4H2.1V3.5a1.4 1.4 0 01.41-.99zm16 0a1.4 1.4 0 012.39.99v1.4h-2.8V3.5a1.4 1.4 0 01.41-.99zm-4.293 8.707a.4.4 0 01.283-.117h9a.4.4 0 01.4.4v12a.4.4 0 01-.4.4h-9a.4.4 0 01-.4-.4v-12a.4.4 0 01.117-.283z" fill="#212121"/><path fill-rule="evenodd" clip-rule="evenodd" d="M15.5 11.9a.6.6 0 00-.6.6v4a.6.6 0 00.6.6h7a.6.6 0 00.6-.6v-4a.6.6 0 00-.6-.6h-7zm.6 4v-2.8h5.8v2.8h-5.8z" fill="#212121"/><path d="M19.5 18h-1a.5.5 0 000 1h1a.5.5 0 000-1zm-3 0h-1a.5.5 0 000 1h1a.5.5 0 000-1zm6 0h-1a.5.5 0 000 1h1a.5.5 0 000-1zm-3 2h-1a.5.5 0 000 1h1a.5.5 0 000-1zm-3 0h-1a.5.5 0 000 1h1a.5.5 0 000-1zm6 0h-1a.5.5 0 000 1h1a.5.5 0 000-1zm-3 2h-1a.5.5 0 000 1h1a.5.5 0 000-1zm-3 0h-1a.5.5 0 000 1h1a.5.5 0 000-1zm6 0h-1a.5.5 0 000 1h1a.5.5 0 000-1zm-11-11.5h-7a.5.5 0 000 1h7a.5.5 0 000-1zm0 5h-7a.5.5 0 000 1h7a.5.5 0 000-1zm-7-9h10a.5.5 0 000-1h-10a.5.5 0 100 1zm0 2.5h10a.5.5 0 000-1h-10a.5.5 0 100 1zm7 4h-7a.5.5 0 000 1h7a.5.5 0 000-1zm0 5h-7a.5.5 0 000 1h7a.5.5 0 000-1z" fill="#504EF3"/></svg>