<svg width="40" height="40" viewBox="0 0 40 40" fill="none" xmlns="http://www.w3.org/2000/svg"><path d="M25.712.31a.968.968 0 00-.695-.31H9.408C6.528 0 4.15 2.367 4.15 5.246v29.508C4.15 37.633 6.528 40 9.408 40h21.185c2.88 0 5.257-2.367 5.257-5.246v-23.43a1.04 1.04 0 00-.28-.677L25.712.31zm.28 3.1l6.601 6.928h-4.29a2.301 2.301 0 01-2.31-2.3V3.412zm4.6 34.658H9.409c-1.807 0-3.325-1.498-3.325-3.314V5.246c0-1.806 1.508-3.314 3.325-3.314H24.06V8.04a4.227 4.227 0 004.242 4.232h5.615v22.483c0 1.816-1.507 3.314-3.324 3.314z" fill="#000"/><path d="M27.954 31.401H12.046a.969.969 0 00-.966.967.97.97 0 00.966.966h15.918a.97.97 0 00.967-.966.971.971 0 00-.977-.967zm-8.658-3.468a.974.974 0 00.705.309.972.972 0 00.706-.31l5.663-6.077a.963.963 0 00-.048-1.362.963.963 0 00-1.363.048l-3.991 4.28v-10.55a.97.97 0 00-.967-.966.97.97 0 00-.966.966v10.55l-3.982-4.28a.964.964 0 00-1.363-.048.963.963 0 00-.048 1.362l5.654 6.078z" fill="#504EF3"/></svg>