<svg width="24" height="24" viewBox="0 0 24 24" fill="none" xmlns="http://www.w3.org/2000/svg"><g clip-path="url(#clip0_4993_50783)"><path d="M22.77 4H1.23C.555 4 0 4.554 0 5.23v13.54C0 19.445.554 20 1.23 20h21.54c.676 0 1.23-.554 1.23-1.23V5.23C24 4.555 23.446 4 22.77 4zm-.463.923l-9.599 7.2a1.2 1.2 0 01-.708.212 1.2 1.2 0 01-.708-.212l-9.6-7.2h20.615zm-5.127 7.675l5.23 6.462.018.017H1.572l.018-.017 5.23-6.462a.462.462 0 00-.717-.58l-5.18 6.398V5.5l9.815 7.361a2.11 2.11 0 001.262.397 2.1 2.1 0 001.261-.396L23.077 5.5v12.916l-5.18-6.399a.461.461 0 10-.717.581z" fill="#504EF3"/></g><defs><clipPath id="clip0_4993_50783"><path fill="#fff" d="M0 0h24v24H0z"/></clipPath></defs></svg>