<svg width="24" height="24" viewBox="0 0 24 24" fill="none" xmlns="http://www.w3.org/2000/svg"><path d="M19.454 10.406a.703.703 0 00-.703.703v10.313c0 .646-.526 1.172-1.172 1.172h-15a1.173 1.173 0 01-1.173-1.172v-15c0-.647.526-1.172 1.172-1.172h10.313a.703.703 0 100-1.407H2.578A2.581 2.581 0 000 6.421v15a2.581 2.581 0 002.578 2.58h15a2.581 2.581 0 002.579-2.58V11.11a.703.703 0 00-.703-.703z" fill="#212121"/><path d="M23.52 1.806L22.195.48a1.642 1.642 0 00-2.32 0L9.266 11.087a.703.703 0 00-.192.359l-.663 3.315a.703.703 0 00.827.827l3.315-.663a.704.704 0 00.36-.192L23.52 4.126c.64-.64.64-1.68 0-2.32zM12.07 13.588l-2.072.414.414-2.071 8.634-8.634 1.657 1.658-8.633 8.633zM22.526 3.132l-.829.828-1.657-1.657.829-.829a.235.235 0 01.331 0L22.526 2.8a.235.235 0 010 .332z" fill="#504EF3"/></svg>