<svg width="24" height="24" viewBox="0 0 24 24" fill="none" xmlns="http://www.w3.org/2000/svg"><path d="M18.822 8.43V1.353C18.822.606 18.216 0 17.47 0H6.53c-.746 0-1.353.606-1.353 1.352v7.054l.001.023a4.437 4.437 0 000 5.216v9.003c0 .745.606 1.352 1.351 1.352H17.47c.746 0 1.352-.607 1.352-1.352v-9.003a4.437 4.437 0 000-5.214zm-.944 5.24a.582.582 0 01-.83 0 .587.587 0 010-.828 2.534 2.534 0 00.747-1.804c0-.682-.265-1.323-.746-1.804a.587.587 0 010-.83.591.591 0 01.829 0 3.728 3.728 0 010 5.267zM6.529.704H17.47a.65.65 0 01.65.649v.937H8.905c-.455 0-.455.703 0 .703h9.213V7.71a1.29 1.29 0 00-1.567 2.021c.348.35.54.813.54 1.308 0 .494-.192.958-.54 1.307a1.29 1.29 0 001.567 2.022v4.35H5.88v-4.35a1.315 1.315 0 001.568-.199 1.29 1.29 0 000-1.823 1.835 1.835 0 01-.54-1.307c0-.495.191-.959.54-1.307a1.29 1.29 0 000-1.823A1.314 1.314 0 005.88 7.71V2.992h1.125c.455 0 .455-.703 0-.703H5.88v-.937a.65.65 0 01.65-.649zm-.407 7.702a.591.591 0 01.829 0c.228.228.228.6 0 .829a2.534 2.534 0 00-.747 1.804c0 .682.265 1.323.747 1.804.228.228.228.6 0 .829a.591.591 0 01-.83 0 3.728 3.728 0 01.001-5.266zM17.47 23.297H6.53a.65.65 0 01-.65-.649v-3.229h12.24v3.229a.65.65 0 01-.65.649z" fill="#fff"/><path d="M21.583 5.207a1.29 1.29 0 00-1.823 0 1.29 1.29 0 000 1.823 5.63 5.63 0 011.657 4.008 5.63 5.63 0 01-1.657 4.008 1.28 1.28 0 00-.378.911c0 .345.134.668.378.912a1.31 1.31 0 001.823 0c.271-.272.527-.565.76-.873.274-.363-.287-.787-.561-.424a7.698 7.698 0 01-.696.8.594.594 0 01-.83 0 .587.587 0 010-.829 6.328 6.328 0 001.864-4.505 6.328 6.328 0 00-1.863-4.505.591.591 0 010-.829.587.587 0 01.829 0 7.495 7.495 0 012.21 5.334 7.488 7.488 0 01-.63 3.028c-.183.416.46.699.643.282a8.187 8.187 0 00.69-3.31 8.193 8.193 0 00-2.416-5.83zM2.582 11.038A5.63 5.63 0 014.24 7.03a1.308 1.308 0 000-1.823 1.308 1.308 0 00-1.823 0A8.193 8.193 0 000 11.037c0 2.202.858 4.273 2.417 5.832a1.31 1.31 0 001.823 0 1.29 1.29 0 000-1.823 5.63 5.63 0 01-1.658-4.008zm1.16 5.334a.587.587 0 01-.828 0 7.495 7.495 0 01-2.211-5.334c0-2.014.785-3.908 2.21-5.334a.591.591 0 01.83 0c.228.229.228.6 0 .829a6.328 6.328 0 00-1.864 4.505c0 1.703.662 3.303 1.864 4.505.228.228.228.6 0 .829zM12 13.815a2.78 2.78 0 002.777-2.777A2.78 2.78 0 0012 8.26a2.78 2.78 0 00-2.778 2.778A2.78 2.78 0 0012 13.815zm0-4.852c1.143 0 2.074.93 2.074 2.075 0 1.143-.93 2.074-2.074 2.074a2.077 2.077 0 01-2.074-2.074c0-1.144.93-2.075 2.074-2.075zm1.175 11.123h-2.351c-.698 0-1.266.568-1.266 1.266 0 .697.568 1.265 1.266 1.265h2.351c.698 0 1.266-.568 1.266-1.265 0-.698-.568-1.266-1.266-1.266zm0 1.828h-2.351a.563.563 0 010-1.125h2.351a.563.563 0 010 1.125z" fill="#fff"/></svg>