<svg width="24" height="24" viewBox="0 0 24 24" fill="none" xmlns="http://www.w3.org/2000/svg"><path d="M20.768 19.532a.352.352 0 00-.352.351v2.828a.587.587 0 01-.586.586H4.17a.587.587 0 01-.587-.586V6.789a.352.352 0 00-.703 0V22.71c0 .71.578 1.29 1.29 1.29h15.66a1.29 1.29 0 001.29-1.29v-2.828a.352.352 0 00-.352-.351zM19.83 0h-1.78a.352.352 0 100 .703h1.78c.324 0 .587.263.587.586v1.969H3.582V1.289c0-.323.263-.586.586-.586h12.245a.352.352 0 100-.703H4.17a1.29 1.29 0 00-1.29 1.29v3.785a.352.352 0 00.704 0V3.96h16.833v14.26a.352.352 0 00.704 0V1.29A1.295 1.295 0 0019.83 0z" fill="#fff"/><path d="M16.501 10.192a2.699 2.699 0 002.697-2.695A2.699 2.699 0 0016.5 4.8a2.699 2.699 0 00-2.696 2.696 2.699 2.699 0 002.696 2.695zm0-4.688c1.1 0 1.993.894 1.993 1.993a1.995 1.995 0 01-1.993 1.992 1.995 1.995 0 01-1.993-1.992c0-1.099.895-1.993 1.993-1.993z" fill="#fff"/><path d="M15.327 7.943l.993.533a.35.35 0 00.461-.119l.884-1.364a.351.351 0 10-.59-.382l-.708 1.092-.707-.38a.352.352 0 00-.333.62zm1.174 8.393a2.699 2.699 0 002.697-2.695 2.699 2.699 0 00-2.697-2.696 2.699 2.699 0 00-2.696 2.696 2.699 2.699 0 002.696 2.695zm0-4.688c1.1 0 1.993.894 1.993 1.993a1.995 1.995 0 01-1.993 1.992 1.995 1.995 0 01-1.993-1.992c0-1.099.895-1.993 1.993-1.993z" fill="#fff"/><path d="M15.327 14.087l.993.533a.35.35 0 00.461-.118l.884-1.365a.352.352 0 10-.59-.382l-.708 1.092-.707-.38a.352.352 0 00-.333.62zm1.174 8.393a2.699 2.699 0 002.697-2.695 2.699 2.699 0 00-2.697-2.696 2.699 2.699 0 00-2.696 2.696 2.699 2.699 0 002.696 2.695zm0-4.688c1.1 0 1.993.894 1.993 1.993a1.995 1.995 0 01-1.993 1.992 1.995 1.995 0 01-1.993-1.992c0-1.099.895-1.992 1.993-1.992z" fill="#fff"/><path d="M15.327 20.231l.993.533a.35.35 0 00.461-.119l.884-1.364a.351.351 0 10-.59-.382l-.708 1.092-.707-.38a.352.352 0 00-.333.62zM5.54 6.974h5.627a.352.352 0 100-.703H5.54a.352.352 0 100 .703zm0 1.748h2.813a.352.352 0 100-.703H5.54a.352.352 0 100 .703zm0 4.383h5.627a.352.352 0 100-.703H5.54a.352.352 0 100 .704zm0 1.749h2.813a.352.352 0 100-.704H5.54a.352.352 0 100 .704zm0 4.383h5.627a.352.352 0 100-.703H5.54a.352.352 0 100 .703zm0 1.748h2.813a.352.352 0 000-.703H5.54a.352.352 0 100 .703z" fill="#fff"/></svg>