<svg width="24" height="24" viewBox="0 0 24 24" fill="none" xmlns="http://www.w3.org/2000/svg"><path d="M22.005 6.891v-3a.357.357 0 00-.356-.356H19.71V.357A.357.357 0 0019.355 0H5.095a.356.356 0 00-.357.357v3.178H2.801a.356.356 0 00-.357.356v5.627H2.13c-.923 0-1.673.75-1.673 1.673v11.136c0 .922.75 1.673 1.673 1.673h19.742c.922 0 1.673-.75 1.673-1.673V8.558c0-.877-.679-1.598-1.539-1.667zM5.451.713h13.547v6.172h-1.581V3.891a.356.356 0 00-.357-.356H5.451V.713zM1.17 22.327V11.191c0-.53.43-.96.96-.96h1.396a.356.356 0 000-.713h-.368v-5.27h13.547v2.637H13.09c-.923 0-1.674.75-1.674 1.673 0 .53-.43.96-.96.96H4.951a.357.357 0 000 .713h5.504c.923 0 1.674-.75 1.674-1.673 0-.53.43-.96.96-.96h5.96c.53 0 .96.43.96.96v13.77c0 .528-.43.959-.96.96H2.129a.96.96 0 01-.96-.96zm21.662 0c0 .53-.43.96-.96.96h-1.453c.166-.236.273-.517.298-.821h.933c.197 0 .356-.16.356-.357v-9.45a.356.356 0 00-.713 0v9.094h-.57V8.558c0-.687-.417-1.279-1.01-1.536V4.248h1.58v6.986a.356.356 0 00.713 0V7.609a.96.96 0 01.826.95v13.768z" fill="#fff"/><path d="M5.036 6.101h8.556a.356.356 0 000-.713H5.036a.356.356 0 000 .713zm0 1.783h4.895a.356.356 0 100-.713H5.036a.356.356 0 100 .713zm13.618 3.563H11.24a.356.356 0 00-.356.357v2.637c0 .197.16.357.356.357h7.415c.197 0 .357-.16.357-.357v-2.637a.357.357 0 00-.357-.357zm-.356 2.638h-6.702V12.16h6.702v1.925z" fill="#fff"/></svg>