<svg width="20" height="20" viewBox="0 0 20 20" fill="none" xmlns="http://www.w3.org/2000/svg"><path d="M18.594 7.583a.311.311 0 00-.333.288c-.305 4.184-1.987 9.563-8.259 11.494-4.12-1.268-6.75-4.167-7.82-8.618-.707-2.945-.463-5.642-.386-6.303a92.715 92.715 0 015.296-2.553.31.31 0 00-.253-.568A92.709 92.709 0 001.363 3.97a.31.31 0 00-.162.229c-.02.128-.462 3.184.373 6.675.493 2.061 1.332 3.84 2.495 5.286 1.457 1.812 3.423 3.1 5.844 3.827a.31.31 0 00.178 0c3.054-.918 5.366-2.713 6.872-5.335 1.084-1.89 1.73-4.156 1.918-6.736a.31.31 0 00-.287-.333zm.209-3.384a.31.31 0 00-.162-.23C14.444 1.755 10.16.04 10.117.023a.311.311 0 00-.23 0c-.007.003-.741.296-1.88.788a.31.31 0 00.247.57c.87-.375 1.5-.634 1.748-.734.7.284 4.467 1.835 8.206 3.799.038.324.118 1.14.104 2.23a.31.31 0 10.621.007c.02-1.472-.124-2.443-.13-2.483z" fill="#fff"/><path d="M17.058 5.381a.31.31 0 00-.163-.228c-3.337-1.763-6.744-3.126-6.778-3.14a.311.311 0 00-.23 0c-.034.014-3.44 1.377-6.778 3.14a.31.31 0 00-.162.228c-.018.12-.427 2.945.472 5.985a.31.31 0 10.596-.176c-.743-2.514-.543-4.94-.473-5.563 2.917-1.53 5.85-2.742 6.46-2.99.61.248 3.543 1.46 6.46 2.99.064.57.24 2.655-.306 4.937-.84 3.514-2.91 5.804-6.154 6.809-2.681-.83-4.573-2.56-5.624-5.143a.31.31 0 00-.575.234c1.136 2.794 3.192 4.655 6.11 5.531a.31.31 0 00.179 0c1.936-.581 3.508-1.611 4.674-3.062.93-1.156 1.6-2.577 1.995-4.224.666-2.786.312-5.225.297-5.328z" fill="#fff"/><path d="M14.054 6.895a1.405 1.405 0 00-1.985 0l-3.232 3.232-.902-.902a1.405 1.405 0 00-1.985 0 1.405 1.405 0 000 1.985l1.895 1.895c.265.265.617.41.992.41s.727-.145.992-.41l4.225-4.225a1.405 1.405 0 000-1.985zm-.44 1.545L9.39 12.665a.777.777 0 01-.553.23.777.777 0 01-.553-.23l-1.895-1.894a.783.783 0 011.106-1.106l1.122 1.122a.31.31 0 00.44 0l3.452-3.453a.783.783 0 011.106 1.106z" fill="#fff"/></svg>