<svg width="20" height="20" viewBox="0 0 20 20" fill="none" xmlns="http://www.w3.org/2000/svg"><g clip-path="url(#clip0_188_2131)" fill="#fff"><path d="M10 11.585a4.055 4.055 0 00-4.051 4.05 4.055 4.055 0 004.05 4.049 4.055 4.055 0 004.052-4.05A4.055 4.055 0 0010 11.585zm0 7.512a3.467 3.467 0 01-3.464-3.463A3.467 3.467 0 0110 12.172a3.467 3.467 0 013.463 3.462A3.467 3.467 0 0110 19.097z"/><path d="M9.687 14.05h1.565a.294.294 0 100-.587h-.959v-.646a.294.294 0 00-.587 0v.646h-.02a1.233 1.233 0 00.001 2.465h.626a.646.646 0 010 1.291H8.747a.293.293 0 100 .587h.96v.645a.294.294 0 00.586 0v-.645h.02a1.233 1.233 0 000-2.465h-.626a.646.646 0 010-1.291zm.072-3.883a.293.293 0 00.482 0l2.818-4.069a.293.293 0 00-.241-.46h-.959V.61a.293.293 0 00-.293-.293H8.434a.294.294 0 00-.293.293v5.028h-.959a.293.293 0 00-.241.46l2.818 4.07zM8.434 6.225a.294.294 0 00.294-.294V.904h2.544V5.93c0 .162.131.294.293.294h.693L10 9.485l-2.258-3.26h.692zM19.966 9.55a.294.294 0 00-.26-.156h-.959V2.83a.293.293 0 00-.293-.293h-3.131a.294.294 0 00-.294.293v6.564h-.959a.294.294 0 00-.24.46l2.817 4.069a.293.293 0 00.483 0l2.818-4.069a.293.293 0 00.018-.303zm-3.078 3.69l-2.257-3.26h.692a.293.293 0 00.293-.293V3.124h2.544v6.563c0 .162.132.293.294.293h.692l-2.258 3.26zM6.19 11.742a.293.293 0 00-.26-.157h-.96V7.953a.294.294 0 00-.586 0v3.925c0 .163.131.294.293.294h.692l-2.257 3.26-2.258-3.26h.692a.294.294 0 00.294-.294V5.315h2.544v1.282a.294.294 0 00.587 0V5.022a.294.294 0 00-.294-.293H1.546a.293.293 0 00-.294.293v6.563H.294a.293.293 0 00-.242.46l2.818 4.07a.294.294 0 00.483 0l2.818-4.07a.294.294 0 00.019-.303z"/></g><defs><clipPath id="clip0_188_2131"><path fill="#fff" d="M0 0h20v20H0z"/></clipPath></defs></svg>