<svg width="24" height="24" viewBox="0 0 24 24" fill="none" xmlns="http://www.w3.org/2000/svg"><path d="M24 22.242V4.545c0-.951-.803-1.758-1.758-1.758h-4.976a3.12 3.12 0 00-6.202 0H1.758C.8 2.787 0 3.587 0 4.545v17.697C0 23.212.788 24 1.758 24h20.484C22.99 24 24 23.297 24 22.242zm-7.44-6.981l6.737-6.956v13.692l-6.737-6.736zM14.165.703a2.414 2.414 0 012.415 2.408c0 .947-.375 2.277-.98 3.47-.621 1.229-1.213 1.782-1.435 1.782-.211 0-.793-.502-1.453-1.848-.584-1.19-.962-2.527-.962-3.404A2.414 2.414 0 0114.165.703zM.703 4.545c0-.165.038-.32.105-.46l3.828 3.828-3.933 3.933V4.545zm0 17.697v-5.777l6.243-6.242L20.02 23.297H1.758a1.056 1.056 0 01-1.055-1.055zm21.54 1.055h-1.229L7.194 9.477a.352.352 0 00-.497 0L.703 15.471v-2.63l4.679-4.68a.352.352 0 000-.496L1.308 3.59c.136-.065.289-.101.45-.101h2.037l10.152 10.152a.352.352 0 00.5-.002l4.445-4.535c.319-.324-.183-.816-.502-.492l-4.197 4.28L4.79 3.49h6.275c.094 1.114.569 2.422 1.017 3.335.955 1.95 1.716 2.24 2.084 2.24.872 0 1.733-1.515 2.063-2.166.585-1.156.961-2.399 1.04-3.41h4.974c.322 0 .611.146.805.375l-3.262 3.327c-.318.324.183.817.502.492l3.01-3.07v2.682l-7.482 7.725a.351.351 0 00.004.494l7.305 7.305a1.055 1.055 0 01-.882.478z" fill="#fff"/><path d="M14.165 4.837a1.645 1.645 0 000-3.29 1.645 1.645 0 000 3.29zm0-2.586a.941.941 0 010 1.883.941.941 0 010-1.883zM9.862 15.175c-.203-.407-.832-.093-.63.314.168.335.252.695.252 1.07 0 .948-.375 2.277-.98 3.47-.621 1.229-1.213 1.782-1.435 1.782-.211 0-.793-.502-1.453-1.848-.584-1.19-.961-2.527-.961-3.404a2.414 2.414 0 013.423-2.187c.413.19.707-.45.294-.64a3.118 3.118 0 00-4.42 2.827c0 1.185.533 2.695 1.033 3.714.956 1.95 1.716 2.24 2.085 2.24.87 0 1.732-1.515 2.062-2.166.661-1.305 1.056-2.72 1.056-3.788 0-.485-.11-.95-.326-1.384z" fill="#fff"/><path d="M7.07 14.996a1.645 1.645 0 000 3.29 1.645 1.645 0 000-3.29zm0 2.586a.941.941 0 010-1.883.941.941 0 010 1.883z" fill="#fff"/></svg>