<svg width="24" height="24" viewBox="0 0 24 24" fill="none" xmlns="http://www.w3.org/2000/svg"><path d="M14.344 15.124c.297 0 .575-.117.783-.33l1.842-1.89a1.094 1.094 0 00-1.564-1.524l-1.081 1.108-.19-.184a1.094 1.094 0 00-1.523 1.566l.972.945c.205.2.475.309.761.309zm-1.25-2.308a.389.389 0 01.55-.007l.44.43c.14.135.363.131.499-.008l1.326-1.36a.388.388 0 01.556.542l-1.843 1.89a.39.39 0 01-.548.007l-.972-.945a.388.388 0 01-.008-.549z" fill="#fff"/><path d="M11.62 15.364a.352.352 0 00-.562.424c.129.17.27.333.422.485a4.556 4.556 0 003.243 1.343 4.556 4.556 0 003.243-1.343 4.555 4.555 0 001.343-3.242 4.555 4.555 0 00-1.343-3.243 4.592 4.592 0 00-6.486 0 4.571 4.571 0 00-1.126 4.64.352.352 0 00.671-.214 3.87 3.87 0 01.953-3.928 3.886 3.886 0 015.49 0 3.856 3.856 0 011.137 2.745 3.855 3.855 0 01-1.137 2.744 3.856 3.856 0 01-2.745 1.136 3.856 3.856 0 01-3.102-1.547z" fill="#fff"/><path d="M23.515 19.466l-2.222-2.223a.353.353 0 00-.499 0l-.013.014-.855-.855a6.19 6.19 0 00.984-2.98.352.352 0 00-.703-.044 5.488 5.488 0 01-5.479 5.144h-.033a5.478 5.478 0 01-3.858-1.607 5.458 5.458 0 01-1.61-3.885c0-1.467.573-2.847 1.61-3.885a5.502 5.502 0 017.772 0 5.462 5.462 0 011.523 2.91.352.352 0 00.693-.123 6.162 6.162 0 00-1.718-3.285 6.179 6.179 0 00-1.474-1.09v-2.84a.356.356 0 00-.104-.249L13.164.103a.357.357 0 00-.25-.103H1.058C.474 0 0 .474 0 1.057v2.96a.352.352 0 00.705 0v-2.96c0-.194.158-.353.352-.353h11.506v3.309c0 .582.474 1.056 1.057 1.056h3.308v2.168a6.225 6.225 0 00-2.138-.402l-.01-.001H6.914a.352.352 0 100 .704h4.933c-.503.263-.977.6-1.406 1.01H6.914a.352.352 0 100 .704h2.893a6.132 6.132 0 00-1.156 2.519H6.914a.352.352 0 100 .704h1.634a6.312 6.312 0 00-.008 1.012H6.914a.352.352 0 000 .704h1.718c.18.954.58 1.847 1.176 2.62H6.914a.352.352 0 100 .704h3.529c.428.409.901.744 1.403 1.007H6.914a.352.352 0 100 .705h7.809c.748 0 1.496-.135 2.205-.404v4.12a.353.353 0 01-.352.353H1.056a.353.353 0 01-.351-.353V5.427a.352.352 0 00-.705 0v17.516C0 23.526.474 24 1.057 24h15.519c.583 0 1.057-.474 1.057-1.057v-4.439c.157-.083.311-.174.462-.272l.855.855a.355.355 0 00-.013.512l2.222 2.222c.62.647 1.736.646 2.356 0 .646-.62.646-1.735 0-2.355zM13.62 4.365a.353.353 0 01-.353-.352v-2.81l3.163 3.162h-2.81zm5.05 13.446a6.227 6.227 0 00.834-.834l.778.778-.833.834-.779-.778zm4.347 3.512a.966.966 0 01-1.36 0l-1.973-1.973 1.36-1.36 1.973 1.974a.966.966 0 010 1.36z" fill="#fff"/><path d="M3.197 9.6h1.541a.789.789 0 00.788-.788v-1.54a.789.789 0 00-.788-.789H3.197a.789.789 0 00-.788.788v1.541c0 .435.353.788.788.788zm-.083-2.329c0-.046.037-.083.083-.083h1.541c.046 0 .084.037.084.083v1.541a.084.084 0 01-.084.084H3.197a.083.083 0 01-.083-.084v-1.54zm-.705 6.48c0 .435.353.788.788.788h1.541a.789.789 0 00.788-.788v-1.54a.789.789 0 00-.788-.789H3.197a.789.789 0 00-.788.788v1.541zm.705-1.54c0-.047.037-.084.083-.084h1.541c.046 0 .084.037.084.083v1.541a.084.084 0 01-.084.084H3.197a.083.083 0 01-.083-.084v-1.54zm-.705 6.579a.79.79 0 00.788.789h1.541a.789.789 0 00.788-.788V17.25a.789.789 0 00-.788-.788H3.197a.789.789 0 00-.788.788v1.54zm.705-1.54c0-.046.037-.084.083-.084h1.541c.046 0 .084.038.084.084v1.54a.084.084 0 01-.084.084H3.197a.083.083 0 01-.083-.083V17.25z" fill="#fff"/></svg>