<svg width="20" height="20" viewBox="0 0 20 20" fill="none" xmlns="http://www.w3.org/2000/svg"><g clip-path="url(#clip0_188_2138)"><path d="M10 0C8.914 0 7.86.38 7.023 1.074a.333.333 0 10.426.513A4 4 0 0110 .667c2.213 0 4 1.787 4 4s-1.787 4-4 4A4 4 0 016.63 2.51a.333.333 0 10-.561-.359 4.668 4.668 0 00-.736 2.516A4.672 4.672 0 0010 9.334a4.672 4.672 0 004.667-4.667A4.672 4.672 0 0010 0zm0 1.332c-.166 0-.333.111-.333.333v.72c-.571.15-1 .669-1 1.285a1.34 1.34 0 001.335 1.334.66.66 0 01.664.666.66.66 0 01-.664.668.662.662 0 01-.667-.668.334.334 0 10-.667 0c0 .617.428 1.136 1 1.286v.712c0 .445.666.445.666 0v-.711c.572-.15.999-.67.999-1.287 0-.732-.599-1.333-1.331-1.333a.662.662 0 01-.667-.667c0-.372.295-.667.667-.667a.66.66 0 01.664.667.333.333 0 10.667 0c0-.617-.427-1.137-1-1.286v-.719c0-.222-.166-.333-.332-.333zm8.453 7.069c-.405 0-.809.154-1.116.46l-1.955 1.955c-.327.314.158.799.472.472l1.954-1.955a.903.903 0 011.29 0 .76.76 0 01.235.604c-.01.23-.104.492-.271.73a710.17 710.17 0 00-2.829 4.074c-.585.848-1.296 1.261-2.232 1.261H8.334c-.606 0-1.016.262-1.326.536l-4.44-4.44a.331.331 0 00-.47 0l-2 2.001a.333.333 0 000 .473l5.335 5.332c.13.13.34.13.47 0l2-2c.13-.13.13-.34 0-.47l-.428-.43c.224-.204.445-.335.86-.335H14c1.146 0 2.102-.567 2.78-1.55a713.743 713.743 0 012.825-4.068c.23-.326.379-.701.393-1.09a1.472 1.472 0 00-.43-1.1 1.575 1.575 0 00-1.116-.46zM6.334 10.669c-1.245 0-2.015.57-2.62 1.151-.324.308.142.793.463.48.566-.545 1.104-.965 2.157-.965h7c.56 0 1 .44 1 1s-.44 1-1 1H9.669c-.45-.006-.45.673 0 .667h3.667A1.67 1.67 0 0015 12.335a1.67 1.67 0 00-1.666-1.667h-7zm-4 2.138l4.864 4.862-1.528 1.529-4.863-4.863 1.528-1.528z" fill="#fff"/></g><defs><clipPath id="clip0_188_2138"><path fill="#fff" d="M0 0h20v20H0z"/></clipPath></defs></svg>