<svg width="26" height="26" viewBox="0 0 26 26" fill="none" xmlns="http://www.w3.org/2000/svg"><path d="M22.291 15.003a9.464 9.464 0 000-4.013c2.733-4.222 3.45-7.653 1.913-9.195-1.317-1.313-4.036-.985-7.491.893a.39.39 0 00-.152.537v0c.108.19.35.256.542.152 3.075-1.67 5.505-2.055 6.54-1.022 1.153 1.155.504 4.094-1.637 7.603a9.497 9.497 0 00-11.012-6.252C6.769.977 3.334.258 1.794 1.796c-1.318 1.321-.983 4.05.912 7.52a.391.391 0 00.538.151v0a.402.402 0 00.151-.542c-1.686-3.09-2.077-5.53-1.04-6.57C3.51 1.204 6.45 1.854 9.96 3.994a9.503 9.503 0 00-6.469 9.003A9.498 9.498 0 009.96 22c-3.513 2.14-6.452 2.79-7.605 1.638-1.031-1.035-.649-3.463 1.02-6.536a.402.402 0 00-.153-.541v0a.39.39 0 00-.536.151c-1.877 3.453-2.205 6.169-.89 7.486a3.062 3.062 0 002.245.797c1.776 0 4.196-.929 6.95-2.71a9.501 9.501 0 0011.015-6.251c2.141 3.51 2.79 6.449 1.639 7.603-1.064 1.06-3.571.633-6.746-1.135a.401.401 0 00-.543.148v0a.391.391 0 00.146.538c2.146 1.197 4.015 1.807 5.457 1.807a3.063 3.063 0 002.246-.797c1.537-1.54.818-4.972-1.914-9.195zm-2.716.42l-.322-.427c.39-.449.764-.9 1.122-1.352.379.506.735 1.01 1.07 1.51a8.667 8.667 0 01-1.15 2.597l-.562-.561v-1.291a.804.804 0 00-.158-.475zm-1.03-1.37v-1.278a.808.808 0 00-.232-.562l-.501-.497a.795.795 0 00-.808-.2l-.853.276-1.242-.3-.297-1.194.582-.865h1.252l.775.514c.955.994 1.85 2.02 2.66 3.05-.356.451-.727.902-1.114 1.35l-.222-.293zm1.488-6.192c.298.407.56.838.783 1.29l-1.151.657-1.756-.353-.181-.119a53.22 53.22 0 00-.527-.539 42.71 42.71 0 00-1.022-.985.753.753 0 00.256-.018l1.272-.316 1.247.621a.792.792 0 00.792-.048l.287-.19zm1.103 2.02c.12.313.223.633.307.958a32.07 32.07 0 01-1.07 1.51 40.72 40.72 0 00-1.622-1.916l.77.154a.816.816 0 00.538-.094l1.077-.612zm-.259 3.115a33 33 0 00.771-1.05 8.44 8.44 0 010 2.102c-.245-.35-.505-.7-.77-1.052zm-1.342-5.754l-.225.15-1.24-.618a.776.776 0 00-.555-.066l-1.272.317-.713-.472.456-.684h1.648a.784.784 0 00.283-.06c.596.41 1.14.89 1.618 1.433zm-2.912-2.165h-.637a.798.798 0 00-.662.354l-.458.685a.792.792 0 00-.126.407 40.569 40.569 0 00-.83-.689.79.79 0 00-.659-.85l-.554-.094c-.25-.185-.498-.365-.747-.54a8.665 8.665 0 014.673.726zm-5.93-.48l.28.497a.77.77 0 00.563.405l.836.14c.184.138.368.277.552.42l-.17.253-1.308.327a.784.784 0 00-.43.291l-1.049 1.4-1.453.726-1.611.32a.792.792 0 00-.637.777v.65a.798.798 0 00.356.662l.832.557v.732l-1.722-.864-1.08-1.386a8.744 8.744 0 016.04-5.907zm-6.408 8.4a8.703 8.703 0 01.133-1.503l.683.876a.796.796 0 00.274.228l1.725.865c.11.054.231.082.354.083h.01a.737.737 0 00-.01.079v1.191a.798.798 0 00.232.556l.63.63c.061.061.13.111.207.15l.515.257v1.28c0 .085.013.17.04.25l.706 2.12a.797.797 0 00.505.5l.481.16a.792.792 0 001.041-.753v-1.181l1.147-.574a.787.787 0 00.438-.703l.004-.661.69-.229a.789.789 0 00.518-.56l.222-.89a.79.79 0 00-.768-.984h-.463l-.547-.831a.789.789 0 00-.662-.357h-1.206l-.851-.86a.793.793 0 00-.976-.12l-1.11.678v-.674a.798.798 0 00-.357-.662l-.832-.555v-.65l1.624-.322a.808.808 0 00.187-.068l1.453-.726a.738.738 0 00.277-.236l1.047-1.397 1.295-.324a.755.755 0 00.471-.328l.133-.198c.797.65 1.59 1.347 2.363 2.085h-.713a.799.799 0 00-.662.354l-.585.875a.8.8 0 00-.1.621l.292 1.195a.797.797 0 00.584.577l1.226.297c.147.04.303.036.448-.012l.85-.274.505.503v1.279a.8.8 0 00.158.475l.32.426c-.51.569-1.04 1.132-1.59 1.682a38.48 38.48 0 01-5.8 4.8 8.729 8.729 0 01-6.556-8.44zm5.11 2.704l-.515-.258-.634-.63V13.62l1.524-.929.853.861c.149.15.35.234.561.235h1.206l.548.832a.791.791 0 00.662.356h.461l-.222.891-.688.228a.793.793 0 00-.543.747l-.005.66-1.146.575a.788.788 0 00-.438.708v1.18l-.481-.158-.707-2.118v-1.28a.787.787 0 00-.436-.708zM13 21.708a8.6 8.6 0 01-1.052-.066 40.205 40.205 0 005.253-4.445 42.682 42.682 0 001.516-1.596l.224.298v1.29a.8.8 0 00.231.56l.654.653A8.7 8.7 0 0113 21.708z" fill="#212121" stroke="#212121" stroke-width=".4"/><path fill-rule="evenodd" clip-rule="evenodd" d="M11.103 3.538C8.979 2.167 7.041 1.291 5.429.955c-1.607-.334-2.935-.139-3.775.7-.72.72-.966 1.805-.807 3.12.16 1.315.73 2.89 1.684 4.637.16.292.526.391.812.23a.602.602 0 00.228-.813C2.735 7.296 2.226 5.936 2.052 4.84c-.175-1.102-.006-1.89.445-2.343.503-.5 1.435-.644 2.736-.362 1.288.28 2.877.965 4.62 2.027l2.403 1.64c.182.136.364.273.545.414l.618.493.126-.155-.124.157-.001-.001a40.257 40.257 0 012.35 2.072l1.309 1.306a40.639 40.639 0 012.548 2.909c-.324.407-.66.814-1.01 1.22l.001-.002.15.133-.152-.131-.533.605a41.929 41.929 0 01-1.583 1.674 38.278 38.278 0 01-5.768 4.774l-.877.56c-1.745 1.063-3.336 1.749-4.624 2.028-1.302.282-2.233.139-2.734-.361-.448-.45-.618-1.235-.446-2.332.17-1.09.672-2.442 1.5-3.967a.602.602 0 00-.23-.811.59.59 0 00-.81.23c-.946 1.738-1.509 3.306-1.665 4.615-.156 1.309.092 2.39.808 3.108l.007.006a3.262 3.262 0 002.387.849c1.833-.002 4.29-.956 7.053-2.742l.96-.645.003-.002a40.4 40.4 0 005.28-4.468 42.977 42.977 0 001.522-1.604l.538-.605.001-.002c.333-.383.655-.769.965-1.155.32.432.622.863.908 1.292l.559.876c1.063 1.743 1.749 3.334 2.028 4.622.283 1.3.139 2.232-.361 2.733-.463.462-1.273.629-2.406.438-1.126-.19-2.525-.728-4.101-1.605a.601.601 0 00-.813.221.591.591 0 00.221.813c2.156 1.203 4.058 1.831 5.549 1.833a3.262 3.262 0 002.386-.85l.007-.006c.838-.84 1.033-2.167.698-3.773-.336-1.612-1.212-3.549-2.585-5.672l-.645-.958-.002-.003a34.98 34.98 0 00-.687-.94l1.33-1.887.004-.007c1.374-2.123 2.25-4.06 2.585-5.67.335-1.607.14-2.935-.7-3.776-.718-.716-1.798-.963-3.108-.807-1.31.157-2.879.72-4.619 1.666a.59.59 0 00-.23.811.602.602 0 00.81.23c1.527-.829 2.881-1.332 3.972-1.503 1.098-.172 1.883-.002 2.333.446.5.502.644 1.434.362 2.735-.28 1.288-.965 2.878-2.029 4.62l-.56.879a32.23 32.23 0 01-.907 1.292 41.024 41.024 0 00-1.468-1.723L17.875 9.2l-.003-.003-.051-.053a37.589 37.589 0 00-1.505-1.478l-1.442-1.292-.004-.003a40.7 40.7 0 00-.833-.692l-1.217-.947-.004-.003c-.25-.186-.5-.367-.75-.542l-.96-.646-.003-.003zM4.048 25.195h-.006v-.2l.011.2h-.005zm5.913-3.196l-.104-.17h-.002l-.002.002.108.168zm0-18.005l-.105.17-.004-.002-.004-.003.113-.165zm2.412 1.645l-.113.165-.004-.002-.004-.003.12-.16zm-1.531 15.798l-.108-.168-.002.001-.002.002.112.165zm9.039-8.44l-.157.123a35.115 35.115 0 00-.097-.123l.097-.124.157.123v.001zm-2.66-3.05l-.14.142-.002-.001-.002-.002.144-.138zM15.91 8.64l-.141.141.001.002.002.001.138-.144zm-2.985-2.58l-.122.158H12.8l-.001-.002.124-.156z" fill="#504EF3"/></svg>