<svg width="16" height="16" viewBox="0 0 16 16" fill="none" xmlns="http://www.w3.org/2000/svg"><g clip-path="url(#clip0_5143_49915)" fill="#fff"><path opacity=".8" d="M8 1.548A.774.774 0 108 0a.774.774 0 000 1.548z"/><path opacity=".22" d="M8 16a.774.774 0 100-1.548A.774.774 0 008 16z"/><path opacity=".7" d="M4.387 2.503a.774.774 0 100-1.548.774.774 0 000 1.548z"/><path opacity=".15" d="M12.284 13.884c.206.361.077.826-.284 1.058-.361.206-.826.077-1.058-.284-.207-.361-.078-.826.284-1.058a.79.79 0 011.058.284z"/><path opacity=".6" d="M2.116 3.716c.361.207.49.671.284 1.058a.784.784 0 01-1.058.284A.784.784 0 011.058 4c.206-.387.697-.49 1.058-.284z"/><path opacity=".1" d="M14.658 10.942c.361.206.49.67.284 1.058a.784.784 0 01-1.058.284.784.784 0 01-.284-1.058.784.784 0 011.058-.284z"/><path opacity=".5" d="M.774 8.774a.774.774 0 100-1.548.774.774 0 000 1.548z"/><path opacity=".4" d="M1.342 10.942c.361-.207.826-.078 1.058.284.207.361.078.826-.284 1.058-.361.206-.826.077-1.058-.284-.232-.361-.077-.826.284-1.058z"/><path d="M13.884 3.716c.361-.206.826-.077 1.058.284.206.361.077.826-.284 1.058-.361.207-.826.077-1.058-.284a.79.79 0 01.284-1.058z"/><path opacity=".3" d="M3.716 13.884a.784.784 0 011.058-.284c.362.206.49.671.284 1.058A.784.784 0 014 14.942c-.361-.232-.49-.697-.284-1.058z"/><path opacity=".9" d="M10.942 1.342A.784.784 0 0112 1.058c.361.207.49.671.284 1.058a.783.783 0 01-1.058.284.784.784 0 01-.284-1.058z"/></g><defs><clipPath id="clip0_5143_49915"><path fill="#fff" d="M0 0h16v16H0z"/></clipPath></defs></svg>