<svg width="26" height="24" viewBox="0 0 26 24" fill="none" xmlns="http://www.w3.org/2000/svg"><path d="M10.285 18.245H4.801a.543.543 0 100 1.086h5.484a.543.543 0 000-1.086zm8.199 0H13a.543.543 0 100 1.086h5.484a.543.543 0 000-1.086zm0-13.575H4.801a.543.543 0 100 1.086h13.683a.543.543 0 000-1.086zm0 2.715H13a.543.543 0 100 1.086h5.484a.543.543 0 000-1.086zm0 2.715H13a.543.543 0 100 1.086h5.484a.543.543 0 000-1.086zm0 2.715H13a.543.543 0 100 1.085h5.484a.543.543 0 000-1.085zm0 2.715H13a.543.543 0 100 1.086h5.484a.543.543 0 000-1.086zm-8.199 0H4.801a.543.543 0 100 1.086h5.484a.543.543 0 000-1.086zm0-8.145H4.801c-.3 0-.543.243-.543.543v5.484c0 .3.243.543.543.543h5.484c.3 0 .543-.243.543-.543V7.928c0-.3-.243-.543-.543-.543zm-.543 5.484H5.344V8.47h4.398v4.398z" fill="#504EF3"/><path fill-rule="evenodd" clip-rule="evenodd" d="M2.087 1.212C1.377 1.212.8 1.789.8 2.498v17.376a2.918 2.918 0 002.915 2.914h18.57a2.918 2.918 0 002.915-2.915V5.213c0-.71-.577-1.286-1.286-1.286h-1.43v-1.43c0-.708-.576-1.285-1.285-1.285H2.087zm.2 18.662V2.698H21v16.361c0 .859.698 1.557 1.557 1.557a.743.743 0 100-1.485.072.072 0 01-.071-.072V5.413h1.229v14.46a1.43 1.43 0 01-1.43 1.43H3.716a1.43 1.43 0 01-1.428-1.43z" fill="#212121"/></svg>