<svg width="26" height="24" viewBox="0 0 26 24" fill="none" xmlns="http://www.w3.org/2000/svg"><path d="M25 8.173c0-.365-.108-.734-.345-1.039l-1.901-2.433a1.635 1.635 0 00-1.288-.611c-.288 0-.582.074-.84.235L18.77 5.48c-.195.124-.53.21-.852.208-.251 0-.494-.05-.654-.129l-1.815-.88a2.187 2.187 0 00-.948-.199c-.472.003-.95.119-1.333.384l-.212.15-.721-.36c-.352-.172-.765-.242-1.183-.243a2.83 2.83 0 00-1.085.199l-1.237.528c-.201.087-.521.144-.84.142-.317.002-.637-.055-.838-.142L5.814 4.61a1.801 1.801 0 00-.706-.138c-.276 0-.55.054-.804.157-.254.104-.49.257-.678.467L1.373 7.619a1.46 1.46 0 00.143 2.092l2.103 1.794-.998 1.04a1.483 1.483 0 00.051 2.104l.203.193c.19.18.42.295.659.357a1.468 1.468 0 00.277 1.784l.202.193a1.5 1.5 0 001.616.292c.065.266.2.518.413.72l.203.193a1.499 1.499 0 001.861.16c.073.235.198.458.389.64l.203.192c.288.274.663.41 1.032.41.393 0 .79-.154 1.082-.46l.882-.92 1.197 1.108c.287.266.655.398 1.018.397.4.001.802-.159 1.095-.473l.192-.205c.165-.177.272-.387.335-.606l.464.428a1.503 1.503 0 002.114-.078l.19-.204a1.47 1.47 0 00.381-.822c.123.031.247.053.372.053.4 0 .802-.16 1.096-.474l.191-.205a1.481 1.481 0 00.358-1.346c.33-.045.652-.192.896-.455l.192-.204a1.485 1.485 0 00-.078-2.105l-.358-.33 3.227-3.568A1.7 1.7 0 0025 8.173zM3.907 14.44a.678.678 0 01-.469-.186l-.203-.192a.67.67 0 01-.21-.49.67.67 0 01.187-.466l2.043-2.132a.677.677 0 01.492-.209c.17 0 .338.062.47.186l.201.193s.209.309.21.49a.673.673 0 01-.121.383l-2.205 2.297a.688.688 0 01-.395.126zm1.631 2.126a.68.68 0 01-.492.208.678.678 0 01-.469-.186l-.203-.193a.671.671 0 01-.21-.49.67.67 0 01.187-.466s2.723-2.835 2.746-2.862a.678.678 0 01.94-.005l.202.194a.67.67 0 01.21.49c0 .17-.062.336-.187.466l-2.724 2.844zM7.77 17.77a.677.677 0 01-.492.208.677.677 0 01-.469-.185l-.203-.193a.67.67 0 01-.06-.912l1.897-1.979a.677.677 0 01.923.01l.203.193a.674.674 0 01.023.956L7.77 17.771zm3.603-.21l-1.15 1.202a.678.678 0 01-.493.208.677.677 0 01-.469-.186l-.203-.192a.673.673 0 01-.21-.49.67.67 0 01.187-.467l1.15-1.2a.679.679 0 01.493-.209c.17 0 .338.061.469.186l.204.192a.672.672 0 01.208.49c0 .17-.062.337-.186.467zm9.995-3.256a.67.67 0 01-.18.46l-.191.204a.678.678 0 01-.499.215.676.676 0 01-.462-.18l-3.213-2.971-.555.595 3.438 3.185a.676.676 0 01.035.957l-.19.205a.68.68 0 01-.498.214.678.678 0 01-.462-.18l-3.213-2.97-.555.595 2.852 2.637a.67.67 0 01.207.487c0 .167-.059.33-.18.46l-.19.204a.679.679 0 01-.5.215.678.678 0 01-.462-.18l-2.846-2.627h0l-.554.595.01.011 1.426 1.316a.67.67 0 01.012.926l-.19.205a.678.678 0 01-.498.214.677.677 0 01-.461-.18l-1.241-1.149c.108-.212.168-.442.168-.672 0-.392-.155-.786-.462-1.078l-.204-.193a1.495 1.495 0 00-1.031-.41c-.029 0-.058.007-.086.009l.002-.02c0-.392-.462-1.079-.462-1.079l-.203-.192a1.49 1.49 0 00-.753-.384 1.47 1.47 0 00.089-.493 1.48 1.48 0 00-.463-1.077l-.203-.193a1.498 1.498 0 00-1.031-.41c-.043 0-.086.008-.129.012a1.482 1.482 0 00-.457-1.03l-.203-.193a1.497 1.497 0 00-1.031-.41 1.49 1.49 0 00-1.083.46l-.482.502-2.136-1.821a.653.653 0 01-.064-.936l2.254-2.524c.09-.1.222-.191.376-.254.155-.063.331-.098.496-.098.143 0 .277.026.385.072l1.237.528c.349.147.754.208 1.16.209.408-.001.813-.062 1.162-.209l1.236-.527c.19-.083.479-.135.765-.134.316-.002.633.064.817.157l.33.165-1.261.887a1.46 1.46 0 00-.333 2.068l.166.223c.317.42.81.637 1.303.638.278 0 .562-.07.815-.222l.754-.453c.154-.094.386-.154.627-.152.282-.002.566.081.737.207l2.087 1.496c.465.333 1.221.95 1.64 1.338l2.416 2.234a.673.673 0 01.215.496zm2.603-5.533l-3.218 3.558-1.461-1.35a21.493 21.493 0 00-1.719-1.403L15.487 8.08c-.354-.25-.787-.359-1.215-.36-.364 0-.731.08-1.048.269l-.754.453a.814.814 0 01-1.041-.204l-.166-.224a.65.65 0 01.147-.92l2.23-1.568c.194-.14.537-.237.862-.235.227-.001.443.044.591.118l1.816.879c.31.149.659.21 1.01.21.452-.002.908-.1 1.284-.331l1.855-1.154a.77.77 0 01.409-.112c.25 0 .501.113.643.298l1.902 2.433c.11.14.173.336.173.54 0 .228-.08.452-.214.599z" fill="#504EF3" stroke="#504EF3" stroke-width=".3"/><path fill-rule="evenodd" clip-rule="evenodd" d="M25 8.173a1.69 1.69 0 00-.345-1.039l-1.902-2.433a1.635 1.635 0 00-1.287-.611c-.289 0-.582.074-.841.235L18.77 5.48c-.194.124-.529.21-.852.208-.25 0-.493-.05-.653-.129l-1.816-.88a2.187 2.187 0 00-.947-.199c-.472.003-.95.119-1.333.384l-.212.15-.756.532-1.26.887a1.46 1.46 0 00-.333 2.068l.166.223c.316.42.81.637 1.303.638.278 0 .562-.07.814-.222l.755-.453c.154-.094.386-.154.626-.152.282-.002.567.081.738.207l2.087 1.496c.464.333 1.22.95 1.64 1.338l2.081 1.925.53-.618 3.228-3.568c.29-.32.423-.734.424-1.141zM3.617 11.505l-.997 1.04a1.483 1.483 0 00.05 2.104l.203.193c.19.18.42.295.66.357a1.48 1.48 0 00-.186.706c0 .392.155.787.462 1.078l.203.193a1.5 1.5 0 001.615.292c.066.266.201.518.414.72l.203.193a1.499 1.499 0 001.86.16c.074.235.199.458.39.64l.202.192a1.5 1.5 0 001.032.41c.393 0 .79-.154 1.083-.46l.881-.92.514-.635c.108-.212.168-.442.168-.672 0-.392-.155-.786-.462-1.078l-.203-.193a1.495 1.495 0 00-1.032-.41.375.375 0 00-.049.005l-.036.004v-.01l.001-.004v-.007c.001-.391-.462-1.078-.462-1.078l-.203-.192a1.49 1.49 0 00-.752-.384c.056-.16.088-.326.088-.493 0-.391-.155-.786-.462-1.077l-.203-.193a1.498 1.498 0 00-1.032-.41.633.633 0 00-.082.007 1.19 1.19 0 01-.046.005 1.481 1.481 0 00-.458-1.03l-.202-.193a1.497 1.497 0 00-1.032-.41 1.49 1.49 0 00-1.083.46l-.482.502-.565.588zm-.18 2.75a.679.679 0 00.863.059l2.205-2.297a.673.673 0 00.12-.383c0-.181-.209-.49-.209-.49l-.201-.193a.68.68 0 00-.47-.186.677.677 0 00-.492.209L3.21 13.106a.67.67 0 00-.186.466c0 .181.07.357.21.49l.203.192zm1.607 2.519a.68.68 0 00.493-.208l2.723-2.844a.673.673 0 00.187-.466.67.67 0 00-.21-.49l-.202-.193a.677.677 0 00-.47-.186.677.677 0 00-.47.19c-.023.028-2.746 2.862-2.746 2.862a.669.669 0 00-.186.466c0 .181.07.359.21.49l.203.193a.679.679 0 00.468.186zm2.232 1.205c.183 0 .36-.07.492-.208l1.823-1.902a.674.674 0 00-.023-.956l-.204-.193a.678.678 0 00-.923-.01l-1.896 1.98a.67.67 0 00.06.911l.203.193a.677.677 0 00.468.185zm2.945.784l1.15-1.201a.672.672 0 00.187-.467.671.671 0 00-.21-.49l-.203-.192a.677.677 0 00-.468-.186.68.68 0 00-.493.208l-1.15 1.201a.673.673 0 00.023.956l.203.193a.678.678 0 00.468.186c.183 0 .36-.07.493-.208zm10.53-6.433l3.218-3.558a.903.903 0 00.214-.599c0-.204-.063-.4-.173-.54L22.11 5.2a.823.823 0 00-.644-.298.771.771 0 00-.408.112l-1.855 1.154c-.376.231-.833.33-1.284.331-.352 0-.701-.061-1.01-.21l-1.816-.88a1.381 1.381 0 00-.591-.117c-.326-.002-.67.095-.862.235l-2.23 1.567a.65.65 0 00-.148.92l.166.224c.142.193.395.31.648.31a.765.765 0 00.394-.105l.753-.453a2.054 2.054 0 011.049-.27c.428.002.86.11 1.215.361l2.086 1.496c.506.364 1.26.98 1.718 1.402l1.461 1.35z" fill="#212121"/><path d="M24.655 7.134l.118-.092-.118.092zM25 8.173h.15H25zM22.753 4.7l.118-.092-.118.092zm-1.287-.611v-.15.15zm-.841.235l.079.128-.08-.128zM18.77 5.48l-.079-.127h-.001l.08.127zm-.852.208l.001-.15h-.001v.15zm-.653-.129l.066-.134-.066.134zm-1.816-.88l.066-.134-.066.135zm-.947-.199v-.15H14.5v.15zm-1.333.384l-.086-.123.086.123zm-.212.15l-.086-.124.086.123zm-.756.532l.087.123-.087-.123zm-1.26.887l-.087-.123.086.123zm-.624 1.195h.15-.15zm.29.873l.121-.09-.12.09zm.167.223l-.12.09.12-.09zm1.303.638v.15-.15zm.814-.222l.078.129-.078-.13zm.755-.453l.077.129.001-.001-.078-.128zm.626-.152v.15h.001v-.15zm.738.207l-.089.12.001.002.088-.122zm2.087 1.496l-.088.122.088-.122zm1.64 1.338l-.102.11.102-.11zm2.081 1.925l-.102.11.115.106.101-.118-.114-.098zm.53-.618l-.11-.1-.003.002.114.098zm3.228-3.568l.11.101h.001l-.111-.1zM2.62 12.545l-.108-.104.108.104zm.997-1.04L3.51 11.4l.108.104zM2.21 13.572h.15-.15zm.463 1.077l.103-.108-.103.108zm.202.193l-.103.108.103-.108zm.66.357l.131.071.092-.169-.186-.048-.037.146zm-.186.706h.15-.15zm.462 1.078l.104-.108-.104.108zm.203.193l-.104.109.104-.11zm1.032.41v-.15.15zm.583-.118l.146-.036-.042-.17-.162.068.058.138zm.414.72l.103-.108-.103.108zm.203.193l-.104.109.104-.109zm1.032.41v-.15.15zm.829-.25l.143-.044-.06-.191-.166.11.083.125zm.389.64l.103-.11-.104.11zm.202.192l-.103.109.103-.109zm1.032.41v-.15.15zm1.083-.46l.108.104-.108-.104zm.881-.92l.11.104.007-.01-.117-.094zm.514-.635l.117.095.01-.012.007-.014-.134-.069zm.168-.672h-.15.15zm-.462-1.078l-.103.11.103-.11zm-.203-.193l-.104.11.104-.11zm-1.032-.41v.15-.15zm-.049.005l-.02-.15-.01.003.03.147zm0 0l.023.148h.007l-.03-.148zm0 0l.02.149h.003l-.023-.149zm-.036.004h-.15v.159l.159-.01-.009-.15zm0-.01l.15.017v-.001l-.15-.016zm.001-.004l.15.017v-.002l-.15-.015zm0-.007h-.15.15zm-.462-1.078l.125-.084-.01-.013-.011-.012-.104.11zm-.203-.192l.104-.11-.104.11zm-.752-.384l-.142-.05-.058.165.172.033.028-.148zm-.374-1.57l-.104.108.104-.108zm-.203-.193l.103-.109-.103.109zm-1.032-.41v.15-.15zm-.082.007l.018.149h.001l-.02-.15zm0 0l-.019-.149.019.149zm-.046.005l-.15.005.005.159.158-.014-.013-.15zm-.458-1.03l-.103.108.103-.109zm-.202-.193l.103-.11-.103.11zm-1.032-.41v.15-.15zm-1.083.46l.109.103-.109-.104zm-.482.502l.108.104-.108-.104zm-.277 3.523v.15h.001v-.15zm-.468-.186l-.104.11.104-.11zm.863.06l.087.122.012-.008.01-.01-.109-.104zm2.205-2.297l.106.106.01-.01.007-.011-.123-.085zm.12-.383h.15-.15zm-.209-.49l.125-.084-.01-.014-.011-.01-.104.108zm-.201-.193l.103-.108v-.001l-.103.11zm-.47-.186l.001-.15v.15zm-.492.209l-.108-.104.108.104zm-2.043 2.132l.109.103-.109-.103zm-.186.466h-.15.15zm.21.49l.103-.109-.103.109zm2.303 2.504l.108.104-.108-.104zm-.493.208v.15-.15zm3.216-3.052l.109.104-.108-.104zm.187-.466h.15-.15zm-.21-.49l-.103.108.104-.108zm-.202-.193l.103-.11-.103.11zm-.47-.186l.001-.15v.15zm-.47.19l-.104-.108-.006.006-.005.006.115.096zM4.35 15.44l-.108-.104.108.104zm.024.957l.103-.11-.103.11zm.203.192l-.104.11.104-.11zm3.192 1.183l-.108-.104.108.104zm-.492.208v.15-.15zm2.315-2.11l.108.104-.108-.104zm.186-.466h.15-.15zm-.21-.49l.104-.109-.103.109zm-.203-.193l.103-.11-.103.11zm-.469-.186v-.15.15zm-.454.176l-.1-.111-.008.008.108.104zm-1.896 1.98l-.109-.105-.008.01.117.095zm.059.91l.103-.108-.103.109zm.204.194l-.104.108.104-.108zm4.563-.232l.108.104-.108-.104zm-1.15 1.2l-.109-.103.109.104zm1.337-1.667h.15-.15zm-.21-.49l.104-.108-.103.109zm-.203-.192l-.103.109.103-.11zm-.468-.186v-.15.15zm-.493.208l-.108-.104.108.104zm-1.15 1.201l.108.104-.108-.104zm-.187.466h-.15v.001h.15zm.21.49l.103-.108-.103.109zm.203.193l-.104.11.104-.11zm.468.186v.15-.15zm14.241-10.2l-.11-.1h-.001l.111.1zm-3.218 3.559l-.102.11.112.103.101-.113-.11-.1zm3.432-4.157h-.15.15zm-.173-.54l-.118.093.118-.093zM22.11 5.2l-.12.091.001.002.119-.093zm-.644-.298v.15-.15zm-.408.112l.079.128-.08-.128zm-1.855 1.154l.078.128h.001l-.08-.128zm-1.284.331v.15-.15zm-1.01-.21l-.066.135.065-.135zm-1.816-.88l-.067.135h.001l.066-.134zm-.591-.117l-.001.15h.002l-.001-.15zm-.862.235l.086.123.002-.001-.088-.122zm-2.23 1.567l-.086-.123.086.123zm-.278.532h-.15.15zm.13.389l-.12.09.12-.09zm.166.223l.121-.088v-.001l-.12.09zm.648.31v-.15.15zm.394-.105l-.078-.129.078.129zm.753-.453l-.076-.13v.001l.076.129zm1.049-.27v-.15.15zm1.215.361l.087-.122-.087.122zm2.086 1.496l.087-.122-.087.122zm1.718 1.402l.102-.11-.102.11zm5.245-3.753c.214.275.313.611.313.947h.3c0-.394-.116-.797-.376-1.13l-.236.183zm-1.901-2.433l1.902 2.434.236-.185-1.902-2.433-.236.184zm-1.17-.553c.444 0 .883.189 1.17.554l.236-.186a1.785 1.785 0 00-1.405-.668v.3zm-.76.213c.232-.146.498-.213.76-.213v-.3c-.313 0-.634.08-.92.258l.16.255zM18.85 5.606l1.854-1.153-.159-.255-1.854 1.154.159.254zm-.933.23c.344.003.708-.087.934-.23l-.161-.253c-.164.104-.468.186-.77.184l-.003.3zm-.719-.143c.187.092.453.145.72.144v-.3a1.4 1.4 0 01-.587-.113l-.133.269zm-1.814-.88l1.816.88.13-.27-1.815-.88-.131.27zM14.5 4.63c.312.001.615.056.883.185l.13-.27a2.336 2.336 0 00-1.012-.215v.3zm-1.247.358c.353-.245.799-.355 1.248-.358l-.001-.3c-.494.003-1.003.124-1.418.411l.171.247zm-.211.148l.212-.149-.172-.245-.212.148.172.246zm-.755.533l.755-.533-.173-.245-.755.533.173.245zm-1.262.886l1.262-.886-.173-.246-1.261.887.172.245zm-.559 1.073c0-.41.195-.816.56-1.073l-.173-.245a1.61 1.61 0 00-.687 1.319h.3zm.26.783a1.305 1.305 0 01-.26-.782h-.3c0 .334.105.673.32.961l.24-.179zm.167.224l-.166-.224-.24.18.165.223.241-.18zm1.183.577a1.478 1.478 0 01-1.183-.578l-.24.18c.347.462.887.697 1.422.698v-.3zm.737-.2c-.228.136-.484.2-.738.2v.3c.304 0 .615-.077.893-.243l-.155-.258zm.755-.454l-.755.453.155.258.754-.453-.155-.258zm.704-.174a1.39 1.39 0 00-.705.175l.156.256c.125-.077.328-.131.547-.13l.002-.3zm.826.237c-.203-.149-.521-.238-.828-.236l.002.3c.258-.002.509.076.648.178l.178-.242zm2.085 1.495L15.097 8.62l-.175.244 2.087 1.496.175-.244zm1.655 1.35a20.983 20.983 0 00-1.655-1.35l-.175.244c.46.33 1.211.942 1.626 1.326l.204-.22zm2.081 1.925l-2.081-1.925-.204.22 2.081 1.925.204-.22zm.315-.606l-.53.618.227.196.53-.618-.227-.196zm3.23-3.57l-3.227 3.567.222.202 3.227-3.568-.223-.201zm.384-1.042c0 .376-.123.752-.385 1.042l.223.2a1.84 1.84 0 00.462-1.241h-.3zM2.73 12.65l.997-1.04-.216-.208-.997 1.04.216.208zm-.37.923c0-.331.123-.665.37-.923l-.217-.208a1.633 1.633 0 00-.453 1.13h.3zm.416.968a1.33 1.33 0 01-.416-.968h-.3c0 .43.17.866.51 1.186l.206-.218zm.202.193l-.202-.193-.207.218.203.192.206-.217zm.594.32a1.333 1.333 0 01-.594-.32l-.206.217c.211.201.464.327.725.394l.075-.29zm-.073.852c0-.216.058-.433.167-.635l-.263-.143a1.627 1.627 0 00-.204.779l.3-.001zm.416.97a1.332 1.332 0 01-.416-.97h-.3c0 .431.17.866.51 1.187l.206-.218zm.202.192l-.202-.192-.207.217.202.193.207-.218zm.929.369a1.35 1.35 0 01-.93-.369l-.205.218c.318.301.73.451 1.135.45v-.3zm.525-.106a1.36 1.36 0 01-.525.106v.3c.218 0 .436-.044.641-.13l-.116-.276zm.575.75a1.32 1.32 0 01-.371-.648l-.291.072c.071.291.22.57.455.793l.207-.218zm.203.193l-.203-.193-.207.217.203.193.207-.217zm.929.368c-.333 0-.67-.122-.93-.368l-.206.217c.318.302.73.452 1.136.451v-.3zm.746-.225a1.354 1.354 0 01-.746.225v.3c.318 0 .637-.093.911-.275l-.165-.25zm.575.655a1.32 1.32 0 01-.35-.574l-.286.089c.08.256.217.502.43.703l.206-.218zm.203.194l-.203-.194-.207.218.203.193.207-.217zm.928.368c-.332 0-.67-.123-.928-.369l-.207.218c.318.302.73.451 1.135.451v-.3zm.975-.414a1.35 1.35 0 01-.975.414v.3c.432 0 .869-.17 1.191-.506l-.216-.208zm.881-.92l-.881.92.216.208.882-.92-.217-.208zm.505-.625l-.513.634.233.189.514-.634-.233-.19zm.135-.578c0 .204-.053.411-.152.604l.268.137c.117-.231.184-.484.184-.741h-.3zm-.415-.969c.276.262.416.617.415.969h.3c0-.43-.17-.865-.509-1.187l-.206.218zm-.204-.193l.204.193.206-.217-.203-.194-.207.218zm-.927-.368c.332 0 .668.122.927.368l.207-.217a1.645 1.645 0 00-1.135-.451v.3zm-.03.003a.259.259 0 01.03-.003v-.3a.552.552 0 00-.07.005l.04.298zm.01-.002l-.06-.294.06.294zm-.007.001l-.046-.296.046.296zm-.05.006a.641.641 0 00.046-.005l-.038-.298a.362.362 0 01-.026.003l.018.3zm-.157-.178l-.002.028h.3a.07.07 0 010 .008v-.002l-.298-.034zm0-.002v.003l.298.033v-.003l-.298-.033zm0 .01v-.009l.298.03.002-.022h-.3zm-.313-1.079l-.124.084v.001l.004.006.014.02a4.85 4.85 0 01.205.351c.056.107.11.223.15.334.042.113.064.21.063.282h.3c0-.123-.035-.259-.08-.385a3.11 3.11 0 00-.168-.37 4.896 4.896 0 00-.233-.398l-.005-.006a.027.027 0 00-.001-.002l-.125.083zm-.306-.084l.203.193.207-.218-.203-.192-.207.217zm-.677-.344c.247.046.483.16.677.344l.207-.217a1.64 1.64 0 00-.829-.422l-.055.295zm-.034-.64c0 .147-.028.296-.08.442l.283.1c.062-.174.097-.357.097-.543h-.3zm-.415-.97c.276.262.415.617.415.97h.3c0-.431-.17-.866-.509-1.187l-.206.218zm-.203-.193l.202.194.207-.218-.203-.193-.206.217zm-.929-.368c.333 0 .669.122.929.369l.206-.218a1.648 1.648 0 00-1.135-.451v.3zm-.063.005a.503.503 0 01.063-.005v-.3c-.039 0-.076.005-.102.008l.04.298zm0 0l-.038-.297.037.298zm-.052.007l.052-.006-.039-.298a1.025 1.025 0 01-.04.005l.027.299zm-.574-1.072c.264.25.4.588.41.927l.3-.01a1.632 1.632 0 00-.503-1.135l-.207.218zm-.203-.193l.203.193.207-.218-.203-.192-.207.217zm-.928-.369c.333 0 .669.123.929.37l.206-.218a1.647 1.647 0 00-1.135-.452v.3zm-.974.414c.263-.275.62-.414.974-.414v-.3c-.432 0-.868.17-1.191.506l.217.208zm-.483.503l.483-.503-.217-.208-.482.504.216.207zm-.565.588l.565-.588-.216-.208-.565.588.216.208zm.18 2.68a.528.528 0 01-.365-.144l-.207.218a.83.83 0 00.572.227v-.3zm.309-.098a.538.538 0 01-.31.099l.002.3a.839.839 0 00.481-.154l-.173-.245zm2.185-2.28l-1.107 1.153a5393.978 5393.978 0 00-1.093 1.14l-.005.004-.001.002.107.104.109.104.001-.002.005-.005.018-.019.07-.073.25-.26.755-.787.758-.79.25-.26.095-.1-.212-.211zm.077-.278a.523.523 0 01-.094.298l.246.171a.823.823 0 00.148-.468h-.3zm-.06-.49l-.124.085.002.002a.615.615 0 01.027.043 1.664 1.664 0 01.131.259.338.338 0 01.024.102h.3a.618.618 0 00-.042-.204 1.473 1.473 0 00-.08-.179 2.268 2.268 0 00-.103-.175l-.007-.012-.002-.003-.001-.001-.125.084zm-.305-.083l.202.192.207-.217-.202-.192-.207.217zm-.365-.145a.53.53 0 01.366.145l.206-.218a.83.83 0 00-.572-.227v.3zm-.385.163a.528.528 0 01.385-.163v-.3a.828.828 0 00-.601.255l.216.208zm-2.043 2.13l2.042-2.131-.216-.208-2.043 2.132.217.207zm-.145.363a.52.52 0 01.145-.363l-.217-.207a.82.82 0 00-.228.57h.3zm.163.381a.52.52 0 01-.163-.382l-.3.001c0 .22.085.437.257.599l.206-.218zm.203.192l-.203-.192-.206.218.202.192.207-.218zm1.888 2.317a.53.53 0 01-.384.162v.3a.83.83 0 00.6-.254l-.216-.208zm2.724-2.843L5.43 16.462l.217.207 2.724-2.843-.217-.207zm.145-.364a.523.523 0 01-.145.364l.217.207a.823.823 0 00.228-.57h-.3zm-.162-.38a.52.52 0 01.162.381h.3a.82.82 0 00-.256-.6l-.206.219zm-.204-.194l.203.193.207-.217-.203-.193-.207.217zm-.365-.144c.134 0 .264.048.366.145l.206-.218a.827.827 0 00-.572-.227v.3zm-.367.148a.527.527 0 01.367-.148v-.3a.829.829 0 00-.575.232l.208.216zM4.35 15.44l.108.104.002-.002.006-.006.023-.024.086-.09.31-.321.938-.978a2440.854 2440.854 0 001.388-1.448l-.23-.193-.118.123a370.296 370.296 0 01-1.257 1.31l-.938.978-.309.321-.086.09-.023.024-.006.006-.001.001.107.105zm-.036.466a.52.52 0 01.145-.363l-.217-.207a.82.82 0 00-.228.57h.3zm.163.382a.522.522 0 01-.163-.382h-.3c0 .22.086.438.256.6l.207-.218zm.203.193l-.203-.193-.207.217.203.193.207-.217zm.366.144a.529.529 0 01-.366-.145l-.206.219c.16.15.364.226.571.226v-.3zm2.615 1.043a.527.527 0 01-.384.162v.3a.823.823 0 00.6-.255l-.216-.207zm1.822-1.902l-1.822 1.902.217.208L9.7 15.973l-.217-.208zm.145-.363a.524.524 0 01-.145.364l.217.207a.824.824 0 00.228-.57h-.3zm-.163-.38a.52.52 0 01.163.381h.3a.822.822 0 00-.256-.599l-.207.218zm-.203-.193l.203.193.207-.218-.204-.193-.206.218zm-.366-.145c.135 0 .264.048.366.145l.206-.218a.827.827 0 00-.571-.227v.3zm-.354.138a.531.531 0 01.354-.138v-.3c-.203 0-.4.075-.554.215l.2.223zm-1.888 1.971l1.896-1.979-.216-.207-1.896 1.979.216.207zm-.108.318a.52.52 0 01.117-.327l-.234-.189a.818.818 0 00-.183.516h.3zm.162.38a.519.519 0 01-.162-.38h-.3c0 .22.085.437.256.599l.206-.218zm.204.194l-.204-.193-.206.218.203.192.207-.217zm.366.144a.527.527 0 01-.366-.144l-.207.218c.16.151.365.226.572.226v-.3zm3.986-.37l-1.15 1.2.216.208 1.15-1.201-.216-.208zm.145-.364a.522.522 0 01-.145.363l.217.208a.822.822 0 00.228-.57l-.3-.001zm-.162-.38a.522.522 0 01.162.38h.3a.822.822 0 00-.256-.598l-.206.217zm-.204-.193l.204.192.206-.217-.203-.193-.207.218zm-.366-.145c.135 0 .264.048.366.145l.207-.218a.827.827 0 00-.572-.227v.3zm-.384.162a.529.529 0 01.385-.162v-.3a.829.829 0 00-.601.254l.216.208zm-1.15 1.2l1.15-1.2-.216-.207-1.15 1.2.216.208zm-.145.364a.52.52 0 01.145-.363l-.217-.208a.82.82 0 00-.228.57l.3.001zm.163.38a.523.523 0 01-.163-.38h-.3c0 .22.086.437.256.598l.207-.217zm.203.194l-.203-.193-.207.217.203.193.207-.217zm.366.144a.528.528 0 01-.366-.145l-.207.218c.16.152.365.227.572.227v-.3zm.383-.162a.528.528 0 01-.384.162v.3a.823.823 0 00.6-.255l-.216-.207zM23.86 8.671l-3.218 3.558.222.201 3.218-3.558-.222-.201zm.175-.498c0 .196-.07.383-.175.497l.222.203c.163-.178.254-.44.253-.7h-.3zm-.14-.447c.085.11.14.272.14.447h.3c0-.232-.072-.463-.205-.632l-.236.185zM21.99 5.293l1.902 2.433.236-.185-1.901-2.433-.237.185zm-.524-.24a.675.675 0 01.524.238l.238-.182a.972.972 0 00-.763-.357v.3zm-.33.088a.621.621 0 01.33-.089v-.3a.92.92 0 00-.489.135l.159.254zm-1.855 1.154l1.855-1.153-.159-.255-1.854 1.154.158.254zm-1.363.354c.471-.002.957-.104 1.362-.353l-.157-.256c-.346.213-.774.307-1.206.31l.001.3zm-1.076-.225c.335.161.708.224 1.075.225l.001-.3c-.335 0-.661-.059-.946-.195l-.13.27zm-1.816-.88l1.816.88.13-.27-1.815-.88-.13.27zm-.524-.102c.209-.001.4.042.523.102l.133-.269a1.53 1.53 0 00-.658-.133l.002.3zm-.775.207c.16-.117.47-.21.773-.207l.002-.3c-.349-.003-.726.1-.95.264l.175.243zm-2.232 1.568l2.23-1.567-.172-.246-2.23 1.567.172.246zm-.214.41a.5.5 0 01.214-.41l-.173-.245a.8.8 0 00-.341.653l.3.002zm.1.298a.501.501 0 01-.1-.3l-.3.002c0 .167.052.332.16.477l.24-.179zm.167.224l-.166-.224-.241.18.166.223.24-.179zm.527.249a.664.664 0 01-.527-.248l-.242.177a.963.963 0 00.77.371l-.002-.3zm.316-.084a.615.615 0 01-.316.084v.3c.166 0 .33-.042.47-.127l-.154-.257zm.754-.453l-.754.453.155.257.754-.453-.155-.257zm1.125-.29c-.385 0-.78.085-1.124.29l.153.258c.29-.172.628-.247.972-.248v-.3zm1.302.388c-.384-.273-.849-.387-1.3-.388l-.002.3c.405.001.806.103 1.129.332l.173-.244zm2.087 1.496L15.574 7.96l-.175.244L17.485 9.7l.175-.244zm1.733 1.414a21.636 21.636 0 00-1.733-1.414l-.175.244c.502.36 1.251.972 1.704 1.39l.204-.22zm1.461 1.35l-1.461-1.35-.204.22 1.461 1.35.204-.22z" fill="#212121"/></svg>