<svg width="24" height="26" viewBox="0 0 24 26" fill="none" xmlns="http://www.w3.org/2000/svg"><path fill-rule="evenodd" clip-rule="evenodd" d="M11.486 8.285a2.36 2.36 0 00.439-1.411 3.387 3.387 0 00-.028-.369l-.343-1.246c-.177-.441-.41-.909-.703-1.417-.275-.572-.72-1.327-1.277-1.935-.282-.308-.586-.58-.965-.757v.002A1.607 1.607 0 007.964 1a1.305 1.305 0 00-.68.168l-.925.533c-.02.01-.037.022-.054.033a1.175 1.175 0 01-.005.003c-2.227 1.63-3.252 3.898-3.352 6.236-.1 2.337.68 4.75 1.97 6.858l2.386 4.112-.006-.012c1.191 2.164 2.898 4.042 4.984 5.124 2.087 1.083 4.573 1.334 7.105.23a.5.5 0 00.06-.03l.927-.533c.429-.244.644-.718.68-1.132.035-.413-.049-.815-.177-1.212-.25-.783-.687-1.544-1.048-2.066-.681-1.172-1.34-1.986-2.1-2.441a2.396 2.396 0 00-2.438-.019l-1.15.663c-.339.195-.736.173-1.154-.004-.416-.177-.801-.53-.944-.778L9.204 11.84c-.143-.249-.26-.757-.205-1.205.054-.446.235-.796.575-.992L10.691 9l.795-.716zm-3.41-6.007a.59.59 0 00-.12-.048c-.015-.002-.022.003-.033.01l-.013.008-.875.5c-1.93 1.416-2.75 3.257-2.836 5.277-.087 2.022.603 4.22 1.788 6.156l.002.004a.042.042 0 00.007.01L8.39 18.32a.023.023 0 01.004.006l.004.006c1.093 1.988 2.66 3.681 4.464 4.619 1.8.933 3.815 1.149 6.013.195l.875-.501a.278.278 0 01.012-.007c.029-.016.033-.018.045-.153.012-.151-.026-.424-.123-.726-.195-.608-.599-1.334-.896-1.762a.66.66 0 01-.027-.045c-.633-1.091-1.223-1.742-1.676-2.012-.452-.269-.722-.264-1.167-.008l-1.15.661c-.749.43-1.598.35-2.27.065-.671-.285-1.22-.748-1.541-1.302l-2.838-4.891c-.321-.554-.451-1.255-.363-1.976.088-.721.442-1.494 1.19-1.925l1.15-.663c.446-.256.588-.482.579-1.008-.009-.523-.283-1.358-.919-2.448a.81.81 0 00-.02-.045c-.224-.47-.656-1.183-1.088-1.654-.214-.235-.433-.403-.571-.468z" fill="#504EF3"/><path d="M11.925 6.874l-.1.001.1-.001zm-.44 1.411l.068.075.008-.008.006-.009-.081-.058zm.412-1.78l.1-.012-.002-.007-.002-.007-.096.026zm-.343-1.246l.097-.027-.005-.01-.092.037zm-.703-1.417l-.09.043.003.007.087-.05zM9.574 1.907l-.074.068.074-.068zm-.965-.757l.042-.09-.142-.067v.157h.1zm0 .002l-.043.09.143.067v-.157h-.1zM7.964 1l.003-.1-.003.1zm-.68.168l.05.087-.05-.087zm-.925.533l.05.086-.05-.086zm-.054.033l-.054-.085.054.085zm-.005.003l-.054-.085-.005.004.059.08zM2.948 7.973l.1.004-.1-.004zm1.97 6.858l.086-.05-.001-.002-.085.052zm2.386 4.112l-.087.05.178-.092-.091.042zm-.006-.012l.088-.048-.179.09.091-.042zm4.984 5.124l.046-.09-.046.09zm7.105.23l-.04-.092.04.092zm.06-.03l-.05-.087-.002.001.053.086zm.927-.533l-.05-.087.05.087zm.68-1.132l-.1-.009.1.009zm-.177-1.212l-.095.03v.001l.095-.03zm-1.048-2.066l-.087.05.005.007.082-.057zm-2.1-2.441l.051-.086-.051.086zm-2.438-.019l-.05-.087.05.087zm-1.15.663l.05.086-.05-.086zm-1.154-.004l-.04.092.04-.092zm-.944-.778l.086-.05-.086.05zM9.204 11.84l-.086.05.086-.05zM9 10.636l.1.013-.1-.013zm.575-.992l-.05-.087.05.087zM10.691 9l.05.087.01-.005.007-.007L10.691 9zM7.956 2.23l.016-.1h-.006l-.01.1zm.12.048l.044-.09v-.001l-.043.09zm-.153-.038l.054.084-.054-.084zm-.013.008l.05.087-.05-.087zm-.875.5l-.05-.087-.01.006.06.081zM4.199 8.025l-.1-.004.1.004zm1.788 6.156l-.085.053.085-.053zm.002.004l-.086.051.086-.051zm.007.01l.086-.05-.006-.012-.01-.01-.07.071zM8.39 18.32l-.087.05.008.014.012.011.067-.075zm.004.006l-.086.051.086-.051zm.004.006l.088-.048-.006-.01-.008-.01-.074.068zm4.464 4.619l-.046.089.046-.09zm6.013.195l.04.093.01-.006-.05-.087zm.875-.501l.05.087.001-.001-.051-.086zm.012-.007l.047.088-.047-.088zm.045-.153l.1.009-.1-.009zm-.123-.726l.095-.03-.095.03zm-.896-1.762l-.083.055.001.002.082-.057zm-.027-.045l.087-.048v-.002l-.087.05zm-1.676-2.012l-.051.086.05-.086zm-1.167-.008l-.05-.087.05.087zm-1.15.661l.05.087-.05-.087zm-2.27.065l.04-.092h-.001l-.039.092zm-1.541-1.302l-.087.05.087-.05zm-2.838-4.891l-.087.05.087-.05zm-.363-1.976l.1.012-.1-.012zm1.19-1.925l.05.086-.05-.086zm1.15-.663l-.05-.087.05.087zm.579-1.008l-.1.001.1-.001zm-.919-2.448l-.092.04.006.01.086-.05zm-.02-.045l-.09.043v.002l.09-.045zM8.648 2.746l-.074.068.074-.068zm3.177 4.13a2.26 2.26 0 01-.42 1.352l.162.115a2.46 2.46 0 00.458-1.47l-.2.003zm-.027-.358c.015.122.025.242.027.357l.2-.002a3.491 3.491 0 00-.029-.38l-.198.025zm-.34-1.233l.342 1.247.193-.053-.343-1.247-.193.053zm-.694-1.393c.292.505.523.968.697 1.404l.185-.074a11.192 11.192 0 00-.709-1.43l-.173.1zM9.5 1.975c.548.598.989 1.344 1.26 1.91l.181-.086c-.277-.577-.728-1.342-1.294-1.96l-.147.136zm-.933-.734c.362.168.655.43.933.734l.147-.135c-.285-.312-.6-.596-.996-.78l-.084.18zm.142-.09V1.15h-.2v.002h.2zm-.747-.05c.217.004.428.057.604.14l.086-.18a1.707 1.707 0 00-.685-.16l-.005.2zm-.628.154c.195-.113.412-.158.629-.155l.003-.2a1.405 1.405 0 00-.732.182l.1.173zm-.925.532l.925-.532-.1-.173-.925.532.1.173zm-.051.031l.05-.03-.099-.174-.058.035.107.17zm-.005.003c.002 0 .003-.002.005-.003l-.107-.169a4.412 4.412 0 00-.004.003l.106.17zM3.048 7.977c.099-2.31 1.11-4.55 3.311-6.16l-.118-.161C3.988 3.305 2.949 5.602 2.848 7.969l.2.008zm1.955 6.802c-1.282-2.096-2.054-4.49-1.955-6.802l-.2-.008c-.101 2.361.687 4.793 1.984 6.914l.17-.104zm2.387 4.114L5.004 14.78l-.173.1 2.386 4.112.173-.1zm-.183.08l.006.012.182-.084-.006-.012-.182.084zm5.12 4.993c-2.063-1.07-3.757-2.932-4.941-5.083l-.176.096c1.199 2.177 2.918 4.072 5.026 5.164l.092-.177zm7.02.227c-2.503 1.091-4.957.843-7.02-.227l-.091.177c2.111 1.097 4.629 1.35 7.19.234l-.08-.184zm.048-.024a.379.379 0 01-.048.024l.08.184a.585.585 0 00.073-.037l-.105-.17zm.93-.533l-.927.532.1.173.926-.532-.1-.173zm.628-1.055c-.032.391-.236.831-.628 1.054l.099.174c.464-.264.692-.773.729-1.21l-.2-.018zm-.171-1.172c.126.39.206.778.172 1.172l.199.017c.038-.432-.051-.848-.18-1.25l-.191.061zm-1.035-2.04c.357.517.788 1.269 1.035 2.04l.19-.061c-.254-.796-.697-1.566-1.06-2.093l-.165.114zm-2.07-2.412c.739.441 1.387 1.237 2.066 2.405l.173-.1c-.685-1.177-1.353-2.009-2.136-2.477l-.103.172zm-2.336-.018a2.296 2.296 0 012.336.018l.103-.172a2.496 2.496 0 00-2.539-.02l.1.174zm-1.15.662l1.15-.662-.1-.174-1.15.663.1.173zm-1.243.002c.435.184.867.215 1.243-.002l-.1-.173c-.302.175-.664.16-1.065-.01l-.078.185zm-.992-.82c.08.137.22.296.392.442.172.146.38.285.6.378l.078-.184a2.205 2.205 0 01-.549-.347 1.646 1.646 0 01-.348-.39l-.173.1zm-2.838-4.891l2.838 4.89.173-.1-2.838-4.89-.173.1zM8.9 10.624c-.058.468.063.998.218 1.267l.173-.1c-.132-.228-.246-.714-.192-1.143l-.199-.024zm.624-1.067c-.376.217-.568.6-.624 1.067l.199.024c.05-.426.22-.742.525-.918l-.1-.173zm1.117-.642l-1.117.642.1.173 1.117-.642-.1-.173zm.778-.704l-.795.716.134.149.795-.716-.134-.149zm-3.48-5.883l.022.008c.016.006.04.016.074.032l.084-.181a.654.654 0 00-.147-.056l-.033.197zm.038-.004l.004-.002-.007.003a.067.067 0 01-.029.004l.021-.199a.136.136 0 00-.063.008c-.017.007-.031.016-.035.018l.11.168zm-.017.01l.017-.01-.109-.168a.16.16 0 01-.008.005l.1.174zm-.876.5l.876-.499-.1-.174-.875.5.1.174zM4.3 8.03c.085-1.991.891-3.803 2.795-5.2l-.118-.162C5.02 4.104 4.187 5.974 4.1 8.022l.2.008zm1.773 6.1c-1.177-1.923-1.859-4.102-1.773-6.1l-.2-.008c-.088 2.046.61 4.264 1.803 6.213l.17-.105zm.003.005l-.003-.006-.17.106.001.002.172-.102zm-.009-.01c.007.006.011.014.009.01l-.172.102c.002.003.01.016.022.029l.141-.141zm2.41 4.146l-2.394-4.126-.173.1 2.394 4.127.173-.1zm.004.004l-.006-.008a.112.112 0 00-.018-.02l-.133.15a.086.086 0 01-.013-.016l-.002-.003.172-.103zm-.008-.01a.066.066 0 01.007.009v.001l-.17.103c0 .001.006.012.015.023l.148-.136zm4.437 4.598c-1.783-.926-3.337-2.603-4.423-4.578l-.176.096c1.1 2.001 2.681 3.71 4.506 4.66l.093-.178zm5.926.193c-2.168.94-4.15.728-5.927-.193l-.092.178c1.825.946 3.871 1.164 6.099.198l-.08-.183zm.865-.497l-.875.502.1.173.875-.501-.1-.174zm.014-.008a.347.347 0 00-.015.009l.102.172.008-.005-.095-.175zm-.007-.074a2.114 2.114 0 01-.01.094l-.002.006s.004-.01.014-.02c.008-.008.015-.011.005-.006l.095.176a.145.145 0 00.077-.09.764.764 0 00.02-.142l-.199-.018zm-.118-.686c.095.296.129.554.118.687l.2.016c.013-.17-.029-.456-.128-.764l-.19.06zm-.883-1.736c.293.423.692 1.14.883 1.736l.19-.061c-.198-.62-.608-1.355-.908-1.789l-.165.114zM18.673 20a.73.73 0 00.032.052l.167-.11a.532.532 0 01-.024-.038l-.175.096zm-1.64-1.974c.432.256 1.01.89 1.641 1.976l.173-.1c-.636-1.096-1.235-1.765-1.711-2.048l-.102.172zm-1.065-.008c.216-.124.377-.179.53-.179.154 0 .316.056.536.187l.102-.172c-.233-.138-.431-.214-.637-.215-.205 0-.402.075-.63.206l.099.174zm-1.15.662l1.15-.662-.1-.173-1.15.662.1.173zm-2.36.07c.692.293 1.576.38 2.36-.07l-.1-.174c-.714.41-1.528.337-2.18.06l-.08.184zm-1.588-1.344c.334.576.9 1.052 1.589 1.344l.078-.184c-.654-.278-1.185-.727-1.494-1.26l-.173.1zm-2.838-4.891l2.838 4.891.173-.1-2.838-4.892-.173.1zm-.375-2.039c-.09.74.042 1.464.375 2.039l.173-.1c-.308-.533-.436-1.212-.35-1.914l-.198-.025zm1.24-1.999c-.784.451-1.15 1.258-1.24 2l.198.024c.086-.7.428-1.44 1.142-1.85l-.1-.174zm1.15-.663l-1.15.663.1.173 1.15-.662-.1-.174zm.528-.92c.004.255-.029.422-.105.554-.077.132-.206.241-.423.366l.1.174c.228-.132.393-.263.495-.44.104-.177.137-.386.133-.657l-.2.004zM9.67 4.496c.633 1.086.897 1.902.905 2.4l.2-.004c-.01-.55-.294-1.402-.932-2.497l-.173.101zm-.024-.05a.711.711 0 01.018.039l.184-.079a.916.916 0 00-.023-.05l-.179.09zM8.575 2.814c.423.461.85 1.165 1.07 1.629l.18-.086c-.226-.476-.663-1.198-1.103-1.678l-.147.135zm-.54-.446c.12.058.33.216.54.446l.147-.135c-.219-.24-.448-.419-.602-.492l-.086.18z" fill="#504EF3"/></svg>