<svg width="24" height="24" viewBox="0 0 24 24" fill="none" xmlns="http://www.w3.org/2000/svg"><path d="M11.925 1.208c1.886 0 3.775.538 5.462 1.558a11.844 11.844 0 012.85 2.413l-2.82-.093a.601.601 0 00-.62.583.602.602 0 00.58.624l3.902.13a.597.597 0 00.653-.132.607.607 0 00.13-.658l-.129-3.924a.602.602 0 00-.613-.59.602.602 0 00-.586.63l.074 2.264a13.104 13.104 0 00-2.803-2.283C16.13.598 14.028 0 11.925 0c-3.36 0-6.458 1.394-8.722 3.926C1.197 6.168 0 9.186 0 12c0 .333.269.604.6.604.332 0 .6-.27.6-.604 0-2.523 1.082-5.24 2.895-7.266 2.034-2.274 4.814-3.526 7.83-3.526zM23.4 11.396c-.332 0-.6.27-.6.604 0 2.523-1.082 5.24-2.895 7.266-2.034 2.274-4.814 3.526-7.83 3.526-1.886 0-3.775-.538-5.462-1.558a11.851 11.851 0 01-2.85-2.414l2.82.094c.33.01.608-.25.619-.584a.602.602 0 00-.58-.623l-3.901-.13a.598.598 0 00-.653.132.606.606 0 00-.13.657l.129 3.925a.602.602 0 00.613.59.602.602 0 00.587-.617v-.013l-.075-2.264a13.113 13.113 0 002.803 2.283C7.87 23.402 9.972 24 12.075 24c3.36 0 6.458-1.394 8.722-3.925C22.802 17.832 24 14.813 24 12a.602.602 0 00-.6-.604z" fill="#212121"/><path d="M10.867 8.599H6.336a.567.567 0 000 1.133h1.7v5.1a.567.567 0 101.132 0v-5.1h1.699a.567.567 0 000-1.133zm7.013.043a.565.565 0 00-.617.123l-1.865 1.866-1.865-1.866a.566.566 0 00-.967.4v5.667a.567.567 0 101.133 0v-4.299l1.299 1.3c.22.22.58.221.8 0l1.3-1.3v4.299a.567.567 0 101.132 0V9.165a.566.566 0 00-.35-.523z" fill="#504EF3"/></svg>