<svg width="24" height="26" viewBox="0 0 24 26" fill="none" xmlns="http://www.w3.org/2000/svg"><path d="M3.2 3a.4.4 0 01.4-.4h3.6c.22 0 .4.18.4.4v0a.4.4 0 01-.4.4H3.6a.4.4 0 01-.4-.4v0z" fill="#212121" stroke="#212121" stroke-width=".2"/><path d="M3.6 9.8h3.6a.4.4 0 00.4-.4V7.8a.4.4 0 00-.4-.4H3.6a.4.4 0 00-.4.4v1.6c0 .22.178.4.4.4zM4 8.2h2.8V9H4v-.8zm4.8 1.6h8.4a.4.4 0 00.4-.4V7.8a.4.4 0 00-.4-.4H8.8a.4.4 0 00-.4.4v1.6c0 .22.18.4.4.4zm.4-1.6h7.6V9H9.2v-.8zM3.6 6.6h3.6a.4.4 0 00.4-.4V4.6a.4.4 0 00-.4-.4H3.6a.4.4 0 00-.4.4v1.6a.4.4 0 00.4.4zM4 5h2.8v.8H4V5zm4.8 1.6h8.4a.4.4 0 00.4-.4V4.6a.4.4 0 00-.4-.4H8.8a.4.4 0 00-.4.4v1.6c0 .221.18.4.4.4zM9.2 5h7.6v.8H9.2V5z" fill="#504EF3" stroke="#504EF3" stroke-width=".2"/><path d="M3.2 11a.4.4 0 01.4-.4h4c.22 0 .4.18.4.4v0a.4.4 0 01-.4.4h-4a.4.4 0 01-.4-.4v0z" fill="#212121" stroke="#212121" stroke-width=".2"/><path d="M21.507 9.174a1.325 1.325 0 00-1.685.819l-.304.876-.318.92V1.4a.4.4 0 00-.4-.4H2a.4.4 0 00-.4.4v23.2a.4.4 0 00.4.4h16.8a.4.4 0 00.4-.4v-4.701l2.826-8.164v-.001l.298-.87a1.323 1.323 0 00-.817-1.69zm-.663.78a.517.517 0 01.402-.024.523.523 0 01.323.668l-.17.497-.497-.171-.497-.171.173-.498a.523.523 0 01.266-.302zM16.8 18.726l-.233.673H4V13h12.8v5.727zm1.6 5.473h-16V1.8h16v12.3l-.8 2.314V12.6a.4.4 0 00-.4-.4H3.6a.4.4 0 00-.4.4v7.2a.4.4 0 00.4.4h12.69l-.3.874a.388.388 0 00-.007.212l-.007.002.37 1.76a.4.4 0 00.649.224l1.379-1.156-.004-.004.03-.022v2.11zm-1.496-2.388l.416.144-.328.274-.088-.418zm.964-.513l-.992-.343 3.267-9.448.996.344-3.27 9.447z" fill="#212121" stroke="#212121" stroke-width=".2"/><path fill-rule="evenodd" clip-rule="evenodd" d="M21.506 9.174a1.325 1.325 0 00-1.684.819l-.304.876-.319.92-.8 2.312-.8 2.313-.8 2.313-.233.673-.276.8-.301.874a.388.388 0 00-.007.212l-.007.002.371 1.76a.4.4 0 00.648.224l1.38-1.155-.004-.005.012-.01a.066.066 0 00.017-.012l.8-2.191 2.826-8.164v-.001l.299-.87a1.323 1.323 0 00-.817-1.69zm-.26.757a.523.523 0 00-.668.325l-.174.497.995.342.17-.496a.523.523 0 00-.324-.668zm-4.255 12.3l.328-.275-.415-.143.087.418zm.877-.932l-.992-.342 3.267-9.448.995.343-3.27 9.447z" fill="#504EF3"/><path d="M19.822 9.993l.094.033-.094-.033zm1.684-.819l-.032.095.032-.095zm-1.988 1.695l-.095-.033.095.033zm-.319.92l.095.033-.095-.033zm-.8 2.312l-.094-.033.094.033zm-.8 2.313l-.094-.033.094.033zm-.8 2.313l-.094-.033.094.033zm-.233.673l-.094-.032.094.032zm-.276.8l-.095-.032.095.032zm-.301.874l.094.032-.094-.032zm-.007.212l.022.098.097-.022-.02-.097-.099.021zm-.007.002l-.021-.098-.097.022.02.096.098-.02zm.371 1.76l.098-.02-.098.02zm.26.295l.034-.094-.033.094zm.388-.07l.064.076-.064-.077zm1.38-1.156l.063.076.076-.063-.062-.077-.078.064zm-.004-.005l-.065-.077-.076.064.063.076.078-.063zm.012-.01l.056.084-.056-.083zm.017-.012l.07.07.016-.015.008-.02-.094-.035zm.8-2.191l.094.034v-.001l-.094-.033zm2.826-8.164l.095.033v-.001l-.095-.032zm0-.001l-.094-.033v.001l.095.032zm.299-.87l-.095-.035v.002l.095.032zm-1.48-.91l.044.09-.044-.09zm.401-.023l-.033.094.033-.094zm-.668.324l-.094-.032.094.032zm-.173.498l-.094-.033-.033.095.095.033.032-.095zm.995.342l-.033.095.095.033.032-.095-.094-.033zm.17-.496l-.094-.034v.001l.094.033zm-4.25 11.357l.064.077.136-.114-.167-.057-.033.094zm-.328.275l-.097.02.034.163.128-.107-.065-.076zm-.087-.418l.032-.095-.167-.058.037.173.098-.02zm-.029-.856l-.094-.033-.033.094.095.033.032-.094zm.993.342l-.033.095.095.033.032-.095-.094-.033zm2.275-9.79l.032-.095-.094-.032-.033.094.095.033zm.995.343l.095.032.032-.094-.094-.033-.033.095zm-1.222-1.826c.221-.64.92-.98 1.558-.757l.065-.19a1.425 1.425 0 00-1.812.881l.19.066zm-.304.876l.304-.876-.189-.066-.304.876.189.066zm-.318.92l.318-.92-.189-.066-.318.92.189.066zm-.8 2.312l.8-2.312-.19-.065-.8 2.311.19.066zm-.8 2.312l.8-2.312-.19-.066-.8 2.313.19.065zm-.8 2.314l.8-2.314-.19-.065-.8 2.313.19.066zm-.233.673l.233-.673-.19-.066-.232.674.189.065zm-.277.8l.277-.8-.19-.066-.276.8.19.066zm-.3.873l.3-.873-.189-.065-.3.873.188.065zm-.004.16a.29.29 0 01.003-.16l-.189-.065a.488.488 0 00-.01.266l.196-.042zm-.083.12l.007-.002-.043-.195-.008.001.044.195zm.447 1.641l-.371-1.76-.196.041.371 1.76.196-.04zm.196.222a.3.3 0 01-.196-.222l-.196.041a.5.5 0 00.326.37l.066-.19zm.098.016a.297.297 0 01-.098-.016l-.066.189a.498.498 0 00.164.027v-.2zm.192-.07a.3.3 0 01-.192.07v.2a.5.5 0 00.32-.116l-.128-.154zm1.379-1.155l-1.379 1.155.129.154 1.378-1.156-.128-.153zm-.017.136l.004.004.155-.127-.004-.004-.155.127zm.034-.156l-.02.015.128.154.005-.003-.113-.166zm.002-.001l.003-.002-.005.003.113.166c.004-.004.018-.013.03-.026l-.14-.141zm.777-2.154l-.8 2.19.188.07.8-2.192-.188-.068zm2.826-8.163l-2.826 8.164.189.066 2.826-8.164-.19-.066zm0 0v.001l.189.064v-.002l-.19-.063zm.298-.871l-.298.87.19.065.297-.87-.189-.065zm.07-.407c0 .143-.023.275-.07.405l.189.068c.055-.152.081-.308.081-.473h-.2zm-.825-1.155c.493.17.825.634.825 1.155h.2c0-.607-.386-1.147-.96-1.344l-.065.189zm-.586.774c.1-.05.215-.056.324-.018l.066-.189a.617.617 0 00-.478.028l.088.18zm-.216.245a.423.423 0 01.216-.245l-.088-.18a.624.624 0 00-.317.36l.189.065zm-.173.498l.173-.498-.19-.065-.172.497.189.066zm.932.215l-.994-.343-.065.19.994.342.065-.19zm.043-.435l-.17.497.19.065.17-.497-.19-.065zm.025-.142a.39.39 0 01-.024.14l.188.069a.59.59 0 00.036-.209h-.2zm-.286-.399c.171.06.286.22.286.4h.2a.623.623 0 00-.421-.589l-.065.19zM17.255 21.88l-.328.275.129.153.327-.274-.128-.154zm-.384.028l.415.144.066-.19-.416-.143-.065.19zm.218.303l-.088-.418-.195.041.088.418.195-.041zm-.246-1.159l.992.343.066-.19-.993-.342-.065.19zm3.205-9.575l-3.267 9.448.189.065 3.267-9.448-.189-.065zm1.123.281l-.996-.343-.065.19.996.342.065-.189zm-3.209 9.575l3.27-9.448-.188-.065-3.27 9.448.188.065z" fill="#504EF3"/><path d="M3.2 21.4a.4.4 0 01.4-.4h8c.22 0 .4.18.4.4v0a.4.4 0 01-.4.4h-8a.4.4 0 01-.4-.4v0z" fill="#212121" stroke="#212121" stroke-width=".2"/></svg>