<svg width="26" height="26" viewBox="0 0 26 26" fill="none" xmlns="http://www.w3.org/2000/svg"><path d="M13.714 5.03a.558.558 0 01-.79.79 5.029 5.029 0 00-7.104 0 .558.558 0 11-.79-.79 6.146 6.146 0 018.684 0z" fill="#504EF3"/><path d="M25 22.767c0 .597-.232 1.157-.654 1.579a2.216 2.216 0 01-1.579.654 2.216 2.216 0 01-1.578-.654l-5.86-5.86a.558.558 0 010-.79l.789-.789-1.238-1.238a8.336 8.336 0 01-5.508 2.075C4.756 17.744 1 13.99 1 9.372 1 4.756 4.756 1 9.372 1c4.617 0 8.372 3.756 8.372 8.372a8.336 8.336 0 01-2.075 5.508l1.238 1.238.79-.79a.558.558 0 01.788 0l5.86 5.861c.423.421.655.982.655 1.578zM16.628 9.372c0-4-3.255-7.256-7.256-7.256-4 0-7.256 3.255-7.256 7.256 0 4 3.255 7.256 7.256 7.256s7.256-3.255 7.256-7.256zm7.256 13.395c0-.298-.116-.578-.327-.789l-5.466-5.466-1.579 1.579 5.466 5.466a1.143 1.143 0 001.579 0 1.11 1.11 0 00.327-.79z" fill="#212121" stroke="#212121" stroke-width=".2"/></svg>