<svg width="24" height="24" viewBox="0 0 24 24" fill="none" xmlns="http://www.w3.org/2000/svg"><path d="M21.543 7.105c.014.211.014.423.014.637 0 6.506-4.953 14.01-14.01 14.01v-.004A13.94 13.94 0 010 19.54a9.888 9.888 0 007.287-2.04 4.93 4.93 0 01-4.6-3.42 4.908 4.908 0 002.223-.085A4.924 4.924 0 01.96 9.17v-.062c.685.38 1.451.592 2.235.616A4.93 4.93 0 011.67 3.148a13.975 13.975 0 0010.148 5.144 4.93 4.93 0 018.391-4.49 9.88 9.88 0 003.127-1.196 4.942 4.942 0 01-2.165 2.723A9.793 9.793 0 0024 4.554a10.004 10.004 0 01-2.457 2.55z" fill="#1D9BF0"/></svg>