<svg width="26" height="24" viewBox="0 0 26 24" fill="none" xmlns="http://www.w3.org/2000/svg"><path d="M14.2 16.4h-2.4a.4.4 0 000 .8h2.4a.4.4 0 000-.8z" fill="#212121"/><path fill-rule="evenodd" clip-rule="evenodd" d="M2.6.3C1.663.3.9 1.063.9 2v15.2c0 .937.763 1.7 1.7 1.7h7.882c-.056.732-.24 1.273-.539 1.633-.31.374-.753.567-1.343.567h-.8a1.301 1.301 0 000 2.6h10.4a1.301 1.301 0 000-2.6h-.8c-.59 0-1.034-.193-1.343-.567-.299-.36-.483-.901-.539-1.633H23.4c.938 0 1.7-.763 1.7-1.7V2c0-.937-.762-1.7-1.7-1.7H2.6zM1.9 2a.7.7 0 01.7-.7h20.8a.7.7 0 01.7.7v12.7h-.6V2.4a.5.5 0 00-.5-.5H3a.5.5 0 00-.5.5v12.3h-.6V2zm1.6 12.7V2.9h19v11.8h-19zm20.6 1v1.5c0 .386-.315.7-.7.7H2.6a.701.701 0 01-.7-.7v-1.5h22.2zm-13.34 5.4c.413-.542.658-1.286.722-2.2h3.034c.064.914.309 1.658.722 2.2H10.76zM7.5 22.4a.3.3 0 01.3-.3h10.4a.3.3 0 010 .6H7.8a.3.3 0 01-.3-.3z" fill="#212121"/><path d="M20.113 12.185l-.965-.965.537-.537a.4.4 0 00-.168-.666l-4-1.2a.4.4 0 00-.498.498l1.2 4a.4.4 0 00.666.168l.566-.566.966.966a.399.399 0 00.565 0l1.131-1.132a.4.4 0 000-.566zm-1.414.85l-.879-.88a.52.52 0 00-.738 0l-.289.288-.794-2.647 2.647.794-.31.31a.45.45 0 00.001.64l.928.928-.566.566zM17.8 3.6H6.6a.4.4 0 00-.4.4v2c0 .22.18.4.4.4h11.2a.4.4 0 00.4-.4V4a.4.4 0 00-.4-.4zm-.4 2H7V4.4h10.4v1.2zm-6 2.4H8.2a.4.4 0 00-.4.4V10c0 .22.179.4.4.4h3.2a.4.4 0 00.4-.4V8.4a.4.4 0 00-.4-.4zM11 9.6H8.6v-.8H11v.8z" fill="#504EF3"/><path d="M17.8 3.6H6.6a.4.4 0 00-.4.4v7.6c0 .22.18.4.4.4h9.523a.398.398 0 00.383-.516l-.507-1.688 1.686.506a.4.4 0 00.515-.383v-5.92a.4.4 0 00-.4-.4zm-.4 5.781l-1.883-.565a.4.4 0 00-.498.499l.566 1.885H7V4.4h10.4v4.98z" fill="#504EF3"/></svg>