<svg width="120" height="33" viewBox="0 0 120 33" fill="none" xmlns="http://www.w3.org/2000/svg">
<path d="M0 24.5164V0.269411H7.12144C8.57764 0.269411 9.75457 0.538822 10.6522 1.07764C11.5698 1.61646 12.2381 2.40474 12.657 3.44247C13.0959 4.46024 13.3153 5.69754 13.3153 7.15435C13.3153 8.7309 13.046 10.0081 12.5074 10.986C11.9688 11.9439 11.2108 12.6423 10.2333 13.0814C9.27582 13.5204 8.13878 13.7399 6.82222 13.7399H4.42846V24.5164H0ZM4.42846 10.6268H6.10409C6.90201 10.6268 7.5204 10.517 7.95925 10.2975C8.41806 10.058 8.72725 9.68881 8.88683 9.1899C9.06637 8.67103 9.15613 7.98254 9.15613 7.12442C9.15613 6.24634 9.08631 5.53789 8.94668 4.99907C8.82699 4.44029 8.54772 4.03118 8.10886 3.77175C7.68995 3.51232 7.0217 3.3826 6.10409 3.3826H4.42846V10.6268Z" fill="#05043E"/>
<path d="M22.362 24.8457C20.6465 24.8457 19.2801 24.5264 18.2627 23.8877C17.2454 23.2491 16.5173 22.3312 16.0784 21.1338C15.6395 19.9364 15.4201 18.5195 15.4201 16.8831V7.81291C15.4201 6.17649 15.6395 4.77955 16.0784 3.62208C16.5173 2.44465 17.2454 1.54662 18.2627 0.927971C19.2801 0.309324 20.6465 0 22.362 0C24.1174 0 25.4939 0.309324 26.4913 0.927971C27.5086 1.54662 28.2367 2.44465 28.6756 3.62208C29.1344 4.77955 29.3638 6.17649 29.3638 7.81291V16.913C29.3638 18.5295 29.1344 19.9364 28.6756 21.1338C28.2367 22.3112 27.5086 23.2292 26.4913 23.8877C25.4939 24.5264 24.1174 24.8457 22.362 24.8457ZM22.362 21.5828C23.1001 21.5828 23.6387 21.4231 23.9778 21.1038C24.3369 20.7845 24.5762 20.3455 24.6959 19.7867C24.8156 19.2279 24.8755 18.6193 24.8755 17.9607V6.79514C24.8755 6.11662 24.8156 5.50795 24.6959 4.96913C24.5762 4.43031 24.3369 4.01123 23.9778 3.71188C23.6387 3.39258 23.1001 3.23293 22.362 3.23293C21.6638 3.23293 21.1352 3.39258 20.7762 3.71188C20.4171 4.01123 20.1777 4.43031 20.058 4.96913C19.9383 5.50795 19.8785 6.11662 19.8785 6.79514V17.9607C19.8785 18.6193 19.9284 19.2279 20.0281 19.7867C20.1478 20.3455 20.3872 20.7845 20.7462 21.1038C21.1053 21.4231 21.6439 21.5828 22.362 21.5828Z" fill="#05043E"/>
<path d="M39.1625 24.8457C37.3871 24.8457 35.9908 24.4964 34.9734 23.7979C33.976 23.0995 33.2779 22.1515 32.8789 20.9542C32.4799 19.7368 32.2805 18.3399 32.2805 16.7633V8.11226C32.2805 6.45588 32.4799 5.01902 32.8789 3.80168C33.2779 2.58435 33.976 1.6464 34.9734 0.987841C35.9908 0.32928 37.3871 0 39.1625 0C40.8382 0 42.1447 0.289367 43.0823 0.868102C44.0398 1.42688 44.718 2.23511 45.117 3.2928C45.516 4.35048 45.7154 5.5778 45.7154 6.97474V9.01029H41.4665V6.91488C41.4665 6.23636 41.4266 5.61771 41.3468 5.05893C41.287 4.50016 41.0975 4.06112 40.7783 3.74182C40.4791 3.40256 39.9505 3.23293 39.1924 3.23293C38.4344 3.23293 37.8759 3.41254 37.5168 3.77175C37.1777 4.11101 36.9583 4.57998 36.8585 5.17867C36.7588 5.75741 36.7089 6.41597 36.7089 7.15435V17.6913C36.7089 18.5694 36.7787 19.2978 36.9184 19.8765C37.058 20.4353 37.3074 20.8644 37.6664 21.1637C38.0454 21.4431 38.5541 21.5828 39.1924 21.5828C39.9305 21.5828 40.4492 21.4132 40.7484 21.0739C41.0676 20.7147 41.267 20.2457 41.3468 19.667C41.4266 19.0882 41.4665 18.4397 41.4665 17.7212V15.536H45.7154V17.4818C45.7154 18.9186 45.5259 20.1958 45.1469 21.3134C44.7679 22.411 44.0996 23.2791 43.1421 23.9177C42.2046 24.5363 40.878 24.8457 39.1625 24.8457Z" fill="#05043E"/>
<path d="M48.7986 24.5164V0.269411H53.227V10.9261L58.0145 0.269411H62.2335L57.5956 11.1057L62.7123 24.5164H58.3138L54.2444 13.4705L53.227 15.3265V24.5164H48.7986Z" fill="#05043E"/>
<path d="M64.7238 24.5164V0.269411H74.8973V3.3826H69.1523V10.3573H73.6705V13.4406H69.1523V21.4631H74.9572V24.5164H64.7238Z" fill="#05043E"/>
<path d="M79.9462 24.5164V3.53227H76.0863V0.269411H88.1748V3.53227H84.3747V24.5164H79.9462Z" fill="#05043E"/>
<path d="M97.7753 24.5164V0.269411H102.144V24.5164H97.7753Z" fill="#05043E"/>
<path d="M105.896 24.5164V0.269411H113.017C114.473 0.269411 115.65 0.538822 116.548 1.07764C117.466 1.61646 118.134 2.40474 118.553 3.44247C118.992 4.46024 119.211 5.69754 119.211 7.15435C119.211 8.7309 118.942 10.0081 118.403 10.986C117.865 11.9439 117.107 12.6423 116.129 13.0814C115.172 13.5204 114.035 13.7399 112.718 13.7399H110.324V24.5164H105.896ZM110.324 10.6268H112C112.798 10.6268 113.416 10.517 113.855 10.2975C114.314 10.058 114.623 9.68881 114.783 9.1899C114.962 8.67103 115.052 7.98254 115.052 7.12442C115.052 6.24634 114.982 5.53789 114.842 4.99907C114.723 4.44029 114.444 4.03118 114.005 3.77175C113.586 3.51232 112.918 3.3826 112 3.3826H110.324V10.6268Z" fill="#05043E"/>
<path d="M0.312012 32H120" stroke="#FF0000" stroke-width="2"/>
</svg>
