<svg fill="none" height="645" viewBox="0 0 650 645" width="650" xmlns="http://www.w3.org/2000/svg" xmlns:xlink="http://www.w3.org/1999/xlink"><clipPath id="a"><path d="m0 0h650v645h-650z"/></clipPath><g clip-path="url(#a)"><path d="m92.4302 518.249v-46.964c9.3958-.003 18.5828 2.722 26.4108 7.835 7.829 5.112 13.95 12.384 17.598 20.905 3.647 8.521 4.658 17.912 2.907 26.996-1.752 9.084-6.188 17.457-12.754 24.071-6.565 6.614-14.968 11.174-24.155 13.109-9.1878 1.935-18.751 1.159-27.4922-2.231-8.7411-3.389-16.2715-9.242-21.6476-16.825-5.3762-7.583-8.3591-16.558-8.575-25.802z" fill="#e0e0e0"/><path d="m80.8023 505.586-47.7365 1.065c-.0024-12.552 4.8298-24.639 13.523-33.824 8.8952-8.78 20.8785-13.861 33.4725-14.192z" fill="#f5f5f5"/><path d="m592.139 61.0018 35.781-5.371c1.139 7.3533-.09 14.8732-3.515 21.5038-3.426 6.6306-8.876 12.0389-15.584 15.4656-6.709 3.4267-14.339 4.6997-21.821 3.6403-7.481-1.0594-14.437-4.3981-19.892-9.5472-5.455-5.1492-9.134-11.8502-10.52-19.1623-1.387-7.312-.412-14.8679 2.788-21.6068s8.464-12.3223 15.053-15.9663 14.173-5.1656 21.686-4.3512z" fill="#f5f5f5"/><path d="m603.752 25.7192-4.346 27.2896 27.231-5.0344s-4.004-15.2855-22.885-22.2552z" fill="#e0e0e0"/><path d="m63.2612 41.1445h-19.8214v77.9145h19.8214z" fill="#e0e0e0"/><path d="m92.4019 58.1411h-19.8213v60.9179h19.8213z" fill="#e0e0e0"/><path d="m121.998 72.0522h-19.821v47.0068h19.821z" fill="#e0e0e0"/><path d="m149.4 91.1377h-19.821v27.9063h19.821z" fill="#e0e0e0"/><path d="m386.402 324.978c-.098-8.568 2.386-16.974 7.138-24.154 4.752-7.181 11.559-12.816 19.561-16.194 8.003-3.377 16.843-4.346 25.405-2.785 8.562 1.562 16.461 5.585 22.703 11.561 6.241 5.975 10.543 13.637 12.364 22.016 1.821 8.38 1.079 17.103-2.132 25.068-3.212 7.966-8.749 14.816-15.913 19.688-7.163 4.871-15.633 7.545-24.339 7.684-11.713.142-23.006-4.292-31.401-12.331-8.396-8.039-13.21-19.026-13.386-30.553zm65.149-1.037c-.087-4.097-1.406-8.076-3.79-11.436-2.383-3.36-5.725-5.95-9.603-7.442-3.877-1.493-8.117-1.822-12.185-.946-4.067.877-7.779 2.919-10.669 5.87-2.889 2.95-4.825 6.677-5.564 10.71-.739 4.032-.248 8.19 1.412 11.948s4.413 6.948 7.913 9.168c3.5 2.219 7.59 3.369 11.753 3.303 2.775-.049 5.512-.636 8.056-1.727s4.845-2.665 6.77-4.632c1.926-1.966 3.439-4.287 4.452-6.829 1.014-2.543 1.508-5.257 1.455-7.987z" fill="#f5f5f5"/><path d="m386.402 324.978c-.199-11.527 4.256-22.661 12.388-30.96 8.131-8.3 19.275-13.087 30.988-13.311l.37 22.746c-5.537.198-10.774 2.524-14.588 6.479-3.815 3.955-5.902 9.223-5.814 14.675s2.343 10.653 6.282 14.487c3.94 3.834 9.249 5.996 14.79 6.022l.37 22.746c-5.802.08-11.563-.966-16.955-3.079-5.391-2.112-10.307-5.249-14.466-9.231-4.159-3.983-7.48-8.732-9.774-13.978-2.293-5.246-3.513-10.885-3.591-16.596z" fill="#e0e0e0"/><path d="m425.816 277.215c6.697-.157 13.358 1.003 19.593 3.411 6.236 2.408 11.92 6.016 16.721 10.612 4.801 4.597 8.622 10.09 11.239 16.158 2.618 6.068 3.978 12.589 4.003 19.181l-26.904.435c-.228-13.435-10.616-21.905-24.224-21.694z" fill="#ebebeb"/><path d="m622.577 611.953c0 .211-132.637.365-296.237.365-163.601 0-296.2804-.154-296.2804-.365 0-.21 132.6224-.364 296.2804-.364 163.657 0 296.237.168 296.237.364z" fill="#212121"/><path d="m377.823 258.339-6.241 8.751-1.696 7.011 6.356 8.975 12.055-7.292 10.502-10.153c.33-.315.533-.738.57-1.19.036-.451-.095-.901-.371-1.264l-1.71-2.342.214-.491c.303-.66.362-1.404.166-2.103-.195-.699-.631-1.309-1.234-1.725l-1.525-1.052 5.7-7.18c.397-.494.62-1.102.636-1.732.015-.629-.178-1.247-.551-1.76l-14.52 10.869-6.27-.127z" fill="#b78876"/><path d="m397.574 260.624c-.555.673-1.231 1.239-1.995 1.669-.78.543-1.61 1.013-2.48 1.403-.577.253-1.219.321-1.838.196-.347-.08-.664-.253-.916-.501s-.428-.56-.509-.901c-.123-.676.031-1.372.428-1.936.316-.473.679-.914 1.083-1.318l1.923-2.033c.544-.666 1.182-1.252 1.895-1.739-.395.762-.904 1.461-1.51 2.075l-1.795 2.132c-.684.785-1.511 1.669-1.311 2.664.051.224.167.428.334.587s.378.267.606.311c.477.108.976.064 1.425-.126.844-.357 1.663-.769 2.451-1.234.693-.486 1.433-.904 2.209-1.249z" fill="#aa6550"/><path d="m399.141 264.902s-.641.771-1.852 1.837c-.696.673-1.471 1.262-2.309 1.753-.283.18-.6.303-.932.362s-.672.054-1.001-.017c-.33-.07-.642-.204-.919-.393s-.514-.43-.696-.709c-.131-.33-.178-.686-.139-1.038.04-.351.166-.688.367-.982.306-.499.659-.968 1.054-1.402.633-.72 1.34-1.373 2.109-1.949.666-.589 1.454-1.03 2.309-1.291-.624.601-1.286 1.163-1.981 1.683-.693.614-1.336 1.28-1.924 1.992-.349.398-.664.825-.94 1.276-.14.203-.232.435-.266.678-.035.243-.012.491.066.724.121.206.29.381.494.511.203.129.434.209.675.232.493.046.988-.051 1.425-.28.815-.431 1.579-.949 2.28-1.543.648-.587 1.383-1.074 2.18-1.444z" fill="#aa6550"/><path d="m381.899 270.063c.747-.749 1.38-1.599 1.881-2.525.479-1.051.699-2.2.641-3.351.061-1.42-.333-2.823-1.126-4.011l-.555-.715.897.154c.808.126 1.63.126 2.437 0 1.134-.171 2.21-.608 3.135-1.276.804-.586 1.345-1.455 1.51-2.426l.314.336c-2.152-.07-3.933-.14-5.187-.21-.658.007-1.314-.068-1.952-.224.646-.132 1.307-.184 1.966-.155h5.173.342v.337c-.067.573-.254 1.127-.548 1.626-.294.5-.69.934-1.162 1.277-1.01.748-2.197 1.231-3.448 1.402-.882.154-1.784.154-2.665 0l.328-.561c.888 1.311 1.309 2.874 1.197 4.446.022 1.233-.267 2.452-.841 3.548-.389.72-.916 1.358-1.553 1.879-.428.35-.713.477-.784.449z" fill="#aa6550"/><path d="m319.898 207.686c-.231-.593-.319-1.232-.256-1.865.092-.732.345-1.435.741-2.061.564-.825 1.214-1.591 1.938-2.286.918-.87 1.696-1.873 2.308-2.973.719-1.358 1.133-2.853 1.211-4.382.079-1.53-.179-3.058-.755-4.481-.67-1.552-1.475-3.044-2.408-4.459-.916-1.368-1.667-2.836-2.237-4.376-.525-1.408-.648-2.931-.357-4.403.613-2.805 2.181-5.104 2.85-7.278.709-1.689.849-3.556.399-5.329-.137-.495-.349-.968-.627-1.402-.199-.281-.327-.407-.356-.393.294.574.528 1.175.698 1.795.315 1.715.102 3.482-.612 5.077-.77 2.075-2.38 4.305-3.093 7.32-.33 1.589-.217 3.237.328 4.768.588 1.595 1.358 3.119 2.294 4.543.914 1.378 1.71 2.827 2.38 4.334.577 1.395.826 2.9.727 4.403-.085 1.36-.443 2.69-1.055 3.912-.569 1.058-1.289 2.031-2.137 2.889-.731.738-1.372 1.557-1.91 2.44-.398.687-.632 1.455-.684 2.244-.022.481.065.96.257 1.402.199.421.342.575.356.561z" fill="#212121"/><path d="m279.629 196.327c-.46 1.237-1.277 2.313-2.35 3.098-1.074.785-2.357 1.244-3.692 1.32-1.335.041-2.66-.238-3.861-.812-1.202-.574-2.243-1.426-3.036-2.484-1.578-2.151-2.251-4.818-1.881-7.446.254-1.146.336-2.323.242-3.492-.285-1.655-1.61-2.973-2.123-4.572-.926-2.888 1.069-6.1 3.833-7.432 2.875-1.159 6.062-1.331 9.049-.491" fill="#212121"/><path d="m320.81 160.119c2.85 2.553 2.052 6.157.912 8.625s-2.522 4.978-2.394 7.699c.129 2.72 1.81 5.188 2.736 7.811 1.167 3.339 1.086 6.979-.228 10.265-.983 2.454-2.622 4.599-3.619 7.011-.998 2.413-1.24 5.47.427 7.531-.741-.113-1.445-.395-2.057-.824-.611-.428-1.111-.991-1.462-1.644-.681-1.301-1.038-2.743-1.04-4.207-.2-5.609 2.208-11.149 1.211-16.646-.584-3.197-2.294-6.198-2.266-9.438.029-3.239 1.81-6.212 3.035-9.241 1.226-3.029 1.853-6.745-.171-9.326" fill="#212121"/><path d="m313.5 149.924c1.691.061 3.343.508 4.827 1.306 1.484.799 2.759 1.926 3.723 3.294.924 1.396 1.312 3.07 1.095 4.723-.217 1.652-1.024 3.174-2.278 4.294-2.508 1.935-6.227 1.557-9.005 0-2.083-1.109-3.717-2.885-4.632-5.034-.437-1.077-.606-2.241-.492-3.395.114-1.155.508-2.265 1.148-3.238.668-.959 1.621-1.689 2.729-2.091s2.315-.456 3.455-.153" fill="#212121"/><path d="m316.222 149.433c-.928-1.933-2.271-3.645-3.937-5.018-1.665-1.372-3.614-2.373-5.71-2.933-4.211-1.07-8.632-1.036-12.825.098-4.174 1.145-8.237 2.652-12.141 4.502-2.958 1.092-5.702 2.681-8.108 4.698-2.193 2.204-3.781 4.921-4.617 7.895-1.71 5.525-1.567 9.48 1.098 14.626 1.168 2.23.47 4.838 1.524 7.124 1.055 2.286 5.501 4.838 4.275 7.012" fill="#212121"/><path d="m307.145 218.667c.157-11.219.143-15.426.157-15.426s9.818-1.627 11.813-14.234c.997-6.268.655-16.561.1-24.961-.499-7.559-5.615-16.828-13.267-16.015l-23.911 6.002c-1.122.116-2.159.644-2.903 1.478-.745.834-1.143 1.913-1.115 3.024v60.104" fill="#b78876"/><path d="m316.35 172.67c.001.421-.163.826-.457 1.131-.295.305-.697.488-1.124.509-.414.035-.825-.093-1.143-.356-.318-.262-.517-.639-.553-1.046-.008-.42.152-.827.445-1.134.292-.306.695-.488 1.122-.506.415-.032.825.097 1.145.359.319.262.522.636.565 1.043z" fill="#212121"/><path d="m316.963 168.603c-.2.21-1.425-.701-3.221-.687-1.795.014-3.063.883-3.248.673-.186-.21.114-.477.669-.883.765-.524 1.676-.803 2.608-.8.922-.008 1.821.278 2.565.814.541.406.727.785.627.883z" fill="#212121"/><path d="m299.607 172.67c.004.422-.159.829-.454 1.135s-.7.487-1.128.505c-.413.031-.822-.098-1.139-.36s-.517-.636-.557-1.042c-.004-.422.159-.829.454-1.135s.7-.487 1.128-.505c.413-.031.822.098 1.139.36s.517.636.557 1.042z" fill="#212121"/><path d="m299.578 169.781c-.199.21-1.425-.701-3.22-.687-1.796.014-3.064.883-3.249.673s.114-.477.67-.883c.765-.524 1.675-.803 2.607-.799.921-.004 1.819.281 2.565.813.542.406.727.785.627.883z" fill="#212121"/><path d="m306.033 182.669c.926-.285 1.882-.459 2.85-.519.456 0 .884-.126.955-.435.033-.459-.071-.917-.299-1.318l-1.354-3.38c-1.24-2.866-2.245-5.825-3.007-8.849 1.468 2.762 2.716 5.632 3.734 8.583.446 1.196.874 2.332 1.282 3.407.285.534.371 1.15.242 1.739-.067.157-.168.297-.296.411s-.28.198-.445.248c-.251.063-.51.096-.769.099-.96.123-1.932.127-2.893.014z" fill="#212121"/><path d="m307.301 203.255c-6.033.109-11.978-1.435-17.17-4.46 0 0 4.346 8.653 17.17 7.447z" fill="#aa6550"/><path d="m300.362 164.677c-.185.476-1.952.252-4.018.504-2.067.253-3.748.814-4.033.393-.114-.21.171-.645.841-1.108.903-.559 1.923-.91 2.984-1.029 1.06-.119 2.135-.002 3.143.342.769.295 1.154.673 1.083.898z" fill="#212121"/><path d="m316.35 164.382c-.313.392-1.539 0-3.007 0-1.467 0-2.693.266-2.992-.14-.299-.407.071-.603.613-.982.727-.451 1.577-.676 2.436-.645.862.009 1.699.284 2.394.785.471.379.642.785.556.982z" fill="#212121"/><path d="m305.278 186.679c-.316-.386-.726-.689-1.191-.88-.466-.191-.972-.264-1.474-.213-.734.079-1.409.436-1.881.995-.217.273-.345.604-.365.95-.021.346.067.69.251.985.263.291.609.498.992.593.384.095.788.074 1.16-.06.779-.27 1.496-.689 2.109-1.234.188-.131.348-.298.47-.491.062-.089.095-.194.095-.301 0-.108-.033-.213-.095-.302" fill="#aa6550"/><path d="m301.117 183.889c.271 0 .271 1.752 1.81 3s3.434 1.052 3.448 1.29-.413.35-1.225.364c-1.038.013-2.047-.335-2.85-.981-.789-.623-1.3-1.523-1.425-2.51-.086-.729.114-1.163.242-1.163z" fill="#212121"/><path d="m316.621 152.855c-.613 3.983-7.011 4.642-11.044 3.871-1.346 1.694-3.103 3.028-5.11 3.878s-4.199 1.19-6.375.988c-.581-.118-1.183-.094-1.753.07-.544.314-1 .757-1.325 1.29-1.699 2.234-4.184 3.763-6.968 4.291-.308 1.995-1.214 3.854-2.603 5.338s-3.197 2.526-5.192 2.992c0 0-1.325-.645-.855-5.735.234-5.234.201-10.476-.099-15.707l13.979-6.324 16.772-3.085s11.613 1.318 10.573 8.133z" fill="#212121"/><path d="m270.196 173.89c.118-1.217.41-2.411.869-3.548.562-1.292 1.432-2.431 2.536-3.323 1.408-1.157 3.135-1.875 4.959-2.062h.214v-.224c.484-2.213 1.642-4.229 3.32-5.778.928-.842 2.084-1.402 3.328-1.611s2.524-.059 3.683.433l.399.197.142-.421.157-.449c.661-1.693 1.781-3.175 3.238-4.285s3.196-1.806 5.027-2.011c.826-.075 1.659-.052 2.479.07.84.14 1.701.097 2.523-.126.75-.295 1.408-.779 1.909-1.403.412-.525.891-.997 1.425-1.402.829-.578 1.775-.974 2.773-1.163.997-.189 2.025-.165 3.012.069.731.203 1.437.481 2.109.828 0 0-.142-.155-.47-.393-.486-.308-1.014-.549-1.567-.715-1.038-.309-2.132-.384-3.203-.218-1.071.165-2.09.565-2.982 1.171-1.182.729-1.881 2.202-3.22 2.651-1.34.448-3.05-.267-4.873 0-1.971.204-3.846.941-5.418 2.129s-2.779 2.781-3.489 4.602l-.171.491.542-.225c-1.292-.56-2.722-.737-4.115-.507-1.392.229-2.686.854-3.722 1.798-1.78 1.657-2.99 3.818-3.463 6.184l.271-.253c-1.94.229-3.763 1.031-5.23 2.3-1.827 1.609-2.938 3.861-3.092 6.269-.02.312.014.624.1.925z" fill="#455a64"/><path d="m292.325 160.526c.329.186.692.305 1.069.35.999.196 2.021.248 3.035.155 1.702-.137 3.356-.618 4.86-1.415 1.503-.796 2.823-1.89 3.875-3.213l-.47.112.413.182c1.802.742 3.789.927 5.7.533 1.555-.34 2.997-1.064 4.189-2.103.797-.69 1.458-1.517 1.953-2.44.217-.325.353-.694.399-1.08-.75 1.154-1.656 2.201-2.694 3.113-1.155.927-2.526 1.558-3.989 1.837-1.783.333-3.625.148-5.301-.533l-.385-.182-.285-.126-.185.238c-2.022 2.51-4.954 4.149-8.18 4.572-1.332.104-2.671.104-4.004 0z" fill="#455a64"/><path d="m299.55 153.065c0 .225 1.881 0 4.061.575s3.776 1.402 3.904 1.22c-.973-1.061-2.295-1.751-3.733-1.949-1.386-.435-2.883-.381-4.232.154z" fill="#455a64"/><path d="m304.395 152.658c.171.127.826-.406 1.653-.981.826-.575 1.539-1.038 1.425-1.234s-.998 0-1.91.631-1.325 1.458-1.168 1.584z" fill="#455a64"/><path d="m284.488 159.993c.071.196 1.696-.323 3.748-.253s3.634.645 3.719.449c-1.091-.743-2.378-1.158-3.704-1.192-1.326-.035-2.633.311-3.763.996z" fill="#455a64"/><path d="m280.94 166.738c1.763.256 3.565.023 5.201-.673 1.723-.459 3.279-1.388 4.489-2.678-.129-.169-2.081 1.065-4.746 1.977-2.664.911-4.958 1.163-4.944 1.374z" fill="#455a64"/><path d="m272.176 171.562c1.064-.691 2.179-1.305 3.334-1.837 1.235-.313 2.493-.529 3.762-.645-.626-.3-1.313-.455-2.009-.455s-1.383.155-2.009.455c-2.209.715-3.249 2.412-3.078 2.482z" fill="#455a64"/><path d="m272.432 153.458s.214-.421.67-1.094c.676-.927 1.558-1.69 2.579-2.229 3.483-1.669 7.313-2.514 11.186-2.469 3.887.016 7.757.52 11.514 1.501 2.85.715 4.688 1.262 4.717 1.15-.366-.234-.764-.414-1.183-.533-.798-.309-1.952-.701-3.391-1.122-3.781-1.15-7.714-1.736-11.671-1.739-3.981-.042-7.907.924-11.4 2.805-1.065.605-1.95 1.475-2.565 2.524-.25.359-.406.773-.456 1.206z" fill="#455a64"/><path d="m271.392 160.287c.543-1.242 1.207-2.431 1.981-3.548 2.048-2.572 4.88-4.43 8.08-5.301 3.223-.806 6.564-1.057 9.875-.743 1.385.172 2.779.265 4.175.281-1.335-.428-2.718-.697-4.118-.8-3.385-.483-6.835-.297-10.146.547-3.352.909-6.285 2.924-8.308 5.708-.594.859-1.046 1.806-1.339 2.804-.134.335-.202.692-.2 1.052z" fill="#455a64"/><path d="m319.4 165.561c.963-.305 1.795-.917 2.365-1.739.797-.928 1.354-2.032 1.623-3.217.269-1.186.242-2.418-.078-3.591-.321-1.173-.926-2.253-1.763-3.145-.838-.893-1.883-1.573-3.045-1.981-.918-.431-1.956-.549-2.95-.337.931.206 1.845.477 2.736.814 1.042.431 1.97 1.09 2.714 1.928.743.838 1.283 1.831 1.577 2.905s.335 2.2.12 3.292-.681 2.121-1.361 3.009c-.602.726-1.249 1.415-1.938 2.062z" fill="#455a64"/><path d="m267.103 185.361c.072-.126-1.268-.715-3.177-1.963-1.104-.733-2.037-1.689-2.736-2.805-.42-.65-.68-1.388-.762-2.154-.082-.767.018-1.541.291-2.263.553-1.466 1.669-2.66 3.107-3.324 1.204-.501 2.528-.657 3.819-.448 1.206.253 2.371.669 3.463 1.234 0 0-.228-.309-.77-.687-.79-.51-1.67-.871-2.593-1.066-1.404-.308-2.869-.191-4.204.336-.812.351-1.544.86-2.151 1.496-.607.637-1.078 1.387-1.383 2.206-.311.826-.42 1.712-.318 2.586.101.875.41 1.714.902 2.449.783 1.154 1.827 2.114 3.05 2.805.794.475 1.629.883 2.493 1.22.599.322.941.42.969.378z" fill="#212121"/><path d="m266.476 185.459c-.228.348-.406.726-.527 1.122-.404 1.045-.741 2.113-1.012 3.198-.428 1.629-.606 3.311-.527 4.992.091 2.102.81 4.131 2.066 5.834.652.849 1.476 1.556 2.421 2.075.944.52 1.988.839 3.065.94.885.075 1.775-.058 2.597-.387s1.554-.845 2.134-1.506c.804-.861 1.273-1.974 1.325-3.142.043-.424-.036-.851-.228-1.234-.071 0 0 .449-.071 1.206-.198 1.31-.901 2.495-1.962 3.309-1.06.814-2.399 1.196-3.738 1.067-.974-.114-1.915-.421-2.765-.903s-1.592-1.129-2.18-1.902c-1.16-1.591-1.842-3.472-1.966-5.427-.111-1.621.009-3.25.356-4.838.599-2.693 1.169-4.361 1.012-4.404z" fill="#212121"/><path d="m284.246 167.229c1.724 2.959.741 6.703-.67 9.816-1.411 3.114-3.277 6.199-3.206 9.606.1 5.708 5.557 10.448 5.158 16.141-.146 1.697-.807 3.312-1.897 4.635-1.09 1.322-2.559 2.292-4.216 2.784 2.636-1.964 2.665-5.932 1.425-8.947s-6.74-10.854-7.666-14.024c-3.064-10.489-2.081-11.779 1.425-15.734" fill="#212121"/><path d="m274.271 175.376c0 .099.769.225 2.009 0 1.622-.34 3.105-1.149 4.257-2.323 1.153-1.174 1.923-2.66 2.212-4.268.214-1.22 0-1.977 0-1.977-.206.61-.368 1.233-.484 1.865-.405 1.451-1.175 2.778-2.238 3.858-1.064 1.081-2.386 1.881-3.847 2.327-.648.128-1.286.302-1.909.518z" fill="#455a64"/><path d="m280.569 206.761s.143-.07.371-.266c.323-.288.61-.613.855-.968.911-1.348 1.337-2.957 1.211-4.571-.067-1.125-.419-2.215-1.026-3.17-.729-1.039-1.591-1.982-2.565-2.804-1.028-.86-1.884-1.902-2.522-3.072-.643-1.258-.989-2.644-1.012-4.052-.016-1.411.312-2.806.955-4.067.644-1.185 1.392-2.311 2.237-3.366 1.484-1.823 2.689-3.85 3.577-6.016.591-1.474.9-3.043.912-4.627.019-.584-.058-1.166-.228-1.725.025 2.109-.377 4.202-1.183 6.156-.939 2.087-2.166 4.036-3.648 5.792-.883 1.08-1.66 2.24-2.323 3.463-.707 1.358-1.069 2.864-1.054 4.39.018 1.528.399 3.031 1.111 4.389.681 1.239 1.595 2.338 2.694 3.239.952.763 1.8 1.645 2.522 2.623.57.863.917 1.85 1.012 2.875.165 1.516-.154 3.045-.912 4.375-.556.939-1.026 1.36-.984 1.402z" fill="#455a64"/><path d="m272.988 175.054s-.327.197-.755.701c-.607.727-1.088 1.546-1.425 2.426-1.064 2.946-1.023 6.169.114 9.088 1.166 2.855 2.912 5.446 5.13 7.614.83.956 1.789 1.796 2.85 2.496-.768-.983-1.596-1.92-2.48-2.804-2.036-2.204-3.661-4.744-4.802-7.503-1.063-2.777-1.178-5.819-.327-8.666.447-1.172 1.015-2.295 1.695-3.352z" fill="#455a64"/><path d="m370.086 267.258-10.73 5.006-13.537 7.166c-5.615-16.169-5.372-33.403-7.382-39.938-6.312-20.531-17.997-22.326-17.997-22.326v.169c-.336-.239-.706-.428-1.097-.561l-9.861-3.015-.313-5.273-33.331.771-.285 6.619-10.502 1.725c-3.247.489-6.329 1.731-8.992 3.623-2.664 1.892-4.832 4.38-6.326 7.259-.214.407-.399.842-.584 1.276-6.869 16.576-21.902 53.051-23.071 56.907-4.046 13.505 10.531 25.355 23.256 22.592 2.505-.804 4.964-1.741 7.367-2.805-.03 1.658.298 3.304.964 4.827s1.654 2.89 2.898 4.008c.965.986 2.251 1.606 3.633 1.753l61.117.351c1.653 0 3.392-1.403 4.788-2.903 2.813 1.148 5.927 1.37 8.878.631 5.287-1.052 10.801-3.983 12.084-5.245l30.993-28.692zm-107.115 9.171-.556 2.637-3.405.224 4.032-13.252v9.578c.005.273-.018.545-.071.813z" fill="#d80202"/><path d="m278.802 278-1.425.14-4.161.365-14.121 1.135h-.556l.185-.518c.442-1.305.869-2.651 1.311-4.053 1.91-6.283 3.534-12.032 4.845-16.141.656-2.062 1.211-3.716 1.624-4.852.173-.608.422-1.192.741-1.739-.1.62-.258 1.23-.47 1.823-.37 1.304-.826 2.945-1.425 4.908-1.168 4.207-2.707 9.915-4.645 16.211-.428 1.403-.869 2.805-1.325 4.067l-.371-.477c5.7-.406 10.602-.715 14.15-.883 3.548-.169 5.7-.169 5.643.014z" fill="#212121"/><path d="m285.656 293.089c-.444.324-.922.601-1.425.827l-4.075 2.062c-3.449 1.711-8.123 4.207-13.409 6.885-4.514 2.27-9.25 4.084-14.136 5.413-1.867.477-3.406.842-4.474 1.024-.543.154-1.103.234-1.668.239 0-.113 2.309-.66 6-1.767 4.807-1.466 9.475-3.343 13.95-5.61 5.258-2.608 9.975-5.09 13.509-6.689 1.753-.813 3.177-1.402 4.189-1.851.493-.229 1.009-.407 1.539-.533z" fill="#212121"/><path d="m323.974 274.059c-.128-.07 1.14-1.837 2.365-5.062 1.578-4.19 2.115-8.691 1.568-13.126-.372-2.437-.877-4.853-1.511-7.236-.555-2.216-1.026-4.207-1.268-5.96-.213-1.364-.309-2.743-.285-4.123-.024-.507.039-1.014.185-1.501.106 1.879.31 3.752.613 5.61.314 1.682.827 3.674 1.425 5.875.688 2.404 1.216 4.849 1.582 7.321.582 4.547-.041 9.166-1.81 13.406-.528 1.274-1.172 2.499-1.924 3.66-.256.421-.573.804-.94 1.136z" fill="#212121"/><path d="m324.287 275.069c-.755 2.127-1.042 4.389-.841 6.633.254 2.421.893 4.787 1.896 7.012 1.068 2.552 2.564 5.231 3.932 8.162 1.379 2.746 2.266 5.707 2.622 8.75.274 2.525-.222 5.074-1.425 7.32-.783 1.521-1.963 2.808-3.42 3.731-.394.244-.815.447-1.253.603-.3.098-.456.14-.471.112-.014-.028.599-.281 1.568-.954 1.336-.972 2.408-2.253 3.12-3.73 1.064-2.179 1.47-4.613 1.169-7.012-.383-2.955-1.265-5.828-2.608-8.498-1.354-2.903-2.85-5.609-3.89-8.218-1.001-2.297-1.608-4.743-1.795-7.236-.125-1.681.073-3.37.584-4.978.134-.441.311-.868.527-1.276.171-.281.257-.421.285-.421z" fill="#212121"/><path d="m324.458 220.798c.567 1.699.766 3.495.585 5.273.056 1.787-.274 3.565-.969 5.217-.038-1.751.038-3.503.228-5.245-.059-1.75-.006-3.501.156-5.245z" fill="#212121"/><path d="m341.287 297.997c-.368-.892-.571-1.842-.598-2.805-.216-2.307-.077-4.633.413-6.899.486-2.263 1.322-4.438 2.479-6.451.418-.87.998-1.655 1.71-2.314-3.252 5.598-4.651 12.053-4.004 18.469z" fill="#212121"/><path d="m268.329 231.288c-.143 0-.143-.898-.77-2.16-.861-1.623-2.102-3.022-3.619-4.081-1.458-1.133-3.158-1.925-4.973-2.314-.312-.045-.626-.074-.941-.084-.271 0-.513 0-.712 0-.2 0-.585.154-.613.112-.029-.042.142-.168.527-.392.251-.086.508-.152.77-.197.341-.029.684-.029 1.026 0 1.965.262 3.821 1.042 5.372 2.258 1.619 1.118 2.883 2.664 3.648 4.46.37.744.47 1.59.285 2.398z" fill="#212121"/><path d="m267.288 275.167c-1.296-5.652-1.851-11.444-1.653-17.235l-.541 1.052-2.052 7.012-.627 13.027 11.827-.504c-1.947-1.745-4.359-2.907-6.954-3.352z" fill="#212121" opacity=".3"/><path d="m309.04 214.727c.099.221.15.459.15.701 0 .241-.051.48-.15.701-.209.611-.558 1.166-1.02 1.624-.462.457-1.025.803-1.645 1.012-4.062 1.271-8.306 1.892-12.568 1.837-4.257-.017-8.487-.655-12.554-1.893-1.225-.375-2.428-.815-3.605-1.318-.443-.165-.863-.382-1.254-.645 0-.112 1.909.631 5.016 1.402 4.043 1.072 8.21 1.628 12.397 1.655 4.182.039 8.35-.494 12.383-1.585.591-.157 1.138-.443 1.602-.836s.832-.884 1.077-1.435c.113-.398.171-.808.171-1.22z" fill="#212121"/><path d="m251.885 258.97c-.897-1.179-1.577-2.503-2.009-3.912-.667-1.324-1.115-2.745-1.326-4.207.888 1.184 1.568 2.506 2.01 3.912.672 1.322 1.12 2.743 1.325 4.207z" fill="#fafafa"/><path d="m245.101 277.79c-1.483.816-3.076 1.425-4.731 1.808-1.578.609-3.24.987-4.93 1.122 1.478-.819 3.066-1.427 4.717-1.809 1.583-.611 3.249-.989 4.944-1.121z" fill="#fafafa"/><path d="m243.462 296.974c-.331-1.378-.413-2.802-.242-4.207-.087-1.42.077-2.843.484-4.207.333 1.377.42 2.8.257 4.207.078 1.42-.09 2.842-.499 4.207z" fill="#fafafa"/><path d="m267.132 291.322c-1.208-.781-2.322-1.694-3.321-2.721-1.154-.858-2.201-1.846-3.12-2.945 2.621 1.265 4.846 3.203 6.441 5.61z" fill="#fafafa"/><path d="m283.832 281.491c.143.141-.755 1.318-2.023 2.636-1.269 1.318-2.409 2.272-2.565 2.131-.157-.14.755-1.317 2.023-2.635s2.408-2.272 2.565-2.132z" fill="#fafafa"/><path d="m260.477 234.079c-2.19 1.949-4.694 3.527-7.41 4.668 2.181-1.961 4.687-3.541 7.41-4.668z" fill="#fafafa"/><path d="m279.415 229.717c-.81-1.283-1.461-2.658-1.938-4.094-.708-1.335-1.253-2.747-1.625-4.207 1.031 1.147 1.816 2.487 2.309 3.94.7 1.361 1.125 2.842 1.254 4.361z" fill="#fafafa"/><path d="m281.168 253.067c-1.586-.467-3.067-1.229-4.361-2.244-1.431-.818-2.685-1.904-3.691-3.198 1.455.725 2.83 1.594 4.104 2.595 1.413.811 2.736 1.765 3.948 2.847z" fill="#fafafa"/><path d="m294.762 264.426c-1.652 1.281-3.456 2.359-5.372 3.211-1.789 1.076-3.703 1.937-5.7 2.566 1.666-1.267 3.473-2.345 5.386-3.211 1.793-1.061 3.7-1.921 5.686-2.566z" fill="#fafafa"/><path d="m301.132 250.809c-.653-1.172-1.087-2.45-1.283-3.773-.429-1.264-.618-2.595-.555-3.926.652 1.172 1.086 2.45 1.282 3.772.43 1.264.618 2.595.556 3.927z" fill="#fafafa"/><path d="m318.374 263.724c-1.003-1.13-1.812-2.414-2.394-3.801-.796-1.279-1.378-2.676-1.724-4.137 1 1.137 1.809 2.425 2.394 3.815.785 1.279 1.366 2.67 1.724 4.123z" fill="#fafafa"/><path d="m315.937 226.619c-.991 1.147-2.165 2.127-3.477 2.902-1.17.965-2.488 1.741-3.904 2.3 2.153-2.121 4.647-3.878 7.381-5.202z" fill="#fafafa"/><path d="m299.835 227.682c-.185.099-.855-.897-1.425-2.215s-1.012-2.439-.827-2.523c.186-.085.855.897 1.497 2.215.641 1.318.94 2.439.755 2.523z" fill="#fafafa"/><path d="m290.131 213.675c0 .196-1.112.42-2.508.476-1.397.056-2.537 0-2.551-.252-.014-.253 1.112-.421 2.522-.477 1.411-.056 2.537.056 2.537.253z" fill="#fafafa"/><path d="m301.402 213.898c-.157-.126.328-1.023 1.083-2.033.755-1.009 1.51-1.71 1.681-1.584s-.327 1.023-1.083 2.033c-.755 1.009-1.51 1.71-1.681 1.584z" fill="#fafafa"/><path d="m332.509 242.605c-.536-1.401-.829-2.879-.869-4.375-.3-1.464-.343-2.968-.128-4.446.806 2.87 1.143 5.847.997 8.821z" fill="#fafafa"/><path d="m336.157 260.064c-.142.14-1.539-.981-2.85-2.678-.929-.954-1.613-2.113-1.995-3.38 1.789 1.893 3.428 3.918 4.902 6.058z" fill="#fafafa"/><path d="m331.056 277.944c.36-1.388.947-2.709 1.738-3.912.59-1.311 1.399-2.515 2.394-3.562-.347 1.392-.936 2.716-1.738 3.912-.581 1.316-1.391 2.522-2.394 3.562z" fill="#fafafa"/><path d="m337.198 303.943c-.938-1.422-1.658-2.971-2.138-4.599-.701-1.55-1.181-3.187-1.425-4.866.938 1.422 1.658 2.971 2.138 4.599.701 1.55 1.181 3.187 1.425 4.866z" fill="#fafafa"/><path d="m355.679 294.491c-2.488-.599-4.832-1.676-6.896-3.169 2.488.599 4.832 1.676 6.896 3.169z" fill="#fafafa"/><path d="m366.068 284.745c-.298-1.476-.229-3 .199-4.445.179-1.506.721-2.949 1.582-4.207-.151 1.462-.438 2.908-.855 4.319-.184 1.468-.494 2.917-.926 4.333z" fill="#fafafa"/><path d="m304.95 278.435c.241-1.403.723-2.754 1.425-3.997.501-1.346 1.239-2.595 2.181-3.688-.275 1.406-.785 2.756-1.511 3.997-.479 1.338-1.187 2.585-2.095 3.688z" fill="#fafafa"/><path d="m275.411 311.684c-1.083-.854-2.001-1.895-2.707-3.071-.911-1.032-1.629-2.214-2.124-3.492 1.082.861 2.003 1.9 2.722 3.071.906 1.033 1.62 2.215 2.109 3.492z" fill="#fafafa"/><path d="m289.389 308.052c.239-1.545.72-3.045 1.425-4.446.468-1.497 1.165-2.916 2.067-4.207-.673 3.034-1.837 5.941-3.449 8.611z" fill="#fafafa"/><path d="m311.975 311.936c-3.173-.627-6.064-2.222-8.264-4.557 1.438.651 2.82 1.415 4.132 2.285 1.434.654 2.815 1.413 4.132 2.272z" fill="#fafafa"/><path d="m321.209 297.647c-1.572-2.835-2.312-6.044-2.137-9.27.518 1.502.9 3.046 1.14 4.614.468 1.521.802 3.079.997 4.656z" fill="#fafafa"/><path d="m256.915 309.006c3.298 1.595 7.079 1.934 10.616.953 3.497-.999 6.821-2.512 9.861-4.487 1.731-1.186 3.66-2.064 5.699-2.595 2.304-.289 4.643-.127 6.883.477 5.344 1.052 10.915 1.907 16.188.575 5.272-1.332 10.203-5.371 10.901-10.686.271-2.145-.456-4.74-2.537-5.427-1.373-.56-2.807-.96-4.275-1.192-22.657 1.809-53.464 19.871-53.436 20.488" fill="#212121" opacity=".3"/><path d="m359.37 561.834 5.743 43.893-20.206 1.262-10.374-42.112z" fill="#b78876"/><path d="m343.026 598.477s15.446 7.951 21.089-1.403l2.351 3.885 12.07 28.341c.399.885.458 1.883.164 2.807s-.919 1.711-1.76 2.214c-.649.361-1.39.533-2.135.493s-1.463-.289-2.069-.718c-6.555-4.655-30.537-21.876-30.708-24.625l-.912-7.236c-.089-.732.045-1.473.385-2.13s.871-1.199 1.525-1.558z" fill="#d80202"/><path d="m376.27 634.531-34.598-27.64.228 1.571c.085 1.739.94 2.314 1.909 3.295 2.85 2.917 10.673 9.27 28.813 22.283.52.372 1.125.612 1.761.697.637.086 1.285.015 1.887-.206z" fill="#fff" opacity=".6"/><path d="m345.462 601.604c.509.274.899.722 1.096 1.259.196.537.187 1.127-.027 1.657-.256.515-.703.914-1.249 1.115s-1.15.188-1.686-.035c-.544-.292-.959-.771-1.166-1.345-.208-.574-.193-1.203.04-1.768.324-.509.837-.875 1.43-1.019.593-.143 1.22-.055 1.748.248" fill="#fff" opacity=".6"/><path d="m365.312 619.47c.242.07.812-1.992 2.85-3.352 1.323-.727 2.773-1.203 4.275-1.402 0-.098-.499-.323-1.425-.323-1.183.034-2.332.404-3.306 1.066-.982.642-1.75 1.554-2.209 2.622-.299.814-.27 1.375-.185 1.389z" fill="#212121"/><path d="m368.718 624.041c.2.14 1.24-1.234 3.121-2.061 1.192-.392 2.405-.72 3.633-.981-.634-.274-1.325-.395-2.017-.354-.691.042-1.362.245-1.958.592-2.138.982-2.993 2.804-2.779 2.804z" fill="#212121"/><path d="m359.399 613.776c1.445-1.272 2.984-2.439 4.602-3.491 2.779-1.571 5.444-1.809 5.415-2.062-2.033-.098-4.052.377-5.819 1.371-1.768.994-3.209 2.465-4.155 4.239z" fill="#212121"/><path d="m357.489 604.913c.142.21 2.095-.939 4.802-1.402 2.708-.463 4.945-.126 5.002-.365-1.644-.603-3.424-.758-5.15-.447s-3.334 1.076-4.654 2.214z" fill="#212121"/><path d="m363.831 603.217c-.024-.492-.16-.971-.399-1.403-.538-1.195-1.314-2.273-2.28-3.169-.645-.727-1.517-1.22-2.48-1.402-.324-.031-.65.037-.933.195s-.509.399-.649.688c-.22.579-.22 1.216 0 1.795.491 1.169 1.378 2.134 2.512 2.73 1.133.596 2.441.786 3.701.538 1.239-.272 2.368-.899 3.243-1.803s1.458-2.043 1.673-3.274c.055-.31.041-.629-.04-.934-.081-.304-.228-.589-.43-.833-.233-.224-.533-.369-.856-.414-.322-.045-.651.011-.939.162-.827.48-1.511 1.167-1.981 1.991-.715 1.098-1.235 2.307-1.539 3.576-.143.453-.192.93-.142 1.402.497-1.646 1.231-3.214 2.18-4.655.434-.707 1.042-1.295 1.767-1.711.155-.082.333-.112.508-.087.174.026.335.105.461.227.123.168.209.36.253.562.044.203.045.413.003.616-.213 1.053-.73 2.024-1.487 2.798-.758.773-1.726 1.315-2.788 1.563-1.064.207-2.168.052-3.131-.44-.964-.492-1.728-1.291-2.17-2.266-.147-.408-.147-.854 0-1.262.074-.162.198-.296.354-.384s.337-.126.516-.107c.809.155 1.55.552 2.123 1.136 1.225 1.206 2.224 2.616 2.95 4.165z" fill="#212121"/><path d="m297.313 559.898.57 44.974-24.695-.926-3.648-43.515z" fill="#b78876"/><path d="m272.775 598.519s-27.388 10.097-27.673 15.019l52.966-.098v-13.631l-1.938.449c-7.784 1.764-15.929 1.157-23.355-1.739z" fill="#d80202"/><path d="m291.983 602.375c.496.167.913.504 1.175.95s.351.97.25 1.476c-.135.508-.463.945-.916 1.222-.454.276-.998.371-1.52.264-.542-.16-1.003-.513-1.293-.991-.29-.477-.388-1.044-.275-1.589.199-.513.592-.93 1.096-1.165.505-.236 1.082-.27 1.611-.097" fill="#fff" opacity=".6"/><path d="m298.054 613.439v-4.206l-50.929 1.668s-2.351 1.01-2.08 2.65z" fill="#fff" opacity=".6"/><path d="m271.905 598.252c0 .253 1.311.365 2.58 1.178 1.268.813 1.952 1.893 2.194 1.781s-.142-1.57-1.71-2.524c-1.567-.953-3.121-.673-3.064-.435z" fill="#212121"/><path d="m266.362 600.524c0 .239 1.054.673 1.938 1.753.883 1.079 1.14 2.215 1.425 2.201s.413-1.402-.698-2.804c-1.112-1.402-2.665-1.402-2.665-1.15z" fill="#212121"/><path d="m263.213 607.072c.242 0 .598-1.219-.071-2.607-.67-1.388-1.881-1.949-1.981-1.739s.641.953 1.168 2.103c.528 1.15.627 2.215.884 2.243z" fill="#212121"/><path d="m272.49 598.097c.866.244 1.784.244 2.65 0 .957-.171 1.89-.454 2.779-.841.521-.233 1.025-.5 1.51-.799.305-.159.579-.368.813-.617.178-.186.287-.426.308-.681.02-.255-.048-.509-.194-.721-.132-.177-.303-.321-.501-.42-.198-.1-.417-.153-.639-.155-.338 0-.674.047-.998.14-.563.136-1.111.324-1.639.561-.898.395-1.726.93-2.45 1.585-1.226 1.121-1.639 2.075-1.554 2.117.086.042.713-.715 1.967-1.641.725-.542 1.52-.985 2.365-1.318.49-.193.995-.348 1.511-.462.57-.141 1.04-.155 1.182.098.143.252 0 .126 0 .294-.172.176-.369.327-.584.449-.461.286-.936.548-1.425.785-.823.398-1.682.722-2.565.968-.861.157-1.709.377-2.536.658z" fill="#212121"/><path d="m272.817 598.463c.1 0 .613-.869.699-2.524.039-.948-.081-1.896-.357-2.805-.176-.548-.405-1.079-.684-1.584-.144-.345-.376-.647-.672-.877-.297-.231-.65-.383-1.023-.442-.237.007-.466.078-.663.207s-.352.31-.449.523c-.129.306-.22.626-.271.953-.118.781-.079 1.577.117 2.342.196.766.544 1.485 1.023 2.118 1.041 1.402 2.124 1.64 2.138 1.556s-.812-.617-1.61-1.907c-.455-.749-.742-1.586-.841-2.454-.071-.502-.071-1.012 0-1.515.085-.546.299-.995.513-.939s.712.407.926.855c.261.447.481.917.656 1.403.301.835.479 1.709.527 2.594.114 1.501-.157 2.454-.029 2.496z" fill="#212121"/><path d="m345.348 368.283c-1.097-24.303-20.063-50.849-20.063-50.849l-29.184-2.412v-.098h-.612l-33.558 2.692s-14.792 31.721-10.944 69.528c3.847 37.807 16.829 176.877 16.829 176.877h30.779l.656-201.207 31.164 208.065h30.822s-14.791-178.224-15.889-202.596z" fill="#212121"/><path d="m264.054 560.628 4.289 20.502 31.364-.098 1.895-18.89z" fill="#455a64"/><path d="m328.348 567.177 6.854 23.11 29.198-4.01-1.525-25.986z" fill="#455a64"/><path d="m300.505 362.631s-.157 0-.456 0c-.438-.09-.851-.272-1.212-.533-1.242-1.057-2.064-2.512-2.322-4.108-.713-3.913-1.425-9.312-2.052-15.3s-1.097-11.415-1.425-15.342c-.143-1.977-.242-3.562-.285-4.669-.074-.568-.074-1.143 0-1.711.151.555.247 1.123.285 1.697.128 1.234.313 2.804.513 4.627.427 4.081.983 9.424 1.596 15.328s1.254 11.401 1.838 15.257c.199 1.514.895 2.922 1.981 4.011.468.329.988.581 1.539.743z" fill="#455a64"/><path d="m297.897 319.523s.242-.182.741-.252c.712-.071 1.429.092 2.038.463.471.281.876.658 1.188 1.105.312.448.524.955.621 1.489.128.658.012 1.34-.327 1.921-.363.642-.943 1.138-1.639 1.403-.644.266-1.354.332-2.037.189s-1.304-.488-1.782-.989c-.347-.428-.586-.93-.698-1.467-.111-.536-.092-1.09.057-1.618.17-.699.553-1.33 1.097-1.809.399-.308.67-.379.684-.351-.638.615-1.079 1.4-1.268 2.258-.094.446-.085.906.026 1.348s.321.853.615 1.204c.398.371.895.621 1.434.721.538.099 1.094.044 1.601-.16.518-.163.96-.503 1.247-.957.287-.455.401-.995.321-1.525-.073-.452-.237-.886-.482-1.276-.244-.39-.565-.728-.943-.996-.753-.449-1.614-.692-2.494-.701z" fill="#455a64"/><path d="m282.151 276.878-2.978-14.262c-.056-.267-.049-.543.018-.808s.193-.512.369-.723c.176-.21.397-.38.648-.496s.525-.176.803-.174l37.491.182c.261 0 .52.055.759.16s.452.259.627.451c.175.191.306.417.387.662.08.245.107.504.079.76l-3.876 32.675c-.074.623-.38 1.197-.859 1.612-.479.414-1.097.639-1.734.632l-24.453-.183c-.572-.006-1.126-.198-1.577-.545s-.773-.831-.916-1.376z" fill="#455a64"/><path d="m278.802 269.376c.796-.003 1.575.231 2.234.672.658.44 1.166 1.066 1.457 1.796.612 1.571 1.51 3.422 2.508 3.955 1.838.981 5.015 1.781 6.697.967 1.681-.813 8.365-6.731 9.533-6.072s2.18 2.132 1.012 3.45c-1.169 1.318-7.367 5.273-6.199 6.591 1.169 1.318 14.25-4.473 16.245-3.969 1.995.505 3.177 1.725 2.009 2.525-1.169.799-10.046 4.08-10.545 5.23 0 0 13.381-3.449 13.894-2.636s1.339 2.145 0 2.636c-1.34.491-12.825 3.464-13.894 3.955-1.662.686-3.397 1.184-5.172 1.486-.357 0-2.979.87-5.387 1.683-2.712.928-5.675.854-8.336-.21l-1.425-.547c-1.028-.415-1.898-1.135-2.491-2.06-.592-.925-.877-2.009-.815-3.101l.285-4.487-1.425-3.716z" fill="#b78876"/><path d="m301.303 265.911c-.001.28-.087.554-.246.786-.16.232-.387.411-.652.515-.264.104-.555.127-.833.067s-.531-.201-.728-.404c-.196-.203-.325-.459-.372-.736-.047-.276-.008-.56.111-.815.118-.254.312-.468.556-.613.243-.146.525-.216.81-.202.365.018.71.174.962.435s.392.607.392.967z" fill="#fafafa"/><path d="m6.64709 424.405.56999-.435 1.73847-1.276 6.72585-4.88 25.393-18.231 88.0776-62.895-.128.393c-7.647-21.054-11.56-43.244-11.571-65.602-.006-7.378.394-14.751 1.197-22.086.832-7.113 2.05-14.177 3.648-21.162 2.987-13.226 7.421-26.095 13.223-38.382 16.672-34.976 43.503-64.305 77.106-84.281l6.412-3.618c1.867-1.037 3.505-1.795 4.802-2.4537l2.964-1.4023c.67-.3366 1.026-.4768 1.026-.4768s-.328.1963-.997.5469l-2.85 1.5285c-1.283.6874-2.922 1.4024-4.774 2.5104l-6.355 3.674c-33.377 20.125-60.022 49.443-76.635 84.323-5.77 12.248-10.175 25.074-13.139 38.256-1.593 6.942-2.801 13.964-3.619 21.035-.803 7.307-1.203 14.652-1.197 22.002-.016 22.265 3.845 44.368 11.414 65.35l.086.252-.214.154-88.2201 62.685-25.507 18.062c-2.9782 2.076-5.2581 3.688-6.8256 4.796l-1.76697 1.22z" fill="#d80202"/><path d="m170.49 58.3652s-.271.1543-.812.4207l-2.394 1.1499-3.89 1.8652c-1.553.7292-3.249 1.7389-5.216 2.8046-10.98 6.0197-21.282 13.1646-30.736 21.3156-6.515 5.6374-12.646 11.6899-18.354 18.1178-6.501 7.393-12.4763 15.218-17.8832 23.42-12.3435 18.92-21.7519 39.547-27.9152 61.198-6.1796 21.64-9.8274 43.904-10.8725 66.359-.9781 18.306-.5494 36.659 1.2825 54.901 1.1819 12.361 3.6115 24.575 7.2531 36.461 1.3252 4.207 2.5364 7.376 3.3772 9.522l.9832 2.44.3135.841s-.1425-.266-.3847-.813l-1.1115-2.482c-.8835-2.132-2.1375-5.315-3.5055-9.494-3.7561-11.837-6.2724-24.021-7.5095-36.363-1.9273-18.282-2.4275-36.684-1.4963-55.042.9989-22.512 4.6377-44.836 10.8441-66.527 6.1853-21.717 15.6377-42.402 28.0434-61.366 5.4631-8.227 11.5004-16.071 18.0684-23.475 5.757-6.4398 11.946-12.4928 18.525-18.1185 9.511-8.1361 19.888-15.2359 30.95-21.1753 1.967-1.0237 3.677-2.0054 5.244-2.7065l3.933-1.8091 2.422-1.0938z" fill="#d80202"/><path d="m216.702 0s.071.0701172.185.238398l.499.715194 1.853 2.804678 6.911 10.74193c5.899 9.2835 14.249 22.4375 24.039 37.765l-.385-.1402c13.424-3.6179 27.125-6.1505 40.968-7.5726 13.507-1.4087 27.105-1.7697 40.669-1.0798 11.076.5827 22.101 1.885 33.002 3.8985l3.406.617 3.206.6872 5.885 1.2901c3.634.9396 6.769 1.6828 9.319 2.398l5.829 1.7389 1.51.4768c.173.0413.34.1025.499.1823-.179-.0228-.355-.0603-.527-.1122l-1.525-.4066-5.871-1.5987c-2.551-.6731-5.7-1.4023-9.334-2.2858l-5.885-1.2762-3.206-.6591-3.406-.5889c-10.883-1.9473-21.883-3.1981-32.931-3.7443-13.531-.665-27.095-.2946-40.569 1.1079-13.8 1.4102-27.463 3.9145-40.854 7.4885h-.256l-.128-.2104c-9.704-15.4257-17.955-28.5937-23.812-37.8632-2.849-4.62773-5.158-8.30186-6.74-10.85413l-1.767-2.888817-.441-.757266c-.049-.0358421-.097-.0732582-.143-.112187z" fill="#d80202"/><path d="m578.46 187.774c-.072-.123-.125-.255-.157-.393l-.385-1.192c-.342-1.094-.812-2.608-1.425-4.558-.613-1.949-1.297-4.417-2.308-7.18l-1.539-4.459c-.285-.785-.556-1.599-.855-2.426l-.998-2.524c-1.425-3.436-2.85-7.236-4.674-11.219-.926-1.977-1.781-4.067-2.85-6.142l-3.249-6.339c-5.011-9.384-10.687-18.409-16.985-27.009-6.396-8.532-13.365-16.632-20.862-24.2465-1.752-1.7389-3.462-3.4217-5.115-5.0764-1.653-1.6548-3.392-3.1132-5.002-4.5997-3.192-3.0151-6.37-5.6094-9.205-8.0074l-2.095-1.7669-2.009-1.5987-3.734-2.9449c-2.308-1.8651-4.389-3.3516-6.07-4.5997l-3.862-2.8047-.997-.7572-.328-.2805s.143 0 .371.2103l1.04.7152 3.947 2.8047c1.71 1.206 3.819 2.6645 6.156 4.5015l3.776 2.8328 2.066 1.5846 2.095 1.7529c2.85 2.398 6.084 4.9503 9.291 7.9513 1.624 1.4865 3.348 2.973 5.044 4.5857l5.144 5.0624c7.55 7.6133 14.558 15.7282 20.976 24.2882 6.324 8.628 12 17.697 16.985 27.136l3.249 6.422c1.041 2.076 1.896 4.207 2.85 6.157 1.867 3.968 3.249 7.783 4.603 11.218.342.87.67 1.711.983 2.539.314.827.556 1.654.827 2.44.527 1.584 1.026 3.085 1.496 4.473.983 2.805 1.639 5.245 2.194 7.236.556 1.992.969 3.506 1.269 4.614.128.491.228.883.313 1.192z" fill="#d80202"/><path d="m524.923 577.035s-.085-.126-.228-.393l-.598-1.178c-.542-1.08-1.297-2.622-2.28-4.613-1.995-4.081-4.859-9.971-8.45-17.361-7.196-14.879-17.299-35.816-29.041-60.147l-.128-.252.242-.183c10.987-8.185 21.337-17.166 30.965-26.868 1.681-1.613 3.249-3.296 4.802-4.979l4.659-4.992 4.389-5.077c1.425-1.696 2.85-3.337 4.275-5.062 2.693-3.436 5.444-6.745 7.866-10.167l3.677-5.034c1.168-1.683 2.279-3.38 3.405-5.035 7.931-11.783 14.924-24.151 20.919-36.994 2.622-5.455 4.645-10.545 6.483-14.977 1.839-4.431 3.135-8.414 4.275-11.555s1.853-5.679 2.408-7.404c.285-.814.499-1.403.656-1.921.069-.22.149-.435.242-.645 0 0 0 .224-.171.673-.171.448-.327 1.108-.584 1.935-.527 1.739-1.297 4.207-2.28 7.446-.983 3.24-2.479 7.11-4.161 11.612-1.681 4.501-3.805 9.578-6.398 15.047-5.95 12.903-12.915 25.328-20.833 37.162-1.126 1.655-2.223 3.365-3.406 5.048l-3.676 5.049c-2.423 3.449-5.173 6.759-7.88 10.195-1.325 1.739-2.85 3.393-4.275 5.09s-2.921 3.38-4.389 5.105l-4.674 4.992c-1.553 1.683-3.121 3.38-4.802 4.992-9.663 9.73-20.057 18.731-31.093 26.925l.114-.42 28.799 60.3 8.264 17.403c.941 2.02 1.682 3.576 2.181 4.67l.555 1.22z" fill="#d80202"/><g fill="#fff" opacity=".8"><path d="m6.64703 424.405.56999-.435 1.73847-1.276 6.72581-4.88 25.393-18.231 88.0777-62.895-.128.393c-7.647-21.054-11.561-43.244-11.571-65.602-.006-7.378.394-14.751 1.197-22.086.832-7.113 2.05-14.177 3.648-21.162 2.987-13.226 7.421-26.095 13.223-38.382 16.672-34.976 43.503-64.305 77.106-84.281l6.412-3.618c1.867-1.037 3.505-1.795 4.802-2.4537l2.964-1.4023c.67-.3366 1.026-.4768 1.026-.4768s-.328.1963-.997.5469l-2.85 1.5285c-1.283.6874-2.922 1.4024-4.774 2.5104l-6.355 3.674c-33.377 20.125-60.023 49.443-76.635 84.323-5.77 12.248-10.175 25.074-13.139 38.256-1.593 6.942-2.801 13.964-3.619 21.035-.803 7.307-1.203 14.652-1.197 22.002-.016 22.265 3.845 44.368 11.414 65.35l.086.252-.214.154-88.2202 62.685-25.507 18.062c-2.9781 2.076-5.2581 3.688-6.82556 4.796l-1.76697 1.22z"/><path d="m170.49 58.3652s-.271.1543-.812.4207l-2.394 1.1499-3.89 1.8652c-1.553.7292-3.249 1.7389-5.216 2.8046-10.98 6.0197-21.282 13.1646-30.736 21.3156-6.515 5.6374-12.646 11.6899-18.354 18.1178-6.501 7.393-12.4764 15.218-17.8832 23.42-12.3435 18.92-21.752 39.547-27.9152 61.198-6.1797 21.64-9.8275 43.904-10.8725 66.359-.9782 18.306-.5495 36.659 1.2824 54.901 1.1819 12.361 3.6116 24.575 7.2531 36.461 1.3253 4.207 2.5365 7.376 3.3772 9.522l.9832 2.44.3135.841s-.1425-.266-.3847-.813l-1.1115-2.482c-.8835-2.132-2.1374-5.315-3.5054-9.494-3.7562-11.837-6.2725-24.021-7.5096-36.363-1.9273-18.282-2.4275-36.684-1.4962-55.042.9989-22.512 4.6377-44.836 10.844-66.527 6.1853-21.717 15.6378-42.402 28.0434-61.366 5.4632-8.227 11.5005-16.071 18.0685-23.475 5.757-6.4398 11.946-12.4928 18.525-18.1185 9.51-8.1361 19.888-15.2359 30.95-21.1753 1.967-1.0237 3.677-2.0054 5.244-2.7065l3.933-1.8091 2.422-1.0938z"/><path d="m216.702 0s.071.0701172.185.238398l.499.715194 1.853 2.804678 6.911 10.74193c5.899 9.2835 14.249 22.4375 24.039 37.765l-.385-.1402c13.424-3.6179 27.125-6.1505 40.968-7.5726 13.507-1.4087 27.105-1.7697 40.669-1.0798 11.076.5827 22.101 1.885 33.002 3.8985l3.406.617 3.206.6872 5.885 1.2901c3.634.9396 6.769 1.6828 9.319 2.398l5.828 1.7389 1.511.4768c.173.0413.34.1025.499.1823-.179-.0228-.355-.0603-.528-.1122l-1.524-.4066-5.871-1.5987c-2.551-.6731-5.7-1.4023-9.334-2.2858l-5.885-1.2762-3.206-.6591-3.406-.5889c-10.883-1.9473-21.883-3.1981-32.931-3.7443-13.531-.665-27.095-.2946-40.569 1.1079-13.8 1.4102-27.463 3.9145-40.854 7.4885h-.256l-.128-.2104c-9.704-15.4257-17.955-28.5937-23.812-37.8632-2.85-4.62773-5.158-8.30186-6.74-10.85413l-1.767-2.888817-.441-.757266c-.049-.0358421-.097-.0732582-.143-.112187z"/><path d="m578.46 187.774c-.073-.123-.125-.255-.157-.393l-.385-1.192c-.342-1.094-.812-2.608-1.425-4.558-.613-1.949-1.297-4.417-2.308-7.18l-1.539-4.459c-.285-.785-.556-1.599-.855-2.426l-.998-2.524c-1.425-3.436-2.85-7.236-4.674-11.219-.926-1.977-1.781-4.067-2.85-6.142l-3.249-6.339c-5.011-9.384-10.687-18.409-16.985-27.009-6.396-8.532-13.365-16.632-20.862-24.2465-1.753-1.7389-3.463-3.4217-5.115-5.0764-1.653-1.6548-3.392-3.1132-5.002-4.5997-3.192-3.0151-6.37-5.6094-9.205-8.0074l-2.095-1.7669-2.009-1.5987-3.734-2.9449c-2.308-1.8651-4.389-3.3516-6.07-4.5997l-3.862-2.8047-.997-.7572-.328-.2805s.142 0 .37.2103l1.041.7152 3.947 2.8047c1.71 1.206 3.819 2.6645 6.156 4.5015l3.776 2.8328 2.066 1.5846 2.095 1.7529c2.85 2.398 6.084 4.9503 9.291 7.9513 1.624 1.4865 3.348 2.973 5.044 4.5857l5.144 5.0624c7.55 7.6133 14.558 15.7282 20.976 24.2882 6.323 8.628 12 17.697 16.985 27.136l3.249 6.422c1.041 2.076 1.896 4.207 2.85 6.157 1.867 3.968 3.249 7.783 4.603 11.218.342.87.67 1.711.983 2.539.314.827.556 1.654.827 2.44.527 1.584 1.026 3.085 1.496 4.473.983 2.805 1.639 5.245 2.194 7.236.556 1.992.969 3.506 1.269 4.614.128.491.228.883.313 1.192z"/><path d="m524.923 577.035s-.085-.126-.228-.393l-.598-1.178c-.542-1.08-1.297-2.622-2.28-4.613-1.995-4.081-4.859-9.971-8.45-17.361-7.196-14.879-17.299-35.816-29.041-60.147l-.128-.252.242-.183c10.987-8.185 21.337-17.166 30.965-26.868 1.681-1.613 3.248-3.296 4.802-4.979l4.659-4.992 4.389-5.077c1.425-1.696 2.85-3.337 4.275-5.062 2.693-3.436 5.444-6.745 7.866-10.167l3.676-5.034c1.169-1.683 2.28-3.38 3.406-5.035 7.93-11.783 14.924-24.151 20.919-36.994 2.622-5.455 4.645-10.545 6.483-14.977 1.839-4.431 3.135-8.414 4.275-11.555s1.853-5.679 2.408-7.404c.285-.814.499-1.403.656-1.921.068-.22.149-.435.242-.645 0 0 0 .224-.171.673-.171.448-.328 1.108-.584 1.935-.527 1.739-1.297 4.207-2.28 7.446-.983 3.24-2.48 7.11-4.161 11.612-1.681 4.501-3.805 9.578-6.398 15.047-5.95 12.903-12.915 25.328-20.833 37.162-1.126 1.655-2.223 3.365-3.406 5.048l-3.676 5.049c-2.423 3.449-5.173 6.759-7.88 10.195-1.326 1.739-2.85 3.393-4.275 5.09s-2.921 3.38-4.389 5.105l-4.674 4.992c-1.553 1.683-3.121 3.38-4.802 4.992-9.664 9.73-20.057 18.731-31.093 26.925l.114-.42 28.799 60.3 8.264 17.403c.941 2.02 1.682 3.576 2.181 4.67l.555 1.22z"/></g><g fill="#d80202"><path d="m431.887 175.012c3.376 0 6.113-2.693 6.113-6.016s-2.737-6.016-6.113-6.016-6.113 2.693-6.113 6.016 2.737 6.016 6.113 6.016z"/><path d="m401.022 54.888c0 1.1932-.36 2.3596-1.034 3.3516-.674.9919-1.632 1.7648-2.752 2.2208s-2.353.5746-3.542.3407c-1.189-.2338-2.281-.8095-3.137-1.6542-.857-.8447-1.439-1.9205-1.674-3.0911-.235-1.1707-.111-2.3835.355-3.4851s1.253-2.0424 2.263-2.7033c1.009-.6609 2.195-1.0122 3.408-1.0095.804 0 1.6.1561 2.342.4593.743.3032 1.418.7476 1.985 1.3077.568.5602 1.018 1.225 1.325 1.9566.306.7315.463 1.5153.461 2.3065z"/><path d="m584.002 188.012c.003 1.194-.354 2.361-1.026 3.355s-1.629 1.769-2.749 2.227c-1.121.458-2.354.579-3.544.347-1.19-.233-2.283-.807-3.141-1.651-.857-.845-1.441-1.92-1.677-3.091s-.114-2.385.352-3.487c.465-1.103 1.253-2.044 2.263-2.706 1.01-.661 2.196-1.013 3.409-1.01 1.622 0 3.177.633 4.323 1.762 1.146 1.128 1.79 2.658 1.79 4.254z"/><path d="m267.759 469.419c-.003 1.19-.364 2.351-1.037 3.339-.674.987-1.629 1.756-2.747 2.21-1.117.453-2.346.57-3.53.336-1.185-.234-2.273-.808-3.127-1.65-.853-.841-1.434-1.913-1.669-3.08s-.113-2.376.35-3.474c.464-1.098 1.247-2.037 2.252-2.698 1.005-.66 2.186-1.013 3.395-1.013.804 0 1.6.156 2.343.46.742.303 1.417.747 1.985 1.307.567.561 1.017 1.225 1.324 1.957.306.731.463 1.515.461 2.306z"/><path d="m183.486 471.06c3.376 0 6.113-2.693 6.113-6.016 0-3.322-2.737-6.016-6.113-6.016s-6.113 2.694-6.113 6.016c0 3.323 2.737 6.016 6.113 6.016z"/><path d="m518.796 344.387c3.376 0 6.113-2.693 6.113-6.016s-2.737-6.016-6.113-6.016-6.113 2.693-6.113 6.016 2.737 6.016 6.113 6.016z"/><path d="m66.3106 191.125c0 1.19-.3585 2.353-1.0302 3.342-.6718.99-1.6265 1.761-2.7435 2.216-1.1171.455-2.3462.575-3.532.342-1.1859-.232-2.2751-.805-3.1301-1.646-.8549-.841-1.4371-1.913-1.673-3.08s-.1148-2.377.3479-3.476c.4627-1.1 1.2462-2.039 2.2515-2.7s2.1872-1.014 3.3963-1.014c1.6213 0 3.1762.634 4.3226 1.762s1.7905 2.658 1.7905 4.254z"/><path d="m409.572 239.24c-.003 1.189-.364 2.351-1.037 3.338-.674.988-1.63 1.756-2.747 2.21-1.117.453-2.346.57-3.531.336-1.185-.233-2.273-.808-3.126-1.649-.854-.842-1.434-1.914-1.669-3.081s-.113-2.375.35-3.474c.463-1.098 1.247-2.037 2.252-2.698 1.005-.66 2.186-1.013 3.395-1.013.804 0 1.6.157 2.342.46.743.303 1.417.747 1.985 1.307.568.561 1.018 1.225 1.324 1.957.307.732.464 1.515.462 2.307z"/><path d="m527.816 242.802c3.376 0 6.113-2.694 6.113-6.016 0-3.323-2.737-6.016-6.113-6.016s-6.113 2.693-6.113 6.016c0 3.322 2.737 6.016 6.113 6.016z"/><path d="m132.643 213.857c0 1.19-.358 2.353-1.03 3.342-.672.99-1.627 1.761-2.744 2.216s-2.346.574-3.532.342c-1.185-.232-2.275-.805-3.13-1.646-.855-.842-1.437-1.913-1.673-3.08s-.115-2.377.348-3.476c.463-1.1 1.246-2.039 2.252-2.7 1.005-.661 2.187-1.014 3.396-1.014 1.62.004 3.173.639 4.318 1.766 1.146 1.127 1.791 2.655 1.795 4.25z"/><path d="m131.303 140.164c3.377 0 6.114-2.694 6.114-6.016 0-3.323-2.737-6.016-6.114-6.016-3.376 0-6.113 2.693-6.113 6.016 0 3.322 2.737 6.016 6.113 6.016z"/><path d="m68.6904 362.127c0 .596-.1797 1.179-.5163 1.675s-.8151.882-1.3749 1.11c-.5599.228-1.1759.288-1.7702.172-.5943-.117-1.1401-.404-1.5686-.825-.4285-.422-.7203-.959-.8385-1.544s-.0575-1.191.1744-1.742c.2318-.551.6245-1.022 1.1283-1.353.5039-.332 1.0962-.508 1.7021-.508.4029-.002.8021.074 1.1747.225.3725.151.711.373.9959.654.2849.28.5105.613.6638.98.1533.366.2312.759.2293 1.156z"/><path d="m120.417 274.859c0 .596-.18 1.179-.517 1.675-.336.496-.815.882-1.375 1.111-.559.228-1.175.287-1.77.171-.594-.116-1.14-.403-1.568-.825-.429-.422-.721-.959-.839-1.544s-.057-1.191.175-1.742c.231-.551.624-1.022 1.128-1.353s1.096-.508 1.702-.508c.403-.002.802.075 1.175.226.372.151.711.373.996.653.284.28.51.613.663.98.154.367.232.76.23 1.156z"/><path d="m179.738 380.357c0 .596-.18 1.179-.516 1.675-.337.496-.815.882-1.375 1.11-.56.229-1.176.288-1.77.172-.595-.116-1.14-.404-1.569-.825-.428-.422-.72-.959-.838-1.544-.119-.585-.058-1.191.174-1.742s.624-1.022 1.128-1.353 1.096-.508 1.702-.508c.403-.002.803.075 1.175.226.373.15.711.372.996.653.285.28.51.613.664.98.153.367.231.759.229 1.156z"/><path d="m148.517 273.457c0 .596-.179 1.179-.516 1.675s-.815.882-1.375 1.11-1.176.288-1.77.172c-.594-.117-1.14-.404-1.569-.825-.428-.422-.72-.959-.838-1.544s-.058-1.191.174-1.742.625-1.022 1.129-1.353c.503-.331 1.096-.508 1.702-.508.403-.002.802.075 1.174.225.373.151.711.373.996.654.285.28.511.613.664.98.153.366.231.759.229 1.156z"/><path d="m192.235 205.723c.003.597-.174 1.181-.509 1.679s-.812.886-1.372 1.117c-.56.23-1.176.292-1.771.177s-1.143-.401-1.573-.822c-.429-.421-.723-.958-.842-1.543-.119-.586-.06-1.193.172-1.744.231-.552.624-1.024 1.128-1.356s1.097-.509 1.704-.509c.81 0 1.587.316 2.161.878.574.563.899 1.326.902 2.123z"/><path d="m83.5531 277.846c1.692 0 3.0637-1.35 3.0637-3.015s-1.3717-3.015-3.0637-3.015c-1.6921 0-3.0637 1.35-3.0637 3.015s1.3716 3.015 3.0637 3.015z"/><path d="m494.244 393.553c0 .596-.18 1.179-.517 1.675-.336.496-.815.882-1.375 1.11s-1.176.288-1.77.172c-.594-.117-1.14-.404-1.569-.825-.428-.422-.72-.959-.838-1.544s-.058-1.191.174-1.742.625-1.022 1.129-1.353c.504-.332 1.096-.508 1.702-.508.812 0 1.592.317 2.166.883.575.565.898 1.332.898 2.132z"/><path d="m472.912 377.791c0 .597-.18 1.18-.518 1.676-.337.497-.816.883-1.377 1.111-.56.228-1.177.286-1.772.169s-1.14-.406-1.568-.829-.719-.962-.835-1.547c-.117-.586-.054-1.193.18-1.744.234-.55.629-1.02 1.134-1.35.506-.329 1.1-.504 1.706-.501.402 0 .8.078 1.171.23.371.151.707.374.991.654.283.28.507.612.66.978.152.366.23.758.228 1.153z"/><path d="m517.129 407.759c0 .596-.18 1.179-.517 1.675-.336.496-.815.882-1.375 1.11s-1.176.288-1.77.172c-.594-.117-1.14-.404-1.569-.825-.428-.422-.72-.959-.838-1.544s-.057-1.191.174-1.742c.232-.551.625-1.022 1.129-1.353s1.096-.508 1.702-.508c.403-.002.802.075 1.175.225.372.151.711.373.995.654.285.28.511.613.664.98.153.366.231.759.23 1.156z"/><path d="m396.691 410.577c0 .596-.18 1.179-.517 1.675-.336.496-.815.882-1.375 1.111-.56.228-1.176.287-1.77.171s-1.14-.403-1.569-.825c-.428-.422-.72-.959-.838-1.544s-.058-1.191.174-1.742.625-1.022 1.129-1.353 1.096-.508 1.702-.508c.812 0 1.592.318 2.166.883.575.566.898 1.332.898 2.132z"/><path d="m416.098 456.854c0 .597-.18 1.181-.517 1.677s-.817.882-1.377 1.11c-.561.228-1.178.287-1.772.169-.595-.117-1.141-.406-1.569-.829s-.718-.961-.835-1.547c-.116-.586-.054-1.192.18-1.743s.629-1.021 1.135-1.35c.506-.33 1.099-.504 1.706-.502.81.004 1.586.323 2.157.888.572.565.892 1.33.892 2.127z"/><path d="m382.127 442.859c.002.598-.175 1.183-.511 1.681-.335.497-.814.886-1.374 1.116s-1.178.291-1.773.175c-.596-.116-1.143-.403-1.572-.826-.43-.422-.722-.961-.84-1.547-.117-.586-.055-1.194.178-1.745.234-.552.629-1.022 1.135-1.353.506-.33 1.1-.505 1.707-.502.809 0 1.585.316 2.156.879.572.563.894 1.326.894 2.122z"/><path d="m184.213 171.997c.003.597-.175 1.181-.51 1.679s-.812.886-1.372 1.117c-.559.23-1.176.292-1.771.177s-1.142-.401-1.572-.822-.723-.958-.843-1.543c-.119-.586-.059-1.193.172-1.744.232-.552.624-1.024 1.128-1.356.505-.332 1.097-.509 1.704-.509.81 0 1.587.316 2.161.878.574.563.899 1.326.903 2.123z"/><path d="m256.501 137.023c.003.596-.174 1.181-.509 1.678-.335.498-.812.887-1.372 1.117s-1.176.292-1.771.177c-.596-.114-1.143-.4-1.573-.822-.43-.421-.723-.958-.842-1.543s-.06-1.192.172-1.744c.231-.552.624-1.023 1.128-1.355s1.097-.51 1.704-.51c.81 0 1.587.316 2.161.879.574.562.899 1.325.902 2.123z"/><path d="m345.976 128.749c0 .596-.18 1.179-.516 1.675-.337.496-.816.882-1.375 1.11-.56.229-1.176.288-1.771.172-.594-.116-1.14-.403-1.568-.825-.429-.422-.72-.959-.839-1.544-.118-.585-.057-1.191.175-1.742s.624-1.022 1.128-1.353 1.096-.508 1.702-.508c.813 0 1.592.318 2.166.883.575.565.898 1.332.898 2.132z"/><path d="m486.748 56.5562c.003.5969-.174 1.1812-.509 1.6789-.335.4976-.812.8862-1.372 1.1166-.559.2303-1.176.292-1.771.1773s-1.143-.4008-1.573-.8219c-.429-.4211-.723-.9583-.842-1.5435s-.06-1.1922.172-1.7439c.231-.5518.624-1.0235 1.128-1.3554s1.097-.5091 1.704-.5091c.81 0 1.587.3157 2.161.8781s.899 1.3257.902 2.1229z"/><path d="m251.685 51.662c0 .5963-.18 1.1792-.516 1.6751-.337.4958-.815.8822-1.375 1.1104s-1.176.2879-1.77.1716c-.595-.1163-1.141-.4035-1.569-.8251-.428-.4217-.72-.9589-.838-1.5438-.119-.5849-.058-1.1911.174-1.742s.624-1.0218 1.128-1.3531 1.096-.5081 1.702-.5081c.812.0037 1.589.3225 2.163.8871.573.5647.897 1.3294.901 2.1279z"/><path d="m216.702 383.007s-.128-.112-.356-.351l-1.012-1.051-3.805-4.109c-.826-.912-1.781-1.879-2.721-3.015l-3.064-3.73c-1.083-1.403-2.294-2.735-3.477-4.306l-3.648-5.02c-5.947-8.291-11.063-17.129-15.275-26.392-5.122-11.372-8.701-23.357-10.645-35.648-.627-3.253-.841-6.52-1.226-9.718l-.299-4.782c0-.785-.099-1.584-.142-2.356-.043-.771 0-1.57 0-2.356 0-1.552 0-3.094 0-4.627l.171-4.544c0-1.5.142-2.987.27-4.445.129-1.459.257-2.903.371-4.334 1.109-10.088 3.218-20.045 6.298-29.729 2.053-6.528 4.582-12.902 7.567-19.072 1.069-2.188 1.966-3.843 2.608-4.95.313-.561.57-.968.741-1.248.171-.281.27-.421.285-.407-.061.149-.133.295-.214.435l-.684 1.29c-.599 1.122-1.425 2.804-2.465 4.992-2.884 6.2-5.336 12.586-7.339 19.114-3.023 9.646-5.104 19.554-6.213 29.589-.114 1.403-.242 2.805-.356 4.32-.114 1.514-.228 2.93-.257 4.417-.028 1.486-.114 3.001-.171 4.516-.057 1.514 0 3.071 0 4.613v2.342c0 .785.1 1.557.143 2.342l.299 4.768c.399 3.183.613 6.423 1.226 9.662 1.937 12.231 5.482 24.162 10.544 35.493 4.172 9.235 9.22 18.062 15.077 26.364l3.591 5.035c1.168 1.57 2.365 2.987 3.434 4.333l3.006 3.758c.927 1.15 1.867 2.132 2.665 3.043l3.705 4.207.955 1.108c.313.281.427.435.413.449z"/><path d="m83.4672 282.319c-.0155-.135-.0155-.271 0-.406v-1.192c0-1.108 0-2.651.0998-4.6 0-.996 0-2.117.0855-3.323s.1567-2.525.2565-3.941c.1994-2.805.3419-6.058.7694-9.606.1995-1.767.399-3.632.5985-5.609.1995-1.978.5558-3.941.855-6.016.5273-4.207 1.425-8.569 2.2515-13.21 4.0091-20.122 10.339-39.727 18.8666-58.436 2.038-4.277 3.904-8.414 5.914-12.074.983-1.865 1.881-3.688 2.85-5.385l2.849-4.894c1.725-3.142 3.506-5.862 4.988-8.288.769-1.206 1.425-2.342 2.123-3.366l1.867-2.805 2.622-3.814.684-.982c.079-.107.164-.21.256-.308-.041.126-.103.245-.185.351l-.641 1.023-2.494 3.885-1.81 2.804-2.066 3.38c-1.425 2.44-3.192 5.175-4.888 8.33l-2.721 4.894c-.955 1.711-1.838 3.548-2.85 5.413-1.967 3.702-3.819 7.797-5.828 12.074-4.171 9.357-7.861 18.915-11.0581 28.636-3.0918 9.747-5.679 19.641-7.7518 29.646-.8835 4.627-1.767 9.017-2.337 13.168-.2992 2.075-.6412 4.066-.8834 6.002-.2423 1.935-.4275 3.786-.6413 5.609-.4702 3.534-.6412 6.759-.8835 9.578-.114 1.402-.2137 2.721-.3134 3.941-.0998 1.22-.114 2.299-.1568 3.309-.0997 1.949-.1852 3.478-.2422 4.586v1.192c-.0433.152-.1055.298-.1853.434z"/><path d="m375.244 108.85c-.364-.06-.722-.153-1.068-.281l-3.05-.925c-1.311-.435-2.921-.926-4.816-1.403s-4.033-1.136-6.455-1.64l-3.777-.856c-1.31-.294-2.693-.519-4.118-.785-2.85-.575-5.913-.968-9.148-1.403-7.025-.845-14.097-1.262-21.175-1.248-7.079.096-14.146.615-21.161 1.557-3.22.505-6.284.94-9.12 1.557-1.425.294-2.85.532-4.118.841l-3.762.926c-2.408.532-4.531 1.22-6.412 1.738-1.881.519-3.506 1.038-4.802 1.487l-3.035.982c-.35.121-.707.22-1.069.294.325-.18.669-.326 1.026-.435l2.978-1.108c1.297-.49 2.85-1.051 4.774-1.612 1.923-.561 4.004-1.276 6.412-1.851l3.762-.968c1.311-.322 2.693-.575 4.118-.883 2.85-.646 5.928-1.108 9.163-1.627 14.084-2.0604 28.392-2.169 42.507-.323 3.234.477 6.326.884 9.176 1.487 1.425.294 2.85.519 4.133.827l3.776.912c2.422.533 4.546 1.22 6.441 1.753s3.505 1.065 4.802 1.542l2.992 1.052c.355.096.699.228 1.026.393z"/><path d="m430.832 172.726c-.263-.228-.501-.481-.712-.757-.499-.561-1.14-1.304-1.938-2.244l-1.425-1.627c-.513-.574-1.111-1.177-1.738-1.851-1.269-1.304-2.637-2.874-4.275-4.417l-2.622-2.482c-.927-.856-1.953-1.669-2.964-2.552-2.024-1.795-4.361-3.506-6.783-5.343-10.703-7.789-22.665-13.744-35.382-17.614-2.95-.827-5.7-1.668-8.407-2.201-1.326-.295-2.594-.617-3.848-.842l-3.577-.603c-2.28-.449-4.374-.603-6.198-.827-.912-.112-1.767-.225-2.551-.295l-2.137-.056-2.979-.21c-.35-.007-.698-.049-1.04-.126.346-.034.695-.034 1.04 0h2.993 2.166c.798 0 1.653.14 2.565.224 1.838.182 3.947.309 6.241.715l3.605.575c1.254.197 2.537.519 3.876.8 2.693.504 5.501 1.402 8.465 2.145 12.83 3.821 24.886 9.815 35.624 17.712 2.422 1.879 4.774 3.604 6.783 5.427 1.011.911 2.037 1.739 2.949 2.608l2.608 2.524c1.682 1.571 3.035 3.17 4.275 4.516.599.673 1.197 1.29 1.696 1.893.498.603.94 1.164 1.339 1.683.77.953 1.425 1.739 1.838 2.328.199.283.37.583.513.897z"/><path d="m461.312 134.625c-.109-.073-.209-.158-.299-.253l-.841-.785-3.163-3.071-2.28-2.23c-.855-.799-1.81-1.613-2.85-2.524-2.052-1.781-4.275-3.927-7.025-6.002l-4.275-3.352c-1.425-1.164-3.092-2.244-4.717-3.436-3.22-2.426-6.896-4.697-10.715-7.152-8.373-5.118-17.112-9.6318-26.149-13.5041-9.133-3.7372-18.529-6.821-28.114-9.2274-4.446-.9957-8.664-2.0194-12.683-2.6084-1.995-.3225-3.918-.7292-5.785-.9536l-5.372-.6451c-3.42-.4908-6.541-.5889-9.277-.8133-1.425-.0842-2.636-.1963-3.819-.2524h-3.206l-4.446-.1122h-1.154-.399c.132-.022.267-.022.399 0h1.154 4.446 3.221c1.182 0 2.451.1122 3.833.1823 2.736.1823 5.871.2524 9.305.7012l5.401.603c1.866.2243 3.804.603 5.813.9115 4.033.5749 8.265 1.5846 12.725 2.5522 19.304 4.5465 37.727 12.1531 54.548 22.5213 3.819 2.482 7.496 4.782 10.716 7.236 1.625 1.206 3.235 2.3 4.703 3.478l4.189 3.408c2.722 2.103 4.945 4.207 6.982 6.1 1.012.912 1.967 1.753 2.85 2.566l2.237 2.286 3.078 3.169.784.842c.081.111.143.234.185.365z"/><path d="m560.248 273.105c-.017-.121-.017-.243 0-.364v-1.108c0-1.01 0-2.426-.085-4.207 0-.926 0-1.935 0-3.043s-.114-2.328-.171-3.632c-.157-2.595-.214-5.61-.57-8.807-.143-1.627-.285-3.338-.456-5.119-.171-1.78-.442-3.618-.684-5.525-.427-3.814-1.168-7.867-1.895-12.13-1.786-9.199-4.098-18.291-6.926-27.233-2.896-8.936-6.297-17.705-10.188-26.266-1.881-3.913-3.605-7.657-5.472-11.037-.912-1.697-1.738-3.379-2.636-4.922l-2.594-4.459c-1.596-2.805-3.249-5.343-4.631-7.559l-1.952-3.071-1.738-2.524-2.38-3.506-.613-.926-.185-.322c4.341 5.639 8.333 11.53 11.955 17.641l2.637 4.446c.912 1.556 1.752 3.225 2.679 4.922 1.895 3.379 3.647 7.124 5.543 11.036 3.949 8.572 7.38 17.366 10.274 26.336 2.808 8.997 5.082 18.146 6.811 27.402.698 4.207 1.425 8.33 1.824 12.172.228 1.921.499 3.759.641 5.54.143 1.781.285 3.505.413 5.132.554 7.031.687 14.087.399 21.133z"/><path d="m528.842 236.786c.05.222.088.447.114.673.071.491.156 1.15.256 1.991.185 1.753.627 4.333.841 7.685.808 9.434 1.008 18.91.598 28.369-.213 6.002-.769 12.551-1.553 19.563s-2.009 14.458-3.776 22.199c-.399 1.949-.841 3.913-1.425 5.876l-1.525 5.974c-1.182 3.982-2.322 8.077-3.79 12.144-2.846 8.469-6.357 16.707-10.502 24.639-4.215 7.894-8.976 15.494-14.25 22.746-4.938 6.734-10.262 13.186-15.945 19.324-9.62 10.39-20.19 19.886-31.578 28.37-7.644 5.752-15.681 10.981-24.053 15.65-2.921 1.725-5.33 2.805-6.911 3.66l-1.81.912c-.413.21-.627.294-.627.294s.185-.126.584-.351l1.781-.981c1.554-.884 3.933-2.02 6.84-3.772 8.305-4.767 16.292-10.05 23.911-15.819 11.294-8.532 21.786-18.046 31.35-28.425 5.646-6.129 10.936-12.567 15.845-19.283 5.25-7.224 9.987-14.796 14.179-22.661 4.126-7.899 7.627-16.099 10.473-24.527 1.425-4.053 2.608-8.134 3.791-12.103.513-2.005 1.026-3.996 1.539-5.959.513-1.964.969-3.913 1.425-5.848 1.781-7.713 2.85-15.16 3.833-22.129.983-6.97 1.425-13.533 1.639-19.507.456-9.446.333-18.91-.371-28.341-.157-3.338-.556-5.918-.684-7.671-.085-.855-.142-1.528-.185-2.005s-.014-.687-.014-.687z"/><path d="m464.034 176.358s.143.127.385.421l1.083 1.262c.912 1.136 2.38 2.735 4.047 4.979 4.808 6.22 9.142 12.782 12.967 19.632 2.465 4.32 4.845 9.214 7.225 14.543 2.463 5.705 4.608 11.538 6.426 17.473 2.022 6.558 3.612 13.238 4.76 19.997 1.261 7.256 2.004 14.589 2.223 21.947.193 7.353-.078 14.711-.812 22.031-.782 6.814-1.981 13.577-3.591 20.249-4.668 18.908-12.884 36.791-24.225 52.728-1.567 2.3-2.964 3.955-3.833 5.133l-1.04 1.304c-.109.153-.228.298-.357.435.079-.171.18-.331.3-.477l.969-1.402c.826-1.192 2.194-2.875 3.719-5.203 4.462-6.442 8.448-13.19 11.927-20.194 5.176-10.382 9.161-21.298 11.884-32.548 1.577-6.623 2.748-13.334 3.506-20.096.729-7.292.996-14.621.798-21.946-.221-7.321-.963-14.617-2.223-21.835-1.125-6.735-2.691-13.391-4.689-19.927-1.792-5.917-3.904-11.736-6.326-17.431-2.366-5.315-4.703-10.209-7.125-14.528-3.768-6.857-8.02-13.446-12.725-19.717-1.625-2.258-3.05-3.885-3.933-5.049l-1.026-1.318c-.119-.144-.224-.299-.314-.463z"/><path d="m403.459 503.104-.769.182-2.252.463c-1.981.392-4.916 1.024-8.706 1.641-10.717 1.842-21.523 3.138-32.376 3.884-16.097 1.139-32.257 1.107-48.349-.098-9.077-.673-18.596-1.711-28.371-3.31-10.104-1.599-20.116-3.715-29.996-6.338-19.146-5.036-37.356-13.036-53.949-23.7-7.224-4.644-14.175-9.686-20.819-15.103-6.284-4.964-11.842-10.083-16.843-14.781-9.975-9.423-17.328-17.613-22.387-23.335-2.522-2.804-4.431-5.118-5.699-6.661l-1.425-1.753-.471-.603.542.561 1.51 1.711c1.325 1.501 3.278 3.73 5.843 6.563 5.101 5.609 12.596 13.785 22.514 23.153 4.988 4.669 10.545 9.676 16.829 14.682 6.65 5.374 13.595 10.383 20.805 15.005 7.977 5.08 16.327 9.57 24.979 13.435 9.306 4.135 18.937 7.522 28.799 10.125 9.857 2.618 19.845 4.734 29.924 6.338 9.762 1.599 19.252 2.651 28.315 3.338 16.06 1.228 32.19 1.312 48.263.252 13.723-.883 24.766-2.426 32.347-3.646 3.805-.575 6.74-1.15 8.735-1.5l2.266-.393z"/><path d="m324.658 479.432c-6.487.336-12.989.256-19.465-.238l-4.717-.365c-1.639-.126-3.32-.378-5.087-.589-3.52-.364-7.239-1.051-11.158-1.711-17.01-3.135-33.488-8.611-48.947-16.267-3.52-1.809-6.911-3.492-9.975-5.301-1.525-.883-3.021-1.696-4.418-2.566l-3.961-2.524c-5.476-3.464-10.712-7.282-15.675-11.429l.285.182.827.575 3.106 2.272 2.223 1.669c.827.589 1.753 1.192 2.736 1.865 1.967 1.318 4.147 2.903 6.726 4.431l3.976 2.482c1.425.856 2.85 1.641 4.417 2.525 3.035 1.781 6.413 3.421 9.975 5.216 15.441 7.544 31.849 12.998 48.777 16.211 3.904.674 7.609 1.403 11.114 1.767 1.753.225 3.435.491 5.059.631l4.703.421c2.978.309 5.699.351 8.079.477 1.197 0 2.294.126 3.32.154h2.85 3.876 1.012z"/><path d="m276.123 442.27s-.428 0-1.24-.168l-3.534-.631-2.55-.463c-.927-.196-1.924-.449-3.007-.701-2.138-.547-4.617-1.052-7.267-1.907l-4.19-1.262c-1.425-.449-2.935-1.024-4.474-1.571-3.121-1.038-6.327-2.44-9.719-3.856-14.653-6.458-28.158-15.189-39.998-25.859-2.665-2.511-5.244-4.839-7.453-7.237-1.112-1.192-2.252-2.285-3.235-3.421l-2.85-3.282c-1.866-2.061-3.32-4.095-4.674-5.819-.669-.87-1.311-1.669-1.852-2.427l-1.425-2.131-1.952-2.903c-.247-.33-.461-.682-.641-1.052.279.309.537.637.769.982l2.095 2.805 1.496 2.075c.57.743 1.225 1.529 1.895 2.384 1.425 1.697 2.85 3.702 4.745 5.736l2.85 3.239c.998 1.122 2.123 2.202 3.249 3.38 2.209 2.37 4.802 4.684 7.481 7.166 11.833 10.56 25.265 19.242 39.814 25.733 3.377 1.402 6.555 2.804 9.647 3.912 1.539.547 2.992 1.136 4.446 1.599l4.147 1.29c2.636.897 5.101 1.402 7.224 2.005 1.069.281 2.066.561 2.993.772l2.522.532 3.505.744c.404.075.8.188 1.183.336z"/><path d="m330.999 543.211c-.149.038-.302.062-.456.07l-1.425.112-5.201.421-3.762.266c-1.425 0-2.85.084-4.489.126-3.22 0-6.897.239-10.958 0l-6.355-.182c-2.223-.07-4.517-.322-6.897-.491-4.759-.266-9.818-.981-15.133-1.654-23.087-3.313-45.532-10.041-66.575-19.956-4.802-2.37-9.405-4.543-13.509-6.927-2.066-1.178-4.118-2.23-5.999-3.38l-5.386-3.337c-3.477-2.062-6.412-4.207-9.063-6.045-1.311-.925-2.551-1.753-3.662-2.566l-2.964-2.3-4.09-3.197-1.054-.841c-.228-.197-.356-.295-.342-.309s.142 0 .385.252l1.097.786 4.175 3.085 3.007 2.244c1.111.799 2.365 1.598 3.69 2.51 2.665 1.767 5.615 3.912 9.106 5.932l5.401 3.295c1.88 1.136 3.918 2.174 5.999 3.338 4.104 2.356 8.706 4.515 13.494 6.857 21.023 9.832 43.402 16.565 66.418 19.984 5.301.687 10.331 1.402 15.09 1.71 2.366.183 4.66.449 6.869.533l6.341.225c4.047.238 7.709 0 10.929 0h4.489l3.762-.225 5.215-.266h1.425z"/><path d="m126.53 213.857c-.071.196-13.609-4.74-30.238-11.022-16.6294-6.283-30.0526-11.528-29.9244-11.71.1283-.182 13.6085 4.754 30.2521 11.022 16.6433 6.269 29.9813 11.528 29.9103 11.71z"/><path d="m182.103 170.651s-.085.126-.284.35l-.898.982c-.77.883-2.024 2.075-3.434 3.8-4.113 4.72-7.807 9.778-11.044 15.117-4.75 7.932-8.642 16.331-11.613 25.06-3.61 10.726-6.093 21.787-7.41 33.011-1.068 8.587-1.425 17.244-1.069 25.888v.378h-.371l-44.701-.14-12.9243-.154h-3.4485l-.8264-.084c-.0994.012-.1999.012-.2993 0h.2993.8977 3.4484l12.9391-.113 44.701-.126-.356.379c-.376-8.652-.028-17.32 1.04-25.916 1.327-11.272 3.844-22.378 7.51-33.137 3.003-8.785 6.963-17.225 11.813-25.172 3.287-5.34 7.06-10.377 11.271-15.047 1.425-1.697 2.736-2.805 3.548-3.702l.941-.94c.142-.336.256-.448.27-.434z"/><path d="m214.707 385.027c-.339.532-.731 1.03-1.169 1.486-.798.926-1.966 2.23-3.448 3.829-2.95 3.197-7.125 7.516-11.984 12.088s-9.405 8.512-12.825 11.219c-1.695 1.402-3.078 2.482-4.047 3.225-.477.417-.998.783-1.553 1.094.429-.486.906-.928 1.425-1.318l3.876-3.394c3.277-2.875 7.78-6.871 12.611-11.429s9.063-8.807 12.112-11.906l3.62-3.674c.416-.453.88-.862 1.382-1.22z"/><path d="m202.424 435.217c.171.098-8.065 13.406-18.396 29.715s-18.853 29.449-19.024 29.351 8.066-13.42 18.397-29.73c10.331-16.309 18.852-29.449 19.023-29.336z"/><path d="m271.264 444.92c-.183.72-.426 1.423-.726 2.104-.556 1.472-1.297 3.38-2.181 5.679-1.852 4.796-4.374 11.415-7.025 18.778-2.65 7.362-4.944 14.023-6.569 18.945l-1.938 5.764c-.202.719-.469 1.418-.798 2.09.116-.737.288-1.463.513-2.174.385-1.402.969-3.38 1.724-5.834 1.425-4.908 3.705-11.653 6.37-19.03 2.665-7.376 5.258-14.023 7.239-18.721.983-2.384 1.81-4.291 2.408-5.609.265-.692.594-1.359.983-1.992z"/><path d="m397.189 504.31c-.114-.188-.2-.391-.257-.603-.156-.491-.356-1.08-.598-1.781l-2.081-6.605c-1.71-5.61-4.047-13.294-6.569-21.835-2.522-8.54-4.773-16.323-6.369-21.932-.756-2.735-1.425-4.979-1.853-6.661l-.413-1.753c-.054-.212-.092-.428-.114-.645 0 0 .114.196.271.603.156.406.356 1.079.598 1.781.527 1.668 1.226 3.898 2.066 6.605 1.725 5.609 4.062 13.294 6.584 21.834s4.773 16.281 6.369 21.905c.756 2.72 1.425 4.964 1.839 6.661l.47 1.823c.049.197.068.4.057.603z"/><path d="m411.724 455.466c-.2 0-4.404-10.321-9.391-23.222-4.987-12.902-8.892-23.419-8.707-23.489.186-.071 4.404 10.321 9.391 23.222 4.987 12.902 8.892 23.419 8.707 23.489z"/><path d="m514.179 407.184c-.682-.228-1.345-.509-1.981-.842-1.254-.575-3.049-1.402-5.229-2.594-4.389-2.258-10.346-5.609-16.644-9.676s-11.742-8.204-15.561-11.289c-1.923-1.543-3.448-2.805-4.474-3.73-.567-.412-1.087-.882-1.553-1.403.611.372 1.192.79 1.738 1.248l4.617 3.534c3.905 2.973 9.362 7.012 15.675 11.079 6.312 4.067 12.169 7.46 16.472 9.816l5.116 2.805c.64.295 1.25.647 1.824 1.052z"/><path d="m580.412 353.488c0 .197-14.735-3.211-32.775-7.6-18.04-4.39-32.674-8.12-32.617-8.316.057-.197 14.72 3.211 32.774 7.601 18.054 4.389 32.66 8.119 32.618 8.315z"/><path d="m563.383 273.934c0 .21-12.824.518-28.641.701-15.818.182-28.657.168-28.671 0-.014-.169 12.825-.519 28.656-.701 15.832-.183 28.656-.197 28.656 0z"/><path d="m527.816 236.631c0 .196-27.83.841-62.172 1.402-34.341.561-62.185.912-62.185.715 0-.196 27.829-.841 62.185-1.402s62.172-.911 62.172-.715z"/><path d="m578.46 187.773c-.193.115-.399.21-.613.28l-1.81.645-6.64 2.328c-5.615 1.964-13.352 4.712-21.831 7.91-8.478 3.197-16.116 6.24-21.617 8.414l-6.526 2.636-1.781.701c-.204.093-.42.159-.641.197 0 0 .185-.141.584-.337l1.724-.813c1.511-.702 3.705-1.683 6.441-2.805 5.458-2.356 13.053-5.469 21.546-8.681 8.492-3.211 16.273-5.875 21.93-7.712 2.85-.912 5.13-1.627 6.726-2.104l1.838-.519c.215-.079.44-.127.67-.14z"/><path d="m469.292 134.428c.129.154-8.136 7.531-18.453 16.478s-18.81 16.085-18.938 15.93c-.128-.154 8.123-7.53 18.439-16.477 10.317-8.947 18.81-16.085 18.952-15.931z"/><path d="m482.388 57.2293c.171.1262-8.179 11.9339-18.639 26.3921-10.459 14.4581-19.08 26.0696-19.251 25.9576s8.179-11.9342 18.653-26.3923c10.473-14.4582 19.066-26.0696 19.237-25.9574z"/><path d="m323.603 74.4783c-.04-.2274-.04-.4598 0-.6872 0-.5329 0-1.1779.071-1.9633.086-1.823.186-4.207.328-7.236.242-6.1142.428-14.5563.228-23.8398-.199-9.2835-.755-17.7677-1.268-23.8398l-.627-7.20807-.171-1.96327c-.037-.22756-.037-.45959 0-.68715.093.21331.146.44132.157.67312.085.51887.171 1.16395.299 1.94926.242 1.68281.541 4.20701.869 7.19401.641 6.0862 1.283 14.5423 1.425 23.8398.143 9.2975-.071 17.8097-.456 23.9239-.185 3.0571-.37 5.5253-.556 7.2361l-.213 1.9633c-.009.2171-.038.433-.086.6451z"/><path d="m253.053 136.826c-.436-.454-.823-.953-1.154-1.486-.698-.982-1.667-2.412-2.85-4.207-2.351-3.59-5.472-8.653-8.678-14.374-3.206-5.722-5.871-11.037-7.695-14.921-.912-1.9354-1.639-3.5201-2.095-4.6279-.278-.5578-.502-1.14-.669-1.7389.362.5109.672 1.0557.926 1.6267l2.308 4.5151c1.953 3.829 4.688 9.074 7.88 14.795 3.192 5.722 6.242 10.798 8.55 14.458l2.636 4.334c.333.514.614 1.059.841 1.626z"/><path d="m423.508 220.322c-.011-.159-.011-.318 0-.477v-1.402c0-1.206 0-2.903-.071-5.063 0-4.403-.086-10.686-.157-18.385l.285.281-48.535.084c-.327.337.456-.435.371-.351v13.028 12.215l-.356-.351 34.797.168 10.075.098h2.693.969c-.294.02-.589.02-.883 0h-2.636l-9.975.085-35.026.168h-.342v-.337c0-3.898 0-7.993 0-12.214 0-2.118 0-4.207 0-6.437v-6.591c-.086.07.698-.701.37-.378l48.535.098h.285v.266c0 7.769-.114 14.108-.157 18.553 0 2.132 0 3.8-.071 5.006v1.291c-.026.221-.084.439-.171.645z"/><path d="m414.973 203.872c0 .197-7.538.365-16.844.365-9.305 0-16.828-.168-16.828-.365 0-.196 7.538-.364 16.828-.364 9.291 0 16.844.168 16.844.364z"/><path d="m414.973 209.313c0 .197-7.538.365-16.844.365-9.305 0-16.828-.168-16.828-.365 0-.196 7.538-.364 16.828-.364 9.291 0 16.844.168 16.844.364z"/><path d="m403.458 219.761c.366 2.257.49 4.546.371 6.829.118 2.278-.006 4.563-.371 6.816-.364-2.253-.489-4.538-.37-6.816-.119-2.283.005-4.572.37-6.829z"/><path d="m600.674 330.952s0-.168 0-.477c0-.308 0-.785 0-1.402 0-1.206 0-2.903-.071-5.062 0-4.404-.085-10.672-.142-18.385l.27.28-48.449.085c-.342.336.442-.435.371-.351v3.295 3.296 6.437 12.214l-.342-.35 34.783.168 10.075.098h2.707.955c-.289.02-.58.02-.869 0h-2.636l-9.975.084-35.026.168h-.356v-.098c0-3.898 0-7.993 0-12.214v-13.028c-.086 0 .698-.701.37-.379l48.449.099h.285v.28c0 7.783-.114 14.108-.156 18.553v5.006 1.291c-.059.143-.141.275-.243.392z"/><path d="m592.139 314.503c0 .196-7.538.364-16.829.364-9.29 0-16.843-.168-16.843-.364 0-.197 7.538-.365 16.843-.365s16.829.168 16.829.365z"/><path d="m592.139 319.944c0 .21-7.538.365-16.829.365-9.29 0-16.843-.155-16.843-.365s7.538-.364 16.843-.364 16.829.154 16.829.364z"/></g><path d="m611.561 93.0591h-48.534v25.2559h48.534z" fill="#fff"/><path d="m611.562 118.315s0-.168 0-.477c0-.308 0-.785 0-1.402 0-1.22 0-2.917-.072-5.062 0-4.418-.085-10.686-.142-18.385l.271.2664-48.521.0982c-.342.3225.442-.4488.371-.3646v6.591 6.437 12.214l-.342-.336 34.783.168 10.075.084h2.707.955c-.289.02-.58.02-.869 0h-2.636l-9.975.098-35.026.168h-.356v-.35c0-3.899 0-7.979 0-12.215v-12.7749l.37-.3646 48.521.0841h.285v.2805c0 7.7689-.114 14.0239-.143 18.5529v5.006 1.277c-.061.149-.148.286-.256.406z" fill="#d80202"/><path d="m603.04 101.88c0 .196-7.552.364-16.843.364s-16.843-.168-16.843-.364c0-.197 7.538-.365 16.843-.365s16.843.154 16.843.365z" fill="#d80202"/><path d="m603.04 107.321c0 .196-7.552.365-16.843.365s-16.843-.169-16.843-.365 7.538-.364 16.843-.364 16.843.154 16.843.364z" fill="#d80202"/><path d="m578.217 118.203c.213 0 .37 14.921.37 33.306 0 18.384-.157 33.319-.37 33.319-.214 0-.37-14.921-.37-33.319 0-18.399.171-33.306.37-33.306z" fill="#d80202"/><path d="m48.8546 183.707c-.0201-.158-.0201-.319 0-.477v-1.332c0-1.22 0-2.917 0-5.077 0-4.403-.0855-10.671-.1425-18.37l.285.266-48.534545.098.370493-.364v6.591 6.436 12.215l-.341992-.337 34.783544.169 10.0745.084h2.7075.969c-.2942.019-.5893.019-.8835 0h-2.6362l-9.9748.098-35.025794.168h-.49874078v-.168c0-3.899 0-7.98 0-12.215v-13.027c-.08549822.07.69823578-.701.37049278-.365l48.534542.084h.2707v.281c0 7.769-.114 14.093-.1425 18.553v5.006 1.276c0 .337-.1852.407-.1852.407z" fill="#d80202"/><path d="m40.3192 167.229c0 .211-7.5381.365-16.8432.365s-16.82891-.154-16.82891-.365c0-.21 7.52381-.364 16.82891-.364s16.8432.168 16.8432.364z" fill="#d80202"/><path d="m40.3192 172.684c0 .197-7.5381.365-16.8432.365s-16.82891-.168-16.82891-.365c0-.196 7.52381-.364 16.82891-.364s16.8432.168 16.8432.364z" fill="#d80202"/><path d="m136.134 450.796h-48.5341v25.256h48.5341z" fill="#fff"/><path d="m136.134 476.053c-.02-.159-.02-.319 0-.477v-1.332c0-1.22 0-2.917 0-5.077 0-4.403-.085-10.672-.156-18.37l.285.266-48.5348.098.3705-.364v13.027 12.215l-.342-.337 34.7973.168 10.061.085h2.707.969c-.294.019-.589.019-.883 0h-2.636l-9.975.098-35.0261.168h-.3419v-.351c0-3.898 0-7.979 0-12.214v-13.028l.3705-.364 48.5345.084h.285v.28c0 7.769-.114 14.094-.143 18.539 0 2.132 0 3.815-.071 5.021v1.276c-.058.209-.149.408-.271.589z" fill="#d80202"/><path d="m127.599 459.603c0 .21-7.538.365-16.844.365-9.305 0-16.8284-.155-16.8284-.365s7.5384-.364 16.8284-.364c9.291 0 16.844.168 16.844.364z" fill="#d80202"/><path d="m127.599 465.058c0 .197-7.538.365-16.844.365-9.305 0-16.8284-.168-16.8284-.365 0-.196 7.5384-.364 16.8284-.364 9.291 0 16.844.154 16.844.364z" fill="#d80202"/><path d="m426.315 28.3271s0-.1823 0-.4767c0-.2945 0-.7994 0-1.4024 0-1.22 0-2.9169-.071-5.0624 0-4.4174-.086-10.6859-.143-18.38473l.271.28047-48.52.08414c-.342.32254.442-.44875.356-.36461v13.02773 12.2144l-.356-.3506 34.798.1683 10.074.0982h2.708.954s-.285 0-.883 0h-2.622l-9.975.0981-35.026.1683h-.342v-.0982c0-3.9125 0-7.9933 0-12.2143v-6.43679c0-1.09382 0-2.18765 0-3.2955v-3.2955c-.071.08414.713-.68715.385-.36461l48.52.08414h.285v.26644c-.071 7.76902-.114 14.10752-.156 18.55302 0 2.1315 0 3.8003-.072 5.0063v1.2902c-.039.1444-.101.2817-.185.4066z" fill="#d80202"/><path d="m417.78 11.8777c0 .1963-7.539.3646-16.829.3646-9.291 0-16.843-.1683-16.843-.3646s7.538-.3645 16.843-.3645 16.829.1542 16.829.3645z" fill="#d80202"/><path d="m417.78 17.3191c0 .1963-7.539.3646-16.829.3646-9.291 0-16.843-.1683-16.843-.3646s7.538-.3645 16.843-.3645 16.829.1682 16.829.3645z" fill="#d80202"/><path d="m60.1973 189.316c-.5478.115-1.1073.166-1.6672.154l-4.5457.113c-3.8474 0-9.1483.098-15.0049.098-6.1417 0-11.6705 0-15.5037-.112h-.2565v-.253c0-1.627.0855-3.015.114-4.137-.0117-.504.0361-1.007.1425-1.5.1159.491.1638.996.1425 1.5 0 1.122 0 2.51.114 4.137l-.2565-.238c3.8332-.07 9.362-.126 15.5037-.126 5.8566 0 11.1575 0 15.0049.112l4.5457.112c.5592-.011 1.118.036 1.6672.14z" fill="#d80202"/><path d="m381.4 106.087c.03-.274.097-.543.2-.8.171-.575.399-1.318.684-2.215l2.536-8.1619c2.095-6.8855 4.817-16.4775 7.296-27.1774 1.197-5.1606 2.237-10.1108 3.121-14.6264-.143-7.222-.271-13.4064-.357-17.8939 0-2.1175 0-3.8424 0-5.1325-.034-.6086-.011-1.219.072-1.8231.092.6037.144 1.2127.156 1.8231 0 1.2901.143 3.001.228 5.1185.157 4.4875.371 10.6718.627 17.8939-.84 4.5296-1.866 9.4938-3.063 14.6545-2.494 10.7279-5.287 20.3199-7.524 27.1773-1.112 3.4358-2.081 6.1979-2.764 8.0919l-.813 2.187c-.091.311-.225.609-.399.884z" fill="#d80202"/><path d="m179.738 465.058c0 .197-9.205.365-20.548.365s-20.562-.168-20.562-.365c0-.196 9.205-.364 20.562-.364s20.548.154 20.548.364z" fill="#d80202"/><path d="m594.035 522.554c1.225-4.207 3.847-8.217 7.894-9.942s9.12-.772 13.438.771c4.317 1.542 8.549 3.618 13.152 3.898 4.603.281 9.761-1.865 11.129-6.184 1.297-4.053-1.183-8.414-4.275-11.331-3.288-3.114-7.319-5.364-11.723-6.542-4.403-1.178-9.037-1.246-13.475-.199-4.437 1.048-8.535 3.178-11.916 6.194s-5.936 6.821-7.43 11.065" fill="#d80202"/><path d="m594.035 522.554c1.225-4.207 3.847-8.217 7.894-9.942s9.12-.772 13.438.771c4.317 1.542 8.549 3.618 13.152 3.898 4.603.281 9.761-1.865 11.129-6.184 1.297-4.053-1.183-8.414-4.275-11.331-3.288-3.114-7.319-5.364-11.723-6.542-4.403-1.178-9.037-1.246-13.475-.199-4.437 1.048-8.535 3.178-11.916 6.194s-5.936 6.821-7.43 11.065" fill="#212121" opacity=".5"/><path d="m557.684 540.686c-6.726-6.296-6.398-17.249-3.035-25.761 3.362-8.512 10.687-15.061 18.866-19.366 7.988-4.12 16.819-6.41 25.833-6.699s17.978 1.43 26.221 5.03c-4.03.181-7.954 1.329-11.431 3.343s-6.401 4.833-8.518 8.212c-3.677 6.03-4.503 13.337-7.553 19.703-3.435 7.178-9.533 12.788-17.042 15.677-7.508 2.89-15.855 2.84-23.327-.139" fill="#d80202"/><path d="m554.449 502.879c-7.453-8.652-8.45-22.549-7.353-33.838s3.762-22.662 1.952-33.867c-1.068-6.633-3.69-12.971-4.574-19.632-.883-6.662.371-14.192 5.614-18.497 6.028-4.951 15.533-3.787 21.803.855 6.269 4.642 9.974 11.948 12.568 19.212 5.842 15.973 7.98 33.656 3.192 49.98-4.788 16.323-16.045 30.851-32.561 35.801" fill="#d80202"/><path d="m550.872 573.908c-.031-.331-.031-.665 0-.996 0-.659 0-1.626 0-2.804.086-2.483.342-6.073.898-10.49.66-5.167 1.612-10.293 2.85-15.356 1.545-6.213 3.942-12.19 7.125-17.767 5.806-10.147 13.97-18.797 23.825-25.242 1.867-1.277 3.663-2.23 5.216-3.128 1.553-.897 2.978-1.486 4.104-2.033l2.693-1.108c.304-.139.619-.256.94-.35-.281.186-.582.341-.897.462l-2.622 1.206c-1.126.575-2.494 1.276-4.047 2.118-1.553.841-3.306 1.907-5.144 3.183-9.707 6.53-17.761 15.166-23.541 25.242-6.84 11.794-8.721 24.191-10.089 32.885-.612 4.39-.926 7.966-1.083 10.448l-.171 2.804c.003.31-.017.619-.057.926z" fill="#212121"/><path d="m486.592 468.733c-13.78 8.189-13.737 15.636-11.4 22.676 2.337 7.039 10.773 11.919 17.784 9.283 3.961-1.486 6.839-4.88 9.29-8.288 2.451-3.407 4.76-7.012 8.194-9.508s8.436-3.379 11.884-.953" fill="#d80202"/><path d="m486.592 468.733c-13.78 8.189-13.737 15.636-11.4 22.676 2.337 7.039 10.773 11.919 17.784 9.283 3.961-1.486 6.839-4.88 9.29-8.288 2.451-3.407 4.76-7.012 8.194-9.508s8.436-3.379 11.884-.953" fill="#212121" opacity=".5"/><path d="m476.275 477.708c3.605-4.895 12.511-6.325 18.14-3.871 5.628 2.454 9.732 7.292 13.423 12.13s7.282 9.957 12.383 13.337c5.101 3.379 12.241 4.585 17.328 1.192 1.625-1.191 2.986-2.696 4.001-4.423 1.014-1.726 1.66-3.638 1.898-5.618.442-3.957.167-7.96-.812-11.822-1.226-5.693-3.206-11.639-7.838-15.257-5.158-4.025-12.311-4.207-18.895-3.997-7.552.238-15.218.799-22.3 3.366-7.083 2.566-14.321 8.147-17.328 14.963z" fill="#d80202"/><path d="m539.416 563.04c-.018-.097-.018-.197 0-.295 0-.238 0-.518 0-.869 0-.827-.071-1.949-.128-3.38-.086-2.973-.2-7.194-.357-12.382-.156-5.189-.384-11.443-.769-18.357s-.912-14.486-1.967-22.437c-.453-3.846-1.221-7.649-2.294-11.373-2.098-6.57-5.328-12.737-9.547-18.231-1.768-2.245-3.717-4.345-5.828-6.282-3.077-2.793-6.553-5.127-10.317-6.928-.67-.294-1.254-.603-1.781-.813l-1.354-.505-.827-.337c-.185-.07-.27-.112-.27-.126l.285.07.855.267 1.425.462c.541.197 1.14.477 1.824.772 3.838 1.731 7.384 4.029 10.516 6.815 2.14 1.943 4.123 4.048 5.928 6.297 2.004 2.645 3.773 5.455 5.286 8.4 1.739 3.204 3.171 6.56 4.275 10.026 1.088 3.755 1.86 7.592 2.309 11.471 1.069 7.924 1.582 15.524 1.938 22.438.356 6.913.527 13.14.641 18.371.114 5.23.143 9.465.157 12.396v3.366.883z" fill="#212121"/><path d="m544.346 569.168c-.655-1.899-1.16-3.845-1.51-5.82-.958-5.402-1.169-10.907-.627-16.365.837-8.087 2.596-16.056 5.243-23.756 2.85-8.736 6.669-18.062 9.975-28.047 1.618-4.872 2.936-9.836 3.947-14.864.919-4.687 1.576-9.42 1.967-14.178.621-8.072.768-16.172.442-24.261-.243-6.913-.613-12.495-.855-16.365-.114-1.893-.2-3.394-.257-4.445 0-.477 0-.87 0-1.164-.019-.131-.019-.263 0-.393.014.131.014.262 0 .393 0 .294.071.673.114 1.15.1 1.065.228 2.552.385 4.445.313 3.856.741 9.438 1.04 16.365.404 8.104.299 16.225-.313 24.317-.376 4.78-1.018 9.537-1.924 14.248-1.015 5.052-2.338 10.039-3.961 14.935-3.292 10.068-7.125 19.394-9.975 28.046-2.655 7.657-4.452 15.575-5.358 23.616-.574 5.427-.43 10.904.427 16.295.342 1.893.656 3.366.927 4.347l.285 1.136c.023.12.033.243.028.365z" fill="#212121"/><path d="m578.545 575.31h-64.736l-1.482-12.27h66.218z" fill="#455a64"/><path d="m520.763 573.908 8.093 36.784h35.169l7.581-36.784z" fill="#455a64"/><path d="m578.545 575.311c0 .169-14.25.253-31.791.211s-31.791-.225-31.791-.393c0-.169 14.25-.267 31.791-.211s31.791.225 31.791.393z" fill="#455a64"/><path d="m567.445 593.456c-1.762-1.293-3.675-2.371-5.7-3.211-2.214-.859-4.562-1.333-6.94-1.402-2.921.006-5.817.528-8.55 1.542-2.949.982-5.7 2.132-8.393 2.805-2.385.497-4.842.568-7.253.21-1.621-.212-3.195-.686-4.66-1.402-.39-.202-.762-.436-1.111-.701-.257-.183-.371-.281-.356-.295.014-.014.556.309 1.581.786 1.47.633 3.025 1.053 4.617 1.248 2.354.289 4.74.175 7.054-.337 2.593-.645 5.358-1.795 8.322-2.805 2.791-1.034 5.753-1.547 8.735-1.514 2.452.061 4.869.58 7.125 1.528 1.527.614 2.965 1.425 4.275 2.412.353.266.691.552 1.011.856.143.154.257.266.243.28z" fill="#212121"/><path d="m566.946 595.994c-1.69-1.268-3.527-2.337-5.472-3.183-2.12-.871-4.386-1.347-6.683-1.402-2.812-.01-5.604.464-8.25 1.402-2.85.94-5.529 2.02-8.08 2.707-2.262.639-4.619.895-6.968.757-1.591-.087-3.148-.493-4.574-1.192-.379-.2-.741-.43-1.083-.687-.228-.169-.356-.267-.342-.281s.541.295 1.539.744c1.421.601 2.943.939 4.488.995 2.295.068 4.586-.231 6.783-.883 2.508-.687 5.159-1.795 8.051-2.735 2.707-.971 5.57-1.446 8.45-1.402 2.358.069 4.68.583 6.84 1.514 1.451.625 2.812 1.436 4.047 2.412.333.259.652.536.955.828.218.196.318.332.299.406z" fill="#fff"/><path d="m568.086 591.016c-1.826-1.33-3.789-2.467-5.857-3.393-2.261-.953-4.67-1.522-7.124-1.683-3.004-.057-5.99.462-8.792 1.528-2.835 1.1-5.733 2.037-8.679 2.805-2.48.422-5.015.422-7.495 0-1.674-.256-3.298-.762-4.816-1.5-.403-.204-.789-.438-1.155-.702-.256-.196-.384-.294-.37-.308s.57.323 1.639.799c1.523.644 3.129 1.078 4.773 1.29 2.428.349 4.898.302 7.31-.14 2.899-.784 5.753-1.72 8.55-2.804 2.878-1.094 5.951-1.604 9.035-1.501 4.206.326 8.224 1.856 11.556 4.403.366.272.714.567 1.04.884.285.196.399.308.385.322z" fill="#fff"/><path d="m579.129 575.353c0 .168-14.563.308-32.532.308s-32.517-.14-32.517-.308c0-.169 14.563-.295 32.517-.295 17.955 0 32.532.126 32.532.295z" fill="#212121"/></g></svg>