<svg width="25" height="24" viewBox="0 0 25 24" fill="none" xmlns="http://www.w3.org/2000/svg">
<path fill-rule="evenodd" clip-rule="evenodd" d="M22.6746 10.579L13.7716 8.81055V10.2151L22.397 11.9182C22.528 11.9475 22.6241 12.0702 22.6241 12.2076V22.2404C22.6241 22.4046 22.4885 22.5354 22.329 22.5354H13.7716V23.224C13.7716 23.3907 13.6433 23.519 13.4766 23.519V23.9125H22.329C23.2541 23.9125 24.0012 23.1654 24.0012 22.2404V12.2076C24.0012 11.4163 23.464 10.7458 22.6746 10.579Z" fill="#212121"/>
<path d="M19.377 13.8794C19.6524 13.8794 19.8688 14.0958 19.8688 14.3712C19.8688 14.6466 19.6524 14.863 19.377 14.863H17.4098C17.1344 14.863 16.918 14.6466 16.918 14.3712C16.918 14.0958 17.1344 13.8794 17.4098 13.8794H19.377Z" fill="#504EF3"/>
<path d="M19.377 16.8301C19.6524 16.8301 19.8688 17.0465 19.8688 17.3219C19.8688 17.5973 19.6524 17.8137 19.377 17.8137H17.4098C17.1344 17.8137 16.918 17.5973 16.918 17.3219C16.918 17.0465 17.1344 16.8301 17.4098 16.8301H19.377Z" fill="#504EF3"/>
<path d="M19.377 19.7812C19.6524 19.7812 19.8688 19.9976 19.8688 20.2731C19.8688 20.5485 19.6524 20.7649 19.377 20.7649H17.4098C17.1344 20.7649 16.918 20.5485 16.918 20.2731C16.918 19.9976 17.1344 19.7812 17.4098 19.7812H19.377Z" fill="#504EF3"/>
<path fill-rule="evenodd" clip-rule="evenodd" d="M13.6126 8.77819C13.4052 8.73672 13.2015 8.79309 13.0428 8.91207L13.0354 8.91764L13.0286 8.92388C12.8846 9.05472 12.7871 9.24332 12.7871 9.45305V23.2235C12.7871 23.6076 13.0916 23.9121 13.4756 23.9121C13.8597 23.9121 14.1642 23.6076 14.1642 23.2235V8.8885L13.6126 8.77819Z" fill="#212121"/>
<path d="M12.9836 22.7319V23.2237C12.9836 23.4991 13.2 23.7155 13.4754 23.7155H9.54102C9.81643 23.7155 10.0328 23.4991 10.0328 23.2237V22.7319H12.9836Z" fill="#212121" stroke="#212121" stroke-width="0.4"/>
<path d="M10.5254 5.02686C10.8008 5.02686 11.0172 5.24325 11.0172 5.51866C11.0172 5.79407 10.8008 6.01046 10.5254 6.01046H8.55821C8.2828 6.01046 8.06641 5.79407 8.06641 5.51866C8.06641 5.24325 8.2828 5.02686 8.55821 5.02686H10.5254Z" fill="#504EF3"/>
<path d="M11.0172 8.46983C11.0172 8.74524 10.8008 8.96163 10.5254 8.96163H8.55821C8.2828 8.96163 8.06641 8.74524 8.06641 8.46983C8.06641 8.19442 8.2828 7.97803 8.55821 7.97803H10.5254C10.8008 7.97803 11.0172 8.19442 11.0172 8.46983Z" fill="#504EF3"/>
<path d="M10.5254 10.9287C10.8008 10.9287 11.0172 11.1451 11.0172 11.4205C11.0172 11.6959 10.8008 11.9123 10.5254 11.9123H8.55821C8.2828 11.9123 8.06641 11.6959 8.06641 11.4205C8.06641 11.1451 8.2828 10.9287 8.55821 10.9287H10.5254Z" fill="#504EF3"/>
<path d="M10.5254 13.8794C10.8008 13.8794 11.0172 14.0958 11.0172 14.3712C11.0172 14.6466 10.8008 14.863 10.5254 14.863H8.55821C8.2828 14.863 8.06641 14.6466 8.06641 14.3712C8.06641 14.0958 8.2828 13.8794 8.55821 13.8794H10.5254Z" fill="#504EF3"/>
<path d="M6.09926 14.3712C6.09926 14.6466 5.88286 14.863 5.60745 14.863H3.64024C3.36483 14.863 3.14844 14.6466 3.14844 14.3712C3.14844 14.0958 3.36483 13.8794 3.64024 13.8794H5.60745C5.88286 13.8794 6.09926 14.0958 6.09926 14.3712Z" fill="#504EF3"/>
<path d="M5.60745 5.02686C5.88286 5.02686 6.09926 5.24325 6.09926 5.51866C6.09926 5.79407 5.88286 6.01046 5.60745 6.01046H3.64024C3.36483 6.01046 3.14844 5.79407 3.14844 5.51866C3.14844 5.24325 3.36483 5.02686 3.64024 5.02686H5.60745Z" fill="#504EF3"/>
<path d="M5.60745 7.97803C5.88286 7.97803 6.09926 8.19442 6.09926 8.46983C6.09926 8.74524 5.88286 8.96163 5.60745 8.96163H3.64024C3.36483 8.96163 3.14844 8.74524 3.14844 8.46983C3.14844 8.19442 3.36483 7.97803 3.64024 7.97803H5.60745Z" fill="#504EF3"/>
<path d="M5.60745 10.9287C5.88286 10.9287 6.09926 11.1451 6.09926 11.4205C6.09926 11.6959 5.88286 11.9123 5.60745 11.9123H3.64024C3.36483 11.9123 3.14844 11.6959 3.14844 11.4205C3.14844 11.1451 3.36483 10.9287 3.64024 10.9287H5.60745Z" fill="#504EF3"/>
<path fill-rule="evenodd" clip-rule="evenodd" d="M5.60705 16.6304C4.6802 16.6304 3.93164 17.3789 3.93164 18.3058V22.932H5.31525V18.3058C5.31525 18.1408 5.4421 18.014 5.60705 18.014H8.55787C8.7156 18.014 8.84967 18.1434 8.84967 18.3058V22.932H10.2333V18.3058C10.2333 17.3789 9.48472 16.6304 8.55787 16.6304H5.60705Z" fill="#212121"/>
<path fill-rule="evenodd" clip-rule="evenodd" d="M11.2316 22.5322H2.93164V23.224C2.93164 23.4374 3.04484 23.6154 3.20286 23.7334C3.36009 23.8509 3.568 23.9158 3.78997 23.9158H10.3733C10.5953 23.9158 10.8032 23.8509 10.9604 23.7334C11.1184 23.6154 11.2316 23.4374 11.2316 23.224V22.5322Z" fill="#212121"/>
<path fill-rule="evenodd" clip-rule="evenodd" d="M0.591663 0.489364C0.97037 0.166996 1.46052 0.03393 1.94824 0.111322L12.7598 1.75422C13.5722 1.88777 14.1639 2.57921 14.1639 3.40407V9.28993L13.5352 9.16419C13.4503 9.1472 13.362 9.16756 13.2862 9.22155C13.218 9.28661 13.1803 9.37061 13.1803 9.45325H12.7869V3.40407C12.7869 3.25438 12.6796 3.13054 12.5394 3.10653L1.71452 1.47147L1.70119 1.46702L1.70006 1.46692C1.69799 1.46674 1.69492 1.46658 1.69016 1.46648L1.67213 1.46637C1.60027 1.46637 1.53911 1.48934 1.48807 1.53471L1.48332 1.5388C1.40973 1.60012 1.37705 1.67281 1.37705 1.76145V22.2401C1.37705 22.4044 1.51264 22.5352 1.67213 22.5352H4.32787V23.2237C4.32787 23.3905 4.45619 23.5188 4.62295 23.5188V23.7155V23.9123H1.67213C0.747092 23.9123 0 23.1652 0 22.2401V1.76145C0 1.27293 0.210796 0.803696 0.591663 0.489364Z" fill="#212121"/>
</svg>
