<svg width="17" height="16" viewBox="0 0 17 16" fill="none" xmlns="http://www.w3.org/2000/svg">
<g clip-path="url(#clip0_4997_46388)">
<path d="M16.2241 13.2413H0.775874C0.623531 13.2413 0.5 13.1178 0.5 12.9654V3.03442C0.5 2.88208 0.623531 2.75854 0.775874 2.75854H16.2241C16.3765 2.75854 16.5 2.88208 16.5 3.03442V12.9654C16.5 13.1178 16.3764 13.2413 16.2241 13.2413Z" fill="#F5F5F5"/>
<path d="M12.9134 2.75879H4.08594V13.2416H12.9134V2.75879Z" fill="white"/>
<path d="M0.775874 2.75854C0.623531 2.75854 0.5 2.88204 0.5 3.03439V12.9654C0.5 13.1177 0.623531 13.2413 0.775874 13.2413H4.08621V2.75854H0.775874Z" fill="#FF4B55"/>
<path d="M16.2244 2.75854H12.9141V13.2413H16.2244C16.3767 13.2413 16.5003 13.1177 16.5003 12.9654V3.03439C16.5003 2.88204 16.3767 2.75854 16.2244 2.75854Z" fill="#FF4B55"/>
<path d="M10.1738 9.21127L11.8107 8.2759L11.4351 8.08809C11.3298 8.0354 11.2694 7.92165 11.285 7.80487L11.4073 6.88856L10.7142 7.09018C10.5611 7.13475 10.4023 7.04056 10.3678 6.8849L10.3014 6.5849L9.65073 7.34646C9.56051 7.45203 9.38866 7.3714 9.4122 7.23453L9.6901 5.61865L9.26463 5.73503C9.14035 5.76903 9.0091 5.71247 8.94851 5.59878L8.50048 4.75906V4.75781L8.50017 4.75844L8.49982 4.75781V4.75906L8.05179 5.59878C7.99114 5.71244 7.85989 5.769 7.7356 5.73503L7.31011 5.61865L7.58801 7.23453C7.61154 7.37134 7.43967 7.45199 7.34945 7.34646L6.69873 6.5849L6.63236 6.8849C6.59792 7.04059 6.43904 7.13471 6.28595 7.09018L5.59292 6.88856L5.71514 7.80487C5.73073 7.92162 5.67042 8.0354 5.56508 8.08809L5.18945 8.2759L6.82642 9.2113C6.99598 9.30821 7.07029 9.51371 7.00189 9.69662L6.86195 10.0709L8.2646 9.95115C8.34223 9.94452 8.40829 10.007 8.40601 10.0849L8.36182 11.5862H8.6377L8.59348 10.0848C8.5912 10.0069 8.65726 9.94446 8.73488 9.95108L10.1382 10.0709L9.99826 9.69662C9.92991 9.51368 10.0042 9.30815 10.1738 9.21127Z" fill="#FF4B55"/>
</g>
<defs>
<clipPath id="clip0_4997_46388">
<rect width="16" height="16" fill="white" transform="translate(0.5)"/>
</clipPath>
</defs>
</svg>
