<svg width="24" height="26" viewBox="0 0 24 26" fill="none" xmlns="http://www.w3.org/2000/svg">
<path d="M10.125 2.875C9.86625 2.875 9.65625 3.085 9.65625 3.34375C9.65625 3.6025 9.86625 3.8125 10.125 3.8125C10.3837 3.8125 10.5938 3.6025 10.5938 3.34375C10.5938 3.085 10.3837 2.875 10.125 2.875Z" fill="#212121"/>
<path d="M4.19961 9.4502C3.86841 9.4502 3.59961 9.719 3.59961 10.0502C3.59961 10.3814 3.86841 10.6502 4.19961 10.6502C4.53081 10.6502 4.79961 10.3814 4.79961 10.0502C4.79961 9.719 4.53081 9.4502 4.19961 9.4502Z" fill="#212121"/>
<path d="M4.19961 12.0698C3.86841 12.0698 3.59961 12.3386 3.59961 12.6698C3.59961 13.001 3.86841 13.2698 4.19961 13.2698C4.53081 13.2698 4.79961 13.001 4.79961 12.6698C4.79961 12.3386 4.53081 12.0698 4.19961 12.0698Z" fill="#212121"/>
<path d="M4.19961 14.6899C3.86841 14.6899 3.59961 14.9587 3.59961 15.2899C3.59961 15.6211 3.86841 15.8899 4.19961 15.8899C4.53081 15.8899 4.79961 15.6211 4.79961 15.2899C4.79961 14.9587 4.53081 14.6899 4.19961 14.6899Z" fill="#212121"/>
<path d="M4.19961 17.3999C3.86841 17.3999 3.59961 17.6687 3.59961 17.9999C3.59961 18.3311 3.86841 18.5999 4.19961 18.5999C4.53081 18.5999 4.79961 18.3311 4.79961 17.9999C4.79961 17.6687 4.53081 17.3999 4.19961 17.3999Z" fill="#212121"/>
<path d="M4.19961 20.2124C3.86841 20.2124 3.59961 20.4812 3.59961 20.8124C3.59961 21.1436 3.86841 21.4124 4.19961 21.4124C4.53081 21.4124 4.79961 21.1436 4.79961 20.8124C4.79961 20.4812 4.53081 20.2124 4.19961 20.2124Z" fill="#212121"/>
<rect x="5.69922" y="9.4502" width="10.31" height="1.2" rx="0.6" fill="#212121"/>
<rect x="5.69922" y="12.0698" width="10.31" height="1.2" rx="0.6" fill="#212121"/>
<rect x="5.69922" y="14.6899" width="10.31" height="1.2" rx="0.6" fill="#212121"/>
<path d="M19.8315 19.0435C19.6484 18.8605 19.3517 18.8605 19.1686 19.0435L17.625 20.587L17.019 19.981C16.8359 19.798 16.5392 19.798 16.356 19.981C16.173 20.164 16.173 20.4609 16.356 20.6439L17.2935 21.5814C17.3851 21.6729 17.505 21.7187 17.625 21.7187C17.745 21.7187 17.8649 21.6729 17.9565 21.5814L19.8315 19.7064C20.0145 19.5234 20.0145 19.2266 19.8315 19.0435Z" fill="#504EF3"/>
<path fill-rule="evenodd" clip-rule="evenodd" d="M10.1258 0.799805C8.95406 0.799805 7.96558 1.59563 7.67126 2.6748H7.31328C6.66551 2.6748 6.10715 3.05996 5.85325 3.6123H2.62578C1.73992 3.6123 1.01953 4.33269 1.01953 5.21855V23.5936C1.01953 24.4794 1.73992 25.1998 2.62578 25.1998H18.0945C20.7897 25.1998 22.982 23.0075 22.982 20.3123C22.982 18.0212 21.4073 16.0735 19.232 15.558V5.21855C19.232 4.33269 18.5116 3.6123 17.6258 3.6123H14.3983C14.1444 3.05996 13.5861 2.6748 12.9383 2.6748H12.5803C12.286 1.59563 11.2975 0.799805 10.1258 0.799805ZM8.91953 3.34355C8.91953 2.67861 9.46083 2.1373 10.1258 2.1373C10.7907 2.1373 11.332 2.67861 11.332 3.34355C11.332 3.71286 11.6315 4.0123 12.0008 4.0123H12.9383C13.0863 4.0123 13.207 4.13304 13.207 4.28105V4.5498H7.04453V4.28105C7.04453 4.13304 7.16527 4.0123 7.31328 4.0123H8.25078C8.62008 4.0123 8.91953 3.71286 8.91953 3.34355ZM2.35703 5.21855C2.35703 5.07054 2.47777 4.9498 2.62578 4.9498H5.70703V5.21855C5.70703 5.58786 6.00648 5.8873 6.37578 5.8873H13.8758C14.2451 5.8873 14.5445 5.58786 14.5445 5.21855V4.9498H17.6258C17.7738 4.9498 17.8945 5.07054 17.8945 5.21855V15.4289C16.4586 15.4872 15.1288 16.1719 14.2462 17.2998H6.37578C6.00648 17.2998 5.70703 17.5993 5.70703 17.9686C5.70703 18.3405 6.00911 18.6326 6.37578 18.6326H13.5022C13.3302 19.1047 13.2316 19.6041 13.2111 20.1123H6.37578C6.00648 20.1123 5.70703 20.4118 5.70703 20.7811C5.70703 21.1504 6.00648 21.4498 6.37578 21.4498H13.3402C13.5639 22.3936 14.0571 23.2243 14.7311 23.8623H2.62578C2.47777 23.8623 2.35703 23.7416 2.35703 23.5936V5.21855ZM15.1438 18.338C15.8054 17.3511 16.908 16.7623 18.0945 16.7623C18.225 16.7623 18.3582 16.7696 18.4903 16.7841C20.2884 16.9828 21.6445 18.4991 21.6445 20.3123C21.6445 22.2696 20.0518 23.8623 18.0945 23.8623C16.2812 23.8623 14.7649 22.506 14.5663 20.7081C14.5518 20.576 14.5445 20.4428 14.5445 20.3123C14.5445 19.6067 14.7506 18.9262 15.1404 18.3432L15.1438 18.338Z" fill="#212121"/>
</svg>
