<svg width="26" height="24" viewBox="0 0 26 24" fill="none" xmlns="http://www.w3.org/2000/svg">
<path fill-rule="evenodd" clip-rule="evenodd" d="M8.05859 8.35657C8.08507 8.49286 8.1621 8.61652 8.27372 8.69957L13.7837 13.0286C14.142 13.3102 14.5665 13.4669 14.9941 13.4916C15.0158 13.4928 15.038 13.4928 15.06 13.4916C15.4878 13.4669 15.9103 13.3099 16.2689 13.0286L23.8576 7.06701V16.9159C23.8576 17.0657 23.6867 17.2631 23.3515 17.2631H18.0979C17.7817 17.2613 17.5257 17.5164 17.5257 17.8309C17.5257 18.1447 17.782 18.3998 18.0979 18.398H23.3515C24.2102 18.398 24.9994 17.7773 24.9994 16.9159V6.43066C24.9994 5.56865 24.2102 4.94824 23.3515 4.94824H8.84388L8.05859 8.35657ZM23.27 6.0835H9.15652C9.17066 6.19753 9.18029 6.31006 9.18179 6.41927C9.18961 6.89616 9.04158 7.33875 8.78223 7.70462C8.85474 7.72688 8.92063 7.76269 8.979 7.80962L14.4886 12.1377C14.6538 12.2656 14.8488 12.3282 15.0263 12.3456C15.2026 12.3285 15.397 12.2659 15.5604 12.1377L23.27 6.0835Z" fill="#504EF3"/>
<path d="M8.27372 8.69957L8.33552 8.62091L8.33341 8.61933L8.27372 8.69957ZM8.05859 8.35657L7.96115 8.33412L7.95638 8.3548L7.96043 8.37564L8.05859 8.35657ZM13.7837 13.0286L13.8455 12.9499L13.8454 12.9499L13.7837 13.0286ZM14.9941 13.4916L14.9883 13.5915L14.9885 13.5915L14.9941 13.4916ZM15.06 13.4916L15.0655 13.5915L15.0657 13.5915L15.06 13.4916ZM16.2689 13.0286L16.3306 13.1073L16.3307 13.1072L16.2689 13.0286ZM23.8576 7.06701H23.9576V6.86129L23.7958 6.98838L23.8576 7.06701ZM18.0979 17.2631L18.0974 17.3631H18.0979V17.2631ZM18.0979 18.398V18.298L18.0974 18.298L18.0979 18.398ZM8.84388 4.94824V4.84824H8.7643L8.74643 4.92579L8.84388 4.94824ZM9.15652 6.0835V5.9835H9.04335L9.05728 6.0958L9.15652 6.0835ZM23.27 6.0835L23.3318 6.16215L23.5593 5.9835H23.27V6.0835ZM9.18179 6.41927L9.0818 6.42065L9.0818 6.42091L9.18179 6.41927ZM8.78223 7.70462L8.70065 7.64679L8.62066 7.75962L8.75287 7.80021L8.78223 7.70462ZM8.979 7.80962L8.91633 7.88756L8.91723 7.88826L8.979 7.80962ZM14.4886 12.1377L14.4269 12.2164L14.4274 12.2168L14.4886 12.1377ZM15.0263 12.3456L15.0165 12.4452L15.0263 12.4461L15.036 12.4452L15.0263 12.3456ZM15.5604 12.1377L15.6221 12.2164L15.6221 12.2164L15.5604 12.1377ZM8.33341 8.61933C8.24203 8.55136 8.17854 8.44963 8.15676 8.3375L7.96043 8.37564C7.9916 8.5361 8.08216 8.68169 8.21403 8.7798L8.33341 8.61933ZM13.8454 12.9499L8.3355 8.62093L8.21194 8.7782L13.7219 13.1072L13.8454 12.9499ZM14.9999 13.3918C14.5928 13.3683 14.1878 13.219 13.8455 12.9499L13.7219 13.1072C14.0962 13.4014 14.5403 13.5656 14.9883 13.5915L14.9999 13.3918ZM15.0545 13.3918C15.0362 13.3928 15.0176 13.3928 14.9996 13.3918L14.9885 13.5915C15.0139 13.5929 15.0399 13.5929 15.0655 13.5915L15.0545 13.3918ZM16.2072 12.9499C15.8644 13.2188 15.4614 13.3683 15.0542 13.3918L15.0657 13.5915C15.5142 13.5656 15.9561 13.401 16.3306 13.1073L16.2072 12.9499ZM23.7958 6.98838L16.2071 12.9499L16.3307 13.1072L23.9194 7.14565L23.7958 6.98838ZM23.9576 16.9159V7.06701H23.7576V16.9159H23.9576ZM23.3515 17.3631C23.7205 17.3631 23.9576 17.1402 23.9576 16.9159H23.7576C23.7576 16.9913 23.6529 17.1631 23.3515 17.1631V17.3631ZM18.0979 17.3631H23.3515V17.1631H18.0979V17.3631ZM17.6257 17.8309C17.6257 17.572 17.8365 17.3616 18.0974 17.3631L18.0985 17.1631C17.7269 17.161 17.4257 17.4609 17.4257 17.8309H17.6257ZM18.0974 18.298C17.8367 18.2995 17.6257 18.089 17.6257 17.8309H17.4257C17.4257 18.2003 17.7273 18.5001 18.0985 18.498L18.0974 18.298ZM23.3515 18.298H18.0979V18.498H23.3515V18.298ZM24.8994 16.9159C24.8994 17.7087 24.1694 18.298 23.3515 18.298V18.498C24.2511 18.498 25.0994 17.8459 25.0994 16.9159H24.8994ZM24.8994 6.43066V16.9159H25.0994V6.43066H24.8994ZM23.3515 5.04824C24.1694 5.04824 24.8994 5.63721 24.8994 6.43066H25.0994C25.0994 5.50008 24.2511 4.84824 23.3515 4.84824V5.04824ZM8.84388 5.04824H23.3515V4.84824H8.84388V5.04824ZM8.15604 8.37902L8.94133 4.97069L8.74643 4.92579L7.96115 8.33412L8.15604 8.37902ZM9.15652 6.1835H23.27V5.9835H9.15652V6.1835ZM9.28178 6.4179C9.28021 6.30391 9.27019 6.18754 9.25576 6.07119L9.05728 6.0958C9.07113 6.20752 9.08036 6.3162 9.0818 6.42065L9.28178 6.4179ZM8.86381 7.76245C9.13492 7.38 9.28996 6.91674 9.28178 6.41763L9.0818 6.42091C9.08926 6.87559 8.94825 7.2975 8.70065 7.64679L8.86381 7.76245ZM9.04167 7.73169C8.9739 7.6772 8.89679 7.63519 8.81158 7.60902L8.75287 7.80021C8.81268 7.81858 8.86737 7.84818 8.91633 7.88755L9.04167 7.73169ZM14.5504 12.0591L9.04077 7.73098L8.91723 7.88826L14.4269 12.2164L14.5504 12.0591ZM15.0361 12.2461C14.8737 12.2302 14.6976 12.173 14.5499 12.0587L14.4274 12.2168C14.6101 12.3582 14.8238 12.4262 15.0165 12.4452L15.0361 12.2461ZM15.4986 12.059C15.3529 12.1734 15.1776 12.2304 15.0166 12.2461L15.036 12.4452C15.2276 12.4265 15.441 12.3584 15.6221 12.2164L15.4986 12.059ZM23.2083 6.00485L15.4986 12.0591L15.6221 12.2164L23.3318 6.16215L23.2083 6.00485Z" fill="#504EF3"/>
<path fill-rule="evenodd" clip-rule="evenodd" d="M8.78278 7.70432C9.04213 7.33845 9.19016 6.89586 9.18234 6.41897C9.18084 6.30975 9.17121 6.19723 9.15707 6.08319L8.84446 4.94799C8.68379 4.54632 8.47167 4.12058 8.20449 3.65783C7.95447 3.13732 7.54888 2.44921 7.04131 1.8959C6.78496 1.61548 6.50845 1.36696 6.16275 1.20629V1.2078C5.99095 1.12656 5.78665 1.07451 5.57604 1.07C5.36513 1.06669 5.15 1.11092 4.95654 1.22314L4.11378 1.70785C4.09637 1.7178 4.08023 1.72801 4.06442 1.738L4.06023 1.74065C2.03262 3.22457 1.099 5.29039 1.00784 7.41969C0.916672 9.54808 1.62734 11.7448 2.80136 13.6653L4.97429 17.4097L4.96917 17.3985C6.05383 19.3696 7.60816 21.0795 9.50759 22.0645C11.4079 23.0511 13.6717 23.2798 15.9776 22.2742C15.9966 22.2661 16.0158 22.2571 16.033 22.2466L16.8769 21.7619C17.2672 21.5398 17.4634 21.1077 17.4952 20.7304C17.528 20.3544 17.4513 19.9882 17.3349 19.6274C17.1068 18.9141 16.7091 18.2211 16.3805 17.7458C15.7598 16.6779 15.1604 15.9369 14.4678 15.5226C13.7698 15.1065 12.9319 15.1125 12.2483 15.5054L11.2012 16.109C10.8919 16.2871 10.5303 16.2663 10.1497 16.1054C9.77085 15.9444 9.42003 15.6225 9.28975 15.3968L6.70523 10.9426C6.57465 10.7158 6.46784 10.253 6.51838 9.84505C6.56713 9.43827 6.73231 9.11964 7.04191 8.94122L8.05917 8.35631L8.78278 7.70432ZM5.67845 2.23321C5.61497 2.20372 5.58578 2.19259 5.56803 2.18958C5.5551 2.18822 5.5485 2.19251 5.53817 2.19921C5.5348 2.2014 5.53103 2.20384 5.52651 2.20643L4.72949 2.66166C2.97177 3.95151 2.2256 5.628 2.14677 7.46695C2.06794 9.30861 2.69647 11.3103 3.77511 13.0735C3.77584 13.0746 3.77647 13.0757 3.77707 13.0767C3.77897 13.0799 3.78049 13.0825 3.78324 13.0852L5.96338 16.8426C5.96477 16.8438 5.96584 16.8456 5.967 16.8475C5.96811 16.8493 5.96929 16.8513 5.97091 16.8531C6.9662 18.6635 8.39386 20.2054 10.0363 21.0593C11.6758 21.9096 13.5103 22.1055 15.5117 21.2374L16.3084 20.7807C16.3123 20.7784 16.3158 20.7765 16.319 20.7748C16.3456 20.7603 16.3491 20.7584 16.3602 20.6351C16.3713 20.4976 16.3367 20.2491 16.2485 19.9741C16.071 19.4205 15.703 18.7594 15.4329 18.3698C15.4235 18.3557 15.4157 18.3433 15.4076 18.3286C14.8311 17.3348 14.2946 16.7418 13.8815 16.4962C13.4696 16.2513 13.2244 16.2561 12.8188 16.4887L11.7718 17.0911C11.0897 17.4828 10.3162 17.4094 9.70448 17.1497C9.0934 16.8907 8.59364 16.4689 8.30089 15.9646L5.71636 11.5101C5.42421 11.0056 5.30597 10.3674 5.3863 9.71058C5.46634 9.05407 5.78858 8.35032 6.47066 7.95768L7.51771 7.35412C7.92359 7.12094 8.05207 6.91484 8.04394 6.43615C8.03642 5.95956 7.78669 5.19985 7.20781 4.20666C7.20179 4.19252 7.19517 4.17868 7.18885 4.16604C6.98486 3.73759 6.59191 3.0886 6.19867 2.66015C6.0034 2.44623 5.80392 2.29278 5.67845 2.23321Z" fill="#212121"/>
<path d="M9.18234 6.41897L9.08235 6.42035L9.08235 6.42061L9.18234 6.41897ZM8.78278 7.70432L8.84972 7.77861L8.85795 7.77119L8.86436 7.76215L8.78278 7.70432ZM9.15707 6.08319L9.25631 6.07089L9.25541 6.06366L9.25348 6.05665L9.15707 6.08319ZM8.84446 4.94799L8.94147 4.92127L8.9373 4.91085L8.84446 4.94799ZM8.20449 3.65783L8.11409 3.70125L8.11789 3.70783L8.20449 3.65783ZM7.04131 1.8959L6.9675 1.96337L6.96762 1.9635L7.04131 1.8959ZM6.16275 1.20629L6.20489 1.11561L6.06275 1.04955V1.20629H6.16275ZM6.16275 1.2078L6.12 1.2982L6.26275 1.3657V1.2078H6.16275ZM5.57604 1.07L5.57818 0.970017L5.57761 0.970008L5.57604 1.07ZM4.95654 1.22314L5.00639 1.30983L5.00671 1.30964L4.95654 1.22314ZM4.11378 1.70785L4.1634 1.79468L4.16364 1.79454L4.11378 1.70785ZM4.06442 1.738L4.11784 1.82254L4.11785 1.82253L4.06442 1.738ZM4.06023 1.74065L4.00668 1.65591L4.00117 1.65995L4.06023 1.74065ZM1.00784 7.41969L1.10775 7.42397L1.10775 7.42396L1.00784 7.41969ZM2.80136 13.6653L2.88787 13.6151L2.88668 13.6131L2.80136 13.6653ZM4.97429 17.4097L4.8878 17.4599L5.06516 17.3679L4.97429 17.4097ZM4.96917 17.3985L5.05678 17.3503L4.8783 17.4403L4.96917 17.3985ZM9.50759 22.0645L9.55366 21.9758L9.55363 21.9758L9.50759 22.0645ZM15.9776 22.2742L15.9382 22.1823L15.9377 22.1826L15.9776 22.2742ZM16.033 22.2466L15.9832 22.1598L15.9807 22.1613L16.033 22.2466ZM16.8769 21.7619L16.8275 21.6749L16.8271 21.6751L16.8769 21.7619ZM17.4952 20.7304L17.3956 20.7218L17.3956 20.722L17.4952 20.7304ZM17.3349 19.6274L17.2396 19.6579L17.2397 19.6582L17.3349 19.6274ZM16.3805 17.7458L16.2938 17.7962L16.2982 17.8026L16.3805 17.7458ZM14.4678 15.5226L14.5192 15.4368L14.519 15.4367L14.4678 15.5226ZM12.2483 15.5054L12.1984 15.4187L12.1983 15.4188L12.2483 15.5054ZM11.2012 16.109L11.2511 16.1956L11.2512 16.1956L11.2012 16.109ZM10.1497 16.1054L10.1105 16.1974L10.1107 16.1975L10.1497 16.1054ZM9.28975 15.3968L9.37636 15.3468L9.37625 15.3466L9.28975 15.3968ZM6.70523 10.9426L6.61856 10.9925L6.61873 10.9928L6.70523 10.9426ZM6.51838 9.84505L6.61763 9.85735L6.61767 9.85695L6.51838 9.84505ZM7.04191 8.94122L6.99206 8.85453L6.99198 8.85457L7.04191 8.94122ZM8.05917 8.35631L8.10902 8.44301L8.11822 8.43771L8.12611 8.4306L8.05917 8.35631ZM5.56803 2.18958L5.58478 2.09079L5.5785 2.09013L5.56803 2.18958ZM5.67845 2.23321L5.72135 2.14287L5.72058 2.14252L5.67845 2.23321ZM5.53817 2.19921L5.59259 2.2831L5.5926 2.2831L5.53817 2.19921ZM5.52651 2.20643L5.57611 2.29327L5.57628 2.29317L5.52651 2.20643ZM4.72949 2.66166L4.67957 2.57426L4.67033 2.58104L4.72949 2.66166ZM2.14677 7.46695L2.04686 7.46267L2.04686 7.46267L2.14677 7.46695ZM3.77511 13.0735L3.6898 13.1257L3.69032 13.1265L3.77511 13.0735ZM3.77707 13.0767L3.86303 13.0256L3.86302 13.0256L3.77707 13.0767ZM3.78324 13.0852L3.86973 13.035L3.86318 13.0237L3.85395 13.0145L3.78324 13.0852ZM5.96338 16.8426L5.87689 16.8927L5.88495 16.9066L5.89696 16.9173L5.96338 16.8426ZM5.967 16.8475L6.05276 16.7961L6.05275 16.7961L5.967 16.8475ZM5.97091 16.8531L6.05854 16.8049L6.05275 16.7944L6.04462 16.7855L5.97091 16.8531ZM10.0363 21.0593L9.99022 21.1481L9.9903 21.1481L10.0363 21.0593ZM15.5117 21.2374L15.5517 21.3298L15.5614 21.3242L15.5117 21.2374ZM16.3084 20.7807L16.3581 20.8675L16.3595 20.8667L16.3084 20.7807ZM16.319 20.7748L16.3667 20.8626L16.3667 20.8626L16.319 20.7748ZM16.3602 20.6351L16.4598 20.644L16.4598 20.6432L16.3602 20.6351ZM16.2485 19.9741L16.3438 19.9435L16.3438 19.9435L16.2485 19.9741ZM15.4329 18.3698L15.3494 18.4249L15.3507 18.4268L15.4329 18.3698ZM15.4076 18.3286L15.4952 18.2803L15.4941 18.2784L15.4076 18.3286ZM13.8815 16.4962L13.8304 16.5822L13.8305 16.5822L13.8815 16.4962ZM12.8188 16.4887L12.7691 16.402L12.769 16.402L12.8188 16.4887ZM11.7718 17.0911L11.8216 17.1778L11.8217 17.1778L11.7718 17.0911ZM9.70448 17.1497L9.74355 17.0577L9.74351 17.0577L9.70448 17.1497ZM8.30089 15.9646L8.2144 16.0148L8.21441 16.0148L8.30089 15.9646ZM5.71636 11.5101L5.62982 11.5602L5.62987 11.5603L5.71636 11.5101ZM5.3863 9.71058L5.48556 9.72272L5.48557 9.72269L5.3863 9.71058ZM6.47066 7.95768L6.52055 8.04435L6.5206 8.04432L6.47066 7.95768ZM7.51771 7.35412L7.4679 7.26741L7.46777 7.26749L7.51771 7.35412ZM8.04394 6.43615L7.94395 6.43773L7.94396 6.43785L8.04394 6.43615ZM7.20781 4.20666L7.11506 4.24612L7.12141 4.25701L7.20781 4.20666ZM7.18885 4.16604L7.09855 4.20904L7.09941 4.21076L7.18885 4.16604ZM6.19867 2.66015L6.12481 2.72757L6.125 2.72777L6.19867 2.66015ZM9.08235 6.42061C9.08981 6.87528 8.9488 7.2972 8.7012 7.64648L8.86436 7.76215C9.13547 7.3797 9.29051 6.91644 9.28233 6.41733L9.08235 6.42061ZM9.05783 6.0955C9.07168 6.20722 9.08091 6.3159 9.08235 6.42035L9.28233 6.4176C9.28076 6.30361 9.27074 6.18724 9.25631 6.07089L9.05783 6.0955ZM8.74805 4.97454L9.06066 6.10974L9.25348 6.05665L8.94087 4.92144L8.74805 4.97454ZM8.11789 3.70783C8.38331 4.16754 8.59313 4.58892 8.75161 4.98513L8.9373 4.91085C8.77445 4.50372 8.56003 4.07362 8.2911 3.60783L8.11789 3.70783ZM6.96762 1.9635C7.46642 2.50725 7.86697 3.18611 8.11435 3.70113L8.29463 3.61453C8.04197 3.08852 7.63135 2.39118 7.115 1.8283L6.96762 1.9635ZM6.1206 1.29698C6.44898 1.44959 6.71497 1.68713 6.9675 1.96337L7.11511 1.82843C6.85495 1.54384 6.56793 1.28433 6.20489 1.11561L6.1206 1.29698ZM6.26275 1.2078V1.20629H6.06275V1.2078H6.26275ZM5.5739 1.16997C5.76991 1.17417 5.96041 1.22274 6.12 1.2982L6.2055 1.11739C6.02148 1.03038 5.80339 0.974845 5.57818 0.970019L5.5739 1.16997ZM5.00671 1.30964C5.18186 1.20804 5.37843 1.16691 5.57447 1.16998L5.57761 0.970008C5.35182 0.966465 5.11814 1.01379 4.90636 1.13664L5.00671 1.30964ZM4.16364 1.79454L5.00639 1.30983L4.90668 1.13646L4.06392 1.62117L4.16364 1.79454ZM4.11785 1.82253C4.13389 1.81239 4.14821 1.80335 4.16339 1.79468L4.06417 1.62103C4.04453 1.63225 4.02656 1.64363 4.01099 1.65347L4.11785 1.82253ZM4.11364 1.82519L4.11784 1.82254L4.011 1.65346L4.00681 1.65611L4.11364 1.82519ZM1.10775 7.42396C1.19771 5.32268 2.11803 3.28598 4.11928 1.82135L4.00117 1.65995C1.94721 3.16316 1.00029 5.25809 0.907929 7.41541L1.10775 7.42396ZM2.88668 13.6131C1.7203 11.7051 1.01763 9.52788 1.10775 7.42397L0.907929 7.41541C0.815714 9.56829 1.53438 11.7844 2.71604 13.7174L2.88668 13.6131ZM5.06078 17.3595L2.88785 13.6151L2.71487 13.7155L4.8878 17.4599L5.06078 17.3595ZM4.8783 17.4403L4.88342 17.4514L5.06516 17.3679L5.06004 17.3568L4.8783 17.4403ZM9.55363 21.9758C7.67584 21.0019 6.13439 19.3086 5.05678 17.3503L4.88156 17.4468C5.97327 19.4306 7.54047 21.157 9.46155 22.1533L9.55363 21.9758ZM15.9377 22.1826C13.6616 23.1751 11.4294 22.9496 9.55366 21.9758L9.46151 22.1533C11.3864 23.1526 13.6819 23.3844 16.0176 22.3659L15.9377 22.1826ZM15.9807 22.1613C15.9697 22.1681 15.9556 22.1749 15.9382 22.1823L16.017 22.3662C16.0376 22.3574 16.062 22.3461 16.0853 22.3318L15.9807 22.1613ZM16.8271 21.6751L15.9832 22.1598L16.0828 22.3333L16.9267 21.8486L16.8271 21.6751ZM17.3956 20.722C17.3657 21.0762 17.1816 21.4735 16.8275 21.6749L16.9264 21.8488C17.3528 21.6061 17.561 21.1393 17.5949 20.7389L17.3956 20.722ZM17.2397 19.6582C17.3543 20.013 17.4268 20.3646 17.3956 20.7218L17.5949 20.7391C17.6293 20.3441 17.5484 19.9633 17.43 19.5967L17.2397 19.6582ZM16.2982 17.8026C16.6234 18.2731 17.0156 18.957 17.2396 19.6579L17.4301 19.597C17.1981 18.8711 16.7947 18.1692 16.4628 17.6889L16.2982 17.8026ZM14.4165 15.6084C15.0869 16.0094 15.6758 16.7324 16.294 17.796L16.467 17.6955C15.8438 16.6234 15.234 15.8643 14.5192 15.4368L14.4165 15.6084ZM12.2981 15.5921C12.9509 15.2169 13.7502 15.2112 14.4166 15.6085L14.519 15.4367C13.7894 15.0017 12.9128 15.0081 12.1984 15.4187L12.2981 15.5921ZM11.2512 16.1956L12.2982 15.5921L12.1983 15.4188L11.1513 16.0224L11.2512 16.1956ZM10.1107 16.1975C10.5086 16.3657 10.9054 16.3948 11.2511 16.1956L11.1513 16.0223C10.8785 16.1795 10.552 16.167 10.1886 16.0133L10.1107 16.1975ZM9.20315 15.4468C9.2759 15.5728 9.4051 15.7182 9.56169 15.8515C9.71913 15.9855 9.91005 16.1122 10.1105 16.1974L10.1888 16.0133C10.0105 15.9376 9.83657 15.8228 9.69132 15.6992C9.54523 15.5749 9.43388 15.4465 9.37636 15.3468L9.20315 15.4468ZM6.61873 10.9928L9.20326 15.447L9.37625 15.3466L6.79172 10.8925L6.61873 10.9928ZM6.41914 9.83275C6.36616 10.2604 6.47622 10.7452 6.61856 10.9925L6.7919 10.8928C6.67307 10.6863 6.56951 10.2457 6.61762 9.85735L6.41914 9.83275ZM6.99198 8.85457C6.64659 9.05362 6.47025 9.40624 6.41909 9.83315L6.61767 9.85695C6.664 9.47029 6.81802 9.18566 7.09184 9.02786L6.99198 8.85457ZM8.00932 8.26962L6.99206 8.85453L7.09175 9.02791L8.10902 8.44301L8.00932 8.26962ZM8.71584 7.63002L7.99223 8.28202L8.12611 8.4306L8.84972 7.77861L8.71584 7.63002ZM5.55132 2.28818C5.55009 2.28797 5.55432 2.28858 5.56958 2.29456C5.58418 2.30029 5.60518 2.30944 5.63633 2.32391L5.72058 2.14252C5.66023 2.11449 5.61829 2.09668 5.58474 2.09099L5.55132 2.28818ZM5.5926 2.2831C5.59566 2.28111 5.59589 2.28099 5.59566 2.28112C5.59507 2.28147 5.5922 2.28312 5.58776 2.28481C5.583 2.28662 5.57745 2.28811 5.57139 2.28884C5.56551 2.28956 5.56072 2.28937 5.55756 2.28903L5.5785 2.09013C5.55768 2.08794 5.53688 2.09016 5.51649 2.09794C5.50013 2.10418 5.48669 2.11341 5.48374 2.11532L5.5926 2.2831ZM5.57628 2.29317C5.58344 2.28906 5.58928 2.28525 5.59259 2.2831L5.48374 2.11532C5.48031 2.11754 5.47862 2.11862 5.47674 2.1197L5.57628 2.29317ZM4.77909 2.74849L5.57611 2.29327L5.47692 2.1196L4.67989 2.57482L4.77909 2.74849ZM2.24668 7.47123C2.32431 5.66021 3.05725 4.01283 4.78865 2.74228L4.67033 2.58104C2.8863 3.8902 2.12689 5.59578 2.04686 7.46267L2.24668 7.47123ZM3.86041 13.0213C2.78943 11.2707 2.1689 9.28841 2.24668 7.47123L2.04686 7.46267C1.96698 9.32881 2.60351 11.35 3.68981 13.1257L3.86041 13.0213ZM3.86302 13.0256C3.86247 13.0247 3.8613 13.0227 3.85991 13.0205L3.69032 13.1265C3.69037 13.1266 3.69047 13.1267 3.69112 13.1278L3.86302 13.0256ZM3.85395 13.0145C3.86108 13.0216 3.86514 13.0292 3.86303 13.0256L3.69112 13.1278C3.6928 13.1306 3.69991 13.1433 3.71253 13.1559L3.85395 13.0145ZM6.04988 16.7924L3.86973 13.035L3.69674 13.1354L5.87689 16.8927L6.04988 16.7924ZM6.05275 16.7961C6.05256 16.7957 6.05023 16.7918 6.04736 16.7877C6.04433 16.7833 6.0386 16.7756 6.02981 16.7678L5.89696 16.9173C5.88956 16.9107 5.88505 16.9046 5.8832 16.9019C5.8815 16.8994 5.88029 16.8973 5.88126 16.899L6.05275 16.7961ZM6.04462 16.7855C6.04813 16.7893 6.05047 16.7926 6.0517 16.7945C6.05277 16.796 6.05351 16.7973 6.05276 16.7961L5.88124 16.8989C5.88169 16.8997 5.8877 16.9103 5.89719 16.9207L6.04462 16.7855ZM10.0825 20.9706C8.46153 20.1279 7.04674 18.6024 6.05854 16.8049L5.88328 16.9013C6.88566 18.7245 8.32619 20.283 9.99022 21.1481L10.0825 20.9706ZM15.4719 21.1457C13.5003 22.0008 11.6974 21.8081 10.0824 20.9706L9.9903 21.1481C11.6543 22.0111 13.5203 22.2101 15.5515 21.3292L15.4719 21.1457ZM16.2587 20.694L15.462 21.1507L15.5614 21.3242L16.3581 20.8675L16.2587 20.694ZM16.2713 20.6869C16.2682 20.6886 16.2631 20.6913 16.2573 20.6948L16.3595 20.8667C16.3615 20.8655 16.3635 20.8644 16.3667 20.8626L16.2713 20.6869ZM16.2606 20.6262C16.2578 20.657 16.2557 20.6785 16.2536 20.6941C16.2526 20.7017 16.2518 20.7072 16.2511 20.711C16.2503 20.7149 16.2499 20.7161 16.2501 20.7156C16.2507 20.7136 16.2546 20.703 16.2653 20.6926C16.2697 20.6883 16.2735 20.6858 16.2747 20.685C16.2753 20.6847 16.2753 20.6847 16.2713 20.6869L16.3667 20.8626C16.3704 20.8606 16.3889 20.8514 16.4049 20.8358C16.4241 20.8171 16.4345 20.7956 16.4408 20.7759C16.4504 20.7453 16.4547 20.7008 16.4598 20.644L16.2606 20.6262ZM16.1533 20.0046C16.2395 20.2736 16.2701 20.5079 16.2605 20.627L16.4598 20.6432C16.4725 20.4873 16.4338 20.2246 16.3438 19.9435L16.1533 20.0046ZM15.3507 18.4268C15.6172 18.8111 15.9797 19.4632 16.1533 20.0046L16.3438 19.9435C16.1623 19.3778 15.7889 18.7078 15.515 18.3128L15.3507 18.4268ZM15.32 18.3768C15.33 18.3949 15.3394 18.4098 15.3494 18.4249L15.5163 18.3147C15.5076 18.3015 15.5014 18.2917 15.4952 18.2803L15.32 18.3768ZM13.8305 16.5822C14.2213 16.8145 14.7472 17.3894 15.3211 18.3788L15.4941 18.2784C14.915 17.2801 14.368 16.669 13.9326 16.4103L13.8305 16.5822ZM12.8686 16.5755C13.0653 16.4627 13.2098 16.4131 13.3476 16.4134C13.4852 16.4137 13.6312 16.4637 13.8304 16.5822L13.9326 16.4103C13.72 16.2839 13.5374 16.2138 13.348 16.2134C13.1589 16.213 12.978 16.2822 12.7691 16.402L12.8686 16.5755ZM11.8217 17.1778L12.8687 16.5754L12.769 16.402L11.7219 17.0044L11.8217 17.1778ZM9.6654 17.2418C10.2964 17.5097 11.1045 17.5896 11.8216 17.1778L11.722 17.0044C11.0749 17.376 10.3359 17.3092 9.74355 17.0577L9.6654 17.2418ZM8.21441 16.0148C8.51951 16.5403 9.03734 16.9755 9.66545 17.2418L9.74351 17.0577C9.14946 16.8058 8.66777 16.3974 8.38737 15.9144L8.21441 16.0148ZM5.62987 11.5603L8.2144 16.0148L8.38739 15.9144L5.80286 11.4599L5.62987 11.5603ZM5.28704 9.69844C5.20442 10.374 5.32543 11.0345 5.62982 11.5602L5.80291 11.46C5.523 10.9766 5.40752 10.3608 5.48556 9.72272L5.28704 9.69844ZM6.42077 7.87101C5.70358 8.28387 5.36963 9.02095 5.28704 9.69848L5.48557 9.72269C5.56304 9.0872 5.87357 8.41678 6.52055 8.04435L6.42077 7.87101ZM7.46777 7.26749L6.42072 7.87104L6.5206 8.04432L7.56765 7.44076L7.46777 7.26749ZM7.94396 6.43785C7.94788 6.66923 7.91824 6.81914 7.84967 6.93687C7.78086 7.05502 7.66513 7.1541 7.4679 7.26741L7.56752 7.44083C7.77617 7.32097 7.92762 7.20041 8.02249 7.03753C8.1176 6.87425 8.14813 6.68176 8.14393 6.43445L7.94396 6.43785ZM7.12141 4.25701C7.69775 5.24584 7.93685 5.98731 7.94395 6.43773L8.14393 6.43457C8.13599 5.93182 7.87563 5.15386 7.2942 4.1563L7.12141 4.25701ZM7.09941 4.21076C7.10521 4.22236 7.11086 4.23422 7.11579 4.24581L7.29982 4.1675C7.29272 4.15081 7.28513 4.13499 7.27829 4.12132L7.09941 4.21076ZM6.125 2.72777C6.50958 3.14679 6.89743 3.78658 7.09856 4.20903L7.27914 4.12305C7.07229 3.6886 6.67425 3.03042 6.27234 2.59253L6.125 2.72777ZM5.63556 2.32354C5.74476 2.37539 5.93408 2.51861 6.12481 2.72757L6.27253 2.59274C6.07272 2.37385 5.86308 2.21017 5.72135 2.14288L5.63556 2.32354Z" fill="#212121"/>
</svg>
