<svg width="40" height="40" viewBox="0 0 40 40" fill="none" xmlns="http://www.w3.org/2000/svg">
<path d="M25.7122 0.309144C25.5288 0.115967 25.2772 0 25.0165 0H9.40798C6.5278 0 4.15039 2.36725 4.15039 5.24629V34.7535C4.15039 37.6328 6.5278 40.0001 9.40798 40.0001H30.5928C33.473 40.0001 35.8504 37.6328 35.8504 34.7535V11.3236C35.8504 11.0724 35.7344 10.831 35.5702 10.6473L25.7122 0.309144ZM25.9924 3.41065L32.5935 10.3382H28.3024C27.0267 10.3382 25.9924 9.31398 25.9924 8.03865V3.41065ZM30.5928 38.0677H9.40798C7.60081 38.0677 6.08333 36.5702 6.08333 34.7535V5.24629C6.08333 3.43964 7.59104 1.93238 9.40798 1.93238H24.0595V8.03865C24.0595 10.3864 25.954 12.2705 28.3024 12.2705H33.9174V34.7535C33.9174 36.5702 32.4097 38.0677 30.5928 38.0677Z" fill="black"/>
<path d="M27.9545 31.4014H12.0465C11.5151 31.4014 11.0801 31.8359 11.0801 32.3676C11.0801 32.8989 11.5151 33.3337 12.0465 33.3337H27.9643C28.4958 33.3337 28.9308 32.8989 28.9308 32.3676C28.9308 31.8359 28.4958 31.4014 27.9545 31.4014Z" fill="#504EF3"/>
<path d="M19.2959 27.9327C19.4797 28.1259 19.7309 28.2418 20.0014 28.2418C20.2721 28.2418 20.5234 28.1259 20.7068 27.9327L26.3704 21.8554C26.7377 21.4688 26.7087 20.8505 26.3222 20.4931C25.9354 20.126 25.317 20.1547 24.9595 20.5413L20.9678 24.8214V14.2709C20.9678 13.7393 20.5328 13.3047 20.0014 13.3047C19.4699 13.3047 19.0349 13.7393 19.0349 14.2709V24.8214L15.053 20.5413C14.6858 20.155 14.0768 20.126 13.6903 20.4931C13.3038 20.8602 13.2748 21.4691 13.6421 21.8554L19.2959 27.9327Z" fill="#504EF3"/>
</svg>
