<svg width="26" height="26" viewBox="0 0 26 26" fill="none" xmlns="http://www.w3.org/2000/svg">
<path fill-rule="evenodd" clip-rule="evenodd" d="M3.4999 0.899902C2.81034 0.899902 2.14902 1.17383 1.66142 1.66142C1.17383 2.14902 0.899902 2.81034 0.899902 3.4999V22.4999C0.899902 22.659 0.963116 22.8116 1.07564 22.9242C1.18816 23.0367 1.34077 23.0999 1.4999 23.0999H12.8999V23.4999C12.8999 23.9243 13.0685 24.3312 13.3685 24.6313C13.6686 24.9313 14.0756 25.0999 14.4999 25.0999H23.4999C23.9243 25.0999 24.3312 24.9313 24.6313 24.6313C24.9313 24.3312 25.0999 23.9243 25.0999 23.4999V11.4999C25.0999 11.0756 24.9313 10.6686 24.6313 10.3685C24.3312 10.0685 23.9243 9.8999 23.4999 9.8999H18.0999V6.0999H21.4999C21.659 6.0999 21.8116 6.03669 21.9242 5.92417C22.0367 5.81164 22.0999 5.65903 22.0999 5.4999V3.4999C22.0999 2.81034 21.826 2.14902 21.3384 1.66142C20.8508 1.17383 20.1895 0.899902 19.4999 0.899902H3.4999ZM2.50995 2.50995C2.7725 2.2474 3.1286 2.0999 3.4999 2.0999H17.3022C17.1935 2.25403 17.1089 2.3997 17.0463 2.58763C16.9637 2.83605 16.9216 3.15213 16.9006 3.65384C16.8752 4.26043 16.8803 5.15414 16.8883 6.55433V6.55436C16.8934 7.44553 16.8996 8.54185 16.8999 9.8999H14.4999C14.0756 9.8999 13.6686 10.0685 13.3685 10.3685C13.0685 10.6686 12.8999 11.0756 12.8999 11.4999V21.8999H2.0999V3.4999C2.0999 3.1286 2.2474 2.7725 2.50995 2.50995ZM18.51 2.50995C18.7725 2.2474 19.1286 2.0999 19.4999 2.0999C19.8712 2.0999 20.2273 2.2474 20.4899 2.50995C20.7524 2.7725 20.8999 3.1286 20.8999 3.4999V4.8999H18.0999V3.4999C18.0999 3.1286 18.2474 2.7725 18.51 2.50995ZM14.2171 11.2171C14.2921 11.142 14.3938 11.0999 14.4999 11.0999H23.4999C23.606 11.0999 23.7077 11.142 23.7827 11.2171C23.8578 11.2921 23.8999 11.3938 23.8999 11.4999V23.4999C23.8999 23.606 23.8578 23.7077 23.7827 23.7827C23.7077 23.8578 23.606 23.8999 23.4999 23.8999H14.4999C14.3938 23.8999 14.2921 23.8578 14.2171 23.7827C14.142 23.7077 14.0999 23.606 14.0999 23.4999V11.4999C14.0999 11.3938 14.142 11.2921 14.2171 11.2171Z" fill="#212121"/>
<path fill-rule="evenodd" clip-rule="evenodd" d="M15.4999 11.8999C15.3408 11.8999 15.1882 11.9631 15.0756 12.0756C14.9631 12.1882 14.8999 12.3408 14.8999 12.4999V16.4999C14.8999 16.659 14.9631 16.8116 15.0756 16.9242C15.1882 17.0367 15.3408 17.0999 15.4999 17.0999H22.4999C22.659 17.0999 22.8116 17.0367 22.9242 16.9242C23.0367 16.8116 23.0999 16.659 23.0999 16.4999V12.4999C23.0999 12.3408 23.0367 12.1882 22.9242 12.0756C22.8116 11.9631 22.659 11.8999 22.4999 11.8999H15.4999ZM16.0999 15.8999V13.0999H21.8999V15.8999H16.0999Z" fill="#212121"/>
<path d="M19.5 18H18.5C18.3674 18 18.2402 18.0527 18.1464 18.1464C18.0527 18.2402 18 18.3674 18 18.5C18 18.6326 18.0527 18.7598 18.1464 18.8536C18.2402 18.9473 18.3674 19 18.5 19H19.5C19.6326 19 19.7598 18.9473 19.8536 18.8536C19.9473 18.7598 20 18.6326 20 18.5C20 18.3674 19.9473 18.2402 19.8536 18.1464C19.7598 18.0527 19.6326 18 19.5 18Z" fill="#504EF3"/>
<path d="M16.5 18H15.5C15.3674 18 15.2402 18.0527 15.1464 18.1464C15.0527 18.2402 15 18.3674 15 18.5C15 18.6326 15.0527 18.7598 15.1464 18.8536C15.2402 18.9473 15.3674 19 15.5 19H16.5C16.6326 19 16.7598 18.9473 16.8536 18.8536C16.9473 18.7598 17 18.6326 17 18.5C17 18.3674 16.9473 18.2402 16.8536 18.1464C16.7598 18.0527 16.6326 18 16.5 18Z" fill="#504EF3"/>
<path d="M22.5 18H21.5C21.3674 18 21.2402 18.0527 21.1464 18.1464C21.0527 18.2402 21 18.3674 21 18.5C21 18.6326 21.0527 18.7598 21.1464 18.8536C21.2402 18.9473 21.3674 19 21.5 19H22.5C22.6326 19 22.7598 18.9473 22.8536 18.8536C22.9473 18.7598 23 18.6326 23 18.5C23 18.3674 22.9473 18.2402 22.8536 18.1464C22.7598 18.0527 22.6326 18 22.5 18Z" fill="#504EF3"/>
<path d="M19.5 20H18.5C18.3674 20 18.2402 20.0527 18.1464 20.1464C18.0527 20.2402 18 20.3674 18 20.5C18 20.6326 18.0527 20.7598 18.1464 20.8536C18.2402 20.9473 18.3674 21 18.5 21H19.5C19.6326 21 19.7598 20.9473 19.8536 20.8536C19.9473 20.7598 20 20.6326 20 20.5C20 20.3674 19.9473 20.2402 19.8536 20.1464C19.7598 20.0527 19.6326 20 19.5 20Z" fill="#504EF3"/>
<path d="M16.5 20H15.5C15.3674 20 15.2402 20.0527 15.1464 20.1464C15.0527 20.2402 15 20.3674 15 20.5C15 20.6326 15.0527 20.7598 15.1464 20.8536C15.2402 20.9473 15.3674 21 15.5 21H16.5C16.6326 21 16.7598 20.9473 16.8536 20.8536C16.9473 20.7598 17 20.6326 17 20.5C17 20.3674 16.9473 20.2402 16.8536 20.1464C16.7598 20.0527 16.6326 20 16.5 20Z" fill="#504EF3"/>
<path d="M22.5 20H21.5C21.3674 20 21.2402 20.0527 21.1464 20.1464C21.0527 20.2402 21 20.3674 21 20.5C21 20.6326 21.0527 20.7598 21.1464 20.8536C21.2402 20.9473 21.3674 21 21.5 21H22.5C22.6326 21 22.7598 20.9473 22.8536 20.8536C22.9473 20.7598 23 20.6326 23 20.5C23 20.3674 22.9473 20.2402 22.8536 20.1464C22.7598 20.0527 22.6326 20 22.5 20Z" fill="#504EF3"/>
<path d="M19.5 22H18.5C18.3674 22 18.2402 22.0527 18.1464 22.1464C18.0527 22.2402 18 22.3674 18 22.5C18 22.6326 18.0527 22.7598 18.1464 22.8536C18.2402 22.9473 18.3674 23 18.5 23H19.5C19.6326 23 19.7598 22.9473 19.8536 22.8536C19.9473 22.7598 20 22.6326 20 22.5C20 22.3674 19.9473 22.2402 19.8536 22.1464C19.7598 22.0527 19.6326 22 19.5 22Z" fill="#504EF3"/>
<path d="M16.5 22H15.5C15.3674 22 15.2402 22.0527 15.1464 22.1464C15.0527 22.2402 15 22.3674 15 22.5C15 22.6326 15.0527 22.7598 15.1464 22.8536C15.2402 22.9473 15.3674 23 15.5 23H16.5C16.6326 23 16.7598 22.9473 16.8536 22.8536C16.9473 22.7598 17 22.6326 17 22.5C17 22.3674 16.9473 22.2402 16.8536 22.1464C16.7598 22.0527 16.6326 22 16.5 22Z" fill="#504EF3"/>
<path d="M22.5 22H21.5C21.3674 22 21.2402 22.0527 21.1464 22.1464C21.0527 22.2402 21 22.3674 21 22.5C21 22.6326 21.0527 22.7598 21.1464 22.8536C21.2402 22.9473 21.3674 23 21.5 23H22.5C22.6326 23 22.7598 22.9473 22.8536 22.8536C22.9473 22.7598 23 22.6326 23 22.5C23 22.3674 22.9473 22.2402 22.8536 22.1464C22.7598 22.0527 22.6326 22 22.5 22Z" fill="#504EF3"/>
<path d="M11.5 10.5H4.5C4.36739 10.5 4.24021 10.5527 4.14645 10.6464C4.05268 10.7402 4 10.8674 4 11C4 11.1326 4.05268 11.2598 4.14645 11.3536C4.24021 11.4473 4.36739 11.5 4.5 11.5H11.5C11.6326 11.5 11.7598 11.4473 11.8536 11.3536C11.9473 11.2598 12 11.1326 12 11C12 10.8674 11.9473 10.7402 11.8536 10.6464C11.7598 10.5527 11.6326 10.5 11.5 10.5Z" fill="#504EF3"/>
<path d="M11.5 15.5H4.5C4.36739 15.5 4.24021 15.5527 4.14645 15.6464C4.05268 15.7402 4 15.8674 4 16C4 16.1326 4.05268 16.2598 4.14645 16.3536C4.24021 16.4473 4.36739 16.5 4.5 16.5H11.5C11.6326 16.5 11.7598 16.4473 11.8536 16.3536C11.9473 16.2598 12 16.1326 12 16C12 15.8674 11.9473 15.7402 11.8536 15.6464C11.7598 15.5527 11.6326 15.5 11.5 15.5Z" fill="#504EF3"/>
<path d="M4.5 6.5H14.5C14.6326 6.5 14.7598 6.44732 14.8536 6.35355C14.9473 6.25979 15 6.13261 15 6C15 5.86739 14.9473 5.74021 14.8536 5.64645C14.7598 5.55268 14.6326 5.5 14.5 5.5H4.5C4.36739 5.5 4.24021 5.55268 4.14645 5.64645C4.05268 5.74021 4 5.86739 4 6C4 6.13261 4.05268 6.25979 4.14645 6.35355C4.24021 6.44732 4.36739 6.5 4.5 6.5Z" fill="#504EF3"/>
<path d="M4.5 9H14.5C14.6326 9 14.7598 8.94732 14.8536 8.85355C14.9473 8.75979 15 8.63261 15 8.5C15 8.36739 14.9473 8.24021 14.8536 8.14645C14.7598 8.05268 14.6326 8 14.5 8H4.5C4.36739 8 4.24021 8.05268 4.14645 8.14645C4.05268 8.24021 4 8.36739 4 8.5C4 8.63261 4.05268 8.75979 4.14645 8.85355C4.24021 8.94732 4.36739 9 4.5 9Z" fill="#504EF3"/>
<path d="M11.5 13H4.5C4.36739 13 4.24021 13.0527 4.14645 13.1464C4.05268 13.2402 4 13.3674 4 13.5C4 13.6326 4.05268 13.7598 4.14645 13.8536C4.24021 13.9473 4.36739 14 4.5 14H11.5C11.6326 14 11.7598 13.9473 11.8536 13.8536C11.9473 13.7598 12 13.6326 12 13.5C12 13.3674 11.9473 13.2402 11.8536 13.1464C11.7598 13.0527 11.6326 13 11.5 13Z" fill="#504EF3"/>
<path d="M11.5 18H4.5C4.36739 18 4.24021 18.0527 4.14645 18.1464C4.05268 18.2402 4 18.3674 4 18.5C4 18.6326 4.05268 18.7598 4.14645 18.8536C4.24021 18.9473 4.36739 19 4.5 19H11.5C11.6326 19 11.7598 18.9473 11.8536 18.8536C11.9473 18.7598 12 18.6326 12 18.5C12 18.3674 11.9473 18.2402 11.8536 18.1464C11.7598 18.0527 11.6326 18 11.5 18Z" fill="#504EF3"/>
</svg>
