<svg width="24" height="24" viewBox="0 0 24 24" fill="none" xmlns="http://www.w3.org/2000/svg">
<path d="M19.4537 10.406C19.0654 10.406 18.7506 10.7208 18.7506 11.1091V21.4219C18.7506 22.0681 18.2249 22.5938 17.5787 22.5938H2.57821C1.93201 22.5938 1.40629 22.0681 1.40629 21.4219V6.42147C1.40629 5.77527 1.93201 5.24956 2.57821 5.24956H12.891C13.2794 5.24956 13.5942 4.93473 13.5942 4.54641C13.5942 4.15808 13.2794 3.84326 12.891 3.84326H2.57821C1.15658 3.84326 0 4.99984 0 6.42147V21.4219C0 22.8436 1.15658 24.0001 2.57821 24.0001H17.5787C19.0003 24.0001 20.1569 22.8436 20.1569 21.4219V11.1091C20.1569 10.7208 19.8421 10.406 19.4537 10.406V10.406Z" fill="#212121"/>
<path d="M23.5204 1.80566L22.1945 0.479757C21.5549 -0.159919 20.514 -0.159919 19.8743 0.479757L9.2674 11.0867C9.16924 11.1848 9.10235 11.3099 9.07507 11.446L8.41209 14.7607C8.36601 14.9912 8.43815 15.2295 8.60443 15.3958C8.7376 15.5289 8.917 15.6017 9.1016 15.6017C9.14749 15.6017 9.19362 15.5972 9.23946 15.5881L12.5541 14.9251C12.6903 14.8979 12.8153 14.8309 12.9135 14.7328L23.5204 4.1259C23.5204 4.1259 23.5205 4.1259 23.5205 4.12586C24.1601 3.48623 24.1601 2.44538 23.5204 1.80566V1.80566ZM12.0696 13.5879L9.99797 14.0023L10.4124 11.9306L19.0456 3.29722L20.703 4.95458L12.0696 13.5879ZM22.526 3.13151L21.6974 3.96019L20.04 2.30283L20.8686 1.47419C20.96 1.38279 21.1087 1.38274 21.2001 1.47415L22.526 2.80005C22.6174 2.89141 22.6174 3.04015 22.526 3.13151Z" fill="#504EF3"/>
</svg>
