<svg width="20" height="20" viewBox="0 0 20 20" fill="none" xmlns="http://www.w3.org/2000/svg">
<g clip-path="url(#clip0_188_2138)">
<path d="M10.0006 0C8.91296 0 7.85921 0.380103 7.02191 1.07427C6.98768 1.10206 6.95931 1.13638 6.93843 1.1752C6.91755 1.21403 6.90457 1.2566 6.90026 1.30047C6.89594 1.34434 6.90037 1.38863 6.91328 1.43078C6.9262 1.47293 6.94735 1.51209 6.9755 1.54601C7.00366 1.57993 7.03826 1.60794 7.07731 1.62841C7.11635 1.64887 7.15907 1.66136 7.20299 1.6652C7.2469 1.66904 7.29115 1.66415 7.33315 1.65078C7.37516 1.63741 7.4141 1.61586 7.44771 1.58734C8.16549 0.992262 9.06821 0.666711 10.0006 0.666711C12.2138 0.666711 14.0008 2.4537 14.0008 4.6669C14.0008 6.8801 12.2138 8.66709 10.0006 8.66709C7.78738 8.66709 6.00037 6.8801 6.00037 4.6669C6.00037 3.90262 6.21928 3.1543 6.63126 2.51055C6.65651 2.47371 6.67409 2.4322 6.68298 2.38843C6.69186 2.34467 6.69186 2.29955 6.68298 2.25578C6.6741 2.21202 6.65651 2.17051 6.63127 2.13367C6.60603 2.09683 6.57365 2.06543 6.53604 2.04135C6.49844 2.01727 6.45638 2.001 6.41236 1.99348C6.36834 1.98597 6.32326 1.98735 6.2798 1.9976C6.23633 2.00784 6.19537 2.0267 6.15933 2.05308C6.1233 2.07946 6.09293 2.11282 6.07004 2.15116C5.58942 2.90216 5.33367 3.77529 5.33367 4.6669C5.33367 7.24041 7.42707 9.3338 10.0006 9.3338C12.5741 9.3338 14.6675 7.24041 14.6675 4.6669C14.6675 2.09339 12.5741 0 10.0006 0V0ZM10.0006 1.33208C9.83386 1.33208 9.66723 1.44311 9.66723 1.66547V2.38424C9.09581 2.53471 8.66783 3.05373 8.66783 3.6701C8.66783 4.40258 9.26941 5.00353 10.0019 5.00353C10.374 5.00353 10.666 5.29807 10.666 5.67024C10.666 6.0424 10.374 6.33756 10.0019 6.33756C9.62972 6.33756 9.33518 6.0424 9.33518 5.67024C9.33523 5.62639 9.32663 5.58295 9.30988 5.54243C9.29313 5.50191 9.26856 5.46506 9.23757 5.43404C9.20658 5.40302 9.16978 5.37843 9.12928 5.36164C9.08877 5.34485 9.04535 5.33623 9.00151 5.33623C8.95766 5.33623 8.91424 5.34485 8.87374 5.36164C8.83323 5.37843 8.79643 5.40302 8.76544 5.43404C8.73445 5.46506 8.70988 5.50191 8.69313 5.54243C8.67638 5.58295 8.66779 5.62639 8.66783 5.67024C8.66783 6.2866 9.09581 6.80563 9.66723 6.9561V7.66837C9.66723 8.11294 10.3339 8.11294 10.3339 7.66837V6.95675C10.906 6.80715 11.3327 6.28748 11.3327 5.67024C11.3327 4.93776 10.7344 4.33681 10.0019 4.33681C9.62972 4.33681 9.33518 4.04227 9.33518 3.6701C9.33518 3.29794 9.62972 3.00274 10.0019 3.00274C10.374 3.00274 10.666 3.29794 10.666 3.6701C10.665 3.7145 10.6729 3.75868 10.6892 3.79998C10.7055 3.84129 10.7299 3.87889 10.761 3.91064C10.792 3.94239 10.8291 3.96763 10.87 3.98485C10.911 4.00207 10.9549 4.01096 10.9993 4.01096C11.0437 4.01096 11.0877 4.00207 11.1286 3.98485C11.1696 3.96763 11.2067 3.94239 11.2377 3.91064C11.2688 3.87889 11.2932 3.84129 11.3095 3.79998C11.3258 3.75868 11.3337 3.7145 11.3327 3.6701C11.3327 3.05285 10.906 2.53319 10.3339 2.38359V1.66547C10.3339 1.44317 10.1673 1.33208 10.0006 1.33208V1.33208ZM18.4529 8.40083C18.0483 8.40083 17.6441 8.55461 17.3369 8.86176L15.3824 10.8163C15.0553 11.1305 15.5396 11.6148 15.8538 11.2877L17.8083 9.33315C18.1696 8.97183 18.7368 8.97183 19.0981 9.33315C19.2776 9.51266 19.3408 9.70776 19.3325 9.93734C19.3236 10.1669 19.2293 10.4288 19.0616 10.6666C18.4244 11.5701 16.9971 13.6349 16.2333 14.741C15.6478 15.589 14.9375 16.0021 14.0014 16.0021H8.33448C7.7275 16.0021 7.31844 16.2643 7.00824 16.538L2.56855 12.0983C2.43901 11.9687 2.22973 11.967 2.09847 12.0983L0.0983673 14.099C-0.0326263 14.2293 -0.0326263 14.4414 0.0983673 14.5717L5.43329 19.904C5.56332 20.0333 5.77334 20.0333 5.90336 19.904L7.90347 17.9033C8.03273 17.7732 8.03273 17.5632 7.90347 17.4332L7.47506 17.0048C7.69897 16.8001 7.92043 16.6688 8.33448 16.6688H14.0014C15.1468 16.6688 16.1034 16.1019 16.7815 15.1199C17.5451 14.0141 18.9742 11.9464 19.6059 11.0507C19.8358 10.7247 19.985 10.3495 19.9992 9.96145C20.0133 9.57339 19.8777 9.17008 19.5694 8.86176C19.2623 8.55461 18.8574 8.40083 18.4529 8.40083V8.40083ZM6.33437 10.6685C5.08947 10.6685 4.31906 11.2383 3.71444 11.8203C3.39017 12.1284 3.85632 12.6129 4.17671 12.3007C4.74319 11.7555 5.281 11.3352 6.33437 11.3352H13.3347C13.8945 11.3352 14.3348 11.7755 14.3348 12.3353C14.3348 12.8951 13.8945 13.3353 13.3347 13.3353H9.66788C9.21707 13.329 9.21707 14.0084 9.66788 14.002H13.3347C14.2523 14.002 15.0015 13.2529 15.0015 12.3353C15.0015 11.4177 14.2523 10.6685 13.3347 10.6685H6.33437ZM2.33482 12.8073L7.1977 17.6695L5.66962 19.1976L0.806738 14.3354L2.33482 12.8073Z" fill="white"/>
</g>
<defs>
<clipPath id="clip0_188_2138">
<rect width="20" height="20" fill="white"/>
</clipPath>
</defs>
</svg>
