<svg width="20" height="20" viewBox="0 0 20 20" fill="none" xmlns="http://www.w3.org/2000/svg">
<g clip-path="url(#clip0_188_2131)">
<path d="M9.99976 11.585C7.76617 11.585 5.94885 13.4016 5.94885 15.6344C5.94885 17.8673 7.76617 19.6838 9.99976 19.6838C12.2335 19.6838 14.0507 17.8673 14.0507 15.6344C14.0507 13.4016 12.2335 11.585 9.99976 11.585ZM9.99976 19.097C8.08981 19.097 6.53601 17.5436 6.53601 15.6344C6.53601 13.7251 8.08981 12.1719 9.99976 12.1719C11.9097 12.1719 13.4635 13.7251 13.4635 15.6344C13.4635 17.5436 11.9097 19.097 9.99976 19.097Z" fill="white"/>
<path d="M9.68665 14.0499H11.2522C11.4144 14.0499 11.5458 13.9185 11.5458 13.7564C11.5458 13.5944 11.4144 13.4629 11.2522 13.4629H10.2933V12.8174C10.2933 12.6554 10.162 12.5239 9.99976 12.5239C9.83771 12.5239 9.70618 12.6554 9.70618 12.8174V13.4629H9.68665C9.00687 13.4629 8.45374 14.0158 8.45374 14.6954C8.45374 15.3749 9.00687 15.9278 9.68665 15.9278H10.3129C10.669 15.9278 10.9586 16.2175 10.9586 16.5733C10.9586 16.9293 10.669 17.219 10.3129 17.219H8.74731C8.58527 17.219 8.45374 17.3503 8.45374 17.5123C8.45374 17.6745 8.58527 17.8058 8.74731 17.8058H9.70618V18.4513C9.70618 18.6134 9.83771 18.7448 9.99976 18.7448C10.162 18.7448 10.2933 18.6134 10.2933 18.4513V17.8058H10.3129C10.9926 17.8058 11.5458 17.2529 11.5458 16.5733C11.5458 15.8938 10.9926 15.3409 10.3129 15.3409H9.68665C9.33051 15.3409 9.04089 15.0514 9.04089 14.6954C9.04089 14.3395 9.33051 14.0499 9.68665 14.0499V14.0499Z" fill="white"/>
<path d="M9.75872 10.1672C9.8135 10.2464 9.90368 10.2937 9.99996 10.2937C10.0964 10.2937 10.1866 10.2464 10.2414 10.1672L13.0593 6.0983C13.1215 6.00862 13.1288 5.89178 13.0781 5.79507C13.0273 5.69837 12.9272 5.63781 12.818 5.63781H11.8591V0.610366C11.8591 0.448224 11.7277 0.316895 11.5655 0.316895H8.43441C8.27236 0.316895 8.14083 0.448224 8.14083 0.610366V5.63781H7.18197C7.07271 5.63781 6.97262 5.69837 6.92196 5.79507C6.8713 5.89178 6.87847 6.00862 6.94057 6.0983L9.75872 10.1672ZM8.43441 6.22475C8.59646 6.22475 8.72799 6.09327 8.72799 5.93128V0.903837H11.2719V5.93128C11.2719 6.09327 11.4033 6.22475 11.5655 6.22475H12.2578L9.99996 9.48466L7.74227 6.22475H8.43441Z" fill="white"/>
<path d="M19.9665 9.55082C19.9157 9.45412 19.8156 9.39356 19.7064 9.39356H18.7475V2.83043C18.7475 2.66844 18.6161 2.53711 18.4539 2.53711H15.3228C15.1608 2.53711 15.0292 2.66844 15.0292 2.83043V9.39356H14.0704C13.9613 9.39356 13.861 9.45412 13.8104 9.55082C13.7597 9.64753 13.7669 9.76437 13.8291 9.85406L16.6471 13.923C16.7019 14.0022 16.7921 14.0494 16.8884 14.0494C16.9848 14.0494 17.075 14.0022 17.1298 13.923L19.9478 9.85406C20.0099 9.76437 20.0172 9.64753 19.9665 9.55082V9.55082ZM16.8884 13.2406L14.6307 9.9805H15.3228C15.485 9.9805 15.6164 9.84917 15.6164 9.68703V3.1239H18.1605V9.68703C18.1605 9.84917 18.2919 9.9805 18.4539 9.9805H19.1462L16.8884 13.2406Z" fill="white"/>
<path d="M6.18954 11.7422C6.13888 11.6455 6.03878 11.585 5.92953 11.585H4.97066V7.95304C4.97066 7.79089 4.83913 7.65956 4.67708 7.65956C4.51504 7.65956 4.38351 7.79089 4.38351 7.95304V11.8784C4.38351 12.0406 4.51504 12.1719 4.67708 12.1719H5.36922L3.11153 15.432L0.853843 12.1719H1.54598C1.70803 12.1719 1.83956 12.0406 1.83956 11.8784V5.31531H4.38351V6.59672C4.38351 6.75871 4.51504 6.89004 4.67708 6.89004C4.83913 6.89004 4.97066 6.75871 4.97066 6.59672V5.02183C4.97066 4.85985 4.83913 4.72852 4.67708 4.72852H1.54598C1.38378 4.72852 1.2524 4.85985 1.2524 5.02183V11.585H0.29354C0.184287 11.585 0.0841895 11.6455 0.0335304 11.7422C-0.0171288 11.8389 -0.00995716 11.9558 0.0521461 12.0455L2.87014 16.1144C2.92492 16.1936 3.01525 16.2408 3.11153 16.2408C3.20782 16.2408 3.29799 16.1936 3.35293 16.1144L6.17092 12.0455C6.23302 11.9558 6.24019 11.8389 6.18954 11.7422Z" fill="white"/>
</g>
<defs>
<clipPath id="clip0_188_2131">
<rect width="20" height="20" fill="white"/>
</clipPath>
</defs>
</svg>
