<svg width="24" height="24" viewBox="0 0 24 24" fill="none" xmlns="http://www.w3.org/2000/svg">
<path d="M14.3442 15.1239C14.6412 15.1239 14.9191 15.0068 15.1265 14.7942L16.9692 12.9049C17.3897 12.4737 17.381 11.7807 16.9497 11.3601C16.5184 10.9396 15.8253 10.9483 15.4047 11.3795L14.3237 12.4877L14.1344 12.3036C13.7025 11.8838 13.0094 11.8934 12.5893 12.3252C12.1694 12.7571 12.1791 13.4501 12.611 13.87L13.5826 14.8147C13.7876 15.0141 14.0582 15.1239 14.3442 15.1239ZM13.0945 12.8164C13.2438 12.6629 13.49 12.6597 13.6433 12.8087L14.0848 13.2381C14.2241 13.3736 14.4468 13.3705 14.5826 13.2315L15.9092 11.8714C16.0586 11.7182 16.3047 11.7152 16.4578 11.8645C16.611 12.0139 16.6141 12.26 16.4648 12.4131L14.6221 14.3023C14.4797 14.4546 14.2202 14.4579 14.0738 14.3096L13.1022 13.365C12.9489 13.2159 12.9454 12.9697 13.0945 12.8164Z" fill="white"/>
<path d="M11.6209 15.3641C11.5037 15.2088 11.2829 15.1778 11.1274 15.295C10.9721 15.4122 10.9412 15.6331 11.0584 15.7884C11.1867 15.9584 11.3286 16.1214 11.4801 16.2729C12.3463 17.139 13.498 17.616 14.723 17.616C15.948 17.616 17.0996 17.139 17.9658 16.2729C18.832 15.4069 19.309 14.2553 19.309 13.0305C19.309 11.8057 18.832 10.6542 17.9658 9.78814C16.1777 8.00028 13.2683 8.00033 11.4801 9.78814C10.261 11.007 9.82965 12.7851 10.3543 14.4286C10.4135 14.6139 10.6119 14.7161 10.7971 14.657C10.9824 14.5979 11.0847 14.3997 11.0255 14.2144C10.5814 12.8232 10.9465 11.318 11.9784 10.2863C13.4917 8.77316 15.9542 8.77316 17.4676 10.2863C18.2007 11.0194 18.6045 11.9939 18.6045 13.0306C18.6045 14.0672 18.2007 15.0418 17.4676 15.7748C16.7345 16.5078 15.7598 16.9115 14.723 16.9115C13.6862 16.9115 12.7115 16.5079 11.9784 15.7748C11.8498 15.6462 11.7295 15.5081 11.6209 15.3641Z" fill="white"/>
<path d="M23.5152 19.4658L21.2927 17.2435C21.155 17.106 20.932 17.106 20.7944 17.2435L20.7808 17.2571L19.9255 16.4019C20.5004 15.5155 20.843 14.4914 20.9104 13.4225C20.9226 13.2283 20.7751 13.061 20.581 13.0487C20.3869 13.0369 20.2195 13.184 20.2072 13.3781C20.123 14.7126 19.5553 15.9689 18.6086 16.9154C17.5388 17.9852 16.1338 18.5207 14.7284 18.522C14.7266 18.522 14.7249 18.5218 14.723 18.5218H14.6951C13.2972 18.5147 11.9016 17.9794 10.8374 16.9154C9.79952 15.8777 9.22793 14.4979 9.22793 13.0303C9.22793 11.5627 9.79952 10.1829 10.8374 9.14522C12.9799 7.00294 16.4661 7.00294 18.6086 9.14522C19.4066 9.94313 19.9332 10.9496 20.1316 12.0559C20.1659 12.2474 20.3491 12.3746 20.5405 12.3405C20.732 12.3061 20.8594 12.1231 20.8251 11.9316C20.6013 10.683 20.0071 9.54717 19.1069 8.64703C18.6608 8.20102 18.163 7.83759 17.6327 7.5562V4.71717C17.6324 4.62445 17.595 4.5337 17.5295 4.46808L13.1641 0.103172C13.0984 0.0378281 13.0077 0.000234375 12.9149 0H1.05682C0.474065 0 -7.51953e-05 0.474047 -7.51953e-05 1.05675V4.01752C-7.51953e-05 4.21205 0.157612 4.36978 0.352237 4.36978C0.546815 4.36978 0.70455 4.21209 0.70455 4.01752V1.05675C0.70455 0.8625 0.862565 0.704484 1.05686 0.704484H12.5627V4.01269C12.5627 4.59539 13.0368 5.06944 13.6196 5.06944H16.9282V7.23717C16.2408 6.97673 15.5162 6.84295 14.7903 6.83512C14.7868 6.83466 14.7835 6.83395 14.7798 6.83395H6.91422C6.71964 6.83395 6.56191 6.99169 6.56191 7.18622C6.56191 7.38075 6.71964 7.53848 6.91422 7.53848H11.8467C11.3441 7.80127 10.8704 8.13764 10.4414 8.54747H6.91422C6.71964 8.54747 6.56191 8.7052 6.56191 8.89973C6.56191 9.09427 6.71964 9.252 6.91422 9.252H9.80735C9.23228 9.99689 8.83928 10.8548 8.65118 11.7706H6.91427C6.71969 11.7706 6.56196 11.9283 6.56196 12.1229C6.56196 12.3174 6.71969 12.4751 6.91427 12.4751H8.54828C8.53207 12.6587 8.52349 12.8439 8.52349 13.0304C8.52349 13.1834 8.52907 13.3356 8.53999 13.4866H6.91432C6.71974 13.4866 6.562 13.6444 6.562 13.8389C6.562 14.0334 6.71974 14.1912 6.91432 14.1912H8.63182C8.81149 15.1447 9.21208 16.0381 9.80843 16.8101H6.91432C6.71974 16.8101 6.562 16.9678 6.562 17.1623C6.562 17.3569 6.71974 17.5146 6.91432 17.5146H10.4428C10.8712 17.9237 11.3442 18.2595 11.8458 18.522H6.91413C6.71955 18.522 6.56182 18.6797 6.56182 18.8742C6.56182 19.0687 6.71955 19.2265 6.91413 19.2265H14.723C15.4713 19.2264 16.2195 19.092 16.9281 18.8235V22.9434C16.9281 23.1376 16.7701 23.2957 16.5758 23.2957H1.05682C0.862565 23.2957 0.704503 23.1377 0.704503 22.9434V5.42672C0.704503 5.23219 0.546769 5.07445 0.35219 5.07445C0.157612 5.07445 -0.00012207 5.23214 -0.00012207 5.42672V22.9434C-7.51953e-05 23.526 0.474065 24 1.05682 24H16.5759C17.1586 24 17.6328 23.526 17.6328 22.9432V18.5043C17.79 18.4209 17.9443 18.3301 18.0953 18.2323L18.9504 19.0873C18.8024 19.2165 18.7945 19.4626 18.9368 19.599L21.1594 21.8214C21.7794 22.4676 22.8952 22.4675 23.5152 21.8214C24.1615 21.2014 24.1615 20.0857 23.5152 19.4658V19.4658ZM13.6196 4.36495C13.4253 4.36495 13.2672 4.20694 13.2672 4.01269V1.20267L16.4299 4.36495H13.6196ZM18.67 17.8105C18.8203 17.6863 18.9663 17.5542 19.1069 17.4136C19.2467 17.2738 19.3789 17.1279 19.5038 16.9767L20.2825 17.7553L19.4486 18.589L18.67 17.8105ZM23.017 21.3232C22.6593 21.6961 22.0154 21.696 21.6576 21.3232L19.6841 19.35L21.0435 17.9907L23.0171 19.964C23.3899 20.3218 23.3899 20.9655 23.017 21.3232Z" fill="white"/>
<path d="M3.19695 9.60026H4.7382C5.17273 9.60026 5.52626 9.24682 5.52626 8.81238V7.27132C5.52626 6.83684 5.17278 6.4834 4.7382 6.4834H3.19695C2.76247 6.4834 2.40894 6.83684 2.40894 7.27132V8.81238C2.40894 9.24682 2.76247 9.60026 3.19695 9.60026ZM3.11356 7.27132C3.11356 7.22534 3.15101 7.18793 3.19695 7.18793H4.7382C4.78423 7.18793 4.82164 7.22534 4.82164 7.27132V8.81238C4.82164 8.85837 4.78419 8.89577 4.7382 8.89577H3.19695C3.15097 8.89577 3.11356 8.85837 3.11356 8.81238V7.27132Z" fill="white"/>
<path d="M2.40894 13.7513C2.40894 14.1857 2.76242 14.5392 3.19695 14.5392H4.7382C5.17273 14.5392 5.52626 14.1857 5.52626 13.7513V12.2102C5.52626 11.7758 5.17278 11.4224 4.7382 11.4224H3.19695C2.76247 11.4224 2.40894 11.7758 2.40894 12.2102V13.7513ZM3.11356 12.2102C3.11356 12.1643 3.15101 12.1268 3.19695 12.1268H4.7382C4.78423 12.1268 4.82164 12.1643 4.82164 12.2102V13.7513C4.82164 13.7973 4.78419 13.8347 4.7382 13.8347H3.19695C3.15097 13.8347 3.11356 13.7973 3.11356 13.7513V12.2102Z" fill="white"/>
<path d="M2.40894 18.7909C2.40894 19.2253 2.76242 19.5788 3.19695 19.5788H4.7382C5.17273 19.5788 5.52626 19.2253 5.52626 18.7909V17.2498C5.52626 16.8154 5.17278 16.4619 4.7382 16.4619H3.19695C2.76247 16.4619 2.40894 16.8154 2.40894 17.2498V18.7909ZM3.11356 17.2498C3.11356 17.2039 3.15101 17.1664 3.19695 17.1664H4.7382C4.78423 17.1664 4.82164 17.2039 4.82164 17.2498V18.7909C4.82164 18.8369 4.78419 18.8743 4.7382 18.8743H3.19695C3.15097 18.8743 3.11356 18.8369 3.11356 18.7909V17.2498Z" fill="white"/>
</svg>
