<svg width="24" height="24" viewBox="0 0 24 24" fill="none" xmlns="http://www.w3.org/2000/svg">
<path d="M23.9999 22.2422V4.54463C23.9999 3.59377 23.1972 2.78681 22.2421 2.78681H17.2663C17.1034 1.2232 15.7749 0 14.1653 0C12.5557 0 11.2272 1.2232 11.0643 2.78681H1.75769C0.801487 2.78681 -0.00012207 3.58772 -0.00012207 4.54463V22.2422C-0.00012207 23.2115 0.788409 24 1.75769 24H22.2421C22.9898 24 23.9999 23.2969 23.9999 22.2422ZM16.5604 15.2609L23.2968 8.30541V21.9972L16.5604 15.2609ZM14.1653 0.703125C15.4968 0.703125 16.5802 1.78322 16.5802 3.11086C16.5802 4.05839 16.2048 5.38814 15.6007 6.5812C14.9785 7.80984 14.3868 8.3625 14.1653 8.3625C13.9535 8.3625 13.3716 7.86103 12.7119 6.51534C12.1278 5.32411 11.7504 3.98775 11.7504 3.11086C11.7505 1.78322 12.8337 0.703125 14.1653 0.703125ZM0.703003 4.54463C0.703003 4.38019 0.740878 4.22442 0.808284 4.08558L4.63591 7.9132L0.703003 11.8461V4.54463ZM0.703003 22.2422V16.4654L6.94558 10.2228L20.0196 23.2969H1.75769C1.17611 23.2969 0.703003 22.8237 0.703003 22.2422ZM22.2421 23.2969H21.014L7.19416 9.47705C7.05686 9.3398 6.83425 9.3398 6.697 9.47705L0.703003 15.471V12.8405L5.38169 8.16178C5.51899 8.02444 5.51899 7.80188 5.38169 7.66458L1.30797 3.59086C1.44447 3.52622 1.59691 3.48994 1.75769 3.48994H3.79502L13.9472 13.642C14.0853 13.7801 14.3098 13.7793 14.4468 13.6395L18.8924 9.10547C19.2106 8.78086 18.7087 8.28872 18.3903 8.61319L14.1933 12.8937L4.78942 3.48994H11.0643C11.1581 4.6042 11.6329 5.91197 12.0805 6.82491C13.0364 8.77458 13.797 9.06567 14.1653 9.06567C15.0367 9.06567 15.8981 7.55039 16.228 6.89887C16.8133 5.74303 17.1891 4.50042 17.2674 3.48994H22.2421C22.5644 3.48994 22.8533 3.63548 23.0469 3.86409L19.7849 7.19091C19.4672 7.51505 19.9681 8.00845 20.287 7.68319L23.2968 4.61363V7.29469L15.8147 15.0203C15.6811 15.1582 15.6828 15.3777 15.8186 15.5135L23.1243 22.8192C22.9357 23.1066 22.6107 23.2969 22.2421 23.2969Z" fill="white"/>
<path d="M14.1653 4.83714C15.0704 4.83714 15.8069 4.09929 15.8069 3.19225C15.8069 2.28522 15.0704 1.54736 14.1653 1.54736C13.2601 1.54736 12.5237 2.28522 12.5237 3.19225C12.5237 4.09929 13.2601 4.83714 14.1653 4.83714ZM14.1653 2.25054C14.6827 2.25054 15.1037 2.67302 15.1037 3.1923C15.1037 3.71158 14.6828 4.13407 14.1653 4.13407C13.6478 4.13407 13.2268 3.71158 13.2268 3.1923C13.2268 2.67302 13.6478 2.25054 14.1653 2.25054Z" fill="white"/>
<path d="M9.86191 15.1751C9.65909 14.7683 9.02984 15.0822 9.23271 15.4889C9.39968 15.8238 9.48438 16.1838 9.48438 16.5591C9.48438 17.5066 9.1091 18.8364 8.50493 20.0294C7.88276 21.258 7.29101 21.8107 7.06948 21.8107C6.85769 21.8107 6.27579 21.3092 5.61602 19.9635C5.03201 18.7724 4.65462 17.436 4.65462 16.5591C4.65462 15.2315 5.7379 14.1514 7.06948 14.1514C7.42066 14.1514 7.76004 14.2255 8.07823 14.3716C8.49129 14.5613 8.78477 13.9223 8.37171 13.7326C7.9608 13.5439 7.52271 13.4482 7.06952 13.4482C5.35024 13.4482 3.95154 14.8438 3.95154 16.5591C3.95154 17.7437 4.48526 19.2543 4.98476 20.2731C5.94063 22.2227 6.70123 22.5138 7.06952 22.5138C7.94093 22.5138 8.8023 20.9985 9.13221 20.347C9.79301 19.0422 10.1875 17.6261 10.1875 16.5591C10.1875 16.0739 10.078 15.6083 9.86191 15.1751Z" fill="white"/>
<path d="M7.06942 14.9956C6.16426 14.9956 5.42786 15.7335 5.42786 16.6405C5.42786 17.5475 6.16426 18.2854 7.06942 18.2854C7.97458 18.2854 8.71098 17.5475 8.71098 16.6405C8.71098 15.7335 7.97458 14.9956 7.06942 14.9956ZM7.06942 17.5823C6.55197 17.5823 6.13098 17.1598 6.13098 16.6405C6.13098 16.1212 6.55197 15.6987 7.06942 15.6987C7.58687 15.6987 8.00786 16.1212 8.00786 16.6405C8.00786 17.1598 7.58687 17.5823 7.06942 17.5823Z" fill="white"/>
</svg>
