<svg width="24" height="24" viewBox="0 0 24 24" fill="none" xmlns="http://www.w3.org/2000/svg">
<path d="M18.8222 8.43067V1.35202C18.8222 0.60647 18.2157 0 17.4702 0H6.52928C5.78378 0 5.17727 0.60647 5.17727 1.35202V8.40588C5.17727 8.4137 5.17792 8.42134 5.17844 8.42903C4.04833 9.97647 4.04795 12.097 5.17727 13.6449V22.648C5.17727 23.3935 5.78378 24 6.52928 24H17.4702C18.2157 24 18.8222 23.3935 18.8222 22.648V13.6449C19.9511 12.0976 19.9511 9.97797 18.8222 8.43067ZM17.8776 13.6707C17.7669 13.7814 17.6198 13.8424 17.4632 13.8424C17.3067 13.8424 17.1595 13.7814 17.0489 13.6708C16.8204 13.4423 16.8204 13.0705 17.0489 12.8421C17.5302 12.3608 17.7952 11.72 17.7952 11.0378C17.7952 10.3556 17.5302 9.71477 17.0489 9.23355C16.8204 9.00508 16.8204 8.63327 17.0489 8.40484C17.2749 8.17877 17.6515 8.17881 17.8776 8.4048C19.3293 9.85661 19.3293 12.2189 17.8776 13.6707ZM6.52928 0.703126H17.4702C17.828 0.703126 18.1191 0.994221 18.1191 1.35202V2.289H8.90599C8.45144 2.289 8.45144 2.99213 8.90599 2.99213H18.1191V7.70922C17.6248 7.41728 16.976 7.48337 16.5517 7.90764C16.0491 8.41024 16.0491 9.22807 16.5517 9.73071C16.9002 10.0792 17.0921 10.5434 17.0921 11.0378C17.0921 11.5322 16.9002 11.9964 16.5517 12.3449C16.0491 12.8475 16.0491 13.6654 16.5517 14.168C16.7952 14.4114 17.1189 14.5455 17.4632 14.5455C17.6977 14.5455 17.9226 14.4832 18.1191 14.3667V18.7162H5.88044V14.3664C6.37455 14.6583 7.04233 14.5736 7.44785 14.168C7.9504 13.6654 7.9504 12.8476 7.44785 12.3449C7.09933 11.9965 6.90742 11.5323 6.90742 11.0379C6.90742 10.5434 7.09933 10.0793 7.44785 9.73075C7.9504 9.22816 7.9504 8.41033 7.44785 7.90773C7.04271 7.50245 6.37417 7.4162 5.88044 7.70898V2.99213H7.00502C7.45957 2.99213 7.45957 2.289 7.00502 2.289H5.88044V1.35202C5.88044 0.994221 6.17153 0.703126 6.52928 0.703126ZM6.12199 8.40484C6.34792 8.17881 6.72466 8.17886 6.9506 8.40484C7.17907 8.63331 7.17907 9.00513 6.9506 9.23355C6.46928 9.71482 6.20425 10.3556 6.20425 11.0378C6.20425 11.72 6.46933 12.3609 6.9506 12.842C7.17907 13.0705 7.17907 13.4423 6.9506 13.6707C6.72457 13.8968 6.34792 13.8968 6.12189 13.6707C4.67017 12.2189 4.67017 9.85666 6.12199 8.40484ZM17.4702 23.2969H6.52928C6.17149 23.2969 5.88039 23.0058 5.88039 22.648V19.4192H18.1191V22.648C18.1191 23.0058 17.828 23.2969 17.4702 23.2969Z" fill="white"/>
<path d="M21.5828 5.20706C21.0802 4.70442 20.2624 4.70442 19.7597 5.20706C19.2571 5.7097 19.2571 6.52753 19.7597 7.03017C20.8285 8.09888 21.4171 9.52224 21.4171 11.038C21.4171 12.5538 20.8284 13.9772 19.7597 15.0459C19.5163 15.2894 19.3822 15.6131 19.3822 15.9574C19.3822 16.3017 19.5163 16.6255 19.7597 16.869C20.252 17.3611 21.0895 17.3622 21.5828 16.869C21.8543 16.5974 22.1101 16.3036 22.3428 15.9955C22.6168 15.6329 22.0559 15.2089 21.7818 15.5717C21.5685 15.8539 21.3343 16.1231 21.0856 16.3717C20.861 16.5964 20.4815 16.5964 20.2569 16.3717C20.0285 16.1433 20.0285 15.7715 20.2569 15.5431C21.4585 14.3415 22.1202 12.7416 22.1202 11.038C22.1202 9.33441 21.4585 7.73442 20.2569 6.53292C20.0309 6.30694 20.0309 5.93025 20.2569 5.70426C20.4854 5.47575 20.8572 5.47575 21.0856 5.70426C22.5114 7.13006 23.2966 9.02429 23.2966 11.038C23.2966 12.0932 23.0844 13.1119 22.6657 14.066C22.483 14.4823 23.1269 14.7647 23.3095 14.3485C23.7675 13.3048 23.9997 12.191 23.9997 11.038C23.9997 8.8365 23.1414 6.76566 21.5828 5.20706Z" fill="white"/>
<path d="M2.58239 11.0378C2.58239 9.52199 3.17095 8.09868 4.2397 7.02997C4.73241 6.53727 4.73358 5.70073 4.2397 5.20691C3.74709 4.71415 2.91037 4.71303 2.41664 5.20686C0.858086 6.76541 -0.000244141 8.83626 -0.000244141 11.0378C-0.000244141 13.2393 0.858086 15.3101 2.41664 16.8688C2.90878 17.361 3.74644 17.3621 4.2397 16.8688C4.74234 16.3662 4.74234 15.5483 4.2397 15.0457C3.17095 13.977 2.58239 12.5536 2.58239 11.0378ZM3.7425 16.3716C3.51403 16.6001 3.14236 16.6001 2.91379 16.3716C1.48809 14.9458 0.702882 13.0515 0.702882 11.0378C0.702882 9.02404 1.48809 7.12982 2.91384 5.70406C3.13982 5.47798 3.51656 5.47808 3.7425 5.70411C3.97097 5.93258 3.97097 6.3043 3.7425 6.53277C2.54095 7.73427 1.87921 9.33421 1.87921 11.0378C1.87921 12.7414 2.54095 14.3414 3.7425 15.5429C3.97097 15.7714 3.97097 16.1431 3.7425 16.3716Z" fill="white"/>
<path d="M11.9998 13.815C13.5312 13.815 14.7771 12.5691 14.7771 11.0376C14.7771 9.50615 13.5312 8.26025 11.9998 8.26025C10.4684 8.26025 9.22241 9.50615 9.22241 11.0376C9.22241 12.5691 10.4684 13.815 11.9998 13.815ZM11.9998 8.96338C13.1435 8.96338 14.074 9.8939 14.074 11.0376C14.074 12.1813 13.1435 13.1118 11.9998 13.1118C10.8561 13.1118 9.92554 12.1813 9.92554 11.0376C9.92554 9.8939 10.8561 8.96338 11.9998 8.96338Z" fill="white"/>
<path d="M13.1755 20.0859H10.824C10.1261 20.0859 9.55835 20.6537 9.55835 21.3516C9.55835 22.0494 10.1261 22.6172 10.824 22.6172H13.1755C13.8734 22.6172 14.4411 22.0494 14.4411 21.3516C14.4411 20.6537 13.8734 20.0859 13.1755 20.0859ZM13.1755 21.9141H10.824C10.5138 21.9141 10.2615 21.6617 10.2615 21.3516C10.2615 21.0414 10.5138 20.7891 10.824 20.7891H13.1755C13.4857 20.7891 13.738 21.0414 13.738 21.3516C13.738 21.6617 13.4857 21.9141 13.1755 21.9141Z" fill="white"/>
</svg>
