<svg width="24" height="24" viewBox="0 0 24 24" fill="none" xmlns="http://www.w3.org/2000/svg">
<path d="M22.0053 6.89117V3.89136C22.0053 3.69452 21.8456 3.53485 21.6487 3.53485H19.7113V0.356506C19.7113 0.159668 19.5516 0 19.3547 0H5.09463C4.89775 0 4.73823 0.159668 4.73823 0.356506V3.53485H2.80056C2.60367 3.53485 2.44416 3.69452 2.44416 3.89136V9.51819H2.12915C1.20646 9.51819 0.455933 10.2687 0.455933 11.1912V22.327C0.455933 23.2495 1.20646 24 2.12915 24H19.0486C19.0494 24 19.0499 23.9998 19.0507 23.9998H21.8707C22.7934 23.9998 23.5439 23.2495 23.5439 22.327V8.55817C23.5439 7.68109 22.8652 6.96002 22.0053 6.89117ZM5.45121 0.71283H18.9983V6.88531H17.4166V3.89136C17.4166 3.69452 17.2571 3.53485 17.0602 3.53485H5.45121V0.71283ZM1.16892 22.3271V11.1912C1.16892 10.6619 1.59967 10.2312 2.12915 10.2312H3.52489C3.72178 10.2312 3.88129 10.0715 3.88129 9.87469C3.88129 9.67786 3.72178 9.51819 3.52489 9.51819H3.15714V4.24768H16.7036V6.88531H13.0887C12.166 6.88531 11.4155 7.63568 11.4155 8.55817C11.4155 9.08752 10.9848 9.51819 10.4551 9.51819H4.95105C4.75416 9.51819 4.59446 9.67786 4.59446 9.87469C4.59446 10.0715 4.75416 10.2312 4.95105 10.2312H10.4551C11.3778 10.2312 12.1285 9.48065 12.1285 8.55817C12.1285 8.02881 12.5593 7.59814 13.0887 7.59814H19.0486C19.5783 7.59814 20.009 8.02881 20.009 8.55817V22.3271C20.009 22.8561 19.5787 23.2866 19.0496 23.2872H19.0485C19.0483 23.2872 19.0479 23.2872 19.0475 23.2872H2.12915C1.59967 23.2872 1.16892 22.8565 1.16892 22.3271ZM22.8309 22.3271C22.8309 22.8563 22.4002 23.2872 21.8707 23.2872H20.4178C20.5841 23.0508 20.6907 22.7697 20.7158 22.4659H21.6487C21.8456 22.4659 22.0053 22.3063 22.0053 22.1094V12.6594C22.0053 12.4625 21.8456 12.303 21.6487 12.303C21.4519 12.303 21.2922 12.4625 21.2922 12.6594V21.7529H20.722V8.55817C20.722 7.87097 20.3052 7.27936 19.7113 7.02228V4.24768H21.2922V11.2337C21.2922 11.4305 21.4519 11.59 21.6487 11.59C21.8456 11.59 22.0053 11.4305 22.0053 11.2337V7.60876C22.4711 7.6745 22.8309 8.07458 22.8309 8.55817V22.3271Z" fill="white"/>
<path d="M5.03621 6.1012H13.5922C13.7891 6.1012 13.9486 5.94153 13.9486 5.74469C13.9486 5.54785 13.7891 5.38818 13.5922 5.38818H5.03621C4.83933 5.38818 4.67981 5.54785 4.67981 5.74469C4.67981 5.94153 4.83933 6.1012 5.03621 6.1012Z" fill="white"/>
<path d="M5.03621 7.88373H9.93058C10.1275 7.88373 10.287 7.72424 10.287 7.5274C10.287 7.33038 10.1275 7.1709 9.93058 7.1709H5.03621C4.83933 7.1709 4.67981 7.33038 4.67981 7.5274C4.67981 7.72424 4.83933 7.88373 5.03621 7.88373Z" fill="white"/>
<path d="M18.6543 11.4473H11.2391C11.0422 11.4473 10.8827 11.6069 10.8827 11.8038V14.4412C10.8827 14.6381 11.0422 14.7977 11.2391 14.7977H18.6543C18.8511 14.7977 19.0109 14.6381 19.0109 14.4412V11.8038C19.0109 11.6069 18.8511 11.4473 18.6543 11.4473ZM18.2979 14.0847H11.5957V12.1601H18.2979V14.0847Z" fill="white"/>
</svg>
