<svg width="20" height="20" viewBox="0 0 20 20" fill="none" xmlns="http://www.w3.org/2000/svg">
<path d="M18.5936 7.58323C18.4229 7.57134 18.2736 7.69945 18.2611 7.87062C17.9561 12.0545 16.2737 17.4343 10.0021 19.3645C5.88265 18.0968 3.25221 15.1981 2.18255 10.7474C1.47469 7.80213 1.71927 5.10498 1.79626 4.44439C3.3986 3.60287 5.17935 2.74427 7.09191 1.89098C7.24865 1.82104 7.31901 1.63728 7.24911 1.48058C7.17917 1.32383 6.99524 1.25356 6.8387 1.32338C4.8567 2.20766 3.01454 3.09808 1.36336 3.96998C1.27601 4.01605 1.21577 4.10095 1.20114 4.19865C1.18187 4.32705 0.738985 7.38252 1.57372 10.8737C2.06657 12.935 2.90595 14.7134 4.06854 16.1595C5.52553 17.9718 7.49179 19.2595 9.9127 19.9869C9.94187 19.9957 9.97199 20 10.0021 20C10.0322 20 10.0624 19.9957 10.0915 19.9869C13.1452 19.0694 15.4569 17.2744 16.9626 14.652C18.0474 12.7626 18.6929 10.4962 18.881 7.91578C18.8934 7.74457 18.7648 7.59574 18.5936 7.58323Z" fill="white"/>
<path d="M18.8031 4.19864C18.7884 4.1009 18.7282 4.016 18.6409 3.96993C14.4437 1.75371 10.1599 0.0391655 10.1172 0.0220947C10.0432 -0.0073649 9.96086 -0.0073649 9.88694 0.0220947C9.87965 0.0249951 9.1456 0.318182 8.00724 0.810128C7.84971 0.878246 7.7772 1.06114 7.84528 1.21867C7.91339 1.37616 8.09624 1.44883 8.25382 1.38063C9.12368 1.00474 9.75464 0.746154 10.002 0.645884C10.7016 0.929872 14.4694 2.48133 18.2081 4.44451C18.2464 4.76931 18.3257 5.58573 18.312 6.67424C18.3098 6.84586 18.4472 6.98674 18.6188 6.98889C18.6201 6.98893 18.6215 6.98893 18.6228 6.98893C18.7926 6.98893 18.9313 6.85237 18.9334 6.68212C18.9521 5.21001 18.8092 4.23925 18.8031 4.19864Z" fill="white"/>
<path d="M17.0576 5.38135C17.0429 5.28369 16.9827 5.19879 16.8954 5.15268C13.5579 3.39041 10.1513 2.02694 10.1173 2.01331C10.0434 1.98385 9.96093 1.98385 9.88701 2.01331C9.85299 2.0269 6.44645 3.39036 3.10889 5.15268C3.02155 5.19875 2.96131 5.28365 2.94668 5.38135C2.92882 5.50018 2.52036 8.32636 3.41915 11.3663C3.46784 11.5309 3.64066 11.6249 3.80528 11.5762C3.96985 11.5275 4.06378 11.3546 4.01514 11.19C3.27181 8.67602 3.47244 6.24985 3.54225 5.62689C6.45909 4.09756 9.39183 2.88545 10.0021 2.63718C10.6124 2.88545 13.5453 4.09764 16.4621 5.62697C16.5265 6.19768 16.7018 8.28161 16.156 10.5643C15.3158 14.0781 13.2455 16.3684 10.0021 17.373C7.32079 16.5421 5.42883 14.8121 4.37831 12.2301C4.31371 12.0712 4.1324 11.9948 3.97346 12.0594C3.81447 12.1241 3.73803 12.3053 3.80271 12.4643C4.93929 15.2579 6.99499 17.1189 9.91274 17.9955C9.94191 18.0043 9.97203 18.0087 10.0022 18.0087C10.0323 18.0087 10.0624 18.0043 10.0916 17.9955C12.0276 17.4138 13.6003 16.3837 14.7661 14.9335C15.6957 13.7772 16.3668 12.3559 16.7605 10.7089C17.4266 7.92333 17.073 5.48386 17.0576 5.38135Z" fill="white"/>
<path d="M14.0544 6.89479C13.5071 6.34757 12.6168 6.34757 12.0695 6.89479L8.83698 10.1274L7.93487 9.22529C7.38757 8.67807 6.49724 8.67803 5.94993 9.22533C5.40276 9.77255 5.40276 10.663 5.94993 11.2102L7.84455 13.1048C8.10952 13.3698 8.462 13.5158 8.83698 13.5158C9.21191 13.5158 9.56439 13.3698 9.82941 13.1048L14.0544 8.87969C14.6015 8.33251 14.6015 7.44209 14.0544 6.89479ZM13.6148 8.44024L9.38987 12.6653C9.24224 12.813 9.04585 12.8943 8.83694 12.8943C8.62803 12.8943 8.43163 12.813 8.28396 12.6653L6.38934 10.7707C6.08451 10.4658 6.08451 9.96965 6.38938 9.66478C6.54182 9.5123 6.74211 9.43606 6.94236 9.43606C7.14261 9.43606 7.34291 9.5123 7.49538 9.66478L8.61721 10.7866C8.73861 10.9079 8.93534 10.908 9.0567 10.7866L12.5089 7.33432C12.8138 7.02933 13.31 7.02941 13.6148 7.33428C13.9197 7.63919 13.9197 8.13536 13.6148 8.44024Z" fill="white"/>
</svg>
