<svg width="24" height="24" viewBox="0 0 24 24" fill="none" xmlns="http://www.w3.org/2000/svg">
<path d="M20.7682 19.5315C20.574 19.5315 20.4165 19.6889 20.4165 19.883V22.711C20.4165 23.0341 20.1536 23.297 19.8304 23.297H4.16934C3.84613 23.297 3.58322 23.0341 3.58322 22.711V6.78857C3.58322 6.59442 3.42577 6.43701 3.23155 6.43701C3.03734 6.43701 2.87988 6.59442 2.87988 6.78857V22.711C2.87988 23.4218 3.45831 24.0001 4.16934 24.0001H19.8304C20.5415 24.0001 21.1199 23.4218 21.1199 22.711V19.883C21.1199 19.6889 20.9624 19.5315 20.7682 19.5315Z" fill="white"/>
<path d="M19.8304 0H18.0501C17.8559 0 17.6985 0.157406 17.6985 0.351562C17.6985 0.545718 17.8559 0.703125 18.0501 0.703125H19.8304C20.1536 0.703125 20.4165 0.965953 20.4165 1.28906V3.25781H3.58322V1.28906C3.58322 0.965953 3.84613 0.703125 4.16934 0.703125H16.4144C16.6086 0.703125 16.7661 0.545718 16.7661 0.351562C16.7661 0.157406 16.6086 0 16.4144 0H4.16934C3.45831 0 2.87988 0.57825 2.87988 1.28906V5.07487C2.87988 5.26903 3.03734 5.42643 3.23155 5.42643C3.42577 5.42643 3.58322 5.26903 3.58322 5.07487V3.96093H20.4165V18.2216C20.4165 18.4158 20.574 18.5732 20.7682 18.5732C20.9624 18.5732 21.1199 18.4158 21.1199 18.2216V1.28906C21.1199 0.57825 20.5415 0 19.8304 0Z" fill="white"/>
<path d="M16.5013 10.1919C17.988 10.1919 19.1975 8.9828 19.1975 7.49658C19.1975 6.01036 17.988 4.80127 16.5013 4.80127C15.0146 4.80127 13.8052 6.01036 13.8052 7.49658C13.8052 8.9828 15.0146 10.1919 16.5013 10.1919ZM16.5013 5.50439C17.6002 5.50439 18.4941 6.39807 18.4941 7.49658C18.4941 8.5951 17.6002 9.48877 16.5013 9.48877C15.4025 9.48877 14.5085 8.5951 14.5085 7.49658C14.5085 6.39807 15.4025 5.50439 16.5013 5.50439Z" fill="white"/>
<path d="M15.327 7.94301L16.3198 8.47608C16.3726 8.50444 16.4296 8.51798 16.4859 8.51798C16.6016 8.51798 16.7144 8.46079 16.7813 8.35748L17.6654 6.9929C17.771 6.82992 17.7244 6.61223 17.5614 6.50672C17.3983 6.40116 17.1806 6.44775 17.075 6.61069L16.3671 7.70339L15.6597 7.32361C15.4887 7.23173 15.2754 7.2959 15.1835 7.467C15.0916 7.638 15.1559 7.85114 15.327 7.94301Z" fill="white"/>
<path d="M16.5013 16.3359C17.988 16.3359 19.1975 15.1268 19.1975 13.6406C19.1975 12.1544 17.988 10.9453 16.5013 10.9453C15.0146 10.9453 13.8052 12.1544 13.8052 13.6406C13.8052 15.1268 15.0146 16.3359 16.5013 16.3359ZM16.5013 11.6484C17.6002 11.6484 18.4941 12.5421 18.4941 13.6406C18.4941 14.7391 17.6002 15.6328 16.5013 15.6328C15.4025 15.6328 14.5085 14.7391 14.5085 13.6406C14.5085 12.5421 15.4025 11.6484 16.5013 11.6484Z" fill="white"/>
<path d="M15.327 14.087L16.3198 14.6201C16.3726 14.6485 16.4296 14.662 16.4859 14.662C16.6016 14.662 16.7144 14.6048 16.7813 14.5015L17.6654 13.1369C17.771 12.9739 17.7244 12.7563 17.5614 12.6507C17.3983 12.5452 17.1806 12.5918 17.075 12.7547L16.3671 13.8474L15.6597 13.4676C15.4887 13.3758 15.2754 13.4399 15.1835 13.611C15.0916 13.782 15.1559 13.9952 15.327 14.087Z" fill="white"/>
<path d="M16.5013 22.48C17.988 22.48 19.1975 21.2709 19.1975 19.7847C19.1975 18.2984 17.988 17.0894 16.5013 17.0894C15.0146 17.0894 13.8052 18.2984 13.8052 19.7847C13.8052 21.2709 15.0146 22.48 16.5013 22.48ZM16.5013 17.7925C17.6002 17.7925 18.4941 18.6862 18.4941 19.7847C18.4941 20.8832 17.6002 21.7769 16.5013 21.7769C15.4025 21.7769 14.5085 20.8832 14.5085 19.7847C14.5085 18.6862 15.4025 17.7925 16.5013 17.7925Z" fill="white"/>
<path d="M15.327 20.2311L16.3198 20.7641C16.3726 20.7925 16.4296 20.806 16.4859 20.806C16.6016 20.806 16.7144 20.7489 16.7813 20.6455L17.6654 19.281C17.771 19.118 17.7244 18.9003 17.5614 18.7948C17.3983 18.6893 17.1806 18.7358 17.075 18.8988L16.3671 19.9915L15.6597 19.6117C15.4887 19.5198 15.2754 19.584 15.1835 19.7551C15.0916 19.9261 15.1559 20.1392 15.327 20.2311Z" fill="white"/>
<path d="M5.54003 6.97363H11.1668C11.361 6.97363 11.5184 6.81623 11.5184 6.62207C11.5184 6.42791 11.361 6.27051 11.1668 6.27051H5.54003C5.34581 6.27051 5.18835 6.42791 5.18835 6.62207C5.18835 6.81623 5.34581 6.97363 5.54003 6.97363Z" fill="white"/>
<path d="M5.54003 8.72168H8.35339C8.54761 8.72168 8.70506 8.56427 8.70506 8.37012C8.70506 8.17596 8.54761 8.01855 8.35339 8.01855H5.54003C5.34581 8.01855 5.18835 8.17596 5.18835 8.37012C5.18835 8.56427 5.34581 8.72168 5.54003 8.72168Z" fill="white"/>
<path d="M5.54003 13.1055H11.1668C11.361 13.1055 11.5184 12.9481 11.5184 12.7539C11.5184 12.5597 11.361 12.4023 11.1668 12.4023H5.54003C5.34581 12.4023 5.18835 12.5597 5.18835 12.7539C5.18835 12.9481 5.34581 13.1055 5.54003 13.1055Z" fill="white"/>
<path d="M5.54003 14.8535H8.35339C8.54761 14.8535 8.70506 14.6961 8.70506 14.502C8.70506 14.3078 8.54761 14.1504 8.35339 14.1504H5.54003C5.34581 14.1504 5.18835 14.3078 5.18835 14.502C5.18835 14.6961 5.34581 14.8535 5.54003 14.8535Z" fill="white"/>
<path d="M5.54003 19.2373H11.1668C11.361 19.2373 11.5184 19.0799 11.5184 18.8857C11.5184 18.6916 11.361 18.5342 11.1668 18.5342H5.54003C5.34581 18.5342 5.18835 18.6916 5.18835 18.8857C5.18835 19.0799 5.34581 19.2373 5.54003 19.2373Z" fill="white"/>
<path d="M5.54003 20.9854H8.35339C8.54761 20.9854 8.70506 20.8279 8.70506 20.6338C8.70506 20.4396 8.54761 20.2822 8.35339 20.2822H5.54003C5.34581 20.2822 5.18835 20.4396 5.18835 20.6338C5.18835 20.8279 5.34581 20.9854 5.54003 20.9854Z" fill="white"/>
</svg>
