<svg width="26" height="26" viewBox="0 0 26 26" fill="none" xmlns="http://www.w3.org/2000/svg">
<path d="M22.291 15.0029C22.5778 13.6808 22.5778 12.3126 22.291 10.9904C25.0242 6.7677 25.7415 3.33653 24.2038 1.79497C22.8865 0.481907 20.1684 0.809955 16.7129 2.68792C16.5208 2.79232 16.4538 3.03426 16.5615 3.22457V3.22457C16.6691 3.41479 16.9107 3.48123 17.1028 3.37696C20.178 1.70765 22.6085 1.32225 23.6437 2.35489C24.796 3.50997 24.1472 6.44854 22.0055 9.95773C21.2601 7.74442 19.725 5.88331 17.6936 4.73008C15.6623 3.57686 13.277 3.2124 10.9938 3.70637C6.76934 0.977271 3.33473 0.25817 1.79468 1.79576C0.476015 3.11747 0.810997 5.84555 2.7062 9.31653C2.81106 9.50857 3.05326 9.57516 3.24355 9.46715V9.46715C3.43389 9.3591 3.49999 9.11695 3.39515 8.92483C1.7094 5.83575 1.31822 3.39496 2.35477 2.35568C3.51139 1.20338 6.45087 1.85279 9.95995 3.99346C8.0748 4.62847 6.4365 5.83887 5.27597 7.45407C4.11543 9.06926 3.49117 11.0078 3.49117 12.9965C3.49117 14.9852 4.11543 16.9237 5.27597 18.5389C6.4365 20.1541 8.0748 21.3645 9.95995 21.9995C6.44731 24.1406 3.50782 24.7896 2.35477 23.6381C1.32377 22.6028 1.70632 20.1747 3.37467 17.1022C3.479 16.9101 3.41253 16.6683 3.2222 16.5607V16.5607C3.03189 16.4531 2.79 16.5201 2.6856 16.7122C0.808974 20.1647 0.481258 22.8807 1.79547 24.198C2.09746 24.4741 2.45179 24.6869 2.83749 24.8238C3.22318 24.9606 3.63242 25.0187 4.04098 24.9947C5.81671 24.9947 8.23651 24.0661 10.9914 22.285C13.275 22.7797 15.6609 22.4156 17.6928 21.2623C19.7247 20.1091 21.2601 18.2475 22.0055 16.0337C24.1472 19.5444 24.796 22.483 23.6445 23.6365C22.5815 24.6969 20.0738 24.2702 16.8989 22.5024C16.7079 22.3961 16.4656 22.4602 16.3561 22.6495V22.6495C16.2468 22.8386 16.3115 23.0811 16.5023 23.1875C18.6485 24.3852 20.5174 24.9947 21.9587 24.9947C22.3674 25.0187 22.7767 24.9606 23.1625 24.8237C23.5482 24.6868 23.9026 24.4739 24.2046 24.1976C25.7415 22.6584 25.0234 19.2257 22.291 15.0029ZM19.575 15.4239L19.2533 14.9962C19.6428 14.5474 20.0168 14.0967 20.3751 13.6439C20.7538 14.1497 21.1103 14.6531 21.4446 15.1542C21.2071 16.0772 20.819 16.9547 20.2959 17.7514L19.7334 17.1899V15.899C19.7325 15.7278 19.677 15.5614 19.575 15.4239ZM18.5451 14.0538V12.7747C18.5438 12.5644 18.4606 12.3628 18.313 12.2128L17.8119 11.7159C17.709 11.611 17.5791 11.5368 17.4365 11.5013C17.2939 11.4659 17.1443 11.4707 17.0043 11.5151L16.151 11.7923L14.9089 11.4918L14.6122 10.2979L15.1941 9.43266H16.4457L17.2209 9.94743C18.1763 10.9406 19.0715 11.9669 19.8808 12.9965C19.5253 13.4484 19.1542 13.8988 18.7673 14.3476L18.5451 14.0538ZM20.0329 7.86101C20.3308 8.2676 20.593 8.69925 20.8164 9.15111L19.6645 9.80844L17.9086 9.45523L17.7279 9.33643C17.5536 9.15626 17.3794 8.9753 17.2011 8.7975C16.8652 8.46132 16.523 8.13423 16.1788 7.81191C16.2644 7.82078 16.351 7.81488 16.4347 7.79448L17.7069 7.4777L18.9539 8.09939C19.0785 8.1617 19.2174 8.19005 19.3565 8.18156C19.4956 8.17308 19.6299 8.12807 19.7461 8.05108L20.0329 7.86101ZM21.1356 9.88051C21.2566 10.1938 21.3593 10.5139 21.443 10.8392C21.1105 11.3394 20.754 11.8427 20.3735 12.3491C19.8625 11.706 19.3207 11.0653 18.7515 10.4333L19.5203 10.5873C19.7052 10.6188 19.8953 10.5857 20.0586 10.4935L21.1356 9.88051ZM20.8773 12.9965C21.1435 12.6456 21.403 12.2948 21.6482 11.9456C21.7358 12.6436 21.7358 13.3498 21.6482 14.0478C21.403 13.6982 21.1435 13.3473 20.8773 12.9965ZM19.5354 7.24169L19.31 7.39177L18.0698 6.77364C17.8995 6.68362 17.7018 6.66019 17.5152 6.70791L16.2429 7.0247L15.53 6.55269L15.9863 5.86883H17.6341C17.7312 5.86661 17.8271 5.84634 17.9169 5.80903C18.5132 6.21826 19.0568 6.69945 19.5354 7.24169ZM16.6232 5.07686H15.9863C15.8553 5.07709 15.7264 5.10954 15.611 5.17135C15.4956 5.23316 15.3971 5.32243 15.3244 5.43127L14.8661 6.11592C14.7875 6.23763 14.7438 6.37856 14.7397 6.52338C14.464 6.28817 14.1876 6.0585 13.9103 5.83438C13.9283 5.63552 13.8704 5.43721 13.7481 5.27933C13.6258 5.12145 13.4483 5.01572 13.2512 4.98341L12.6966 4.88957C12.4473 4.70477 12.1985 4.52513 11.95 4.35064C12.2982 4.30775 12.6488 4.2858 12.9996 4.2849C14.2505 4.28425 15.4867 4.55443 16.6232 5.07686ZM10.6923 4.59733L10.9728 5.09389C11.0284 5.20077 11.1084 5.2931 11.2062 5.36345C11.304 5.43381 11.417 5.48023 11.536 5.49898L12.3718 5.63876C12.5556 5.77656 12.7398 5.91595 12.9236 6.0589L12.7533 6.31233L11.4461 6.63901C11.2735 6.68417 11.1215 6.78684 11.0152 6.93006L9.96708 8.33025L8.51378 9.05647L6.90283 9.37643C6.72317 9.41233 6.56151 9.50936 6.44538 9.65102C6.32925 9.79267 6.26582 9.97019 6.26589 10.1533V10.8028C6.26634 10.9339 6.29911 11.0629 6.36128 11.1784C6.42346 11.2939 6.51314 11.3922 6.62238 11.4648L7.4542 12.0224V12.7538L5.73155 11.8901L4.65137 10.5042C5.07723 9.08964 5.85462 7.80601 6.91099 6.77309C7.96736 5.74017 9.26829 4.99163 10.6923 4.59733ZM4.28538 12.9965C4.28608 12.4928 4.33034 11.9902 4.41767 11.4941L5.10135 12.3704C5.17438 12.4659 5.26809 12.5436 5.37545 12.5977L7.10048 13.463C7.21042 13.5171 7.33126 13.5454 7.45381 13.5457C7.45737 13.5457 7.46094 13.5457 7.4645 13.5457C7.45964 13.5719 7.4562 13.5983 7.4542 13.6249V14.816C7.45583 15.0247 7.53915 15.2244 7.68632 15.3724L8.31691 16.0028C8.37714 16.063 8.44669 16.1132 8.52289 16.1513L9.03782 16.4091V17.6889C9.0372 17.7739 9.05058 17.8584 9.07743 17.9391L9.78448 20.0584C9.82396 20.1753 9.89006 20.2814 9.97756 20.3684C10.0651 20.4554 10.1716 20.5209 10.2887 20.5597L10.7704 20.7181C10.8894 20.7575 11.0162 20.768 11.1401 20.7489C11.264 20.7297 11.3817 20.6815 11.4833 20.608C11.5849 20.5346 11.6676 20.438 11.7247 20.3264C11.7817 20.2147 11.8114 20.0911 11.8113 19.9658V18.7849L12.9577 18.2112C13.0888 18.1463 13.1993 18.0462 13.2767 17.922C13.3541 17.7979 13.3953 17.6546 13.3958 17.5083L13.4001 16.847L14.0893 16.6181C14.2161 16.5763 14.3303 16.503 14.421 16.4051C14.5118 16.3072 14.5762 16.1878 14.6082 16.0582L14.83 15.168C14.8592 15.0513 14.8613 14.9295 14.8363 14.8118C14.8113 14.6942 14.7598 14.5837 14.6857 14.4889C14.6117 14.3941 14.517 14.3174 14.4088 14.2647C14.3007 14.2119 14.1819 14.1845 14.0616 14.1844H13.5993L13.0519 13.3529C12.9799 13.2431 12.8817 13.1531 12.7662 13.0909C12.6506 13.0286 12.5213 12.9962 12.39 12.9965H11.1843L10.3327 12.1352C10.2072 12.0085 10.0426 11.9279 9.86554 11.9063C9.68848 11.8848 9.50933 11.9236 9.35708 12.0164L8.24641 12.6936V12.0204C8.24596 11.8893 8.2132 11.7602 8.15102 11.6448C8.08884 11.5293 7.99916 11.4309 7.88992 11.3583L7.0581 10.8028V10.1533L8.68212 9.83062C8.74711 9.81599 8.81004 9.79337 8.86948 9.7633L10.322 9.03668C10.4326 8.98262 10.5279 8.90176 10.5993 8.80146L11.6462 7.40365L12.9414 7.07974C13.1354 7.03682 13.3046 6.91915 13.4124 6.75226L13.5447 6.55427C14.3424 7.20487 15.135 7.90061 15.9082 8.63871H15.1952C15.0643 8.63897 14.9355 8.67139 14.8201 8.73312C14.7047 8.79485 14.6062 8.884 14.5334 8.99272L13.9475 9.86824C13.8897 9.95956 13.8509 10.0617 13.8337 10.1684C13.8165 10.2751 13.8211 10.3842 13.8473 10.4891L14.1404 11.6842C14.1764 11.8242 14.2497 11.9517 14.3526 12.0532C14.4554 12.1548 14.5839 12.2265 14.7243 12.2608L15.9502 12.5581C16.0973 12.5987 16.2532 12.5943 16.3978 12.5455L17.2483 12.2718L17.7529 12.7747V14.0538C17.7538 14.225 17.8093 14.3914 17.9113 14.5289L18.2314 14.9546C17.7208 15.524 17.1912 16.0871 16.641 16.6367C14.8694 18.4226 12.9268 20.0304 10.8413 21.4372C8.96725 20.9557 7.30638 19.8653 6.11969 18.3374C4.93301 16.8096 4.28777 14.9308 4.28538 12.9965ZM9.39511 15.7006L8.88017 15.4429L8.24641 14.8125V13.6213L9.76982 12.6924L10.623 13.5532C10.7716 13.7028 10.9734 13.7874 11.1843 13.7884H12.39L12.9379 14.62C13.01 14.7296 13.1083 14.8195 13.2238 14.8817C13.3393 14.9439 13.4685 14.9764 13.5997 14.9764H14.0612L13.8394 15.867L13.151 16.095C12.9938 16.1471 12.8568 16.2471 12.7594 16.381C12.662 16.5149 12.609 16.6759 12.6079 16.8415L12.6035 17.5028L11.4572 18.0765C11.3252 18.1418 11.2142 18.2428 11.1367 18.368C11.0593 18.4933 11.0185 18.6377 11.0191 18.7849V19.9658L10.5379 19.8074L9.83082 17.6889V16.4091C9.83159 16.2621 9.79118 16.1178 9.71417 15.9926C9.63717 15.8674 9.52664 15.7663 9.39511 15.7006ZM12.9996 21.7081C12.6481 21.7072 12.2969 21.6853 11.948 21.6423C13.8229 20.3133 15.5804 18.8259 17.2011 17.1967C17.7236 16.6748 18.229 16.1406 18.7166 15.6005L18.9412 15.899V17.1899C18.9416 17.3992 19.0246 17.5998 19.1721 17.7483L19.8265 18.4024C19.012 19.4329 17.9747 20.2656 16.7924 20.8381C15.61 21.4106 14.3134 21.708 12.9996 21.7081Z" fill="#212121" stroke="#212121" stroke-width="0.4"/>
<path fill-rule="evenodd" clip-rule="evenodd" d="M11.103 3.53844C8.97939 2.16653 7.04123 1.29089 5.42904 0.955314C3.82184 0.620777 2.49361 0.81608 1.65379 1.65457C0.934732 2.37528 0.687509 3.45975 0.847399 4.77438C1.00738 6.08975 1.57699 7.66454 2.53136 9.41243C2.69079 9.70442 3.05737 9.80327 3.34297 9.64114C3.63044 9.47796 3.72732 9.11479 3.5714 8.82908C2.73468 7.29581 2.22638 5.93579 2.05232 4.84026C1.87714 3.73776 2.04625 2.9492 2.49684 2.4972C2.99964 1.99652 3.93205 1.85293 5.23349 2.13522C6.52119 2.41453 8.11049 3.0996 9.85215 4.16161L12.2561 5.80152C12.438 5.93789 12.6196 6.07536 12.8006 6.21609L13.419 6.70932L13.5453 6.5544L13.4207 6.71069L13.4198 6.71003C14.2129 7.35686 15.0008 8.04843 15.7693 8.78193L17.0789 10.0876C17.9911 11.0359 18.8479 12.0144 19.6266 12.9965C19.3031 13.4043 18.9667 13.8108 18.6173 14.2162L18.6181 14.2153L18.7679 14.3475L18.6165 14.217L18.0827 14.8217C17.5744 15.3885 17.0469 15.9494 16.4997 16.4959C14.7379 18.2719 12.8062 19.8709 10.7322 21.2701L9.85483 21.8298C8.11035 22.893 6.51918 23.5786 5.23081 23.8581C3.92911 24.1405 2.9978 23.9969 2.4969 23.4967C2.04876 23.0465 1.87918 22.2617 2.05076 21.1651C2.22126 20.0753 2.7231 18.7226 3.55112 17.1977C3.70631 16.9119 3.60887 16.5492 3.32132 16.3867C3.03559 16.2251 2.66937 16.3246 2.51058 16.6167C1.56549 18.3554 1.0024 19.9226 0.846077 21.2322C0.68984 22.541 0.937814 23.6212 1.65443 24.3395L1.6612 24.3457C1.98293 24.6398 2.36041 24.8665 2.77131 25.0123C3.18034 25.1574 3.61423 25.2195 4.04751 25.1948C5.88104 25.1928 8.33859 24.2389 11.1007 22.4531L12.0603 21.8085L12.0643 21.8056C13.9485 20.47 15.7147 18.9753 17.3434 17.338C17.8684 16.8135 18.3761 16.2769 18.8658 15.7345L18.8668 15.7333L19.4036 15.1291L19.4051 15.1273C19.7381 14.7437 20.0598 14.3585 20.3702 13.9718C20.6892 14.4043 20.9917 14.8348 21.2777 15.2635L21.8365 16.1396C22.8999 17.8831 23.5857 19.4736 23.8652 20.7615C24.1476 22.0627 24.0039 22.9939 23.5038 23.4951C23.041 23.9566 22.2311 24.124 21.0976 23.9329C19.9716 23.7429 18.5732 23.2054 16.9968 22.3277C16.7125 22.1694 16.349 22.2636 16.1837 22.5494C16.0194 22.8336 16.1156 23.2005 16.4055 23.3623C18.5613 24.5653 20.4635 25.1931 21.9536 25.1948C22.387 25.2195 22.8209 25.1574 23.2301 25.0122C23.641 24.8663 24.0187 24.6397 24.3404 24.3454L24.3468 24.339C25.185 23.4996 25.3801 22.1723 25.0453 20.5659C24.7094 18.9544 23.8332 17.0171 22.4597 14.8943L21.8148 13.9362L21.8126 13.933C21.5928 13.6196 21.362 13.3057 21.1257 12.9924L22.4553 11.1058L22.4596 11.0992C23.8336 8.9764 24.7098 7.03948 25.0455 5.42811C25.3801 3.82163 25.1841 2.49389 24.3457 1.65338C23.6274 0.937347 22.5467 0.689657 21.2371 0.846285C19.9268 1.003 18.3583 1.5665 16.6181 2.51225C16.3259 2.67105 16.2264 3.03736 16.3881 3.3231C16.5507 3.61049 16.9132 3.70788 17.1989 3.55279C18.7252 2.72426 20.0792 2.22146 21.1699 2.05034C22.2676 1.87812 23.0529 2.04752 23.503 2.49636C24.0036 2.99834 24.1474 3.93006 23.8651 5.23117C23.5857 6.51911 22.8999 8.10918 21.8364 9.85194L21.2761 10.73C20.9915 11.1583 20.689 11.5889 20.3686 12.022C19.903 11.4438 19.4129 10.8681 18.9008 10.2995L17.8749 9.20002L17.8724 9.19744L17.8209 9.14417L17.8207 9.14399C17.6638 8.98171 17.5051 8.8176 17.3431 8.65602C17.0052 8.31779 16.6613 7.98909 16.3162 7.66594L14.8739 6.3744L14.8702 6.3713C14.5932 6.13495 14.3154 5.90413 14.0367 5.67887L12.8202 4.73176L12.8164 4.72896C12.5658 4.54317 12.3155 4.36249 12.0656 4.18699L11.1063 3.54054L11.103 3.53844ZM4.04751 25.1948L4.04168 25.1948V24.9948L4.05342 25.1944L4.04751 25.1948ZM9.96056 21.9994L9.85655 21.8288L9.85483 21.8298L9.85307 21.831L9.96056 21.9994ZM9.96061 3.99358L9.85649 4.16426L9.85215 4.16161L9.84794 4.15874L9.96061 3.99358ZM12.3725 5.63889L12.2598 5.80404L12.2561 5.80152L12.2525 5.79884L12.3725 5.63889ZM10.8419 21.4371L10.7344 21.2687L10.7322 21.2701L10.7301 21.2715L10.8419 21.4371ZM19.8808 12.9971L19.7242 13.1201C19.6918 13.0789 19.6593 13.0377 19.6266 12.9965C19.6593 12.9553 19.6918 12.9141 19.7242 12.8729L19.881 12.9962C19.8811 12.9963 19.8812 12.9964 19.8812 12.9965C19.8811 12.9967 19.8809 12.9969 19.8808 12.9971ZM17.2215 9.94757L17.0804 10.0891L17.0789 10.0876L17.0775 10.0861L17.2215 9.94757ZM15.9089 8.63885L15.7677 8.78041L15.7693 8.78193L15.7708 8.78344L15.9089 8.63885ZM12.9242 6.05902L12.8015 6.21683L12.8006 6.21609L12.7996 6.21532L12.9242 6.05902Z" fill="#504EF3"/>
</svg>
