<svg width="16" height="16" viewBox="0 0 16 16" fill="none" xmlns="http://www.w3.org/2000/svg">
<g clip-path="url(#clip0_5143_49915)">
<path opacity="0.8" d="M7.99978 1.54839C8.42735 1.54839 8.77397 1.20177 8.77397 0.774194C8.77397 0.346618 8.42735 0 7.99978 0C7.5722 0 7.22559 0.346618 7.22559 0.774194C7.22559 1.20177 7.5722 1.54839 7.99978 1.54839Z" fill="white"/>
<path opacity="0.22" d="M7.99978 16C8.42735 16 8.77397 15.6534 8.77397 15.2258C8.77397 14.7982 8.42735 14.4516 7.99978 14.4516C7.5722 14.4516 7.22559 14.7982 7.22559 15.2258C7.22559 15.6534 7.5722 16 7.99978 16Z" fill="white"/>
<path opacity="0.7" d="M4.38699 2.50322C4.81456 2.50322 5.16118 2.1566 5.16118 1.72903C5.16118 1.30145 4.81456 0.954834 4.38699 0.954834C3.95941 0.954834 3.61279 1.30145 3.61279 1.72903C3.61279 2.1566 3.95941 2.50322 4.38699 2.50322Z" fill="white"/>
<path opacity="0.15" d="M12.2837 13.8839C12.4902 14.2452 12.3611 14.7097 11.9999 14.9419C11.6386 15.1484 11.174 15.0193 10.9418 14.6581C10.7353 14.2968 10.8644 13.8323 11.2257 13.6C11.587 13.3935 12.0773 13.5226 12.2837 13.8839Z" fill="white"/>
<path opacity="0.6" d="M2.11607 3.71613C2.47736 3.92258 2.60639 4.38709 2.39994 4.77419C2.19349 5.13548 1.72897 5.26451 1.34187 5.05806C0.980582 4.85161 0.85155 4.38709 1.058 4C1.26445 3.6129 1.75478 3.50967 2.11607 3.71613Z" fill="white"/>
<path opacity="0.1" d="M14.6581 10.9419C15.0193 11.1484 15.1484 11.6129 14.9419 12C14.7355 12.3613 14.271 12.4903 13.8839 12.2839C13.5226 12.0774 13.3935 11.6129 13.6 11.2258C13.8064 10.8645 14.271 10.7355 14.6581 10.9419Z" fill="white"/>
<path opacity="0.5" d="M0.774194 8.77419C1.20177 8.77419 1.54839 8.42757 1.54839 7.99999C1.54839 7.57242 1.20177 7.2258 0.774194 7.2258C0.346618 7.2258 0 7.57242 0 7.99999C0 8.42757 0.346618 8.77419 0.774194 8.77419Z" fill="white"/>
<path opacity="0.4" d="M1.3421 10.9419C1.7034 10.7355 2.16791 10.8645 2.40017 11.2258C2.60662 11.5871 2.47759 12.0516 2.1163 12.2839C1.75501 12.4903 1.29049 12.3613 1.05823 12C0.825976 11.6387 0.980815 11.1742 1.3421 10.9419Z" fill="white"/>
<path d="M13.8839 3.71613C14.2452 3.50968 14.7097 3.63871 14.9419 4C15.1484 4.36129 15.0193 4.82581 14.6581 5.05806C14.2968 5.26452 13.8323 5.13548 13.6 4.77419C13.3935 4.4129 13.5226 3.92258 13.8839 3.71613Z" fill="white"/>
<path opacity="0.3" d="M3.7162 13.8839C3.92266 13.5226 4.38717 13.3935 4.77427 13.6C5.13556 13.8064 5.26459 14.271 5.05814 14.6581C4.85169 15.0193 4.38717 15.1484 4.00008 14.9419C3.63879 14.7097 3.50975 14.2452 3.7162 13.8839Z" fill="white"/>
<path opacity="0.9" d="M10.9418 1.34193C11.1482 0.980643 11.6128 0.851611 11.9999 1.05806C12.3611 1.26451 12.4902 1.72903 12.2837 2.11613C12.0773 2.47742 11.6128 2.60645 11.2257 2.4C10.8644 2.19355 10.7353 1.72903 10.9418 1.34193Z" fill="white"/>
</g>
<defs>
<clipPath id="clip0_5143_49915">
<rect width="16" height="16" fill="white"/>
</clipPath>
</defs>
</svg>
