<svg width="26" height="24" viewBox="0 0 26 24" fill="none" xmlns="http://www.w3.org/2000/svg">
<path d="M10.285 18.2446H4.8008C4.50091 18.2446 4.25781 18.4877 4.25781 18.7876C4.25781 19.0875 4.50091 19.3306 4.8008 19.3306H10.285C10.5849 19.3306 10.8279 19.0875 10.8279 18.7876C10.8279 18.4877 10.5849 18.2446 10.285 18.2446Z" fill="#504EF3"/>
<path d="M18.4842 18.2446H13C12.7001 18.2446 12.457 18.4877 12.457 18.7876C12.457 19.0875 12.7001 19.3306 13 19.3306H18.4842C18.784 19.3306 19.0272 19.0875 19.0272 18.7876C19.0272 18.4877 18.784 18.2446 18.4842 18.2446Z" fill="#504EF3"/>
<path d="M18.4841 4.66992H4.8008C4.50091 4.66992 4.25781 4.91302 4.25781 5.21291C4.25781 5.5128 4.50091 5.75589 4.8008 5.75589H18.4841C18.7839 5.75589 19.027 5.5128 19.027 5.21291C19.027 4.91302 18.7839 4.66992 18.4841 4.66992Z" fill="#504EF3"/>
<path d="M18.4842 7.38477H13C12.7001 7.38477 12.457 7.62786 12.457 7.92775C12.457 8.22764 12.7001 8.47074 13 8.47074H18.4842C18.784 8.47074 19.0272 8.22764 19.0272 7.92775C19.0272 7.62786 18.784 7.38477 18.4842 7.38477Z" fill="#504EF3"/>
<path d="M18.4842 10.0996H13C12.7001 10.0996 12.457 10.3427 12.457 10.6426C12.457 10.9425 12.7001 11.1856 13 11.1856H18.4842C18.784 11.1856 19.0272 10.9425 19.0272 10.6426C19.0272 10.3427 18.784 10.0996 18.4842 10.0996Z" fill="#504EF3"/>
<path d="M18.4842 12.8145H13C12.7001 12.8145 12.457 13.0575 12.457 13.3574C12.457 13.6573 12.7001 13.9004 13 13.9004H18.4842C18.784 13.9004 19.0272 13.6573 19.0272 13.3574C19.0272 13.0575 18.784 12.8145 18.4842 12.8145Z" fill="#504EF3"/>
<path d="M18.4842 15.5298H13C12.7001 15.5298 12.457 15.7729 12.457 16.0728C12.457 16.3727 12.7001 16.6158 13 16.6158H18.4842C18.784 16.6158 19.0272 16.3727 19.0272 16.0728C19.0272 15.7729 18.784 15.5298 18.4842 15.5298Z" fill="#504EF3"/>
<path d="M10.285 15.5298H4.8008C4.50091 15.5298 4.25781 15.7729 4.25781 16.0728C4.25781 16.3727 4.50091 16.6158 4.8008 16.6158H10.285C10.5849 16.6158 10.8279 16.3727 10.8279 16.0728C10.8279 15.7729 10.5849 15.5298 10.285 15.5298Z" fill="#504EF3"/>
<path d="M10.285 7.38477H4.8008C4.50091 7.38477 4.25781 7.62786 4.25781 7.92775V13.4119C4.25781 13.7118 4.50091 13.9549 4.8008 13.9549H10.285C10.5849 13.9549 10.8279 13.7118 10.8279 13.4119V7.92775C10.8279 7.62786 10.5849 7.38477 10.285 7.38477ZM9.74198 12.8689H5.34379V8.47074H9.74198V12.8689Z" fill="#504EF3"/>
<path fill-rule="evenodd" clip-rule="evenodd" d="M2.08675 1.21191C1.37749 1.21191 0.800781 1.78862 0.800781 2.49789V19.8735C0.800781 21.4809 2.10824 22.7884 3.71571 22.7884H22.2859C23.8933 22.7884 25.2008 21.4809 25.2008 19.8735V5.21282C25.2008 4.50356 24.6241 3.92685 23.9148 3.92685H22.4858V2.49789C22.4858 1.78862 21.9091 1.21191 21.1999 1.21191H2.08675ZM2.28675 19.8735V2.69789H20.9999V19.059C20.9999 19.9179 21.6984 20.6164 22.5573 20.6164C22.9676 20.6164 23.3003 20.2838 23.3003 19.8735C23.3003 19.4631 22.9676 19.1305 22.5573 19.1305C22.5181 19.1305 22.4858 19.0982 22.4858 19.059V5.41282H23.7148V19.8735C23.7148 20.6612 23.0736 21.3024 22.2859 21.3024H3.71571C2.92796 21.3024 2.28675 20.6612 2.28675 19.8735Z" fill="#212121"/>
</svg>
