<svg width="24" height="26" viewBox="0 0 24 26" fill="none" xmlns="http://www.w3.org/2000/svg">
<path fill-rule="evenodd" clip-rule="evenodd" d="M11.4859 8.28546C11.7707 7.88369 11.9332 7.39768 11.9246 6.874C11.923 6.75406 11.9124 6.6305 11.8969 6.50527L11.5536 5.25868C11.3772 4.8176 11.1442 4.35009 10.8508 3.84194C10.5763 3.27035 10.1309 2.51473 9.57352 1.90713C9.29202 1.5992 8.98839 1.32629 8.60876 1.14986V1.15151C8.4201 1.0623 8.19576 1.00514 7.96449 1.00019C7.73288 0.996554 7.49664 1.04512 7.2842 1.16836L6.35875 1.70063C6.33963 1.71156 6.32191 1.72276 6.30455 1.73373C6.30301 1.73471 6.30148 1.73568 6.29994 1.73665C4.07339 3.36617 3.04817 5.63468 2.94806 7.9729C2.84795 10.3101 3.62835 12.7224 4.91756 14.8313L7.30369 18.9431L7.29807 18.9309C8.48916 21.0953 10.196 22.973 12.2818 24.0547C14.3686 25.138 16.8545 25.3892 19.3867 24.285C19.4075 24.276 19.4286 24.2661 19.4475 24.2546L20.3742 23.7223C20.8027 23.4785 21.0182 23.004 21.0532 22.5897C21.0892 22.1767 21.005 21.7746 20.8771 21.3785C20.6266 20.5951 20.1899 19.8342 19.8291 19.3121C19.1475 18.1396 18.4893 17.3258 17.7287 16.8708C16.9622 16.4139 16.042 16.4205 15.2914 16.852L14.1416 17.5148C13.802 17.7104 13.4048 17.6876 12.9869 17.5108C12.5709 17.3341 12.1856 16.9805 12.0426 16.7327L9.20447 11.8415C9.06108 11.5924 8.94378 11.0843 8.99929 10.6362C9.05282 10.1895 9.2342 9.83965 9.57418 9.64372L10.6913 9.00143L11.4859 8.28546ZM8.07695 2.27754C8.00724 2.24516 7.97519 2.23293 7.95569 2.22963C7.94149 2.22813 7.93424 2.23284 7.9229 2.2402C7.9192 2.2426 7.91506 2.24529 7.9101 2.24813L7.03488 2.74802C5.10469 4.16444 4.28531 6.00541 4.19874 8.0248C4.11218 10.0472 4.80238 12.2453 5.98686 14.1814C5.98765 14.1827 5.98835 14.1839 5.98901 14.185C5.99109 14.1885 5.99276 14.1913 5.99578 14.1943L8.38984 18.3203C8.39136 18.3217 8.39254 18.3236 8.39381 18.3258C8.39502 18.3278 8.39633 18.33 8.3981 18.3319C9.49105 20.3199 11.0588 22.0132 12.8624 22.9508C14.6628 23.8845 16.6772 24.0996 18.875 23.1464L19.7499 22.6449C19.7542 22.6423 19.758 22.6402 19.7615 22.6383C19.7907 22.6225 19.7946 22.6204 19.8067 22.485C19.819 22.334 19.781 22.0611 19.6842 21.7591C19.4892 21.1512 19.0851 20.4253 18.7884 19.9974C18.7782 19.9819 18.7696 19.9683 18.7607 19.9522C18.1276 18.8609 17.5385 18.2096 17.0849 17.94C16.6326 17.6711 16.3633 17.6764 15.9179 17.9318L14.7682 18.5932C14.0192 19.0234 13.1697 18.9428 12.498 18.6577C11.827 18.3732 11.2782 17.91 10.9567 17.3562L8.11858 12.4647C7.79776 11.9106 7.66792 11.2098 7.75613 10.4886C7.84402 9.76765 8.19788 8.99485 8.94689 8.56368L10.0967 7.9009C10.5424 7.64485 10.6835 7.41852 10.6745 6.89286C10.6663 6.36951 10.392 5.53526 9.75636 4.44461C9.74975 4.42908 9.74249 4.41389 9.73555 4.40001C9.51154 3.92952 9.08004 3.21686 8.64821 2.74637C8.43378 2.51146 8.21473 2.34295 8.07695 2.27754Z" fill="#504EF3"/>
<path d="M11.9246 6.874L11.8246 6.87538L11.8246 6.87564L11.9246 6.874ZM11.4859 8.28546L11.5528 8.35975L11.561 8.35233L11.5674 8.34329L11.4859 8.28546ZM11.8969 6.50527L11.9961 6.49297L11.9952 6.48574L11.9933 6.47873L11.8969 6.50527ZM11.5536 5.25868L11.6506 5.23197L11.6464 5.22154L11.5536 5.25868ZM10.8508 3.84194L10.7604 3.88536L10.7642 3.89194L10.8508 3.84194ZM9.57352 1.90713L9.49972 1.9746L9.49983 1.97473L9.57352 1.90713ZM8.60876 1.14986L8.65091 1.05917L8.50876 0.993112V1.14986H8.60876ZM8.60876 1.15151L8.56601 1.24191L8.70876 1.30941V1.15151H8.60876ZM7.96449 1.00019L7.96663 0.90021L7.96605 0.900201L7.96449 1.00019ZM7.2842 1.16836L7.33405 1.25505L7.33438 1.25486L7.2842 1.16836ZM6.35875 1.70063L6.40837 1.78746L6.40861 1.78732L6.35875 1.70063ZM6.30455 1.73373L6.25112 1.6492L6.25112 1.64921L6.30455 1.73373ZM6.29994 1.73665L6.24642 1.6519L6.24088 1.65595L6.29994 1.73665ZM2.94806 7.9729L3.04797 7.97718L3.04797 7.97718L2.94806 7.9729ZM4.91756 14.8313L5.00407 14.7811L5.00288 14.7791L4.91756 14.8313ZM7.30369 18.9431L7.2172 18.9933L7.39456 18.9013L7.30369 18.9431ZM7.29807 18.9309L7.38568 18.8827L7.2072 18.9726L7.29807 18.9309ZM12.2818 24.0547L12.3279 23.9659L12.3278 23.9659L12.2818 24.0547ZM19.3867 24.285L19.3473 24.1931L19.3467 24.1933L19.3867 24.285ZM19.4475 24.2546L19.3976 24.1678L19.3951 24.1693L19.4475 24.2546ZM20.3742 23.7223L20.3248 23.6354L20.3244 23.6356L20.3742 23.7223ZM21.0532 22.5897L20.9536 22.581L20.9535 22.5813L21.0532 22.5897ZM20.8771 21.3785L20.7818 21.4089L20.7819 21.4092L20.8771 21.3785ZM19.8291 19.3121L19.7423 19.3626L19.7468 19.369L19.8291 19.3121ZM17.7287 16.8708L17.7801 16.785L17.7799 16.7849L17.7287 16.8708ZM15.2914 16.852L15.2415 16.7653L15.2414 16.7654L15.2914 16.852ZM14.1416 17.5148L14.1915 17.6014L14.1915 17.6014L14.1416 17.5148ZM12.9869 17.5108L12.9478 17.6029L12.9479 17.6029L12.9869 17.5108ZM12.0426 16.7327L12.1292 16.6827L12.1291 16.6825L12.0426 16.7327ZM9.20447 11.8415L9.1178 11.8914L9.11797 11.8917L9.20447 11.8415ZM8.99929 10.6362L9.09853 10.6485L9.09858 10.6481L8.99929 10.6362ZM9.57418 9.64372L9.52434 9.55703L9.52425 9.55708L9.57418 9.64372ZM10.6913 9.00143L10.7411 9.08812L10.7503 9.08283L10.7582 9.07572L10.6913 9.00143ZM7.95569 2.22963L7.97244 2.13084L7.96616 2.13018L7.95569 2.22963ZM8.07695 2.27754L8.11984 2.1872L8.11907 2.18684L8.07695 2.27754ZM7.9229 2.2402L7.97733 2.32409L7.97733 2.32409L7.9229 2.2402ZM7.9101 2.24813L7.9597 2.33497L7.95987 2.33487L7.9101 2.24813ZM7.03488 2.74802L6.98496 2.66062L6.97571 2.6674L7.03488 2.74802ZM4.19874 8.0248L4.09883 8.02052L4.09883 8.02053L4.19874 8.0248ZM5.98686 14.1814L5.90155 14.2336L5.90206 14.2344L5.98686 14.1814ZM5.98901 14.185L5.90304 14.2361L5.90305 14.2361L5.98901 14.185ZM5.99578 14.1943L6.08227 14.1441L6.07572 14.1328L6.06648 14.1236L5.99578 14.1943ZM8.38984 18.3203L8.30334 18.3705L8.3114 18.3844L8.32341 18.3951L8.38984 18.3203ZM8.39381 18.3258L8.30805 18.3772L8.30807 18.3772L8.39381 18.3258ZM8.3981 18.3319L8.48573 18.2837L8.47993 18.2732L8.4718 18.2643L8.3981 18.3319ZM12.8624 22.9508L12.8163 23.0396L12.8164 23.0396L12.8624 22.9508ZM18.875 23.1464L18.915 23.2388L18.9247 23.2332L18.875 23.1464ZM19.7499 22.6449L19.7996 22.7317L19.8011 22.7308L19.7499 22.6449ZM19.7615 22.6383L19.8093 22.7262L19.8093 22.7262L19.7615 22.6383ZM19.8067 22.485L19.9063 22.4939L19.9064 22.4931L19.8067 22.485ZM19.6842 21.7591L19.7794 21.7286L19.7794 21.7286L19.6842 21.7591ZM18.7884 19.9974L18.7049 20.0525L18.7063 20.0544L18.7884 19.9974ZM18.7607 19.9522L18.8483 19.9039L18.8472 19.902L18.7607 19.9522ZM17.0849 17.94L17.0338 18.026L17.0338 18.026L17.0849 17.94ZM15.9179 17.9318L15.8682 17.845L15.8681 17.8451L15.9179 17.9318ZM14.7682 18.5932L14.818 18.6799L14.818 18.6799L14.7682 18.5932ZM12.498 18.6577L12.5371 18.5656L12.537 18.5656L12.498 18.6577ZM10.9567 17.3562L10.8702 17.4064L10.8702 17.4064L10.9567 17.3562ZM8.11858 12.4647L8.03204 12.5148L8.03209 12.5149L8.11858 12.4647ZM7.75613 10.4886L7.85539 10.5007L7.8554 10.5007L7.75613 10.4886ZM8.94689 8.56368L8.99678 8.65035L8.99683 8.65032L8.94689 8.56368ZM10.0967 7.9009L10.0469 7.81419L10.0467 7.81427L10.0967 7.9009ZM10.6745 6.89286L10.5745 6.89444L10.5746 6.89456L10.6745 6.89286ZM9.75636 4.44461L9.66362 4.48408L9.66997 4.49497L9.75636 4.44461ZM9.73555 4.40001L9.64524 4.44301L9.6461 4.44473L9.73555 4.40001ZM8.64821 2.74637L8.57435 2.81379L8.57454 2.81399L8.64821 2.74637ZM11.8246 6.87564C11.8329 7.3771 11.6773 7.84244 11.4043 8.22763L11.5674 8.34329C11.864 7.92495 12.0336 7.41826 12.0246 6.87236L11.8246 6.87564ZM11.7976 6.51758C11.8129 6.64048 11.8231 6.76021 11.8246 6.87538L12.0246 6.87262C12.0229 6.74792 12.0119 6.62051 11.9961 6.49297L11.7976 6.51758ZM11.4572 5.28523L11.8005 6.53182L11.9933 6.47873L11.65 5.23213L11.4572 5.28523ZM10.7642 3.89194C11.0559 4.39705 11.2865 4.8602 11.4607 5.29582L11.6464 5.22154C11.4678 4.775 11.2326 4.30313 10.9374 3.79194L10.7642 3.89194ZM9.49983 1.97473C10.0484 2.57277 10.4888 3.31915 10.7607 3.88524L10.941 3.79864C10.6638 3.22156 10.2134 2.4567 9.64721 1.83953L9.49983 1.97473ZM8.56662 1.24054C8.92891 1.40892 9.22203 1.67085 9.49972 1.9746L9.64733 1.83966C9.36202 1.52755 9.04787 1.24366 8.65091 1.05917L8.56662 1.24054ZM8.70876 1.15151V1.14986H8.50876V1.15151H8.70876ZM7.96234 1.10017C8.17902 1.10481 8.38957 1.15848 8.56601 1.24191L8.65151 1.06111C8.45064 0.966125 8.2125 0.905481 7.96663 0.900212L7.96234 1.10017ZM7.33438 1.25486C7.5285 1.14225 7.74618 1.09678 7.96292 1.10018L7.96605 0.900201C7.71957 0.896333 7.46478 0.947997 7.23402 1.08186L7.33438 1.25486ZM6.40861 1.78732L7.33405 1.25505L7.23434 1.08168L6.3089 1.61395L6.40861 1.78732ZM6.35798 1.81826C6.37557 1.80714 6.39148 1.79711 6.40837 1.78746L6.30914 1.61381C6.28779 1.62601 6.26824 1.63838 6.25112 1.6492L6.35798 1.81826ZM6.35334 1.82119C6.3549 1.82021 6.35645 1.81923 6.35799 1.81826L6.25112 1.64921C6.24958 1.65018 6.24806 1.65114 6.24654 1.6521L6.35334 1.82119ZM3.04797 7.97718C3.14688 5.66697 4.1588 3.42758 6.359 1.81734L6.24088 1.65595C3.98799 3.30475 2.94946 5.60238 2.84815 7.96862L3.04797 7.97718ZM5.00288 14.7791C3.7213 12.6827 2.94891 10.2899 3.04797 7.97718L2.84815 7.96862C2.74699 10.3303 3.53539 12.762 4.83224 14.8835L5.00288 14.7791ZM7.39018 18.8929L5.00405 14.7811L4.83107 14.8815L7.2172 18.9933L7.39018 18.8929ZM7.2072 18.9726L7.21282 18.9848L7.39456 18.9013L7.38894 18.8891L7.2072 18.9726ZM12.3278 23.9659C10.2637 22.8954 8.56972 21.0343 7.38568 18.8827L7.21046 18.9791C8.4086 21.1563 10.1283 23.0505 12.2358 24.1434L12.3278 23.9659ZM19.3467 24.1933C16.8443 25.2845 14.3901 25.0365 12.3279 23.9659L12.2357 24.1434C14.3471 25.2396 16.8646 25.4938 19.4266 24.3766L19.3467 24.1933ZM19.3951 24.1693C19.3825 24.1771 19.3665 24.1848 19.3473 24.1931L19.4261 24.3769C19.4484 24.3673 19.4748 24.3551 19.4998 24.3398L19.3951 24.1693ZM20.3244 23.6356L19.3977 24.1679L19.4973 24.3413L20.424 23.809L20.3244 23.6356ZM20.9535 22.5813C20.9205 22.9724 20.7171 23.4121 20.3248 23.6354L20.4237 23.8092C20.8884 23.5448 21.1159 23.0356 21.1528 22.5981L20.9535 22.5813ZM20.7819 21.4092C20.9079 21.7995 20.9879 22.187 20.9536 22.581L21.1528 22.5984C21.1905 22.1664 21.102 21.7497 20.9723 21.3477L20.7819 21.4092ZM19.7468 19.369C20.1042 19.8861 20.5354 20.638 20.7818 21.4089L20.9723 21.348C20.7179 20.5521 20.2755 19.7822 19.9113 19.2553L19.7468 19.369ZM17.6774 16.9567C18.4158 17.3983 19.0635 18.1941 19.7426 19.3624L19.9155 19.2619C19.2314 18.0851 18.5628 17.2533 17.7801 16.785L17.6774 16.9567ZM15.3412 16.9387C16.0611 16.5249 16.9426 16.5186 17.6775 16.9567L17.7799 16.7849C16.9818 16.3092 16.023 16.3161 15.2415 16.7653L15.3412 16.9387ZM14.1915 17.6014L15.3413 16.9386L15.2414 16.7654L14.0917 17.4281L14.1915 17.6014ZM12.9479 17.6029C13.3831 17.787 13.8154 17.818 14.1915 17.6014L14.0917 17.4281C13.7885 17.6027 13.4265 17.5882 13.0258 17.4187L12.9479 17.6029ZM11.956 16.7827C12.0351 16.9198 12.1761 17.0786 12.3476 17.2246C12.5199 17.3712 12.7287 17.5098 12.9478 17.6029L13.026 17.4188C12.8291 17.3351 12.6373 17.2085 12.4772 17.0723C12.3163 16.9353 12.1931 16.7934 12.1292 16.6827L11.956 16.7827ZM9.11797 11.8917L11.9561 16.7829L12.1291 16.6825L9.29096 11.7913L9.11797 11.8917ZM8.90005 10.6239C8.84211 11.0916 8.96265 11.6219 9.1178 11.8914L9.29114 11.7916C9.1595 11.5629 9.04546 11.0769 9.09853 10.6485L8.90005 10.6239ZM9.52425 9.55708C9.14849 9.77363 8.95594 10.1575 8.9 10.6243L9.09858 10.6481C9.14969 10.2216 9.31992 9.90567 9.62411 9.73036L9.52425 9.55708ZM10.6414 8.91474L9.52434 9.55703L9.62403 9.73041L10.7411 9.08812L10.6414 8.91474ZM11.4189 8.21117L10.6243 8.92714L10.7582 9.07572L11.5528 8.35975L11.4189 8.21117ZM7.93898 2.32822C7.93862 2.32816 7.94401 2.32912 7.96097 2.33577C7.97729 2.34217 8.00056 2.35232 8.03483 2.36823L8.11907 2.18684C8.0525 2.15592 8.00769 2.13702 7.97241 2.13103L7.93898 2.32822ZM7.97733 2.32409C7.98065 2.32193 7.9811 2.32167 7.9811 2.32167C7.98073 2.32188 7.97807 2.32342 7.97386 2.32503C7.96932 2.32676 7.964 2.32819 7.9582 2.32889C7.95258 2.32957 7.94807 2.32938 7.94523 2.32908L7.96616 2.13018C7.94471 2.12792 7.92343 2.13021 7.90259 2.13816C7.88579 2.14457 7.87193 2.15407 7.86847 2.15631L7.97733 2.32409ZM7.95987 2.33487C7.96747 2.33051 7.97368 2.32645 7.97733 2.32409L7.86847 2.15631C7.86471 2.15875 7.86265 2.16007 7.86033 2.16139L7.95987 2.33487ZM7.08447 2.83486L7.9597 2.33496L7.8605 2.1613L6.98528 2.66119L7.08447 2.83486ZM4.29865 8.02909C4.38402 6.03763 5.19017 4.22575 7.09404 2.82864L6.97571 2.6674C5.01922 4.10313 4.1866 5.9732 4.09883 8.02052L4.29865 8.02909ZM6.07216 14.1292C4.89534 12.2056 4.21314 10.027 4.29865 8.02908L4.09883 8.02053C4.01122 10.0674 4.70942 12.285 5.90155 14.2336L6.07216 14.1292ZM6.07497 14.1339C6.07435 14.1329 6.07312 14.1308 6.07165 14.1284L5.90206 14.2344C5.90218 14.2346 5.90235 14.2349 5.90304 14.2361L6.07497 14.1339ZM6.06648 14.1236C6.07334 14.1305 6.07725 14.1377 6.07496 14.1339L5.90305 14.2361C5.90492 14.2392 5.91218 14.2521 5.92507 14.265L6.06648 14.1236ZM8.47633 18.2701L6.08227 14.1441L5.90928 14.2445L8.30334 18.3705L8.47633 18.2701ZM8.47958 18.2743C8.47932 18.2739 8.47694 18.2699 8.474 18.2656C8.47092 18.2612 8.46512 18.2534 8.45626 18.2456L8.32341 18.3951C8.31608 18.3886 8.31163 18.3825 8.30983 18.3799C8.30819 18.3775 8.30703 18.3755 8.30805 18.3772L8.47958 18.2743ZM8.4718 18.2643C8.47522 18.268 8.47751 18.2712 8.47867 18.273C8.47968 18.2745 8.48036 18.2756 8.47956 18.2743L8.30807 18.3772C8.30861 18.3781 8.31474 18.389 8.3244 18.3995L8.4718 18.2643ZM12.9086 22.8621C11.1265 21.9356 9.57159 20.2588 8.48573 18.2837L8.31047 18.3801C9.41051 20.381 10.9911 22.0907 12.8163 23.0396L12.9086 22.8621ZM18.8352 23.0547C16.6672 23.995 14.6843 23.7831 12.9085 22.8621L12.8164 23.0396C14.6412 23.986 16.6872 24.2043 18.9148 23.2382L18.8352 23.0547ZM19.7002 22.5581L18.8253 23.0597L18.9247 23.2332L19.7996 22.7317L19.7002 22.5581ZM19.7138 22.5505C19.7104 22.5523 19.7049 22.5553 19.6987 22.559L19.8011 22.7308C19.8034 22.7294 19.8057 22.7282 19.8093 22.7262L19.7138 22.5505ZM19.7071 22.4761C19.7041 22.5099 19.7017 22.5337 19.6995 22.551C19.6984 22.5595 19.6974 22.5657 19.6966 22.5702C19.6957 22.5747 19.6952 22.5764 19.6952 22.5764C19.6956 22.5752 19.6991 22.5652 19.7094 22.5552C19.7165 22.5482 19.724 22.5449 19.7138 22.5505L19.8093 22.7262C19.8136 22.7239 19.8326 22.7144 19.849 22.6983C19.8686 22.6792 19.8794 22.6572 19.8859 22.6366C19.8961 22.6043 19.9007 22.5567 19.9063 22.4939L19.7071 22.4761ZM19.5889 21.7896C19.6838 22.0856 19.7178 22.3443 19.7071 22.4769L19.9064 22.4931C19.9201 22.3237 19.8781 22.0366 19.7794 21.7286L19.5889 21.7896ZM18.7063 20.0544C18.9993 20.4769 19.3979 21.1939 19.5889 21.7896L19.7794 21.7286C19.5805 21.1085 19.171 20.3737 18.8706 19.9404L18.7063 20.0544ZM18.6731 20.0004C18.6839 20.02 18.6941 20.036 18.705 20.0525L18.8719 19.9424C18.8623 19.9278 18.8553 19.9167 18.8483 19.9039L18.6731 20.0004ZM17.0338 18.026C17.4652 18.2824 18.0437 18.9155 18.6742 20.0023L18.8472 19.902C18.2115 18.8062 17.6119 18.1369 17.136 17.8541L17.0338 18.026ZM15.9677 18.0185C16.1843 17.8943 16.3448 17.839 16.4986 17.8393C16.6523 17.8396 16.8143 17.8955 17.0338 18.026L17.136 17.8541C16.9032 17.7156 16.7045 17.6397 16.499 17.6393C16.2938 17.6389 16.097 17.7138 15.8682 17.845L15.9677 18.0185ZM14.818 18.6799L15.9678 18.0185L15.8681 17.8451L14.7183 18.5066L14.818 18.6799ZM12.4589 18.7497C13.1499 19.043 14.0339 19.1302 14.818 18.6799L14.7184 18.5065C14.0044 18.9166 13.1895 18.8425 12.5371 18.5656L12.4589 18.7497ZM10.8702 17.4064C11.204 17.9815 11.7709 18.458 12.459 18.7497L12.537 18.5656C11.883 18.2883 11.3523 17.8385 11.0432 17.306L10.8702 17.4064ZM8.03209 12.5149L10.8702 17.4064L11.0432 17.306L8.20508 12.4145L8.03209 12.5149ZM7.65687 10.4764C7.56636 11.2164 7.69898 11.9396 8.03204 12.5148L8.20512 12.4146C7.89655 11.8816 7.76947 11.2032 7.85539 10.5007L7.65687 10.4764ZM8.897 8.47702C8.11288 8.92839 7.74732 9.73453 7.65687 10.4765L7.8554 10.5007C7.94072 9.80077 8.28287 9.06131 8.99678 8.65035L8.897 8.47702ZM10.0467 7.81427L8.89695 8.47705L8.99683 8.65032L10.1466 7.98754L10.0467 7.81427ZM10.5746 6.89456C10.5789 7.14943 10.5463 7.31614 10.4697 7.44765C10.3928 7.57958 10.264 7.68944 10.0469 7.81419L10.1465 7.98761C10.375 7.85631 10.5396 7.72498 10.6425 7.54831C10.7456 7.37124 10.7791 7.16196 10.7745 6.89116L10.5746 6.89456ZM9.66997 4.49497C10.3031 5.58125 10.5667 6.39726 10.5745 6.89444L10.7745 6.89128C10.7659 6.34177 10.481 5.48926 9.84276 4.39426L9.66997 4.49497ZM9.6461 4.44473C9.65253 4.45758 9.65882 4.47079 9.66435 4.48377L9.84838 4.40546C9.84068 4.38738 9.83244 4.3702 9.82499 4.35529L9.6461 4.44473ZM8.57454 2.81399C8.99771 3.27504 9.42411 3.97851 9.64526 4.443L9.82584 4.35702C9.59897 3.88054 9.16237 3.15867 8.72188 2.67875L8.57454 2.81399ZM8.03406 2.36787C8.15557 2.42557 8.36446 2.58384 8.57435 2.81379L8.72207 2.67895C8.5031 2.43907 8.27388 2.26034 8.11984 2.1872L8.03406 2.36787Z" fill="#504EF3"/>
</svg>
