<svg width="26" height="24" viewBox="0 0 26 24" fill="none" xmlns="http://www.w3.org/2000/svg">
<path d="M25 8.17266C24.9994 7.8083 24.8923 7.43878 24.6553 7.13419L22.7537 4.701C22.4352 4.29656 21.9505 4.09064 21.4662 4.08984C21.178 4.08984 20.8845 4.16372 20.6252 4.32544L18.771 5.47903C18.576 5.60339 18.2417 5.68875 17.9188 5.68655C17.6679 5.68763 17.4255 5.63742 17.2654 5.55834L15.4496 4.67883C15.1568 4.53783 14.8303 4.48003 14.502 4.47947C14.0305 4.48167 13.5529 4.59755 13.1692 4.86347L12.9573 5.01211C12.788 4.92759 12.5292 4.79883 12.236 4.65295C11.8845 4.48059 11.4711 4.41108 11.0535 4.40972C10.6763 4.4108 10.2992 4.46892 9.96808 4.6088L8.73133 5.13652C8.53005 5.2238 8.20989 5.2808 7.89189 5.27939C7.57389 5.28075 7.2543 5.22375 7.05302 5.13652L5.81514 4.60852C5.58935 4.51223 5.34799 4.47108 5.10878 4.4708C4.83335 4.47108 4.55955 4.52536 4.30506 4.62844C4.05091 4.73208 3.81499 4.88508 3.62711 5.09503L1.37336 7.61906C1.12356 7.89802 0.999486 8.2493 1 8.59509C0.999486 9.00745 1.17592 9.42113 1.51624 9.71105L3.61858 11.5047L2.62127 12.5451C2.34635 12.832 2.20947 13.204 2.20947 13.5718C2.20895 13.9632 2.36439 14.3583 2.67227 14.6493L2.87458 14.8415C3.06522 15.0224 3.2943 15.1374 3.53402 15.1988C3.41378 15.4199 3.34806 15.6624 3.34858 15.9053C3.34806 16.297 3.5035 16.6919 3.81081 16.9831L4.01322 17.1759C4.30206 17.4497 4.6765 17.5861 5.04541 17.5859C5.24369 17.5861 5.4422 17.5463 5.62877 17.4683C5.69425 17.7339 5.82949 17.9865 6.0422 18.1883L6.24513 18.3813C6.53397 18.6551 6.9078 18.7915 7.27731 18.7913C7.56616 18.7915 7.85631 18.7064 8.10611 18.5412C8.17919 18.7763 8.30439 18.999 8.49499 19.1801L8.69791 19.3732C8.98614 19.647 9.36058 19.7834 9.72958 19.7831C10.1225 19.7834 10.5194 19.629 10.8125 19.323L11.6939 18.4026L12.8914 19.5109C13.1781 19.7768 13.546 19.9091 13.9092 19.9083C14.3082 19.9091 14.7107 19.7493 15.0044 19.4348L15.1956 19.23C15.3606 19.0528 15.4683 18.843 15.5308 18.6241L15.9947 19.0523C16.2818 19.317 16.6492 19.4488 17.0119 19.4485C17.4114 19.4488 17.815 19.2889 18.109 18.9743L18.2991 18.7697C18.5186 18.5352 18.6422 18.2447 18.6804 17.948C18.8028 17.9794 18.9269 18.0007 19.052 18.0007C19.4515 18.0007 19.8541 17.8411 20.1483 17.5267L20.339 17.3221C20.6054 17.0366 20.738 16.6703 20.7374 16.3093C20.7374 16.1972 20.7213 16.0857 20.6965 15.9755C21.0279 15.9315 21.3491 15.7838 21.5935 15.5214L21.7846 15.3166C22.051 15.031 22.183 14.6648 22.183 14.3034C22.1836 13.9058 22.0233 13.5046 21.7069 13.2123L21.3494 12.8821L24.5762 9.31444C24.8658 8.99325 24.9995 8.57981 25 8.17266ZM3.90691 14.4396C3.73595 14.4391 3.56875 14.378 3.43811 14.2542L3.23547 14.0619C3.09527 13.9294 3.02603 13.753 3.02547 13.5719C3.02603 13.402 3.08683 13.2361 3.21203 13.1055L5.25466 10.974C5.38774 10.8351 5.5653 10.7656 5.74745 10.7654C5.91789 10.7656 6.08453 10.827 6.21625 10.9511L6.41805 11.1436C6.41805 11.1436 6.62697 11.4525 6.62749 11.6339C6.62697 11.7697 6.58605 11.902 6.50669 12.0165C6.49989 12.0233 4.30206 14.3139 4.30206 14.3139C4.18535 14.3965 4.04735 14.439 3.90691 14.4396ZM5.53825 16.5657C5.40545 16.704 5.22817 16.7732 5.04602 16.7738C4.87506 16.7735 4.70838 16.7122 4.57722 16.5884L4.3743 16.3955C4.23522 16.2635 4.16486 16.0863 4.16486 15.9052C4.16486 15.7353 4.22622 15.5694 4.35081 15.4388C4.35081 15.4388 7.0736 12.6045 7.09652 12.5772C7.22664 12.452 7.39431 12.3874 7.56747 12.3871C7.73842 12.3874 7.90511 12.4485 8.03627 12.5725L8.23919 12.7656C8.37878 12.8976 8.44811 13.0743 8.44863 13.2557C8.44806 13.4256 8.38675 13.5916 8.26206 13.7223L5.53825 16.5657ZM7.76983 17.7708C7.63731 17.9094 7.46008 17.9787 7.27788 17.9792C7.10692 17.979 6.94024 17.9176 6.80908 17.7935L6.6056 17.6007C6.466 17.4684 6.39616 17.2917 6.39616 17.1106C6.39616 16.959 6.44772 16.812 6.54639 16.6895L8.44258 14.7104C8.5705 14.595 8.73081 14.5343 8.89694 14.5343C9.06789 14.5345 9.23458 14.5956 9.36574 14.7197L9.56922 14.9128C9.7083 15.0448 9.77814 15.2215 9.77866 15.4026C9.7781 15.5728 9.71622 15.7388 9.5921 15.8692L7.76983 17.7708ZM11.3727 17.5619L10.2221 18.7628C10.0896 18.9013 9.91206 18.9706 9.72991 18.9711C9.55895 18.9708 9.39227 18.9095 9.26111 18.7854L9.05819 18.5926C8.91911 18.4606 8.84927 18.2836 8.84875 18.1025C8.84927 17.9323 8.91063 17.7662 9.03531 17.6361L10.1854 16.4353C10.3185 16.2968 10.496 16.2272 10.6782 16.227C10.8486 16.2272 11.0158 16.2883 11.147 16.4127L11.3505 16.6055C11.4895 16.7375 11.5588 16.9142 11.5594 17.0953C11.5587 17.2655 11.4974 17.4315 11.3727 17.5619ZM21.3683 14.3045C21.368 14.4713 21.3083 14.6347 21.1872 14.7645L20.9965 14.969C20.8635 15.1114 20.6829 15.1834 20.498 15.1837C20.3303 15.1834 20.1661 15.1245 20.0358 15.004L16.8232 12.033L16.2677 12.6278L19.7064 15.8134C19.8496 15.9459 19.9215 16.1259 19.9226 16.3097C19.9215 16.4772 19.8623 16.6403 19.7415 16.7701L19.5514 16.9747C19.4184 17.117 19.2378 17.1887 19.0529 17.1893C18.8852 17.1888 18.7205 17.1296 18.5912 17.0099L15.3778 14.0389L14.8228 14.6337L17.6746 17.2709C17.812 17.4026 17.8825 17.578 17.8825 17.7579C17.8825 17.9249 17.8233 18.0882 17.7025 18.2177L17.5118 18.4223C17.3793 18.5647 17.1982 18.6367 17.0128 18.6372C16.8445 18.6367 16.6803 18.5775 16.5505 18.4577L13.7045 15.8301L13.7035 15.8296L13.1496 16.4255L13.1608 16.4361L14.5863 17.7517C14.7125 17.8815 14.778 18.0478 14.7785 18.2199C14.778 18.386 14.7193 18.5485 14.5985 18.6781L14.4078 18.8829C14.2748 19.0253 14.0948 19.0967 13.9104 19.0973C13.7427 19.0967 13.5785 19.0378 13.4487 18.9176L12.2076 17.7683C12.3156 17.5565 12.3759 17.3265 12.3759 17.0958C12.3764 16.7045 12.2209 16.3099 11.9136 16.0184L11.7101 15.8253C11.4219 15.5517 11.048 15.4151 10.679 15.4156C10.6504 15.4156 10.6215 15.4222 10.5934 15.4238C10.5934 15.417 10.595 15.4099 10.595 15.4031C10.5955 15.0118 10.1328 14.3251 10.1328 14.3251L9.92988 14.1326C9.71416 13.928 9.45096 13.8004 9.17721 13.7491C9.23364 13.5893 9.26556 13.423 9.26556 13.2563C9.26556 12.865 9.11064 12.4701 8.80333 12.1789L8.60041 11.9858C8.31156 11.712 7.93774 11.5754 7.56874 11.5756C7.52566 11.5756 7.48314 11.5844 7.4403 11.5882C7.42858 11.2124 7.27722 10.8369 6.9827 10.5571L6.78035 10.3646C6.4915 10.0905 6.11767 9.95386 5.74867 9.95414C5.35511 9.95386 4.95888 10.1082 4.66577 10.4142L4.18361 10.9174L2.0477 9.09563C1.89419 8.96419 1.81755 8.78255 1.81699 8.59603C1.8175 8.43975 1.8707 8.28675 1.98414 8.15972L4.23784 5.63573C4.32728 5.53538 4.45956 5.44458 4.61449 5.38153C4.76941 5.31853 4.94528 5.28394 5.10972 5.28417C5.25292 5.28417 5.38731 5.31009 5.4948 5.35645L6.73211 5.88441C7.08091 6.03141 7.48586 6.09169 7.89283 6.093C8.30027 6.09164 8.70471 6.03136 9.05355 5.88441L10.2903 5.35669C10.4809 5.27353 10.7686 5.22197 11.0547 5.22305C11.371 5.22113 11.6879 5.28661 11.8717 5.38041C11.9884 5.43848 12.0992 5.49361 12.202 5.54513L10.9406 6.43177C10.5354 6.71677 10.3169 7.17 10.3175 7.62736C10.317 7.93008 10.4129 8.23824 10.6082 8.49975L10.7743 8.72306C11.0906 9.14363 11.584 9.35986 12.077 9.36094C12.3555 9.36094 12.6391 9.29058 12.8919 9.13894L13.6462 8.68594C13.8001 8.59186 14.0324 8.53242 14.2726 8.5335C14.5549 8.53186 14.8393 8.61534 15.0103 8.74102L17.0972 10.2371C17.5616 10.5698 18.3181 11.187 18.7373 11.5754L21.1527 13.8086C21.2957 13.9412 21.3677 14.1204 21.3683 14.3045ZM23.9705 8.77153L20.7528 12.3296L19.2918 10.9792C18.8342 10.5567 18.0796 9.94069 17.5735 9.57713L15.4872 8.08102C15.1335 7.83042 14.7004 7.72209 14.2722 7.7205C13.9079 7.72158 13.5408 7.80099 13.2239 7.98966L12.4702 8.44266C12.3545 8.51217 12.2182 8.54766 12.0766 8.54794C11.8235 8.54878 11.5702 8.43066 11.4289 8.23838L11.2629 8.01478C11.1745 7.89563 11.1328 7.76142 11.1322 7.62614C11.1333 7.42158 11.2276 7.22306 11.4104 7.09406L13.6406 5.52703C13.8335 5.38744 14.1766 5.28952 14.5024 5.29195C14.7288 5.29088 14.945 5.33639 15.0931 5.40952L16.9088 6.28903C17.2184 6.43767 17.5677 6.49847 17.9192 6.49931C18.3708 6.49711 18.8273 6.39895 19.2034 6.16795L21.0582 5.01413C21.1765 4.94025 21.3186 4.90205 21.4668 4.90205C21.7171 4.90153 21.968 5.01497 22.1101 5.20013L24.0117 7.63331C24.1213 7.77267 24.1848 7.96927 24.1848 8.17303C24.1852 8.40089 24.1047 8.62509 23.9705 8.77153Z" fill="#504EF3" stroke="#504EF3" stroke-width="0.3"/>
<path fill-rule="evenodd" clip-rule="evenodd" d="M24.9995 8.17266C24.999 7.8083 24.8918 7.43878 24.6548 7.13419L22.7532 4.701C22.4347 4.29656 21.9501 4.09064 21.4658 4.08984C21.1775 4.08984 20.884 4.16372 20.6247 4.32544L18.7705 5.47903C18.5755 5.60339 18.2412 5.68875 17.9183 5.68655C17.6674 5.68763 17.425 5.63742 17.2649 5.55834L15.4492 4.67883C15.1563 4.53783 14.8298 4.48003 14.5015 4.47947C14.03 4.48167 13.5525 4.59755 13.1687 4.86347L12.9569 5.01211L12.2015 5.54513L10.9402 6.43177C10.5349 6.71677 10.3164 7.17 10.317 7.62736C10.3165 7.93008 10.4124 8.23823 10.6077 8.49975L10.7738 8.72306C11.0902 9.14363 11.5835 9.35986 12.0765 9.36094C12.355 9.36094 12.6386 9.29058 12.8914 9.13894L13.6457 8.68594C13.7996 8.59186 14.0319 8.53242 14.2721 8.5335C14.5544 8.53186 14.8388 8.61534 15.0098 8.74102L17.0967 10.2371C17.5611 10.5698 18.3176 11.187 18.7368 11.5754L20.8183 13.4999L21.3489 12.8821L24.5757 9.31444C24.8654 8.99325 24.999 8.57981 24.9995 8.17266ZM3.6181 11.5047L2.62078 12.5451C2.34586 12.832 2.20899 13.204 2.20899 13.5718C2.20847 13.9632 2.36391 14.3583 2.67178 14.6493L2.8741 14.8415C3.06474 15.0224 3.29381 15.1374 3.53353 15.1988C3.4133 15.4199 3.34758 15.6624 3.3481 15.9053C3.34758 16.297 3.50302 16.6919 3.81033 16.9831L4.01274 17.1759C4.30158 17.4497 4.67602 17.5861 5.04492 17.5859C5.24321 17.5861 5.44172 17.5463 5.62828 17.4683C5.69377 17.7339 5.829 17.9865 6.04172 18.1883L6.24464 18.3813C6.53349 18.6551 6.90731 18.7915 7.27683 18.7913C7.56567 18.7915 7.85583 18.7064 8.10563 18.5412C8.17871 18.7762 8.30391 18.999 8.4945 19.1801L8.69742 19.3732C8.98566 19.647 9.3601 19.7834 9.7291 19.7831C10.122 19.7834 10.5189 19.629 10.812 19.323L11.6934 18.4026L12.2071 17.7683C12.3151 17.5565 12.3754 17.3265 12.3754 17.0958C12.3759 16.7045 12.2205 16.3099 11.9131 16.0184L11.7097 15.8253C11.4214 15.5517 11.0475 15.4151 10.6785 15.4156C10.6621 15.4156 10.6455 15.4178 10.6291 15.42L10.6291 15.42L10.629 15.42C10.6169 15.4216 10.6049 15.4232 10.593 15.4238C10.593 15.4204 10.5934 15.417 10.5938 15.4135L10.5941 15.4101C10.5944 15.4078 10.5945 15.4054 10.5945 15.4031C10.5951 15.0118 10.1323 14.3251 10.1323 14.3251L9.92939 14.1326C9.71367 13.928 9.45047 13.8004 9.17672 13.7491C9.23316 13.5893 9.26508 13.423 9.26508 13.2563C9.26508 12.865 9.11016 12.4701 8.80285 12.1789L8.59992 11.9858C8.31108 11.712 7.93725 11.5754 7.56825 11.5756C7.54063 11.5756 7.51324 11.5792 7.48585 11.5828L7.48583 11.5828C7.47051 11.5848 7.45518 11.5868 7.43981 11.5882C7.4281 11.2124 7.27674 10.8369 6.98222 10.5571L6.77986 10.3646C6.49102 10.0905 6.11719 9.95386 5.74819 9.95414C5.35463 9.95386 4.95839 10.1082 4.66528 10.4142L4.18313 10.9174L3.6181 11.5047ZM3.43754 14.2542C3.56819 14.378 3.73539 14.4391 3.90634 14.4397C4.04678 14.4391 4.18478 14.3965 4.3015 14.3139C4.3015 14.3139 6.49932 12.0234 6.50612 12.0166C6.58548 11.902 6.6264 11.7698 6.62692 11.634C6.6264 11.4526 6.41748 11.1436 6.41748 11.1436L6.21568 10.9511C6.08397 10.8271 5.91733 10.7657 5.74689 10.7654C5.56473 10.7656 5.38717 10.8352 5.25409 10.974L3.21147 13.1056C3.08626 13.2362 3.02547 13.402 3.0249 13.5719C3.02547 13.753 3.0947 13.9294 3.2349 14.062L3.43754 14.2542ZM5.04545 16.7739C5.22761 16.7733 5.40489 16.7041 5.53768 16.5658L8.2615 13.7223C8.38618 13.5917 8.4475 13.4256 8.44806 13.2557C8.44754 13.0744 8.37822 12.8977 8.23862 12.7657L8.0357 12.5726C7.90454 12.4485 7.73786 12.3874 7.5669 12.3871C7.39375 12.3874 7.22607 12.4521 7.09595 12.5772C7.07303 12.6046 4.35025 15.4389 4.35025 15.4389C4.22565 15.5695 4.16429 15.7353 4.16429 15.9052C4.16429 16.0863 4.23465 16.2636 4.37373 16.3956L4.57665 16.5884C4.70781 16.7122 4.8745 16.7736 5.04545 16.7739ZM7.27731 17.9793C7.45951 17.9788 7.63675 17.9094 7.76926 17.7708L9.59153 15.8692C9.71565 15.7389 9.77753 15.5728 9.77809 15.4026C9.77757 15.2215 9.70773 15.0448 9.56865 14.9128L9.36517 14.7197C9.23401 14.5957 9.06732 14.5346 8.89637 14.5343C8.73025 14.5343 8.56993 14.5951 8.44201 14.7105L6.54582 16.6896C6.44715 16.812 6.39559 16.9591 6.39559 17.1107C6.39559 17.2918 6.46543 17.4684 6.60503 17.6007L6.80851 17.7936C6.93967 17.9177 7.10636 17.979 7.27731 17.9793ZM10.2216 18.7628L11.3722 17.562C11.4968 17.4316 11.5582 17.2655 11.5588 17.0954C11.5583 16.9143 11.489 16.7376 11.3499 16.6056L11.1464 16.4127C11.0153 16.2884 10.8481 16.2273 10.6776 16.227C10.4955 16.2273 10.3179 16.2969 10.1848 16.4354L9.03475 17.6362C8.91006 17.7662 8.8487 17.9323 8.84818 18.1025C8.8487 18.2836 8.91854 18.4606 9.05762 18.5926L9.26054 18.7854C9.3917 18.9095 9.55839 18.9709 9.72934 18.9712C9.9115 18.9706 10.089 18.9013 10.2216 18.7628ZM20.7522 12.3297L23.97 8.77159C24.1041 8.62515 24.1846 8.40095 24.1843 8.17309C24.1843 7.96932 24.1208 7.77273 24.0111 7.63337L22.1095 5.20018C21.9674 5.01502 21.7165 4.90159 21.4662 4.9021C21.3181 4.9021 21.176 4.9403 21.0576 5.01418L19.2029 6.16801C18.8267 6.39901 18.3702 6.49716 17.9186 6.49937C17.5672 6.49852 17.2178 6.43773 16.9082 6.28909L15.0925 5.40957C14.9445 5.33644 14.7282 5.29093 14.5019 5.29201C14.176 5.28957 13.8329 5.38749 13.6401 5.52709L11.4098 7.09412C11.227 7.22312 11.1327 7.42163 11.1316 7.6262C11.1322 7.76148 11.1739 7.89568 11.2623 8.01484L11.4284 8.23843C11.5696 8.43071 11.8229 8.54884 12.076 8.54799C12.2177 8.54771 12.354 8.51223 12.4696 8.44271L13.2234 7.98971C13.5402 7.80104 13.9073 7.72163 14.2717 7.72055C14.6998 7.72215 15.1329 7.83048 15.4866 8.08107L17.5729 9.57718C18.079 9.94074 18.8336 10.5568 19.2912 10.9792L20.7522 12.3297Z" fill="#212121"/>
<path d="M24.6548 7.13419L24.7732 7.04208L24.773 7.04182L24.6548 7.13419ZM24.9995 8.17266L25.1495 8.17285L25.1495 8.17242L24.9995 8.17266ZM22.7532 4.701L22.8714 4.60863L22.8711 4.60819L22.7532 4.701ZM21.4658 4.08984L21.466 3.93984H21.4658V4.08984ZM20.6247 4.32544L20.704 4.4528L20.7041 4.45271L20.6247 4.32544ZM18.7705 5.47903L18.6913 5.35166L18.6899 5.35256L18.7705 5.47903ZM17.9183 5.68655L17.9193 5.53654L17.9177 5.53655L17.9183 5.68655ZM17.2649 5.55834L17.3313 5.42385L17.3303 5.42335L17.2649 5.55834ZM15.4492 4.67883L15.5145 4.54383L15.5142 4.54368L15.4492 4.67883ZM14.5015 4.47947L14.5017 4.32947L14.5008 4.32947L14.5015 4.47947ZM13.1687 4.86347L13.0833 4.74018L13.0826 4.74067L13.1687 4.86347ZM12.9569 5.01211L12.8707 4.88931L12.8704 4.88955L12.9569 5.01211ZM12.2015 5.54513L12.2877 5.66784L12.288 5.66769L12.2015 5.54513ZM10.9402 6.43177L10.8539 6.30905L10.8539 6.30907L10.9402 6.43177ZM10.317 7.62736L10.467 7.62762L10.467 7.62717L10.317 7.62736ZM10.6077 8.49975L10.7281 8.41024L10.7279 8.41L10.6077 8.49975ZM10.7738 8.72306L10.6534 8.81258L10.6539 8.81323L10.7738 8.72306ZM12.0765 9.36094L12.0762 9.51094H12.0765V9.36094ZM12.8914 9.13894L12.9686 9.26757L12.9687 9.26753L12.8914 9.13894ZM13.6457 8.68594L13.723 8.81453L13.724 8.81391L13.6457 8.68594ZM14.2721 8.5335L14.2715 8.68351L14.273 8.6835L14.2721 8.5335ZM15.0098 8.74102L14.921 8.86189L14.9224 8.86292L15.0098 8.74102ZM17.0967 10.2371L17.0093 10.359L17.0093 10.3591L17.0967 10.2371ZM18.7368 11.5754L18.6348 11.6854L18.635 11.6855L18.7368 11.5754ZM20.8183 13.4999L20.7164 13.61L20.8307 13.7156L20.9321 13.5976L20.8183 13.4999ZM21.3489 12.8821L21.2376 12.7814L21.2351 12.7844L21.3489 12.8821ZM24.5757 9.31444L24.6869 9.41506L24.6871 9.4149L24.5757 9.31444ZM2.62078 12.5451L2.5125 12.4413L2.51248 12.4413L2.62078 12.5451ZM3.6181 11.5047L3.51 11.4007L3.50981 11.4009L3.6181 11.5047ZM2.20899 13.5718L2.35899 13.572V13.5718H2.20899ZM2.67178 14.6493L2.77511 14.5405L2.77481 14.5403L2.67178 14.6493ZM2.8741 14.8415L2.77077 14.9503L2.77086 14.9503L2.8741 14.8415ZM3.53353 15.1988L3.66532 15.2704L3.75731 15.1012L3.57073 15.0534L3.53353 15.1988ZM3.3481 15.9053L3.4981 15.9055L3.4981 15.905L3.3481 15.9053ZM3.81033 16.9831L3.91379 16.8745L3.91352 16.8743L3.81033 16.9831ZM4.01274 17.1759L3.90928 17.2846L3.90954 17.2848L4.01274 17.1759ZM5.04492 17.5859L5.04514 17.4359L5.04483 17.4359L5.04492 17.5859ZM5.62828 17.4683L5.77392 17.4324L5.73201 17.2624L5.57042 17.3299L5.62828 17.4683ZM6.04172 18.1883L6.14512 18.0796L6.14496 18.0794L6.04172 18.1883ZM6.24464 18.3813L6.14125 18.49L6.14145 18.4902L6.24464 18.3813ZM7.27683 18.7913L7.27698 18.6413L7.27673 18.6413L7.27683 18.7913ZM8.10563 18.5412L8.24887 18.4966L8.18954 18.3058L8.02287 18.4161L8.10563 18.5412ZM8.4945 19.1801L8.5979 19.0715L8.59782 19.0714L8.4945 19.1801ZM8.69742 19.3732L8.59403 19.4819L8.59412 19.482L8.69742 19.3732ZM9.7291 19.7831L9.7292 19.6331L9.729 19.6331L9.7291 19.7831ZM10.812 19.323L10.9203 19.4268L10.9203 19.4268L10.812 19.323ZM11.6934 18.4026L11.8022 18.5067L11.81 18.497L11.6934 18.4026ZM12.2071 17.7683L12.3237 17.8627L12.3336 17.8505L12.3407 17.8365L12.2071 17.7683ZM12.3754 17.0958L12.2254 17.0956V17.0958H12.3754ZM11.9131 16.0184L11.8099 16.1272L11.8099 16.1272L11.9131 16.0184ZM11.7097 15.8253L11.6064 15.9341L11.6064 15.9341L11.7097 15.8253ZM10.6785 15.4156L10.6785 15.5656L10.6788 15.5656L10.6785 15.4156ZM10.6291 15.42L10.6095 15.2709L10.5997 15.2729L10.6291 15.42ZM10.6291 15.42L10.6519 15.5684L10.6585 15.5671L10.6291 15.42ZM10.629 15.42L10.6485 15.5687L10.6518 15.5682L10.629 15.42ZM10.593 15.4238H10.443V15.5829L10.6017 15.5736L10.593 15.4238ZM10.5938 15.4135L10.7428 15.4305L10.7428 15.43L10.5938 15.4135ZM10.5941 15.4101L10.7432 15.4266L10.7433 15.4254L10.5941 15.4101ZM10.5945 15.4031L10.4445 15.4029V15.4031H10.5945ZM10.1323 14.3251L10.2567 14.2413L10.2475 14.2276L10.2356 14.2163L10.1323 14.3251ZM9.92939 14.1326L10.0326 14.0238L10.0326 14.0237L9.92939 14.1326ZM9.17672 13.7491L9.03528 13.6992L8.97696 13.8643L9.1491 13.8966L9.17672 13.7491ZM8.80285 12.1789L8.69945 12.2875L8.69967 12.2878L8.80285 12.1789ZM8.59992 11.9858L8.70332 11.8771L8.70312 11.8769L8.59992 11.9858ZM7.56825 11.5756L7.56825 11.7256L7.56837 11.7256L7.56825 11.5756ZM7.48585 11.5828L7.50445 11.7317L7.50531 11.7315L7.48585 11.5828ZM7.48583 11.5828L7.46723 11.434L7.46637 11.4341L7.48583 11.5828ZM7.43981 11.5882L7.28989 11.5929L7.29484 11.7518L7.45322 11.7376L7.43981 11.5882ZM6.98222 10.5571L6.87883 10.6658L6.87891 10.6658L6.98222 10.5571ZM6.77986 10.3646L6.88325 10.2559L6.88311 10.2558L6.77986 10.3646ZM5.74819 9.95414L5.74808 10.1041L5.7483 10.1041L5.74819 9.95414ZM4.66528 10.4142L4.77359 10.518L4.77361 10.518L4.66528 10.4142ZM4.18313 10.9174L4.29122 11.0214L4.29143 11.0212L4.18313 10.9174ZM3.90634 14.4397L3.90589 14.5897L3.90699 14.5897L3.90634 14.4397ZM3.43754 14.2542L3.33431 14.3631L3.33437 14.3631L3.43754 14.2542ZM4.3015 14.3139L4.38814 14.4364L4.39982 14.4281L4.40973 14.4178L4.3015 14.3139ZM6.50612 12.0166L6.61219 12.1227L6.62174 12.1131L6.62943 12.102L6.50612 12.0166ZM6.62692 11.634L6.77692 11.6345L6.77692 11.6335L6.62692 11.634ZM6.41748 11.1436L6.54174 11.0596L6.5327 11.0463L6.52102 11.0351L6.41748 11.1436ZM6.21568 10.9511L6.31923 10.8426L6.31854 10.8419L6.21568 10.9511ZM5.74689 10.7654L5.74714 10.6154L5.74669 10.6154L5.74689 10.7654ZM5.25409 10.974L5.1458 10.8702L5.14579 10.8702L5.25409 10.974ZM3.21147 13.1056L3.31976 13.2093L3.31977 13.2093L3.21147 13.1056ZM3.0249 13.5719L2.8749 13.5714L2.8749 13.5724L3.0249 13.5719ZM3.2349 14.062L3.33814 13.9532L3.33796 13.953L3.2349 14.062ZM5.53768 16.5658L5.64587 16.6697L5.646 16.6695L5.53768 16.5658ZM5.04545 16.7739L5.0452 16.9239L5.04591 16.9239L5.04545 16.7739ZM8.2615 13.7223L8.36982 13.8261L8.37001 13.8259L8.2615 13.7223ZM8.44806 13.2557L8.59806 13.2562L8.59806 13.2553L8.44806 13.2557ZM8.23862 12.7657L8.13522 12.8743L8.13556 12.8747L8.23862 12.7657ZM8.0357 12.5726L8.1391 12.4639L8.13878 12.4636L8.0357 12.5726ZM7.5669 12.3871L7.56715 12.2371L7.56666 12.2372L7.5669 12.3871ZM7.09595 12.5772L6.99197 12.4691L6.98618 12.4747L6.98102 12.4808L7.09595 12.5772ZM4.35025 15.4389L4.24207 15.3349L4.2417 15.3353L4.35025 15.4389ZM4.37373 16.3956L4.47706 16.2868L4.47699 16.2868L4.37373 16.3956ZM4.57665 16.5884L4.47332 16.6971L4.47369 16.6975L4.57665 16.5884ZM7.76926 17.7708L7.66096 17.6671L7.66084 17.6672L7.76926 17.7708ZM7.27731 17.9793L7.27706 18.1293L7.27773 18.1293L7.27731 17.9793ZM9.59153 15.8692L9.69983 15.973L9.70014 15.9727L9.59153 15.8692ZM9.77809 15.4026L9.92809 15.4031L9.92809 15.4022L9.77809 15.4026ZM9.56865 14.9128L9.67191 14.804L9.6719 14.804L9.56865 14.9128ZM9.36517 14.7197L9.46841 14.6109L9.46825 14.6108L9.36517 14.7197ZM8.89637 14.5343L8.89662 14.3843H8.89637V14.5343ZM8.44201 14.7105L8.34129 14.5988L8.3337 14.6067L8.44201 14.7105ZM6.54582 16.6896L6.43712 16.5854L6.42903 16.5954L6.54582 16.6896ZM6.60503 17.6007L6.70821 17.4919L6.7082 17.4918L6.60503 17.6007ZM6.80851 17.7936L6.70533 17.9024L6.70543 17.9025L6.80851 17.7936ZM11.3722 17.562L11.4805 17.6657L11.4806 17.6656L11.3722 17.562ZM10.2216 18.7628L10.1133 18.659L10.1132 18.6591L10.2216 18.7628ZM11.5588 17.0954L11.7088 17.0959L11.7088 17.0949L11.5588 17.0954ZM11.3499 16.6056L11.4532 16.4968L11.4531 16.4967L11.3499 16.6056ZM11.1464 16.4127L11.0432 16.5216L11.0432 16.5216L11.1464 16.4127ZM10.6776 16.227L10.6779 16.077L10.6774 16.077L10.6776 16.227ZM10.1848 16.4354L10.0767 16.3314L10.0765 16.3316L10.1848 16.4354ZM9.03475 17.6362L9.14303 17.74L9.14308 17.7399L9.03475 17.6362ZM8.84818 18.1025L8.69818 18.1021L8.69818 18.103L8.84818 18.1025ZM9.05762 18.5926L9.16095 18.4839L9.16088 18.4838L9.05762 18.5926ZM9.26054 18.7854L9.15721 18.8942L9.15746 18.8944L9.26054 18.7854ZM9.72934 18.9712L9.72909 19.1212L9.72977 19.1212L9.72934 18.9712ZM23.97 8.77159L23.8594 8.67026L23.8587 8.67097L23.97 8.77159ZM20.7522 12.3297L20.6504 12.4398L20.7617 12.5428L20.8634 12.4303L20.7522 12.3297ZM24.1843 8.17309L24.0343 8.17309L24.0343 8.1733L24.1843 8.17309ZM24.0111 7.63337L23.8929 7.72574L23.8932 7.72612L24.0111 7.63337ZM22.1095 5.20018L21.9905 5.2915L21.9913 5.29255L22.1095 5.20018ZM21.4662 4.9021L21.4662 5.0521L21.4665 5.0521L21.4662 4.9021ZM21.0576 5.01418L21.1369 5.14155L21.137 5.14143L21.0576 5.01418ZM19.2029 6.16801L19.2814 6.29583L19.2821 6.29537L19.2029 6.16801ZM17.9186 6.49937L17.9183 6.64937L17.9194 6.64937L17.9186 6.49937ZM16.9082 6.28909L16.8429 6.42408L16.8433 6.42431L16.9082 6.28909ZM15.0925 5.40957L15.0261 5.54407L15.0272 5.54457L15.0925 5.40957ZM14.5019 5.29201L14.5007 5.44201L14.5026 5.44201L14.5019 5.29201ZM13.6401 5.52709L13.7263 5.64983L13.728 5.64859L13.6401 5.52709ZM11.4098 7.09412L11.3236 6.97138L11.3233 6.97157L11.4098 7.09412ZM11.1316 7.6262L10.9816 7.6254L10.9816 7.62687L11.1316 7.6262ZM11.2623 8.01484L11.1418 8.10418L11.1419 8.10428L11.2623 8.01484ZM11.4284 8.23843L11.5493 8.14963L11.5488 8.14899L11.4284 8.23843ZM12.076 8.54799L12.0757 8.39799L12.0755 8.39799L12.076 8.54799ZM12.4696 8.44271L12.3923 8.31414L12.3923 8.31415L12.4696 8.44271ZM13.2234 7.98971L13.1466 7.86083L13.1461 7.86114L13.2234 7.98971ZM14.2717 7.72055L14.2722 7.57055L14.2712 7.57056L14.2717 7.72055ZM15.4866 8.08107L15.574 7.95917L15.5733 7.95867L15.4866 8.08107ZM17.5729 9.57718L17.6604 9.45535L17.6603 9.45528L17.5729 9.57718ZM19.2912 10.9792L19.393 10.8691L19.393 10.869L19.2912 10.9792ZM24.5365 7.22629C24.7504 7.50125 24.849 7.83728 24.8495 8.17289L25.1495 8.17242C25.1489 7.77932 25.0332 7.37632 24.7732 7.04209L24.5365 7.22629ZM22.635 4.79337L24.5367 7.22656L24.773 7.04182L22.8714 4.60863L22.635 4.79337ZM21.4655 4.23984C21.9086 4.24057 22.348 4.42894 22.6354 4.79381L22.8711 4.60819C22.5214 4.16418 21.9915 3.94071 21.466 3.93984L21.4655 4.23984ZM20.7041 4.45271C20.9374 4.30719 21.2029 4.23984 21.4658 4.23984V3.93984C21.1521 3.93984 20.8306 4.02024 20.5453 4.19816L20.7041 4.45271ZM18.8498 5.60639L20.704 4.4528L20.5455 4.19808L18.6913 5.35167L18.8498 5.60639ZM17.9173 5.83654C18.2606 5.83889 18.6255 5.74944 18.8512 5.6055L18.6899 5.35256C18.5256 5.45734 18.2219 5.53861 17.9193 5.53655L17.9173 5.83654ZM17.1985 5.69283C17.3847 5.78482 17.6515 5.83769 17.9189 5.83655L17.9177 5.53655C17.6833 5.53756 17.4653 5.49002 17.3313 5.42386L17.1985 5.69283ZM15.3838 4.81383L17.1995 5.69334L17.3303 5.42335L15.5145 4.54383L15.3838 4.81383ZM14.5012 4.62947C14.8127 4.63 15.116 4.6849 15.3841 4.81398L15.5142 4.54368C15.1966 4.39076 14.8468 4.33006 14.5017 4.32947L14.5012 4.62947ZM13.2542 4.98676C13.6072 4.74213 14.053 4.63157 14.5022 4.62947L14.5008 4.32947C14.0069 4.33178 13.4977 4.45297 13.0833 4.74018L13.2542 4.98676ZM13.043 5.1349L13.2549 4.98626L13.0826 4.74067L12.8707 4.88931L13.043 5.1349ZM12.288 5.66769L13.0433 5.13467L12.8704 4.88955L12.115 5.42256L12.288 5.66769ZM11.0264 6.55448L12.2877 5.66784L12.1152 5.42241L10.8539 6.30905L11.0264 6.55448ZM10.467 7.62717C10.4665 7.21726 10.6623 6.81051 11.0264 6.55447L10.8539 6.30907C10.4074 6.62302 10.1664 7.12274 10.167 7.62754L10.467 7.62717ZM10.7279 8.41C10.5525 8.17503 10.4665 7.8986 10.467 7.62762L10.167 7.6271C10.1664 7.96155 10.2724 8.30144 10.4875 8.5895L10.7279 8.41ZM10.8942 8.63355L10.7281 8.41024L10.4874 8.58926L10.6534 8.81258L10.8942 8.63355ZM12.0769 9.21094C11.6262 9.20995 11.1791 9.01235 10.8937 8.63289L10.6539 8.81323C11.0012 9.2749 11.5407 9.50977 12.0762 9.51094L12.0769 9.21094ZM12.8143 9.01031C12.5865 9.14691 12.3299 9.21094 12.0765 9.21094V9.51094C12.38 9.51094 12.6907 9.43424 12.9686 9.26757L12.8143 9.01031ZM13.5685 8.55734L12.8142 9.01034L12.9687 9.26753L13.723 8.81453L13.5685 8.55734ZM14.2728 8.3835C14.0113 8.38233 13.7502 8.44626 13.5675 8.55797L13.724 8.81391C13.849 8.73746 14.0524 8.68252 14.2715 8.6835L14.2728 8.3835ZM15.0987 8.62015C14.8958 8.47106 14.5776 8.38172 14.2713 8.3835L14.273 8.6835C14.5312 8.682 14.7819 8.75963 14.921 8.86188L15.0987 8.62015ZM17.1841 10.1152L15.0972 8.61911L14.9224 8.86292L17.0093 10.359L17.1841 10.1152ZM18.8387 11.4653C18.4149 11.0727 17.6536 10.4516 17.184 10.1152L17.0093 10.3591C17.4687 10.6881 18.2203 11.3013 18.6348 11.6854L18.8387 11.4653ZM20.9201 13.3897L18.8386 11.4652L18.635 11.6855L20.7164 13.61L20.9201 13.3897ZM21.2351 12.7844L20.7045 13.4021L20.9321 13.5976L21.4627 12.9798L21.2351 12.7844ZM24.4644 9.21382L21.2376 12.7815L21.4601 12.9827L24.6869 9.41506L24.4644 9.21382ZM24.8495 8.17247C24.849 8.54774 24.7259 8.9239 24.4643 9.21397L24.6871 9.4149C25.0048 9.0626 25.149 8.61189 25.1495 8.17285L24.8495 8.17247ZM2.72907 12.6489L3.72638 11.6085L3.50981 11.4009L2.5125 12.4413L2.72907 12.6489ZM2.35899 13.5718C2.35899 13.2409 2.48214 12.9066 2.72909 12.6488L2.51248 12.4413C2.20959 12.7574 2.05899 13.1671 2.05899 13.5718H2.35899ZM2.77481 14.5403C2.49833 14.279 2.35852 13.924 2.35899 13.572L2.05899 13.5716C2.05842 14.0024 2.22949 14.4377 2.56876 14.7583L2.77481 14.5403ZM2.97742 14.7328L2.77511 14.5405L2.56846 14.758L2.77077 14.9503L2.97742 14.7328ZM3.57073 15.0534C3.35242 14.9976 3.14706 14.8937 2.97733 14.7327L2.77086 14.9503C2.98241 15.151 3.23521 15.2772 3.49634 15.3441L3.57073 15.0534ZM3.4981 15.905C3.49764 15.6894 3.556 15.4715 3.66532 15.2704L3.40175 15.1271C3.2706 15.3683 3.19752 15.6354 3.1981 15.9057L3.4981 15.905ZM3.91352 16.8743C3.63744 16.6126 3.49763 16.2578 3.4981 15.9055L3.1981 15.9051C3.19753 16.3362 3.3686 16.7711 3.70714 17.092L3.91352 16.8743ZM4.11619 17.0673L3.91379 16.8745L3.70687 17.0918L3.90928 17.2846L4.11619 17.0673ZM5.04483 17.4359C4.71248 17.4361 4.37556 17.3132 4.11593 17.0671L3.90954 17.2848C4.2276 17.5863 4.63955 17.7361 5.04502 17.7359L5.04483 17.4359ZM5.57042 17.3299C5.402 17.4003 5.2232 17.4361 5.04514 17.4359L5.04471 17.7359C5.26321 17.7362 5.48145 17.6923 5.68614 17.6067L5.57042 17.3299ZM6.14496 18.0794C5.95498 17.8992 5.8332 17.6729 5.77392 17.4324L5.48264 17.5042C5.55433 17.795 5.70302 18.0737 5.93849 18.2971L6.14496 18.0794ZM6.34804 18.2727L6.14512 18.0796L5.93832 18.2969L6.14125 18.49L6.34804 18.2727ZM7.27673 18.6413C6.94381 18.6415 6.60749 18.5186 6.34784 18.2725L6.14145 18.4902C6.45949 18.7917 6.87082 18.9415 7.27693 18.9413L7.27673 18.6413ZM8.02287 18.4161C7.79778 18.565 7.53648 18.6415 7.27698 18.6413L7.27668 18.9413C7.59487 18.9416 7.91388 18.8479 8.18838 18.6663L8.02287 18.4161ZM8.59782 19.0714C8.42845 18.9105 8.3155 18.711 8.24887 18.4966L7.96239 18.5857C8.04191 18.8415 8.17937 19.0876 8.39119 19.2889L8.59782 19.0714ZM8.80082 19.2645L8.5979 19.0715L8.3911 19.2888L8.59403 19.4819L8.80082 19.2645ZM9.729 19.6331C9.39653 19.6333 9.05968 19.5104 8.80073 19.2644L8.59412 19.482C8.91164 19.7836 9.32367 19.9334 9.72919 19.9331L9.729 19.6331ZM10.7037 19.2193C10.4403 19.4942 10.0833 19.6334 9.7292 19.6331L9.72899 19.9331C10.1608 19.9334 10.5975 19.7639 10.9203 19.4268L10.7037 19.2193ZM11.5851 18.2989L10.7037 19.2193L10.9203 19.4268L11.8018 18.5064L11.5851 18.2989ZM12.0905 17.6739L11.5769 18.3082L11.81 18.497L12.3237 17.8627L12.0905 17.6739ZM12.2254 17.0958C12.2254 17.3004 12.1719 17.5071 12.0735 17.7002L12.3407 17.8365C12.4583 17.6058 12.5254 17.3527 12.5254 17.0958H12.2254ZM11.8099 16.1272C12.0861 16.3892 12.2258 16.7437 12.2254 17.0956L12.5254 17.096C12.5259 16.6652 12.3548 16.2306 12.0164 15.9095L11.8099 16.1272ZM11.6064 15.9341L11.8099 16.1272L12.0164 15.9095L11.8129 15.7165L11.6064 15.9341ZM10.6788 15.5656C11.011 15.5652 11.3473 15.6882 11.6064 15.9341L11.8129 15.7165C11.4955 15.4152 11.084 15.2651 10.6783 15.2656L10.6788 15.5656ZM10.6486 15.5687C10.6667 15.5663 10.6735 15.5656 10.6785 15.5656V15.2656C10.6506 15.2656 10.6243 15.2693 10.6096 15.2712L10.6486 15.5687ZM10.6585 15.5671L10.6585 15.5671L10.5997 15.2729L10.5996 15.2729L10.6585 15.5671ZM10.6518 15.5682L10.6519 15.5682L10.6063 15.2717L10.6062 15.2717L10.6518 15.5682ZM10.6017 15.5736C10.6199 15.5725 10.6374 15.5702 10.6485 15.5687L10.6095 15.2713C10.5964 15.273 10.5898 15.2738 10.5842 15.2741L10.6017 15.5736ZM10.4447 15.3964C10.4445 15.3983 10.443 15.4104 10.443 15.4238H10.743C10.743 15.4279 10.7427 15.4307 10.7426 15.4316C10.7426 15.4323 10.7425 15.4326 10.7428 15.4305L10.4447 15.3964ZM10.445 15.3936L10.4447 15.397L10.7428 15.43L10.7432 15.4266L10.445 15.3936ZM10.4445 15.4031C10.4445 15.4004 10.4447 15.3982 10.4447 15.3969C10.4448 15.3962 10.4448 15.3957 10.4449 15.3953C10.4449 15.395 10.4449 15.3948 10.4449 15.3948L10.7433 15.4254C10.7438 15.4211 10.7445 15.4129 10.7445 15.4031H10.4445ZM10.1323 14.3251C10.0079 14.4089 10.0079 14.4089 10.0079 14.4089C10.0079 14.4089 10.0079 14.4089 10.0079 14.4089C10.0079 14.4089 10.0079 14.4089 10.0079 14.4089C10.0079 14.409 10.008 14.409 10.0081 14.4092C10.0082 14.4094 10.0085 14.4098 10.0089 14.4104C10.0097 14.4115 10.0108 14.4133 10.0124 14.4156C10.0155 14.4204 10.0202 14.4275 10.0263 14.4369C10.0384 14.4556 10.0558 14.483 10.0769 14.5171C10.119 14.5856 10.175 14.6805 10.2308 14.787C10.2868 14.8938 10.3413 15.0098 10.3815 15.1207C10.4226 15.2339 10.4446 15.3309 10.4445 15.4029L10.7445 15.4033C10.7447 15.2797 10.7091 15.1441 10.6636 15.0184C10.6171 14.8905 10.5561 14.7615 10.4965 14.6477C10.4367 14.5336 10.377 14.4324 10.3324 14.3599C10.31 14.3236 10.2913 14.2942 10.2781 14.2738C10.2715 14.2636 10.2663 14.2557 10.2626 14.2502C10.2608 14.2474 10.2594 14.2453 10.2584 14.2438C10.2579 14.243 10.2575 14.2424 10.2572 14.242C10.2571 14.2418 10.257 14.2416 10.2569 14.2415C10.2568 14.2415 10.2568 14.2414 10.2568 14.2414C10.2568 14.2413 10.2567 14.2413 10.2567 14.2413C10.2567 14.2413 10.2567 14.2413 10.1323 14.3251ZM9.82615 14.2414L10.0291 14.4339L10.2356 14.2163L10.0326 14.0238L9.82615 14.2414ZM9.1491 13.8966C9.39569 13.9428 9.63231 14.0576 9.82618 14.2414L10.0326 14.0237C9.79504 13.7985 9.50525 13.6581 9.20434 13.6017L9.1491 13.8966ZM9.11508 13.2563C9.11508 13.4039 9.0868 13.5533 9.03528 13.6992L9.31816 13.7991C9.37952 13.6254 9.41508 13.4421 9.41508 13.2563H9.11508ZM8.69967 12.2878C8.97564 12.5492 9.11508 12.9041 9.11508 13.2563H9.41508C9.41508 12.8258 9.24467 12.3909 8.90602 12.07L8.69967 12.2878ZM8.49653 12.0945L8.69945 12.2875L8.90624 12.0702L8.70332 11.8771L8.49653 12.0945ZM7.56837 11.7256C7.90066 11.7254 8.23701 11.8485 8.49673 12.0947L8.70312 11.8769C8.38515 11.5755 7.97385 11.4253 7.56814 11.4256L7.56837 11.7256ZM7.50531 11.7315C7.53434 11.7277 7.55204 11.7256 7.56825 11.7256V11.4256C7.52923 11.4256 7.49214 11.4307 7.46638 11.4341L7.50531 11.7315ZM7.50444 11.7317L7.50445 11.7317L7.46724 11.434L7.46723 11.434L7.50444 11.7317ZM7.45322 11.7376C7.47213 11.7359 7.49049 11.7335 7.5053 11.7315L7.46637 11.4341C7.45053 11.4362 7.43823 11.4377 7.42641 11.4388L7.45322 11.7376ZM6.87891 10.6658C7.14285 10.9166 7.27931 11.2538 7.28989 11.5929L7.58974 11.5835C7.57688 11.171 7.41062 10.7572 7.08553 10.4483L6.87891 10.6658ZM6.67647 10.4733L6.87883 10.6658L7.08561 10.4484L6.88325 10.2559L6.67647 10.4733ZM5.7483 10.1041C6.08059 10.1039 6.41691 10.227 6.67661 10.4734L6.88311 10.2558C6.56513 9.95404 6.15379 9.80383 5.74808 9.80414L5.7483 10.1041ZM4.77361 10.518C5.037 10.243 5.3934 10.1039 5.74808 10.1041L5.7483 9.80414C5.31586 9.80383 4.87979 9.97344 4.55696 10.3105L4.77361 10.518ZM4.29143 11.0212L4.77359 10.518L4.55698 10.3104L4.07483 10.8136L4.29143 11.0212ZM3.72619 11.6087L4.29122 11.0214L4.07503 10.8134L3.51 11.4007L3.72619 11.6087ZM3.90679 14.2897C3.77169 14.2893 3.64193 14.2413 3.54072 14.1453L3.33437 14.3631C3.49444 14.5148 3.69909 14.589 3.90589 14.5897L3.90679 14.2897ZM4.21485 14.1915C4.12404 14.2558 4.01625 14.2892 3.90569 14.2897L3.90699 14.5897C4.07731 14.5889 4.24552 14.5373 4.38814 14.4364L4.21485 14.1915ZM6.40006 11.9105C6.3952 11.9154 5.84193 12.492 5.29303 13.064C5.01788 13.3507 4.74293 13.6372 4.53678 13.8521C4.4337 13.9595 4.34783 14.049 4.28771 14.1117C4.25766 14.143 4.23405 14.1676 4.21795 14.1844C4.2099 14.1928 4.20373 14.1992 4.19957 14.2035C4.19749 14.2057 4.19591 14.2073 4.19486 14.2084C4.19433 14.209 4.19393 14.2094 4.19366 14.2097C4.19353 14.2098 4.19343 14.2099 4.19336 14.21C4.19333 14.21 4.19331 14.21 4.19329 14.2101C4.19327 14.2101 4.19326 14.2101 4.3015 14.3139C4.40973 14.4178 4.40974 14.4178 4.40976 14.4178C4.40977 14.4178 4.4098 14.4177 4.40983 14.4177C4.4099 14.4176 4.41 14.4175 4.41013 14.4174C4.4104 14.4171 4.4108 14.4167 4.41132 14.4161C4.41238 14.415 4.41396 14.4134 4.41604 14.4112C4.42019 14.4069 4.42637 14.4005 4.43442 14.3921C4.45051 14.3753 4.47413 14.3507 4.50418 14.3194C4.56429 14.2567 4.65017 14.1672 4.75325 14.0598C4.9594 13.845 5.23434 13.5584 5.50949 13.2717C5.78464 12.9849 6.06001 12.698 6.26701 12.4823C6.37051 12.3744 6.45691 12.2844 6.51765 12.2211C6.57975 12.1565 6.61278 12.1221 6.61219 12.1227L6.40006 11.9105ZM6.47692 11.6334C6.47652 11.739 6.44484 11.8416 6.38282 11.9312L6.62943 12.102C6.72612 11.9624 6.77629 11.8006 6.77692 11.6345L6.47692 11.6334ZM6.41748 11.1436C6.29322 11.2277 6.29321 11.2277 6.2932 11.2276C6.2932 11.2276 6.29319 11.2276 6.29319 11.2276C6.29318 11.2276 6.29318 11.2276 6.29317 11.2276C6.29317 11.2276 6.29318 11.2276 6.2932 11.2276C6.29324 11.2277 6.29332 11.2278 6.29346 11.228C6.29373 11.2284 6.29419 11.2291 6.29483 11.2301C6.2961 11.232 6.29807 11.235 6.30064 11.239C6.30579 11.2469 6.31332 11.2587 6.32243 11.2734C6.34074 11.3032 6.36501 11.3443 6.38911 11.3904C6.4134 11.4368 6.43632 11.4859 6.45288 11.5318C6.47021 11.5798 6.47686 11.6142 6.47692 11.6344L6.77692 11.6335C6.77672 11.563 6.75706 11.4909 6.73507 11.4299C6.71232 11.3669 6.68291 11.3047 6.6549 11.2512C6.62671 11.1974 6.59872 11.15 6.57783 11.1161C6.56735 11.0991 6.55855 11.0853 6.55228 11.0756C6.54913 11.0708 6.54662 11.0669 6.54483 11.0642C6.54393 11.0629 6.54322 11.0618 6.5427 11.0611C6.54244 11.0607 6.54223 11.0604 6.54207 11.0601C6.54199 11.06 6.54192 11.0599 6.54187 11.0598C6.54184 11.0598 6.54181 11.0597 6.54179 11.0597C6.54178 11.0597 6.54177 11.0597 6.54176 11.0597C6.54175 11.0596 6.54174 11.0596 6.41748 11.1436ZM6.11214 11.0597L6.31394 11.2522L6.52102 11.0351L6.31922 10.8426L6.11214 11.0597ZM5.74664 10.9154C5.88061 10.9156 6.01008 10.9635 6.11283 11.0603L6.31854 10.8419C6.15785 10.6906 5.95404 10.6158 5.74714 10.6154L5.74664 10.9154ZM5.36238 11.0778C5.46563 10.9701 5.60339 10.9156 5.74708 10.9154L5.74669 10.6154C5.52607 10.6157 5.30871 10.7002 5.1458 10.8702L5.36238 11.0778ZM3.31977 13.2093L5.36239 11.0778L5.14579 10.8702L3.10317 13.0018L3.31977 13.2093ZM3.1749 13.5724C3.17535 13.4387 3.22279 13.3105 3.31976 13.2093L3.10317 13.0018C2.94974 13.1619 2.87559 13.3654 2.8749 13.5714L3.1749 13.5724ZM3.33796 13.953C3.2294 13.8504 3.17535 13.714 3.1749 13.5714L2.8749 13.5724C2.87559 13.792 2.96 14.0085 3.13185 14.171L3.33796 13.953ZM3.54078 14.1454L3.33814 13.9532L3.13167 14.1708L3.33431 14.3631L3.54078 14.1454ZM5.42949 16.4619C5.3266 16.569 5.18904 16.6234 5.04499 16.6239L5.04591 16.9239C5.26617 16.9232 5.48317 16.8391 5.64587 16.6697L5.42949 16.4619ZM8.15318 13.6186L5.42936 16.462L5.646 16.6695L8.36982 13.8261L8.15318 13.6186ZM8.29806 13.2552C8.29762 13.3887 8.2498 13.5173 8.15299 13.6188L8.37001 13.8259C8.52257 13.6661 8.59738 13.4625 8.59806 13.2562L8.29806 13.2552ZM8.13556 12.8747C8.24341 12.9766 8.29765 13.1132 8.29806 13.2562L8.59806 13.2553C8.59743 13.0355 8.51302 12.8187 8.34168 12.6567L8.13556 12.8747ZM7.9323 12.6813L8.13522 12.8743L8.34202 12.657L8.1391 12.4639L7.9323 12.6813ZM7.56666 12.5371C7.70144 12.5374 7.83073 12.5852 7.93261 12.6816L8.13878 12.4636C7.97835 12.3118 7.77427 12.2375 7.56715 12.2372L7.56666 12.5371ZM7.19993 12.6853C7.30151 12.5876 7.43175 12.5374 7.56715 12.5371L7.56666 12.2372C7.35574 12.2375 7.15063 12.3165 6.99197 12.4691L7.19993 12.6853ZM4.35025 15.4389C4.45842 15.5428 4.45843 15.5428 4.45845 15.5427C4.45847 15.5427 4.4585 15.5427 4.45854 15.5426C4.45863 15.5426 4.45875 15.5424 4.45892 15.5423C4.45925 15.5419 4.45974 15.5414 4.46039 15.5407C4.4617 15.5394 4.46366 15.5373 4.46623 15.5346C4.47139 15.5293 4.47903 15.5213 4.48901 15.5109C4.50895 15.4902 4.53821 15.4597 4.57546 15.4209C4.64996 15.3434 4.75641 15.2325 4.88422 15.0995C5.13985 14.8333 5.48092 14.4782 5.82271 14.1222C6.16449 13.7662 6.50701 13.4093 6.76553 13.1397C6.89478 13.0049 7.00307 12.8919 7.07978 12.8117C7.15251 12.7357 7.20382 12.682 7.21088 12.6736L6.98102 12.4808C6.98235 12.4793 6.94356 12.5201 6.863 12.6043C6.78642 12.6844 6.67823 12.7973 6.549 12.9321C6.29055 13.2016 5.94807 13.5584 5.6063 13.9144C5.26453 14.2704 4.92347 14.6255 4.66786 14.8917C4.54005 15.0247 4.4336 15.1355 4.35911 15.2131C4.32186 15.2519 4.2926 15.2823 4.27266 15.3031C4.26268 15.3135 4.25504 15.3214 4.24988 15.3268C4.24731 15.3295 4.24536 15.3315 4.24405 15.3329C4.24339 15.3336 4.2429 15.3341 4.24257 15.3344C4.24241 15.3346 4.24228 15.3347 4.2422 15.3348C4.24216 15.3349 4.24213 15.3349 4.24211 15.3349C4.24208 15.3349 4.24207 15.3349 4.35025 15.4389ZM4.31429 15.9052C4.31429 15.7722 4.36198 15.6439 4.4588 15.5424L4.2417 15.3353C4.08933 15.4951 4.01429 15.6985 4.01429 15.9052H4.31429ZM4.47699 16.2868C4.36914 16.1844 4.31429 16.0471 4.31429 15.9052H4.01429C4.01429 16.1255 4.10016 16.3427 4.27047 16.5044L4.47699 16.2868ZM4.67999 16.4797L4.47706 16.2868L4.2704 16.5043L4.47332 16.6971L4.67999 16.4797ZM5.0457 16.6239C4.91106 16.6236 4.78165 16.5756 4.67962 16.4793L4.47369 16.6975C4.63397 16.8488 4.83793 16.9235 5.0452 16.9239L5.0457 16.6239ZM7.66084 17.6672C7.55828 17.7745 7.4209 17.8289 7.27688 17.8293L7.27773 18.1293C7.49812 18.1287 7.71521 18.0444 7.87768 17.8745L7.66084 17.6672ZM9.48323 15.7654L7.66096 17.6671L7.87756 17.8746L9.69983 15.973L9.48323 15.7654ZM9.62809 15.4021C9.62765 15.5357 9.57941 15.6644 9.48291 15.7658L9.70014 15.9727C9.85189 15.8134 9.92741 15.6099 9.92809 15.4031L9.62809 15.4021ZM9.46539 15.0216C9.57312 15.1239 9.62769 15.2607 9.62809 15.403L9.92809 15.4022C9.92746 15.1824 9.84234 14.9658 9.67191 14.804L9.46539 15.0216ZM9.26192 14.8286L9.46541 15.0216L9.6719 14.804L9.46841 14.6109L9.26192 14.8286ZM8.89612 14.6843C9.03091 14.6845 9.1602 14.7323 9.26208 14.8287L9.46825 14.6108C9.30782 14.459 9.10374 14.3846 8.89662 14.3843L8.89612 14.6843ZM8.54247 14.8219C8.643 14.7312 8.76758 14.6843 8.89637 14.6843V14.3843C8.69292 14.3843 8.49687 14.459 8.34156 14.5991L8.54247 14.8219ZM6.65414 16.7933L8.55032 14.8142L8.3337 14.6067L6.43751 16.5858L6.65414 16.7933ZM6.54559 17.1107C6.54559 16.9938 6.58515 16.8798 6.66262 16.7837L6.42903 16.5954C6.30916 16.7442 6.24559 16.9244 6.24559 17.1107H6.54559ZM6.7082 17.4918C6.59998 17.3893 6.54559 17.2527 6.54559 17.1107H6.24559C6.24559 17.3309 6.33088 17.5476 6.50185 17.7096L6.7082 17.4918ZM6.91169 17.6847L6.70821 17.4919L6.50185 17.7096L6.70533 17.9024L6.91169 17.6847ZM7.27756 17.8293C7.14294 17.8291 7.01359 17.7811 6.9116 17.6846L6.70543 17.9025C6.86574 18.0542 7.06977 18.1289 7.27706 18.1293L7.27756 17.8293ZM11.2639 17.4582L10.1133 18.659L10.3299 18.8666L11.4805 17.6657L11.2639 17.4582ZM11.4088 17.0948C11.4083 17.2287 11.3604 17.3572 11.2638 17.4583L11.4806 17.6656C11.6332 17.506 11.708 17.3024 11.7088 17.0959L11.4088 17.0948ZM11.2466 16.7144C11.3541 16.8164 11.4084 16.9531 11.4088 17.0958L11.7088 17.0949C11.7081 16.8755 11.6238 16.6587 11.4532 16.4968L11.2466 16.7144ZM11.0432 16.5216L11.2467 16.7144L11.4531 16.4967L11.2496 16.3039L11.0432 16.5216ZM10.6774 16.377C10.8117 16.3772 10.9414 16.4251 11.0432 16.5216L11.2496 16.3039C11.0891 16.1517 10.8844 16.0773 10.6779 16.077L10.6774 16.377ZM10.293 16.5393C10.3963 16.4318 10.5341 16.3772 10.6779 16.377L10.6774 16.077C10.4568 16.0773 10.2395 16.1619 10.0767 16.3314L10.293 16.5393ZM9.14308 17.7399L10.2932 16.5391L10.0765 16.3316L8.92642 17.5324L9.14308 17.7399ZM8.99818 18.103C8.99859 17.9691 9.04648 17.8407 9.14303 17.74L8.92646 17.5324C8.77363 17.6918 8.69881 17.8955 8.69818 18.1021L8.99818 18.103ZM9.16088 18.4838C9.0532 18.3816 8.99859 18.2446 8.99818 18.1021L8.69818 18.103C8.69881 18.3227 8.78389 18.5396 8.95436 18.7014L9.16088 18.4838ZM9.36387 18.6767L9.16095 18.4839L8.95429 18.7013L9.15721 18.8942L9.36387 18.6767ZM9.72959 18.8212C9.59497 18.8209 9.46563 18.773 9.36363 18.6765L9.15746 18.8944C9.31777 19.0461 9.52181 19.1208 9.72909 19.1212L9.72959 18.8212ZM10.1132 18.6591C10.0106 18.7663 9.87295 18.8208 9.72892 18.8212L9.72977 19.1212C9.95004 19.1205 10.1674 19.0364 10.3299 18.8665L10.1132 18.6591ZM23.8587 8.67097L20.6409 12.2291L20.8634 12.4303L24.0812 8.8722L23.8587 8.67097ZM24.0343 8.1733C24.0346 8.36935 23.9645 8.55552 23.8594 8.67026L24.0806 8.87291C24.2438 8.69478 24.3346 8.43254 24.3343 8.17287L24.0343 8.1733ZM23.8932 7.72612C23.9792 7.83544 24.0343 7.99809 24.0343 8.17309H24.3343C24.3343 7.94055 24.2623 7.71001 24.129 7.54062L23.8932 7.72612ZM21.9913 5.29255L23.8929 7.72573L24.1293 7.541L22.2277 5.10781L21.9913 5.29255ZM21.4665 5.0521C21.676 5.05167 21.8803 5.14787 21.9905 5.29149L22.2285 5.10886C22.0546 4.88218 21.7571 4.7515 21.4659 4.7521L21.4665 5.0521ZM21.137 5.14143C21.2294 5.08378 21.3435 5.0521 21.4662 5.0521V4.7521C21.2926 4.7521 21.1225 4.79683 20.9782 4.88693L21.137 5.14143ZM19.2821 6.29537L21.1369 5.14155L20.9784 4.88681L19.1236 6.04064L19.2821 6.29537ZM17.9194 6.64937C18.3905 6.64707 18.8759 6.54485 19.2814 6.29583L19.1244 6.04019C18.7776 6.25316 18.35 6.34726 17.9179 6.34937L17.9194 6.64937ZM16.8433 6.42431C17.1779 6.58497 17.5506 6.64848 17.9183 6.64937L17.919 6.34937C17.5837 6.34856 17.2577 6.29048 16.9732 6.15387L16.8433 6.42431ZM15.0272 5.54457L16.8429 6.42408L16.9736 6.15409L15.1579 5.27457L15.0272 5.54457ZM14.5026 5.44201C14.7117 5.44101 14.9037 5.48361 15.0261 5.54406L15.159 5.27508C14.9852 5.18928 14.7448 5.14085 14.5012 5.14201L14.5026 5.44201ZM13.728 5.64859C13.8886 5.53237 14.1979 5.43974 14.5007 5.442L14.503 5.14201C14.1541 5.1394 13.7772 5.24262 13.5521 5.40558L13.728 5.64859ZM11.496 7.21685L13.7263 5.64982L13.5538 5.40435L11.3236 6.97138L11.496 7.21685ZM11.2816 7.62699C11.2824 7.46881 11.3548 7.31654 11.4963 7.21667L11.3233 6.97157C11.0993 7.12969 10.9829 7.37446 10.9816 7.6254L11.2816 7.62699ZM11.3828 7.92549C11.3138 7.83246 11.2821 7.72944 11.2816 7.62552L10.9816 7.62687C10.9824 7.79351 11.0341 7.9589 11.1418 8.10418L11.3828 7.92549ZM11.5488 8.14899L11.3827 7.92539L11.1419 8.10428L11.308 8.32787L11.5488 8.14899ZM12.0755 8.39799C11.8649 8.3987 11.659 8.2991 11.5493 8.14963L11.3075 8.32723C11.4802 8.56233 11.781 8.69898 12.0765 8.69799L12.0755 8.39799ZM12.3923 8.31415C12.302 8.36844 12.1928 8.39776 12.0757 8.39799L12.0763 8.69799C12.2425 8.69766 12.4059 8.65601 12.5469 8.57127L12.3923 8.31415ZM13.1461 7.86114L12.3923 8.31414L12.5469 8.57128L13.3006 8.11828L13.1461 7.86114ZM14.2712 7.57056C13.8862 7.57169 13.4914 7.65554 13.1466 7.86083L13.3001 8.1186C13.5891 7.94654 13.9284 7.87157 14.2721 7.87055L14.2712 7.57056ZM15.5733 7.95867C15.1891 7.68645 14.724 7.57224 14.2722 7.57056L14.2711 7.87055C14.6756 7.87206 15.0767 7.9745 15.3999 8.20347L15.5733 7.95867ZM17.6603 9.45528L15.574 7.95917L15.3992 8.20297L17.4855 9.69908L17.6603 9.45528ZM19.393 10.869C18.9309 10.4424 18.1716 9.82252 17.6604 9.45535L17.4854 9.69901C17.9865 10.059 18.7364 10.6711 19.1895 11.0894L19.393 10.869ZM20.854 12.2195L19.393 10.8691L19.1894 11.0894L20.6504 12.4398L20.854 12.2195Z" fill="#212121"/>
</svg>
