<svg width="24" height="24" viewBox="0 0 24 24" fill="none" xmlns="http://www.w3.org/2000/svg">
<path d="M11.9248 1.20758C13.8107 1.20758 15.6996 1.74627 17.3873 2.76554C18.4577 3.41367 19.4196 4.22822 20.2367 5.17937L17.4173 5.08578C17.0861 5.07465 16.8088 5.33598 16.7979 5.66938C16.7871 6.0026 17.0466 6.28185 17.3779 6.29261L21.2789 6.42223C21.5029 6.51506 21.7606 6.46318 21.9319 6.29053C22.1031 6.11788 22.1543 5.85863 22.0617 5.63316L21.9333 1.70853C21.9258 1.37513 21.6511 1.11097 21.3198 1.11833C20.9886 1.12588 20.7257 1.4023 20.7332 1.73551C20.7332 1.74004 20.7332 1.74419 20.7336 1.74853L20.8079 4.01274C19.9825 3.12517 19.0392 2.35666 18.0047 1.72966C16.1306 0.598128 14.0282 0 11.9248 0C8.56473 0 5.46681 1.39418 3.20291 3.92557C1.19739 6.16807 0 9.18645 0 11.9999C0 12.3333 0.268503 12.6037 0.600007 12.6037C0.931511 12.6037 1.20001 12.3333 1.20001 11.9999C1.20001 9.47665 2.28209 6.76016 4.09486 4.73351C6.12851 2.46006 8.90898 1.20758 11.9248 1.20758V1.20758Z" fill="#212121"/>
<path d="M23.3998 11.396C23.0683 11.396 22.7998 11.6662 22.7998 11.9998C22.7998 14.5229 21.7178 17.2395 19.905 19.2664C17.8713 21.5398 15.0909 22.7919 12.0751 22.7919C10.1892 22.7919 8.30029 22.2536 6.61258 21.2343C5.54213 20.586 4.58024 19.7715 3.76311 18.8205L6.58258 18.9141C6.91371 18.9249 7.19102 18.6635 7.2019 18.3303C7.21278 17.9971 6.95327 17.718 6.62196 17.7069L2.72097 17.5775C2.49691 17.4846 2.23928 17.5367 2.0679 17.7092C1.89671 17.8818 1.84552 18.1409 1.93815 18.3664L2.06659 22.291C2.07409 22.6246 2.34878 22.8889 2.6801 22.8814C3.01123 22.874 3.2741 22.5976 3.2666 22.2642C3.2666 22.2598 3.2666 22.2557 3.26623 22.2512L3.19198 19.987C4.01736 20.8747 4.96069 21.6428 5.99514 22.2702C7.86922 23.4019 9.97168 23.9999 12.0751 23.9999C15.4351 23.9999 18.533 22.6059 20.7969 20.0745C22.8025 17.8318 23.9998 14.8134 23.9998 11.9998C23.9998 11.6662 23.7313 11.396 23.3998 11.396V11.396Z" fill="#212121"/>
<path d="M10.8669 8.59863H6.33594C6.02327 8.59863 5.76953 8.85249 5.76953 9.16532C5.76953 9.47832 6.02327 9.73201 6.33594 9.73201H8.03516V14.8318C8.03516 15.1448 8.28873 15.3985 8.60157 15.3985C8.91425 15.3985 9.16781 15.1448 9.16781 14.8318V9.73201H10.867C11.1797 9.73201 11.4334 9.47832 11.4334 9.16532C11.4333 8.85232 11.1797 8.59863 10.8669 8.59863Z" fill="#504EF3"/>
<path d="M17.8807 8.64197C17.6689 8.55395 17.425 8.60254 17.2633 8.76475L15.3983 10.6308L13.5333 8.76475C13.3121 8.54357 12.9534 8.54357 12.7323 8.76492C12.626 8.87127 12.5664 9.01532 12.5664 9.16542V14.8319C12.5664 15.1449 12.82 15.3986 13.1328 15.3986C13.4455 15.3986 13.6992 15.1449 13.6992 14.8319V10.5335L14.9978 11.8327C15.2189 12.0538 15.5772 12.054 15.7984 11.833C15.7986 11.8328 15.7986 11.8328 15.7988 11.8327L17.0975 10.5335V14.8319C17.0975 15.1449 17.3511 15.3986 17.6639 15.3986C17.9766 15.3986 18.2301 15.1449 18.2301 14.8319V9.16542C18.2303 8.93629 18.0924 8.72964 17.8807 8.64197V8.64197Z" fill="#504EF3"/>
</svg>
