<svg width="24" height="26" viewBox="0 0 24 26" fill="none" xmlns="http://www.w3.org/2000/svg">
<path d="M3.19922 3.0001C3.19922 2.77918 3.3783 2.6001 3.59922 2.6001H7.19922C7.42013 2.6001 7.59922 2.77918 7.59922 3.0001V3.0001C7.59922 3.22101 7.42013 3.4001 7.19922 3.4001H3.59922C3.37831 3.4001 3.19922 3.22101 3.19922 3.0001V3.0001Z" fill="#212121" stroke="#212121" stroke-width="0.2"/>
<path d="M3.59922 9.7999H7.19922C7.42002 9.7999 7.59922 9.6207 7.59922 9.3999V7.7999C7.59922 7.5791 7.42002 7.3999 7.19922 7.3999H3.59922C3.37842 7.3999 3.19922 7.5791 3.19922 7.7999V9.3999C3.19922 9.6207 3.37842 9.7999 3.59922 9.7999ZM3.99922 8.1999H6.79922V8.9999H3.99922V8.1999Z" fill="#504EF3" stroke="#504EF3" stroke-width="0.2"/>
<path d="M8.80039 9.7999H17.2004C17.4212 9.7999 17.6004 9.6207 17.6004 9.3999V7.7999C17.6004 7.5791 17.4212 7.3999 17.2004 7.3999H8.80039C8.57959 7.3999 8.40039 7.5791 8.40039 7.7999V9.3999C8.40039 9.6207 8.57959 9.7999 8.80039 9.7999ZM9.20039 8.1999H16.8004V8.9999H9.20039V8.1999Z" fill="#504EF3" stroke="#504EF3" stroke-width="0.2"/>
<path d="M3.59922 6.6002H7.19922C7.42002 6.6002 7.59922 6.421 7.59922 6.2002V4.6002C7.59922 4.3794 7.42002 4.2002 7.19922 4.2002H3.59922C3.37842 4.2002 3.19922 4.3794 3.19922 4.6002V6.2002C3.19922 6.421 3.37842 6.6002 3.59922 6.6002ZM3.99922 5.0002H6.79922V5.8002H3.99922V5.0002Z" fill="#504EF3" stroke="#504EF3" stroke-width="0.2"/>
<path d="M8.80039 6.6002H17.2004C17.4212 6.6002 17.6004 6.421 17.6004 6.2002V4.6002C17.6004 4.3794 17.4212 4.2002 17.2004 4.2002H8.80039C8.57959 4.2002 8.40039 4.3794 8.40039 4.6002V6.2002C8.40039 6.421 8.57959 6.6002 8.80039 6.6002ZM9.20039 5.0002H16.8004V5.8002H9.20039V5.0002Z" fill="#504EF3" stroke="#504EF3" stroke-width="0.2"/>
<path d="M3.19922 11.0001C3.19922 10.7792 3.3783 10.6001 3.59922 10.6001H7.59922C7.82013 10.6001 7.99922 10.7792 7.99922 11.0001V11.0001C7.99922 11.221 7.82013 11.4001 7.59922 11.4001H3.59922C3.3783 11.4001 3.19922 11.221 3.19922 11.0001V11.0001Z" fill="#212121" stroke="#212121" stroke-width="0.2"/>
<path d="M21.5068 9.174C20.8168 8.9336 20.0612 9.302 19.822 9.9928L19.518 10.8688L19.1996 11.7892V1.4C19.1996 1.1792 19.0204 1 18.7996 1H1.99961C1.77881 1 1.59961 1.1792 1.59961 1.4V24.6C1.59961 24.8212 1.77881 25 1.99961 25H18.7996C19.0204 25 19.1996 24.8212 19.1996 24.6V19.8988L22.0256 11.7348L22.026 11.7336L22.324 10.8632C22.3748 10.722 22.3996 10.578 22.3996 10.424C22.3996 9.86 22.0404 9.3576 21.5068 9.174ZM20.8444 9.9532C20.9692 9.892 21.1112 9.8836 21.2456 9.9304C21.4572 10.0032 21.5996 10.2016 21.5996 10.424C21.5996 10.4852 21.5908 10.5388 21.5692 10.5984L21.3992 11.0952L20.902 10.924L20.4048 10.7528L20.5776 10.2552C20.624 10.1216 20.7184 10.0144 20.8444 9.9532ZM16.7996 18.7268L16.5668 19.4H3.99961V13H16.7996V18.7268ZM18.3996 24.2H2.39961V1.8H18.3996V14.1008L17.5996 16.4136V12.6C17.5996 12.3792 17.4204 12.2 17.1996 12.2H3.59961C3.37881 12.2 3.19961 12.3792 3.19961 12.6V19.8C3.19961 20.0212 3.37881 20.2 3.59961 20.2H16.2904L15.9892 21.0736C15.9644 21.1452 15.968 21.2172 15.9828 21.286L15.9756 21.2876L16.3464 23.0476C16.3752 23.1852 16.4744 23.2972 16.6072 23.3432C16.6496 23.358 16.694 23.3652 16.738 23.3652C16.8304 23.3652 16.9216 23.3332 16.9948 23.272L18.3736 22.1164L18.37 22.112C18.3796 22.104 18.3908 22.0984 18.3996 22.0896V24.2ZM16.904 21.8124L17.3196 21.956L16.992 22.2304L16.904 21.8124ZM17.8684 21.2992L16.876 20.9564L20.1432 11.5084L21.1388 11.8516L17.8684 21.2992Z" fill="#212121" stroke="#212121" stroke-width="0.2"/>
<path fill-rule="evenodd" clip-rule="evenodd" d="M21.5064 9.17416C20.8164 8.93376 20.0608 9.30216 19.8216 9.99296L19.5176 10.869L19.1992 11.7894L18.3992 14.101L17.5992 16.4138L16.7992 18.727L16.5664 19.4002L16.29 20.2002L15.9888 21.0738C15.964 21.1454 15.9676 21.2174 15.9824 21.2862L15.9752 21.2878L16.346 23.0478C16.3748 23.1854 16.474 23.2974 16.6068 23.3434C16.6492 23.3582 16.6936 23.3654 16.7376 23.3654C16.83 23.3654 16.9212 23.3334 16.9944 23.2722L18.3732 22.1166L18.3696 22.1122C18.3736 22.1088 18.3779 22.1059 18.3822 22.1029C18.3881 22.0989 18.3941 22.0949 18.3992 22.0898L19.1992 19.899L22.0252 11.735L22.0256 11.7338L22.3236 10.8634C22.3744 10.7222 22.3992 10.5782 22.3992 10.4242C22.3992 9.86016 22.04 9.35776 21.5064 9.17416ZM21.2451 9.93058C21.1107 9.88378 20.9687 9.89218 20.8439 9.95338C20.7179 10.0146 20.6235 10.1218 20.5771 10.2554L20.4043 10.753L21.3987 11.0954L21.5687 10.5986C21.5903 10.539 21.5991 10.4854 21.5991 10.4242C21.5991 10.2018 21.4567 10.0034 21.2451 9.93058ZM16.9915 22.2306L17.3191 21.9562L16.9035 21.8126L16.9915 22.2306ZM17.8679 21.2994L16.8755 20.9566L20.1427 11.5086L21.1383 11.8518L17.8679 21.2994Z" fill="#504EF3"/>
<path d="M19.8216 9.99296L19.916 10.0257L19.9161 10.0257L19.8216 9.99296ZM21.5064 9.17416L21.4735 9.26859L21.4738 9.26871L21.5064 9.17416ZM19.5176 10.869L19.4231 10.8362L19.4231 10.8363L19.5176 10.869ZM19.1992 11.7894L19.2937 11.8221L19.2937 11.822L19.1992 11.7894ZM18.3992 14.101L18.3047 14.0683L18.3047 14.0683L18.3992 14.101ZM17.5992 16.4138L17.5047 16.3811L17.5047 16.3811L17.5992 16.4138ZM16.7992 18.727L16.7047 18.6943L16.7047 18.6943L16.7992 18.727ZM16.5664 19.4002L16.4719 19.3675L16.4719 19.3675L16.5664 19.4002ZM16.29 20.2002L16.1955 20.1675L16.1954 20.1676L16.29 20.2002ZM15.9888 21.0738L16.0833 21.1065L16.0833 21.1064L15.9888 21.0738ZM15.9824 21.2862L16.0041 21.3838L16.101 21.3622L16.0801 21.2651L15.9824 21.2862ZM15.9752 21.2878L15.9535 21.1901L15.8569 21.2116L15.8773 21.3084L15.9752 21.2878ZM16.346 23.0478L16.4439 23.0273L16.4438 23.0271L16.346 23.0478ZM16.6068 23.3434L16.6397 23.2489L16.6395 23.2489L16.6068 23.3434ZM16.9944 23.2722L17.0585 23.3489L17.0586 23.3488L16.9944 23.2722ZM18.3732 22.1166L18.4374 22.1932L18.5132 22.1297L18.4506 22.0532L18.3732 22.1166ZM18.3696 22.1122L18.3055 22.0353L18.2294 22.0988L18.2922 22.1755L18.3696 22.1122ZM18.3822 22.1029L18.4385 22.1856L18.4385 22.1856L18.3822 22.1029ZM18.3992 22.0898L18.4699 22.1605L18.4855 22.1448L18.4931 22.1241L18.3992 22.0898ZM19.1992 19.899L19.2931 19.9333L19.2937 19.9317L19.1992 19.899ZM22.0252 11.735L22.1197 11.7677L22.12 11.7667L22.0252 11.735ZM22.0256 11.7338L21.931 11.7014L21.9308 11.702L22.0256 11.7338ZM22.3236 10.8634L22.2295 10.8295L22.229 10.831L22.3236 10.8634ZM20.8439 9.95338L20.8876 10.0433L20.8879 10.0432L20.8439 9.95338ZM21.2451 9.93058L21.2122 10.025L21.2126 10.0251L21.2451 9.93058ZM20.5771 10.2554L20.4826 10.2226L20.4826 10.2226L20.5771 10.2554ZM20.4043 10.753L20.3098 10.7202L20.2769 10.8149L20.3717 10.8475L20.4043 10.753ZM21.3987 11.0954L21.3661 11.1899L21.4609 11.2226L21.4933 11.1278L21.3987 11.0954ZM21.5687 10.5986L21.4747 10.5645L21.4741 10.5662L21.5687 10.5986ZM17.3191 21.9562L17.3833 22.0328L17.5188 21.9194L17.3517 21.8617L17.3191 21.9562ZM16.9915 22.2306L16.8936 22.2512L16.928 22.4142L17.0557 22.3072L16.9915 22.2306ZM16.9035 21.8126L16.9361 21.7181L16.7693 21.6604L16.8056 21.8332L16.9035 21.8126ZM16.8755 20.9566L16.781 20.9239L16.7483 21.0184L16.8428 21.0511L16.8755 20.9566ZM17.8679 21.2994L17.8352 21.3939L17.9297 21.4265L17.9624 21.3321L17.8679 21.2994ZM20.1427 11.5086L20.1753 11.414L20.0808 11.3815L20.0482 11.4759L20.1427 11.5086ZM21.1383 11.8518L21.2328 11.8845L21.2655 11.7899L21.1709 11.7572L21.1383 11.8518ZM19.9161 10.0257C20.1373 9.38684 20.836 9.04649 21.4735 9.26859L21.5393 9.07972C20.7968 8.82102 19.9843 9.21748 19.7271 9.96024L19.9161 10.0257ZM19.612 10.9017L19.916 10.0257L19.7271 9.96017L19.4231 10.8362L19.612 10.9017ZM19.2937 11.822L19.6121 10.9016L19.4231 10.8363L19.1047 11.7567L19.2937 11.822ZM18.4937 14.1337L19.2937 11.8221L19.1047 11.7567L18.3047 14.0683L18.4937 14.1337ZM17.6937 16.4464L18.4937 14.1336L18.3047 14.0683L17.5047 16.3811L17.6937 16.4464ZM16.8937 18.7596L17.6937 16.4464L17.5047 16.3811L16.7047 18.6943L16.8937 18.7596ZM16.6609 19.4328L16.8937 18.7596L16.7047 18.6943L16.4719 19.3675L16.6609 19.4328ZM16.3845 20.2328L16.6609 19.4328L16.4719 19.3675L16.1955 20.1675L16.3845 20.2328ZM16.0833 21.1064L16.3845 20.2328L16.1954 20.1676L15.8942 21.0412L16.0833 21.1064ZM16.0801 21.2651C16.0676 21.2067 16.0665 21.1547 16.0833 21.1065L15.8943 21.041C15.8614 21.136 15.8676 21.228 15.8846 21.3072L16.0801 21.2651ZM15.9969 21.3854L16.0041 21.3838L15.9607 21.1885L15.9535 21.1901L15.9969 21.3854ZM16.4438 23.0271L16.073 21.2671L15.8773 21.3084L16.2481 23.0684L16.4438 23.0271ZM16.6395 23.2489C16.5397 23.2143 16.4654 23.1302 16.4439 23.0273L16.2481 23.0682C16.2841 23.2405 16.4083 23.3804 16.574 23.4378L16.6395 23.2489ZM16.7376 23.2654C16.7044 23.2654 16.6712 23.2599 16.6397 23.2489L16.5738 23.4378C16.6272 23.4564 16.6827 23.4654 16.7376 23.4654V23.2654ZM16.9302 23.1954C16.8753 23.2413 16.8069 23.2654 16.7376 23.2654V23.4654C16.853 23.4654 16.967 23.4254 17.0585 23.3489L16.9302 23.1954ZM18.3089 22.0399L16.9301 23.1955L17.0586 23.3488L18.4374 22.1932L18.3089 22.0399ZM18.2922 22.1755L18.2958 22.1799L18.4506 22.0532L18.447 22.0488L18.2922 22.1755ZM18.3259 22.0203C18.3223 22.0228 18.3139 22.0284 18.3055 22.0353L18.4336 22.189C18.4333 22.1892 18.4335 22.189 18.4385 22.1856L18.3259 22.0203ZM18.3285 22.019C18.3302 22.0173 18.3313 22.0165 18.3309 22.0168C18.3302 22.0173 18.3292 22.018 18.3259 22.0203L18.4385 22.1856C18.4431 22.1824 18.457 22.1733 18.4699 22.1605L18.3285 22.019ZM19.1052 19.8647L18.3052 22.0555L18.4931 22.1241L19.2931 19.9333L19.1052 19.8647ZM21.9307 11.7022L19.1047 19.8662L19.2937 19.9317L22.1197 11.7677L21.9307 11.7022ZM21.9308 11.702L21.9304 11.7032L22.12 11.7667L22.1204 11.7655L21.9308 11.702ZM22.229 10.831L21.931 11.7014L22.1202 11.7661L22.4182 10.8957L22.229 10.831ZM22.2992 10.4242C22.2992 10.5669 22.2763 10.6994 22.2295 10.8295L22.4177 10.8972C22.4725 10.7449 22.4992 10.5894 22.4992 10.4242H22.2992ZM21.4738 9.26871C21.9672 9.43846 22.2992 9.90295 22.2992 10.4242H22.4992C22.4992 9.81736 22.1128 9.27705 21.5389 9.0796L21.4738 9.26871ZM20.8879 10.0432C20.9883 9.99392 21.1026 9.98686 21.2122 10.025L21.278 9.83614C21.1188 9.7807 20.949 9.79044 20.7999 9.86359L20.8879 10.0432ZM20.6716 10.2882C20.7094 10.1792 20.7858 10.0928 20.8876 10.0433L20.8002 9.86343C20.65 9.93641 20.5376 10.0644 20.4826 10.2226L20.6716 10.2882ZM20.4988 10.7858L20.6716 10.2882L20.4826 10.2226L20.3098 10.7202L20.4988 10.7858ZM21.4312 11.0008L20.4368 10.6584L20.3717 10.8475L21.3661 11.1899L21.4312 11.0008ZM21.4741 10.5662L21.3041 11.063L21.4933 11.1278L21.6633 10.631L21.4741 10.5662ZM21.4991 10.4242C21.4991 10.4743 21.4921 10.5163 21.4747 10.5645L21.6627 10.6327C21.6884 10.5617 21.6991 10.4965 21.6991 10.4242H21.4991ZM21.2126 10.0251C21.3842 10.0842 21.4991 10.2449 21.4991 10.4242H21.6991C21.6991 10.1587 21.5292 9.92257 21.2776 9.83602L21.2126 10.0251ZM17.2549 21.8795L16.9273 22.1539L17.0557 22.3072L17.3833 22.0328L17.2549 21.8795ZM16.8708 21.9071L17.2864 22.0507L17.3517 21.8617L16.9361 21.7181L16.8708 21.9071ZM17.0893 22.21L17.0013 21.792L16.8056 21.8332L16.8936 22.2512L17.0893 22.21ZM16.8428 21.0511L17.8352 21.3939L17.9005 21.2049L16.9081 20.8621L16.8428 21.0511ZM20.0482 11.4759L16.781 20.9239L16.97 20.9893L20.2372 11.5413L20.0482 11.4759ZM21.1709 11.7572L20.1753 11.414L20.1101 11.6031L21.1057 11.9463L21.1709 11.7572ZM17.9624 21.3321L21.2328 11.8845L21.0438 11.8191L17.7734 21.2667L17.9624 21.3321Z" fill="#504EF3"/>
<path d="M3.19922 21.4C3.19922 21.1791 3.3783 21 3.59922 21H11.5992C11.8201 21 11.9992 21.1791 11.9992 21.4V21.4C11.9992 21.6209 11.8201 21.8 11.5992 21.8H3.59922C3.37831 21.8 3.19922 21.6209 3.19922 21.4V21.4Z" fill="#212121" stroke="#212121" stroke-width="0.2"/>
</svg>
