<svg width="26" height="26" viewBox="0 0 26 26" fill="none" xmlns="http://www.w3.org/2000/svg">
<path d="M13.7136 5.03075C13.9315 5.2487 13.9315 5.602 13.7136 5.81996C13.6045 5.92907 13.4619 5.98349 13.319 5.98349C13.1761 5.98349 13.0335 5.92907 12.9244 5.81996C10.9653 3.86117 7.7789 3.86117 5.82011 5.81996C5.60215 6.03791 5.24885 6.03791 5.0309 5.81996C4.81294 5.602 4.81294 5.2487 5.0309 5.03075C7.42448 2.63689 11.3197 2.63689 13.7136 5.03075Z" fill="#504EF3"/>
<path d="M25 22.7674C25 23.3638 24.7678 23.9245 24.3459 24.3459C23.9245 24.7678 23.3638 25 22.7674 25C22.1711 25 21.6104 24.7678 21.189 24.3459L15.3286 18.4854C15.1106 18.2674 15.1106 17.9141 15.3286 17.6962L16.1178 16.907L14.8801 15.6693C13.4066 16.9594 11.4799 17.7442 9.37209 17.7442C4.75572 17.7442 1 13.9885 1 9.37209C1 4.75572 4.75572 1 9.37209 1C13.9885 1 17.7442 4.75572 17.7442 9.37209C17.7442 11.4799 16.9594 13.4066 15.6693 14.8801L16.907 16.1178L17.6962 15.3286C17.9141 15.1106 18.2674 15.1106 18.4854 15.3286L24.3459 21.189C24.7678 21.6104 25 22.1711 25 22.7674ZM16.6279 9.37209C16.6279 5.37135 13.3731 2.11628 9.37209 2.11628C5.37107 2.11628 2.11628 5.37135 2.11628 9.37209C2.11628 13.3728 5.37107 16.6279 9.37209 16.6279C13.3731 16.6279 16.6279 13.3728 16.6279 9.37209ZM23.8837 22.7674C23.8837 22.4694 23.7676 22.1892 23.5567 21.9782L18.0908 16.5124L16.5124 18.0908L21.9782 23.5567C22.4002 23.9786 23.135 23.9786 23.5567 23.5567C23.7676 23.3457 23.8837 23.0655 23.8837 22.7674Z" fill="#212121" stroke="#212121" stroke-width="0.2"/>
</svg>
