<svg width="20" height="20" viewBox="0 0 20 20" fill="none" xmlns="http://www.w3.org/2000/svg">
<path d="M8.97695 0C4.02993 0 0.00012207 4.02842 0.00012207 8.97378C0.00012207 13.9191 4.02993 17.9554 8.97695 17.9554C11.09 17.9554 13.0333 17.2151 14.5692 15.9861L18.3084 19.722C18.4971 19.9029 18.7491 20.0026 19.0105 19.9999C19.2719 19.9973 19.5218 19.8924 19.7068 19.7078C19.8917 19.5231 19.997 19.2735 20.0001 19.0122C20.0031 18.7509 19.9036 18.4988 19.723 18.3099L15.9838 14.572C17.2143 13.0343 17.9557 11.0885 17.9557 8.97378C17.9557 4.02842 13.924 0 8.97695 0ZM8.97695 1.99463C12.8456 1.99463 15.9585 5.10641 15.9585 8.97378C15.9585 12.8412 12.8456 15.9608 8.97695 15.9608C5.10826 15.9608 1.99541 12.8412 1.99541 8.97378C1.99541 5.10641 5.10826 1.99463 8.97695 1.99463Z" fill="#504EF3"/>
</svg>
