<svg width="24" height="24" viewBox="0 0 24 24" fill="none" xmlns="http://www.w3.org/2000/svg">
<path d="M21.5427 7.10486C21.5573 7.31644 21.5573 7.52801 21.5573 7.74154C21.5573 14.2478 16.6043 21.7515 7.54735 21.7515V21.7476C4.87191 21.7515 2.25204 20.9852 -0.000244141 19.5402C0.388787 19.587 0.779768 19.6104 1.17172 19.6114C3.38891 19.6133 5.54272 18.8694 7.28702 17.4995C5.18001 17.4595 3.33236 16.0857 2.6869 14.0801C3.42498 14.2225 4.1855 14.1932 4.90993 13.9953C2.6128 13.5312 0.960146 11.5129 0.960146 9.16896C0.960146 9.14751 0.960146 9.12704 0.960146 9.10656C1.64461 9.48779 2.41097 9.69937 3.19488 9.72277C1.03132 8.27682 0.364412 5.39858 1.67093 3.14824C4.17087 6.22442 7.85935 8.0945 11.8189 8.29243C11.4221 6.58225 11.9642 4.79017 13.2434 3.58798C15.2266 1.72375 18.3456 1.8193 20.2099 3.80151C21.3126 3.58408 22.3695 3.17945 23.3367 2.60614C22.9692 3.74593 22.1999 4.71412 21.1722 5.32935C22.1482 5.2143 23.1018 4.953 23.9998 4.55422C23.3387 5.54483 22.506 6.40772 21.5427 7.10486Z" fill="#1D9BF0"/>
</svg>
