<svg width="26" height="24" viewBox="0 0 26 24" fill="none" xmlns="http://www.w3.org/2000/svg">
<path d="M14.1999 16.3999H11.7999C11.5791 16.3999 11.3999 16.5791 11.3999 16.7999C11.3999 17.0207 11.5791 17.1999 11.7999 17.1999H14.1999C14.4207 17.1999 14.5999 17.0207 14.5999 16.7999C14.5999 16.5791 14.4207 16.3999 14.1999 16.3999Z" fill="#212121"/>
<path fill-rule="evenodd" clip-rule="evenodd" d="M2.60031 0.299805C1.66266 0.299805 0.899902 1.06261 0.899902 2.00021V17.1993C0.899902 18.1369 1.66266 18.8997 2.60031 18.8997H10.482C10.4261 19.6317 10.2422 20.1727 9.94337 20.5334C9.63371 20.9072 9.1903 21.0997 8.60008 21.0997L8.59084 21.0999H7.8C7.08318 21.0999 6.5 21.683 6.5 22.3999C6.5 23.1167 7.08318 23.6999 7.8 23.6999H18.2C18.9168 23.6999 19.5 23.1167 19.5 22.3999C19.5 21.683 18.9168 21.0999 18.2 21.0999H17.4093L17.4001 21.0997C16.8099 21.0997 16.3664 20.9072 16.0568 20.5334C15.758 20.1727 15.574 19.6317 15.5182 18.8997H23.3995C24.3371 18.8997 25.0999 18.1369 25.0999 17.1993L25.0999 15.1989L25.0999 15.1932V2.00022C25.0999 1.06261 24.3371 0.299805 23.3995 0.299805H2.60031ZM1.89992 2.00021C1.89992 1.61386 2.21432 1.29982 2.60031 1.29982H23.3995C23.7855 1.29982 24.0999 1.61386 24.0999 2.00021V14.6997H23.5V2.39976C23.5 2.12375 23.276 1.89978 23 1.89978H2.99998C2.72397 1.89978 2.5 2.12375 2.5 2.39976V14.6997H1.89992V2.00021ZM3.49997 14.6997V2.89975H22.5V14.6997H3.49997ZM24.0999 15.6998V17.0993L24.0999 17.1993C24.0999 17.5857 23.7855 17.8997 23.3995 17.8997H2.60031C2.21432 17.8997 1.89992 17.5857 1.89992 17.1993V15.6998H24.0999ZM10.7612 21.0997C11.1744 20.5582 11.4189 19.8136 11.4831 18.8998H14.5173C14.5812 19.8136 14.8257 20.5582 15.2391 21.0997H10.7612ZM7.50002 22.3999C7.50002 22.2346 7.63451 22.0999 7.8 22.0999H18.2C18.3655 22.0999 18.5 22.2346 18.5 22.3999C18.5 22.5651 18.3655 22.6998 18.2 22.6998H7.8C7.63451 22.6998 7.50002 22.5651 7.50002 22.3999Z" fill="#212121"/>
<path d="M20.1134 12.1855L19.1478 11.2199L19.685 10.6827C19.7846 10.5831 19.8246 10.4383 19.7902 10.3019C19.7558 10.1655 19.6522 10.0575 19.5174 10.0167L15.5174 8.81672C15.3762 8.77429 15.2238 8.81311 15.1198 8.91712C15.0154 9.02114 14.977 9.1739 15.0194 9.31472L16.2194 13.3147C16.2598 13.4499 16.3682 13.5535 16.5046 13.5879C16.6406 13.6215 16.7858 13.5823 16.8854 13.4827L17.451 12.9167L18.4166 13.8827C18.4914 13.9579 18.5934 13.9999 18.6994 13.9999C18.8053 13.9999 18.9073 13.9579 18.9822 13.8827L20.1133 12.7511C20.2698 12.5947 20.2698 12.3419 20.1134 12.1855ZM18.6994 13.0343L17.8202 12.1547C17.7182 12.0527 17.5846 12.0019 17.451 12.0019C17.317 12.0019 17.1834 12.0531 17.0818 12.1543L16.793 12.4431L15.999 9.79626L18.6458 10.5903L18.3362 10.8999C18.251 10.9855 18.2042 11.0991 18.2042 11.2199C18.2042 11.3411 18.2514 11.4555 18.337 11.5403L19.265 12.4683L18.6994 13.0343Z" fill="#504EF3"/>
<path d="M17.8002 3.59961H6.60018C6.3794 3.59961 6.2002 3.77881 6.2002 3.99959V5.99961C6.2002 6.22039 6.3794 6.39959 6.60018 6.39959H17.8002C18.0209 6.39959 18.2001 6.22039 18.2001 5.99961V3.99959C18.2001 3.77881 18.0209 3.59961 17.8002 3.59961ZM17.4002 5.59962H7.00016V4.39962H17.4002V5.59962V5.59962Z" fill="#504EF3"/>
<path d="M11.3998 8H8.19979C7.97901 8 7.7998 8.1792 7.7998 8.39998V9.99997C7.7998 10.2207 7.97901 10.4 8.19979 10.4H11.3998C11.6206 10.4 11.7998 10.2207 11.7998 9.99997V8.39998C11.7998 8.1792 11.6206 8 11.3998 8ZM10.9998 9.59998H8.59977V8.79997H10.9998V9.59998V9.59998Z" fill="#504EF3"/>
<path d="M17.8002 3.59961H6.60018C6.3794 3.59961 6.2002 3.77881 6.2002 3.99959V11.5996C6.2002 11.8204 6.3794 11.9996 6.60018 11.9996H16.1226C16.2494 11.9996 16.3682 11.94 16.4434 11.8384C16.519 11.7368 16.5422 11.6056 16.5058 11.4844L15.9994 9.79597L17.6854 10.302C17.8066 10.3384 17.9378 10.3152 18.039 10.2396C18.1406 10.1644 18.2002 10.0452 18.2002 9.91878V3.99959C18.2001 3.77881 18.0209 3.59961 17.8002 3.59961ZM17.4002 9.38122L15.5174 8.81642C15.3762 8.774 15.2238 8.81281 15.1198 8.91683C15.0154 9.02122 14.977 9.17361 15.0194 9.31484L15.5849 11.1996H7.00016V4.39962H17.4002V9.38122V9.38122Z" fill="#504EF3"/>
</svg>
