<svg width="24" height="24" viewBox="0 0 24 24" fill="none" xmlns="http://www.w3.org/2000/svg">
<path d="M12.9999 17.9999C12.9999 18.5522 12.5522 18.9999 11.9999 18.9999C11.4477 18.9999 11 18.5522 11 17.9999C11 17.4477 11.4477 17 11.9999 17C12.5522 17 12.9999 17.4477 12.9999 17.9999Z" fill="#504EF3"/>
<path d="M12 14.9999C11.586 14.9999 11.25 14.6639 11.25 14.2499V5.75C11.25 5.336 11.586 5 12 5C12.414 5 12.75 5.336 12.75 5.75V14.2499C12.75 14.6639 12.414 14.9999 12 14.9999Z" fill="#504EF3"/>
<path d="M12 24C5.38293 24 0 18.6171 0 12C0 5.38293 5.38293 0 12 0C18.6171 0 24 5.38293 24 12C24 18.6171 18.6171 24 12 24ZM12 1.5C6.21002 1.5 1.5 6.21002 1.5 12C1.5 17.79 6.21002 22.5 12 22.5C17.79 22.5 22.5 17.79 22.5 12C22.5 6.21002 17.79 1.5 12 1.5Z" fill="#212121"/>
</svg>
