<svg width="24" height="24" viewBox="0 0 24 24" fill="none" xmlns="http://www.w3.org/2000/svg">
<path d="M23.4978 6.22374C23.2213 5.19048 22.4092 4.3785 21.3759 4.10191C19.5051 3.6001 11.9996 3.6001 11.9996 3.6001C11.9996 3.6001 4.4942 3.6001 2.62327 4.10191C1.59002 4.3785 0.778033 5.19048 0.501445 6.22374C-0.000366061 8.09466 -0.000366211 12.0005 -0.000366211 12.0005C-0.000366211 12.0005 -0.000366061 15.9063 0.501445 17.7773C0.778033 18.8105 1.59002 19.6225 2.62327 19.899C4.4942 20.4009 11.9996 20.4009 11.9996 20.4009C11.9996 20.4009 19.5051 20.4009 21.3759 19.899C22.4092 19.6225 23.2213 18.8105 23.4978 17.7773C23.9996 15.9063 23.9996 12.0005 23.9996 12.0005C23.9996 12.0005 23.9976 8.09466 23.4978 6.22374Z" fill="#FF0000"/>
<path d="M9.59729 15.6006L15.8324 12.001L9.59729 8.40137V15.6006Z" fill="white"/>
</svg>
